<svg xmlns="http://www.w3.org/2000/svg" xmlns:xlink="http://www.w3.org/1999/xlink" width="100" height="45" viewBox="0 0 100 45">
  <defs>
    <clipPath id="clip-path">
      <rect id="Rect치ngulo_36948" data-name="Rect치ngulo 36948" width="100" height="45" transform="translate(0)" fill="#362b9e" stroke="#707070" stroke-width="1"/>
    </clipPath>
  </defs>
  <g id="Grupo_952987" data-name="Grupo 952987" transform="translate(0)" clip-path="url(#clip-path)">
    <g id="Grupo_952986" data-name="Grupo 952986" transform="translate(2 -61)">
      <path id="Sustracci칩n_22" data-name="Sustracci칩n 22" d="M48.5,0a48.858,48.858,0,0,0-9.774.985,48.234,48.234,0,0,0-17.342,7.3A48.642,48.642,0,0,0,3.811,29.622a48.257,48.257,0,0,0-2.826,9.1,48.973,48.973,0,0,0,0,19.549,48.235,48.235,0,0,0,7.3,17.342A48.642,48.642,0,0,0,29.622,93.189a48.257,48.257,0,0,0,9.1,2.826,48.973,48.973,0,0,0,19.549,0,48.235,48.235,0,0,0,17.342-7.3A48.642,48.642,0,0,0,93.189,67.378a48.258,48.258,0,0,0,2.826-9.1,48.973,48.973,0,0,0,0-19.549,48.234,48.234,0,0,0-7.3-17.342A48.641,48.641,0,0,0,67.378,3.811a48.257,48.257,0,0,0-9.1-2.826A48.858,48.858,0,0,0,48.5,0Zm-.181,73.983a25.489,25.489,0,0,1-5.1-.514,25.164,25.164,0,0,1-9.047-3.807,25.377,25.377,0,0,1-9.167-11.132,25.174,25.174,0,0,1-1.474-4.75,25.549,25.549,0,0,1,0-10.2,25.163,25.163,0,0,1,3.807-9.047,25.376,25.376,0,0,1,11.132-9.167,25.174,25.174,0,0,1,4.75-1.474,25.549,25.549,0,0,1,10.2,0A25.164,25.164,0,0,1,62.466,27.7a25.376,25.376,0,0,1,9.167,11.132,25.174,25.174,0,0,1,1.474,4.75,25.549,25.549,0,0,1,0,10.2A25.164,25.164,0,0,1,69.3,62.827a25.376,25.376,0,0,1-11.132,9.167,25.173,25.173,0,0,1-4.75,1.474A25.489,25.489,0,0,1,48.319,73.983Z" fill="#362b9e"/>
    </g>
  </g>
</svg>
