<svg xmlns="http://www.w3.org/2000/svg" xmlns:xlink="http://www.w3.org/1999/xlink" width="265.848" height="234.488" viewBox="0 0 265.848 234.488">
  <defs>
    <clipPath id="clip-path">
      <rect id="Rectángulo_347203" data-name="Rectángulo 347203" width="256.999" height="232.033" fill="none"/>
    </clipPath>
    <clipPath id="clip-path-5">
      <rect id="Rectángulo_347168" data-name="Rectángulo 347168" width="7.634" height="2.51" fill="none"/>
    </clipPath>
    <clipPath id="clip-path-10">
      <rect id="Rectángulo_347173" data-name="Rectángulo 347173" width="12.375" height="7.876" fill="none"/>
    </clipPath>
    <clipPath id="clip-path-11">
      <rect id="Rectángulo_347174" data-name="Rectángulo 347174" width="8.202" height="13.677" fill="none"/>
    </clipPath>
    <clipPath id="clip-path-12">
      <path id="Trazado_724362" data-name="Trazado 724362" d="M181.759,274.436c-.082.031-.163.063-.239.094-.865.364-1.625.715-2.252,1.048a.93.93,0,0,1-.082.05,15.255,15.255,0,0,0-1.7,1.1v.006a12.6,12.6,0,0,0-4.456,5.862c-2.278,6.251-2.473,31.293-2.473,31.293s-.565-.6-4.368,1.55V325.7s6.257.477,9.477-.3l-.257,6.941h53.874c.6-4.2,1.13-8.065,1.594-11.636,4.557-11.41,7.18-30.577,6.7-34.431-.835-6.759-10.625-11.435-11.824-11.95a53.6,53.6,0,0,0-21.1-4.123,63.346,63.346,0,0,0-22.893,4.236" transform="translate(-166.188 -270.2)" fill="none"/>
    </clipPath>
    <clipPath id="clip-path-13">
      <rect id="Rectángulo_347176" data-name="Rectángulo 347176" width="11.667" height="24.935" fill="none"/>
    </clipPath>
    <clipPath id="clip-path-14">
      <rect id="Rectángulo_347177" data-name="Rectángulo 347177" width="56.749" height="15.113" fill="none"/>
    </clipPath>
    <clipPath id="clip-path-15">
      <rect id="Rectángulo_347178" data-name="Rectángulo 347178" width="10.86" height="37.201" fill="none"/>
    </clipPath>
    <clipPath id="clip-path-18">
      <path id="Trazado_724389" data-name="Trazado 724389" d="M211.727,254.428l-.7,10.155c-.825.1-1.61.218-2.377.337l3.2,7.671,6.255.821,10-9.22c-.811-.061-1.615-.113-2.4-.151l-.9-12.644Z" transform="translate(-208.652 -251.399)" fill="none"/>
    </clipPath>
    <clipPath id="clip-path-22">
      <path id="Trazado_724424" data-name="Trazado 724424" d="M325.507,256.7l-5.612,4.854.263,1.16a25.268,25.268,0,0,1,.465,8.465,28.247,28.247,0,0,0,15.121-.119c-5.495-9.159-4.629-19.807-4.629-19.807Z" transform="translate(-319.895 -251.255)" fill="none"/>
    </clipPath>
    <clipPath id="clip-path-24">
      <path id="Trazado_724447" data-name="Trazado 724447" d="M284.522,294.165c-1.545,6.082-3.572,27.307-3.572,27.307l-4.882,1.036s.722,6.966-.321,9.709c0,0,8.366,2.523,13.161.9a25.49,25.49,0,0,0-.728,3.759h43.042q.472-2.758.886-5.316c.577-.4,11.241-31.255,9.227-39.853-2.159-9.22-16.067-8.956-16.067-8.956-3.674-.254-7.033-.372-10.1-.372-22.116,0-29.2,6.122-30.641,11.788" transform="translate(-275.747 -282.377)" fill="none"/>
    </clipPath>
    <clipPath id="clip-path-25">
      <rect id="Rectángulo_347191" data-name="Rectángulo 347191" width="11.817" height="32.153" fill="none"/>
    </clipPath>
    <clipPath id="clip-path-26">
      <rect id="Rectángulo_347192" data-name="Rectángulo 347192" width="43.928" height="42.144" fill="none"/>
    </clipPath>
    <clipPath id="clip-path-30">
      <path id="Trazado_724501" data-name="Trazado 724501" d="M51.021,263.684a2.317,2.317,0,0,0-2.347,2.675l5.711,46.508a3.112,3.112,0,0,0,3,2.675H123.2a2.316,2.316,0,0,0,2.346-2.675l-5.711-46.508a3.112,3.112,0,0,0-3-2.675Z" transform="translate(-48.654 -263.684)" fill="none"/>
    </clipPath>
    <clipPath id="clip-path-31">
      <rect id="Rectángulo_347200" data-name="Rectángulo 347200" width="76.912" height="51.857" fill="none"/>
    </clipPath>
  </defs>
  <g id="Grupo_1012735" data-name="Grupo 1012735" transform="translate(3920.544 10472.517)">
    <g id="Grupo_1012724" data-name="Grupo 1012724" transform="translate(-5024 -11347)">
      <path id="Trazado_724085" data-name="Trazado 724085" d="M251.924,80.5c14.239-38.224-31.58-39.674-57.482-38.92-8.9.259-12.3-.789-27.543,2.606-33.095,7.368-41.877,6.136-72.844-17.252-21.852-16.5-73.931-25.19-57.294,30.4,7.859,26.261,11.351,59.772-13.654,67.917S-9.666,174.763,15.212,189s56.925-4.405,84.308,18.477,43.963-26.665,91.52-15.913,66.568-9.27,71.8-40.371c3.372-20.057-18.967-49.066-10.912-70.69" transform="translate(1103.456 895.391)" fill="#b7d9fc" opacity="0.82"/>
      <path id="Trazado_724086" data-name="Trazado 724086" d="M211.208,69.824c11.938-32.047-26.476-33.262-48.191-32.63-7.46.217-10.31-.661-23.092,2.185-27.746,6.177-35.109,5.144-61.071-14.464C60.534,11.079,16.872,3.8,30.82,50.4c6.589,22.017,9.517,50.112-11.447,56.94s-27.477,41.51-6.62,53.443,47.724-3.693,70.682,15.49,36.857-22.355,76.728-13.341,55.809-7.772,60.192-33.846c2.827-16.815-15.9-41.136-9.148-59.265" transform="translate(1124.711 912.601)" fill="#75b2f5" opacity="0.82"/>
    </g>
    <g id="Grupo_1012579" data-name="Grupo 1012579" transform="translate(-3911.695 -10472.517)">
      <g id="Grupo_1012682" data-name="Grupo 1012682" clip-path="url(#clip-path)">
        <g id="Grupo_1012585" data-name="Grupo 1012585">
          <g id="Grupo_1012584" data-name="Grupo 1012584" clip-path="url(#clip-path)">
            <path id="Trazado_724305" data-name="Trazado 724305" d="M340.072,113.813a13.771,13.771,0,0,0,6.92-4l4.425,1.5,2.207-3.823-3.505-3.08a13.822,13.822,0,0,0,0-7.994l3.505-3.084L351.417,89.5,346.992,91a13.747,13.747,0,0,0-6.92-4l-.919-4.577h-2.207" transform="translate(-125.475 -30.693)" fill="none" stroke="#263238" stroke-miterlimit="10" stroke-width="1"/>
            <path id="Trazado_724306" data-name="Trazado 724306" d="M324.844,82.422,323.929,87a13.754,13.754,0,0,0-6.924,4l-4.424-1.5-2.207,3.823,3.505,3.083a13.825,13.825,0,0,0,0,8l-3.505,3.08,2.207,3.823,4.424-1.5a13.791,13.791,0,0,0,6.924,4l.915,4.577h4.415l.918-4.577" transform="translate(-115.58 -30.693)" fill="none" stroke="#263238" stroke-miterlimit="10" stroke-width="1"/>
            <path id="Trazado_724307" data-name="Trazado 724307" d="M332.53,114.486c-7.87-.55-9.349-12.009-1.482-14.022" transform="translate(-121.338 -37.412)" fill="none" stroke="#263238" stroke-miterlimit="10" stroke-width="1"/>
            <path id="Trazado_724308" data-name="Trazado 724308" d="M342.923,102.976c3.917,3.589,2.677,10.592-2.543,12.173" transform="translate(-126.754 -38.347)" fill="none" stroke="#263238" stroke-miterlimit="10" stroke-width="1"/>
            <path id="Trazado_724309" data-name="Trazado 724309" d="M338.376,100.2a7.035,7.035,0,0,1,1.981.548" transform="translate(-126.008 -37.315)" fill="none" stroke="#263238" stroke-miterlimit="10" stroke-width="1"/>
            <path id="Trazado_724310" data-name="Trazado 724310" d="M379.285,137.251l.929-1.114a9.08,9.08,0,0,0,5.264-.133l2.087,2.256" transform="translate(-141.242 -50.646)" fill="none" stroke="#263238" stroke-miterlimit="10" stroke-width="1"/>
            <path id="Trazado_724311" data-name="Trazado 724311" d="M370.792,110.263l.4,1.1a9.059,9.059,0,0,0-2.513,4.625l-3,.681.074,2.906,3.029.527a9.091,9.091,0,0,0,2.748,4.489l-.909,2.935,2.554,1.388" transform="translate(-136.177 -41.061)" fill="none" stroke="#263238" stroke-miterlimit="10" stroke-width="1"/>
            <path id="Trazado_724312" data-name="Trazado 724312" d="M385.142,126.571l2.479-1.518-1.058-2.886a9.073,9.073,0,0,0,2.51-4.626l3-.681L392,113.955l-3.027-.525a9.093,9.093,0,0,0-2.749-4.489L387.13,106l-2.554-1.388-1.97,2.361a9.054,9.054,0,0,0-5.261.134l-2.089-2.254-2.479,1.518" transform="translate(-138.818 -38.958)" fill="none" stroke="#263238" stroke-miterlimit="10" stroke-width="1"/>
            <path id="Trazado_724313" data-name="Trazado 724313" d="M386.5,118.937c.857,3.607-2.568,7.078-6.189,5.613a4.807,4.807,0,0,1-.751-8.406" transform="translate(-140.547 -43.25)" fill="none" stroke="#263238" stroke-miterlimit="10" stroke-width="1"/>
            <path id="Trazado_724314" data-name="Trazado 724314" d="M387.172,115.439a4.619,4.619,0,0,1,1.9,1.223" transform="translate(-144.179 -42.988)" fill="none" stroke="#263238" stroke-miterlimit="10" stroke-width="1"/>
            <path id="Trazado_724315" data-name="Trazado 724315" d="M70.233,232.274l4.713,4.713a5.083,5.083,0,0,0,6.111,6.111L78.1,240.138l.8-2.995,2.995-.8,2.961,2.961a5.082,5.082,0,0,0-6.11-6.111L74.4,228.85" transform="translate(-26.154 -85.221)" fill="none" stroke="#263238" stroke-miterlimit="10" stroke-width="1"/>
            <path id="Trazado_724316" data-name="Trazado 724316" d="M57.362,211.587l-4.326-4.326a5.082,5.082,0,0,0-6.11-6.111l2.961,2.961-.8,2.995-2.995.8-2.961-2.96a5.082,5.082,0,0,0,6.111,6.11l4.326,4.326" transform="translate(-16.011 -74.857)" fill="none" stroke="#263238" stroke-miterlimit="10" stroke-width="1"/>
            <path id="Trazado_724317" data-name="Trazado 724317" d="M72.885,216.139l6.033-6.033a4.066,4.066,0,0,1,1.009-.738l1.214-.628,4.369-4.993-2.731-2.73-4.993,4.368-.628,1.215a4.076,4.076,0,0,1-.737,1.009l-4.785,4.785" transform="translate(-26.677 -74.857)" fill="none" stroke="#263238" stroke-miterlimit="10" stroke-width="1"/>
            <path id="Trazado_724318" data-name="Trazado 724318" d="M46.516,239.015a2.047,2.047,0,0,0,2.623-.362L59.593,228.2a1.991,1.991,0,0,0,.645-1.815l1.813-1.813.11.11a.671.671,0,0,0,.95-.949l-3.576-3.576a.671.671,0,0,0-.949.949l.11.11-1.813,1.813a1.992,1.992,0,0,0-1.815.645L44.614,234.128a2.008,2.008,0,0,0-.663,1.717" transform="translate(-16.362 -81.912)" fill="none" stroke="#263238" stroke-miterlimit="10" stroke-width="1"/>
            <path id="Trazado_724319" data-name="Trazado 724319" d="M44.625,247.037a5.914,5.914,0,0,0,.87,1.074,5.5,5.5,0,0,0,1.278.986" transform="translate(-16.618 -91.994)" fill="none" stroke="#263238" stroke-miterlimit="10" stroke-width="1"/>
            <line id="Línea_374" data-name="Línea 374" y1="1.824" x2="1.824" transform="translate(31.224 152.109)" fill="none" stroke="#263238" stroke-miterlimit="10" stroke-width="1"/>
            <line id="Línea_375" data-name="Línea 375" y1="7.881" x2="7.717" transform="translate(35.517 141.76)" fill="none" stroke="#263238" stroke-miterlimit="10" stroke-width="1"/>
          </g>
        </g>
        <rect id="Rectángulo_347163" data-name="Rectángulo 347163" width="167.323" height="108.705" transform="translate(36.633 16.341)" fill="#fff"/>
        <path id="Trazado_724320" data-name="Trazado 724320" d="M225.692,26.037H58.369v108.7H225.692Z" transform="translate(-21.736 -9.696)" fill="#38536e"/>
        <rect id="Rectángulo_347164" data-name="Rectángulo 347164" width="167.323" height="14.221" transform="translate(36.632 16.341)" fill="#fff"/>
        <path id="Trazado_726346" data-name="Trazado 726346" d="M0,0H167.323V14.221H0Z" transform="translate(36.632 16.341)" fill="#263238"/>
        <g id="Grupo_1012599" data-name="Grupo 1012599">
          <g id="Grupo_1012598" data-name="Grupo 1012598" clip-path="url(#clip-path)">
            <path id="Trazado_724321" data-name="Trazado 724321" d="M312.026,39.337H305.62a1.642,1.642,0,0,1-1.642-1.642V31.289a1.642,1.642,0,0,1,1.642-1.642h6.407a1.642,1.642,0,0,1,1.642,1.642V37.7a1.642,1.642,0,0,1-1.642,1.642" transform="translate(-113.198 -11.04)" fill="#fff"/>
            <path id="Trazado_724322" data-name="Trazado 724322" d="M293.089,39.337h-6.375a1.658,1.658,0,0,1-1.658-1.658V31.3a1.658,1.658,0,0,1,1.658-1.658h6.375a1.658,1.658,0,0,1,1.658,1.658V37.68a1.658,1.658,0,0,1-1.658,1.658" transform="translate(-106.152 -11.04)" fill="#fff"/>
            <path id="Trazado_724323" data-name="Trazado 724323" d="M274.182,39.337h-6.405a1.643,1.643,0,0,1-1.642-1.642V31.289a1.642,1.642,0,0,1,1.642-1.642h6.405a1.642,1.642,0,0,1,1.642,1.642v6.405a1.642,1.642,0,0,1-1.642,1.642" transform="translate(-99.106 -11.04)" fill="#fff"/>
            <path id="Trazado_724324" data-name="Trazado 724324" d="M68.368,61.97v75.384a3.273,3.273,0,0,0,3.274,3.274H219.866a3.273,3.273,0,0,0,3.273-3.274V61.97a3.273,3.273,0,0,0-3.273-3.274H71.642a3.273,3.273,0,0,0-3.274,3.274" transform="translate(-25.46 -21.858)" fill="#263238"/>
            <path id="Rectángulo_347166" data-name="Rectángulo 347166" d="M5.216,0H149.555a5.216,5.216,0,0,1,5.216,5.216v71.5a5.215,5.215,0,0,1-5.215,5.215H5.216A5.216,5.216,0,0,1,0,76.715V5.216A5.216,5.216,0,0,1,5.216,0Z" transform="translate(42.909 36.838)" fill="none" stroke="#263238" stroke-linecap="round" stroke-linejoin="round" stroke-width="1"/>
            <line id="Línea_376" data-name="Línea 376" y1="4.157" x2="4.157" transform="translate(193.546 21.373)" fill="none" stroke="#263238" stroke-linecap="round" stroke-linejoin="round" stroke-width="1"/>
            <line id="Línea_377" data-name="Línea 377" x2="4.157" y2="4.157" transform="translate(193.546 21.373)" fill="none" stroke="#263238" stroke-linecap="round" stroke-linejoin="round" stroke-width="1"/>
            <rect id="Rectángulo_347167" data-name="Rectángulo 347167" width="5.543" height="3.66" transform="translate(180.978 22.563)" fill="none" stroke="#263238" stroke-linecap="round" stroke-linejoin="round" stroke-width="1"/>
            <line id="Línea_378" data-name="Línea 378" x1="5.543" transform="translate(169.102 26.223)" fill="none" stroke="#263238" stroke-linecap="round" stroke-linejoin="round" stroke-width="1"/>
            <path id="Trazado_724325" data-name="Trazado 724325" d="M292.192,145.948h-11a1.255,1.255,0,0,1,0-2.51h11a1.255,1.255,0,0,1,0,2.51" transform="translate(-104.246 -53.415)" fill="#757575"/>
            <path id="Trazado_724326" data-name="Trazado 724326" d="M280.5,159.781H249.788a1.255,1.255,0,1,1,0-2.51H280.5a1.255,1.255,0,0,1,0,2.51" transform="translate(-92.551 -58.566)" fill="#757575"/>
            <path id="Trazado_724327" data-name="Trazado 724327" d="M258.577,173.615H190.925a1.255,1.255,0,0,1,0-2.51h67.652a1.255,1.255,0,0,1,0,2.51" transform="translate(-70.631 -63.718)" fill="#757575"/>
            <path id="Trazado_724328" data-name="Trazado 724328" d="M83.081,132.115H77.957a1.255,1.255,0,1,1,0-2.51h5.124a1.255,1.255,0,1,1,0,2.51" transform="translate(-28.563 -48.264)" fill="#bfbfbf"/>
            <path id="Trazado_724329" data-name="Trazado 724329" d="M83.081,145.948H77.957a1.255,1.255,0,1,1,0-2.51h5.124a1.255,1.255,0,1,1,0,2.51" transform="translate(-28.563 -53.415)" fill="#bfbfbf"/>
            <path id="Trazado_724330" data-name="Trazado 724330" d="M83.081,159.781H77.957a1.255,1.255,0,1,1,0-2.51h5.124a1.255,1.255,0,1,1,0,2.51" transform="translate(-28.563 -58.566)" fill="#bfbfbf"/>
            <path id="Trazado_724331" data-name="Trazado 724331" d="M83.081,173.615H77.957a1.255,1.255,0,1,1,0-2.51h5.124a1.255,1.255,0,1,1,0,2.51" transform="translate(-28.563 -63.718)" fill="#bfbfbf"/>
            <g id="Grupo_1012588" data-name="Grupo 1012588" transform="translate(48.139 81.341)" opacity="0.7">
              <g id="Grupo_1012587" data-name="Grupo 1012587">
                <g id="Grupo_1012586" data-name="Grupo 1012586" clip-path="url(#clip-path-5)">
                  <path id="Trazado_724332" data-name="Trazado 724332" d="M83.081,132.115H77.957a1.255,1.255,0,1,1,0-2.51h5.124a1.255,1.255,0,1,1,0,2.51" transform="translate(-76.702 -129.605)" fill="#bfbfbf"/>
                </g>
              </g>
            </g>
            <g id="Grupo_1012591" data-name="Grupo 1012591" transform="translate(48.139 90.023)" opacity="0.7">
              <g id="Grupo_1012590" data-name="Grupo 1012590">
                <g id="Grupo_1012589" data-name="Grupo 1012589" clip-path="url(#clip-path-5)">
                  <path id="Trazado_724333" data-name="Trazado 724333" d="M83.081,145.948H77.957a1.255,1.255,0,1,1,0-2.51h5.124a1.255,1.255,0,1,1,0,2.51" transform="translate(-76.702 -143.438)" fill="#bfbfbf"/>
                </g>
              </g>
            </g>
            <g id="Grupo_1012594" data-name="Grupo 1012594" transform="translate(48.139 98.705)" opacity="0.7">
              <g id="Grupo_1012593" data-name="Grupo 1012593">
                <g id="Grupo_1012592" data-name="Grupo 1012592" clip-path="url(#clip-path-5)">
                  <path id="Trazado_724334" data-name="Trazado 724334" d="M83.081,159.781H77.957a1.255,1.255,0,1,1,0-2.51h5.124a1.255,1.255,0,1,1,0,2.51" transform="translate(-76.702 -157.271)" fill="#bfbfbf"/>
                </g>
              </g>
            </g>
            <g id="Grupo_1012597" data-name="Grupo 1012597" transform="translate(48.139 107.387)" opacity="0.7">
              <g id="Grupo_1012596" data-name="Grupo 1012596">
                <g id="Grupo_1012595" data-name="Grupo 1012595" clip-path="url(#clip-path-5)">
                  <path id="Trazado_724335" data-name="Trazado 724335" d="M83.081,173.615H77.957a1.255,1.255,0,1,1,0-2.51h5.124a1.255,1.255,0,1,1,0,2.51" transform="translate(-76.702 -171.105)" fill="#bfbfbf"/>
                </g>
              </g>
            </g>
            <path id="Trazado_724336" data-name="Trazado 724336" d="M185.8,118.281H77.957a1.255,1.255,0,1,1,0-2.51H185.8a1.255,1.255,0,0,1,0,2.51" transform="translate(-28.563 -43.112)" fill="#bfbfbf"/>
            <path id="Trazado_724337" data-name="Trazado 724337" d="M292.192,90.615h-11a1.255,1.255,0,0,1,0-2.51h11a1.255,1.255,0,0,1,0,2.51" transform="translate(-104.246 -32.809)" fill="#bfbfbf"/>
            <path id="Trazado_724338" data-name="Trazado 724338" d="M267.626,90.615h-10.5a1.255,1.255,0,0,1,0-2.51h10.5a1.255,1.255,0,0,1,0,2.51" transform="translate(-95.282 -32.809)" fill="#bfbfbf"/>
            <path id="Trazado_724339" data-name="Trazado 724339" d="M185.8,90.615H77.957a1.255,1.255,0,1,1,0-2.51H185.8a1.255,1.255,0,0,1,0,2.51" transform="translate(-28.563 -32.809)" fill="#bfbfbf"/>
            <path id="Trazado_724340" data-name="Trazado 724340" d="M292.192,132.115h-11a1.255,1.255,0,0,1,0-2.51h11a1.255,1.255,0,0,1,0,2.51" transform="translate(-104.246 -48.264)" fill="#999"/>
            <path id="Trazado_724341" data-name="Trazado 724341" d="M207.3,132.115H95.121a1.255,1.255,0,0,1,0-2.51H207.3a1.255,1.255,0,0,1,0,2.51" transform="translate(-34.955 -48.264)" fill="#999"/>
            <path id="Trazado_724342" data-name="Trazado 724342" d="M127.338,145.948H95.121a1.255,1.255,0,0,1,0-2.51h32.217a1.255,1.255,0,0,1,0,2.51" transform="translate(-34.955 -53.415)" fill="#999"/>
            <path id="Trazado_724343" data-name="Trazado 724343" d="M127.338,159.781H95.121a1.255,1.255,0,0,1,0-2.51h32.217a1.255,1.255,0,0,1,0,2.51" transform="translate(-34.955 -58.566)" fill="#999"/>
            <path id="Trazado_724344" data-name="Trazado 724344" d="M127.338,173.615H95.121a1.255,1.255,0,0,1,0-2.51h32.217a1.255,1.255,0,0,1,0,2.51" transform="translate(-34.955 -63.718)" fill="#999"/>
            <path id="Trazado_736101" data-name="Trazado 736101" d="M2.363-7.176l1.08,5.022L6.271-7.176H7.317L6.245-1.011H5.454L5.877-3.45l.5-2.481L3.586-1.011h-.61l-1.1-5.017L1.495-3.37,1.084-1.011h-.8L1.359-7.176ZM8.384-1.011H7.621l.8-4.581H9.18Zm.631-6.254a.419.419,0,0,1,.324.116.436.436,0,0,1,.129.328.46.46,0,0,1-.129.326.464.464,0,0,1-.324.135.422.422,0,0,1-.326-.114A.414.414,0,0,1,8.566-6.8a.48.48,0,0,1,.127-.33A.448.448,0,0,1,9.014-7.265Zm2.557,5.7a1.163,1.163,0,0,0,.741-.239,1.138,1.138,0,0,0,.432-.65l.724,0a1.634,1.634,0,0,1-.345.788,1.926,1.926,0,0,1-.709.555,1.924,1.924,0,0,1-.876.186,1.635,1.635,0,0,1-.967-.3,1.671,1.671,0,0,1-.582-.809A2.694,2.694,0,0,1,9.861-3.2l.021-.212a3.038,3.038,0,0,1,.385-1.181,2.228,2.228,0,0,1,.8-.811,1.977,1.977,0,0,1,1.084-.273,1.548,1.548,0,0,1,1.152.483,1.669,1.669,0,0,1,.432,1.181l-.716,0a1.1,1.1,0,0,0-.25-.726.871.871,0,0,0-.652-.294,1.222,1.222,0,0,0-.993.445,2.329,2.329,0,0,0-.493,1.279l-.013.11a3.672,3.672,0,0,0-.008.559,1.276,1.276,0,0,0,.279.783A.9.9,0,0,0,11.572-1.562Zm5.36-3.332-.36-.038a1.311,1.311,0,0,0-1.16.665l-.563,3.256h-.766l.8-4.581.741,0-.114.533a1.37,1.37,0,0,1,1.147-.622,1.406,1.406,0,0,1,.364.064Zm2.5-.783a1.651,1.651,0,0,1,.987.313,1.78,1.78,0,0,1,.608.84,2.6,2.6,0,0,1,.133,1.171l-.008.093a3.081,3.081,0,0,1-.4,1.209,2.335,2.335,0,0,1-.821.84,2,2,0,0,1-1.105.284,1.654,1.654,0,0,1-.984-.313,1.74,1.74,0,0,1-.6-.83A2.672,2.672,0,0,1,17.1-3.226,3.122,3.122,0,0,1,17.487-4.5a2.39,2.39,0,0,1,.828-.879A1.979,1.979,0,0,1,19.43-5.677ZM17.872-3.222a2.6,2.6,0,0,0,0,.555,1.359,1.359,0,0,0,.3.8.9.9,0,0,0,.684.309,1.221,1.221,0,0,0,.7-.188,1.582,1.582,0,0,0,.542-.608,2.558,2.558,0,0,0,.284-.9,4.062,4.062,0,0,0,.013-.656,1.41,1.41,0,0,0-.309-.809.916.916,0,0,0-.686-.313,1.249,1.249,0,0,0-1.008.466,2.3,2.3,0,0,0-.512,1.253Zm6.69.97q.064-.474-.521-.669l-.8-.233q-1.008-.347-.974-1.152a1.269,1.269,0,0,1,.553-.993,1.968,1.968,0,0,1,1.23-.379,1.641,1.641,0,0,1,1.128.4A1.281,1.281,0,0,1,25.6-4.242l-.762,0a.715.715,0,0,0-.216-.559.854.854,0,0,0-.6-.224,1.116,1.116,0,0,0-.686.195.713.713,0,0,0-.309.5q-.055.4.487.58l.385.106a2.481,2.481,0,0,1,1.118.529,1.011,1.011,0,0,1,.3.809,1.284,1.284,0,0,1-.279.745,1.6,1.6,0,0,1-.677.485,2.266,2.266,0,0,1-.9.155,1.787,1.787,0,0,1-1.2-.426,1.315,1.315,0,0,1-.457-1.073l.766,0a.812.812,0,0,0,.246.618.939.939,0,0,0,.673.233,1.32,1.32,0,0,0,.724-.176A.676.676,0,0,0,24.562-2.252Zm4.086-3.425a1.651,1.651,0,0,1,.987.313,1.78,1.78,0,0,1,.608.84,2.6,2.6,0,0,1,.133,1.171l-.008.093a3.081,3.081,0,0,1-.4,1.209,2.335,2.335,0,0,1-.821.84,2,2,0,0,1-1.105.284,1.654,1.654,0,0,1-.984-.313,1.74,1.74,0,0,1-.6-.83,2.672,2.672,0,0,1-.135-1.156A3.122,3.122,0,0,1,26.7-4.5a2.39,2.39,0,0,1,.828-.879A1.979,1.979,0,0,1,28.648-5.677ZM27.089-3.222a2.6,2.6,0,0,0,0,.555,1.359,1.359,0,0,0,.3.8.9.9,0,0,0,.684.309,1.221,1.221,0,0,0,.7-.188,1.582,1.582,0,0,0,.542-.608,2.559,2.559,0,0,0,.284-.9,4.061,4.061,0,0,0,.013-.656,1.41,1.41,0,0,0-.309-.809.916.916,0,0,0-.686-.313,1.249,1.249,0,0,0-1.008.466A2.3,2.3,0,0,0,27.1-3.319Zm4.226,2.21.694-3.976H31.3l.106-.605h.7l.076-.542a1.8,1.8,0,0,1,.533-1.08,1.586,1.586,0,0,1,1.135-.4,2.647,2.647,0,0,1,.546.072l-.093.643a2.513,2.513,0,0,0-.411-.051.875.875,0,0,0-.646.247,1.124,1.124,0,0,0-.307.656l-.068.452h.948l-.106.605h-.948l-.69,3.976ZM35.93-6.7l-.195,1.109h.834l-.106.605h-.83l-.478,2.849a.993.993,0,0,0,0,.2.323.323,0,0,0,.36.33,2.195,2.195,0,0,0,.373-.042l-.059.639a2.085,2.085,0,0,1-.559.076.8.8,0,0,1-.686-.337A1.3,1.3,0,0,1,34.4-2.15l.466-2.837h-.809l.106-.605h.809L35.168-6.7Zm4.649,3.789-.017.745L40.85-2.9l1.842-4.281h.673l.487,4.336.042.7.267-.851,1.575-4.187h.817L44.14-1.011h-.724l-.533-4.526-.017-.423-.178.491L40.723-1.011H40l-.483-6.165h.775Zm6.575,1.9h-.762l.8-4.581h.762Zm.631-6.254a.419.419,0,0,1,.324.116.436.436,0,0,1,.129.328.46.46,0,0,1-.129.326.464.464,0,0,1-.324.135.422.422,0,0,1-.326-.114.414.414,0,0,1-.123-.322.48.48,0,0,1,.127-.33A.448.448,0,0,1,47.785-7.265ZM49.928-5.6l-.11.58a1.806,1.806,0,0,1,1.406-.661,1.136,1.136,0,0,1,.957.449,1.744,1.744,0,0,1,.229,1.215l-.5,3h-.766l.5-3.011a1.605,1.605,0,0,0,0-.385.633.633,0,0,0-.7-.6,1.442,1.442,0,0,0-1.211.736l-.567,3.265h-.766l.8-4.581Zm3.383,2.286A3.565,3.565,0,0,1,53.7-4.572a2.184,2.184,0,0,1,.741-.843,1.694,1.694,0,0,1,.97-.267,1.431,1.431,0,0,1,1.177.559l.44-2.392h.766l-1.126,6.5h-.7l.08-.491a1.689,1.689,0,0,1-1.338.576,1.266,1.266,0,0,1-1.012-.5,2.168,2.168,0,0,1-.406-1.289A4.117,4.117,0,0,1,53.311-3.311Zm.737.438a1.587,1.587,0,0,0,.216.939.779.779,0,0,0,.669.343,1.384,1.384,0,0,0,1.181-.668l.364-2.114a.951.951,0,0,0-.923-.643,1.161,1.161,0,0,0-.8.273,1.764,1.764,0,0,0-.525.8A3.3,3.3,0,0,0,54.047-2.873Zm6.372-2.8a1.651,1.651,0,0,1,.987.313,1.78,1.78,0,0,1,.608.84,2.6,2.6,0,0,1,.133,1.171l-.008.093a3.081,3.081,0,0,1-.4,1.209,2.335,2.335,0,0,1-.821.84,2,2,0,0,1-1.105.284,1.654,1.654,0,0,1-.984-.313,1.74,1.74,0,0,1-.6-.83,2.672,2.672,0,0,1-.135-1.156A3.122,3.122,0,0,1,58.476-4.5a2.39,2.39,0,0,1,.828-.879A1.979,1.979,0,0,1,60.42-5.677ZM58.861-3.222a2.6,2.6,0,0,0,0,.555,1.359,1.359,0,0,0,.3.8.9.9,0,0,0,.684.309,1.221,1.221,0,0,0,.7-.188,1.582,1.582,0,0,0,.542-.608,2.559,2.559,0,0,0,.284-.9,4.062,4.062,0,0,0,.013-.656,1.41,1.41,0,0,0-.309-.809.916.916,0,0,0-.686-.313,1.249,1.249,0,0,0-1.008.466,2.3,2.3,0,0,0-.512,1.253ZM66.826-2.1l1.461-3.5h.792L66.991-1.011h-.622l-.474-3.463L64.243-1.011h-.622l-.5-4.581h.732l.279,3.413,1.626-3.413h.618Zm5.089-.157q.064-.474-.521-.669l-.8-.233Q69.59-3.5,69.624-4.306a1.269,1.269,0,0,1,.553-.993,1.968,1.968,0,0,1,1.23-.379,1.641,1.641,0,0,1,1.128.4,1.281,1.281,0,0,1,.417,1.031l-.762,0a.715.715,0,0,0-.216-.559.854.854,0,0,0-.6-.224,1.116,1.116,0,0,0-.686.195.713.713,0,0,0-.309.5q-.055.4.487.58l.385.106a2.481,2.481,0,0,1,1.118.529,1.011,1.011,0,0,1,.3.809,1.284,1.284,0,0,1-.279.745,1.6,1.6,0,0,1-.677.485,2.266,2.266,0,0,1-.9.155,1.787,1.787,0,0,1-1.2-.426,1.315,1.315,0,0,1-.457-1.073l.766,0a.812.812,0,0,0,.246.618.939.939,0,0,0,.673.233,1.32,1.32,0,0,0,.724-.176A.676.676,0,0,0,71.915-2.252Zm2.1.351a.459.459,0,0,1,.343.127.437.437,0,0,1,.131.339.458.458,0,0,1-.14.337.5.5,0,0,1-.339.138.437.437,0,0,1-.334-.116.437.437,0,0,1-.131-.332.48.48,0,0,1,.131-.345A.476.476,0,0,1,74.019-1.9Z" transform="translate(49.695 50.541)" fill="#bfbfbf"/>
          </g>
        </g>
        <g id="Grupo_1012607" data-name="Grupo 1012607">
          <g id="Grupo_1012606" data-name="Grupo 1012606" clip-path="url(#clip-path)">
            <path id="Trazado_724345" data-name="Trazado 724345" d="M112.125,351.7s-3.292,5.665-2,5.87,4.008-4.693,4.008-4.693l7.437-1.971-5.6-.578Z" transform="translate(-40.898 -130.459)" fill="#fff"/>
            <path id="Trazado_724346" data-name="Trazado 724346" d="M112.125,351.7s-3.292,5.665-2,5.87,4.008-4.693,4.008-4.693l7.437-1.971-5.6-.578Z" transform="translate(-40.898 -130.459)" fill="none" stroke="#263238" stroke-linecap="round" stroke-linejoin="round" stroke-width="1"/>
            <g id="Grupo_1012602" data-name="Grupo 1012602" transform="translate(68.615 219.557)" opacity="0.3">
              <g id="Grupo_1012601" data-name="Grupo 1012601">
                <g id="Grupo_1012600" data-name="Grupo 1012600" clip-path="url(#clip-path-10)">
                  <path id="Trazado_724347" data-name="Trazado 724347" d="M112.125,351.7s-3.292,5.665-2,5.87,4.008-4.693,4.008-4.693l7.437-1.971-5.6-.578Z" transform="translate(-109.513 -350.016)"/>
                  <path id="Trazado_724348" data-name="Trazado 724348" d="M112.125,351.7s-3.292,5.665-2,5.87,4.008-4.693,4.008-4.693l7.437-1.971-5.6-.578Z" transform="translate(-109.513 -350.016)" fill="none" stroke="#263238" stroke-linecap="round" stroke-linejoin="round" stroke-width="1"/>
                </g>
              </g>
            </g>
            <path id="Trazado_724349" data-name="Trazado 724349" d="M111.672,346.2s-4.6-1.1-5.875,1.066-5,8.563-3.6,9.3,2.615-1.634,2.615-1.634Z" transform="translate(-37.942 -128.817)" fill="#fff"/>
            <path id="Trazado_724350" data-name="Trazado 724350" d="M111.672,346.2s-4.6-1.1-5.875,1.066-5,8.563-3.6,9.3,2.615-1.634,2.615-1.634Z" transform="translate(-37.942 -128.817)" fill="none" stroke="#263238" stroke-linecap="round" stroke-linejoin="round" stroke-width="1"/>
            <path id="Trazado_724351" data-name="Trazado 724351" d="M130.993,352.274a20.941,20.941,0,0,1-9.441.992l-5.241,1.742s-4.607,2.269-6.749,1.125,5.461-3.666,5.461-3.666,5.114-2.213,3.587-2.745-7.3-.431-8.431.439-4.106,6.5-6.251,6.183.906-3.389,1.677-4.57,2.5-5.89,6-6.087,15.292.408,15.292.408l13.864-1.482,3.271,7.886Z" transform="translate(-38.422 -128.33)" fill="#fff"/>
            <path id="Trazado_724352" data-name="Trazado 724352" d="M130.993,352.274a20.941,20.941,0,0,1-9.441.992l-5.241,1.742s-4.607,2.269-6.749,1.125,5.461-3.666,5.461-3.666,5.114-2.213,3.587-2.745-7.3-.431-8.431.439-4.106,6.5-6.251,6.183.906-3.389,1.677-4.57,2.5-5.89,6-6.087,15.292.408,15.292.408l13.864-1.482,3.271,7.886Z" transform="translate(-38.422 -128.33)" fill="none" stroke="#263238" stroke-linecap="round" stroke-linejoin="round" stroke-width="1"/>
            <path id="Trazado_724353" data-name="Trazado 724353" d="M157.977,352.437a2.226,2.226,0,0,0,2.643-.041,2.305,2.305,0,0,0,2.514-.461c1.014-1.115,1.1-10.86-1.7-11.958-.808-.316-2.827-.284-3.159.847a1.485,1.485,0,0,0-2.037,1.27c-.277,1.757,1.469,3.393.884,8.449a1.993,1.993,0,0,0,.855,1.895" transform="translate(-58.17 -126.54)" fill="#92e3a9"/>
            <path id="Trazado_724354" data-name="Trazado 724354" d="M157.977,352.437a2.226,2.226,0,0,0,2.643-.041,2.305,2.305,0,0,0,2.514-.461c1.014-1.115,1.1-10.86-1.7-11.958-.808-.316-2.827-.284-3.159.847a1.485,1.485,0,0,0-2.037,1.27c-.277,1.757,1.469,3.393.884,8.449A1.993,1.993,0,0,0,157.977,352.437Z" transform="translate(-58.17 -126.54)" fill="none" stroke="#263238" stroke-linecap="round" stroke-linejoin="round" stroke-width="1"/>
            <g id="Grupo_1012605" data-name="Grupo 1012605" transform="translate(97.725 212.951)" opacity="0.3">
              <g id="Grupo_1012604" data-name="Grupo 1012604">
                <g id="Grupo_1012603" data-name="Grupo 1012603" clip-path="url(#clip-path-11)">
                  <path id="Trazado_724355" data-name="Trazado 724355" d="M157.977,352.437a2.226,2.226,0,0,0,2.643-.041,2.305,2.305,0,0,0,2.514-.461c1.014-1.115,1.1-10.86-1.7-11.958-.808-.316-2.827-.284-3.159.847a1.485,1.485,0,0,0-2.037,1.27c-.277,1.757,1.469,3.393.884,8.449a1.993,1.993,0,0,0,.855,1.895" transform="translate(-155.895 -339.49)"/>
                  <path id="Trazado_724356" data-name="Trazado 724356" d="M157.977,352.437a2.226,2.226,0,0,0,2.643-.041,2.305,2.305,0,0,0,2.514-.461c1.014-1.115,1.1-10.86-1.7-11.958-.808-.316-2.827-.284-3.159.847a1.485,1.485,0,0,0-2.037,1.27c-.277,1.757,1.469,3.393.884,8.449A1.993,1.993,0,0,0,157.977,352.437Z" transform="translate(-155.895 -339.49)" fill="none" stroke="#263238" stroke-linecap="round" stroke-linejoin="round" stroke-width="1"/>
                </g>
              </g>
            </g>
            <path id="Trazado_724357" data-name="Trazado 724357" d="M163.141,351.743a18.825,18.825,0,0,0-1.657-7.7" transform="translate(-60.135 -128.118)" fill="none" stroke="#263238" stroke-linecap="round" stroke-linejoin="round" stroke-width="1"/>
            <path id="Trazado_724358" data-name="Trazado 724358" d="M230.876,320.7c-.464,3.571-.992,7.437-1.594,11.636H175.408l.257-6.941c-3.22.778-9.477.3-9.477.3V315.438c3.8-2.153,4.368-1.55,4.368-1.55s.195-25.042,2.473-31.293a12.607,12.607,0,0,1,4.456-5.862v-.006a15.255,15.255,0,0,1,1.7-1.1.93.93,0,0,0,.082-.05c.628-.333,1.387-.684,2.253-1.048.075-.031.157-.063.238-.094,8.435-3.446,26.843-7.443,44-.113,1.2.515,10.989,5.19,11.824,11.95.477,3.854-2.146,23.021-6.7,34.431" transform="translate(-61.887 -100.62)" fill="#0174d2"/>
          </g>
        </g>
        <g id="Grupo_1012618" data-name="Grupo 1012618" transform="translate(104.301 169.58)">
          <g id="Grupo_1012617" data-name="Grupo 1012617" clip-path="url(#clip-path-12)">
            <g id="Grupo_1012610" data-name="Grupo 1012610" transform="translate(44.485 19.631)" opacity="0.2">
              <g id="Grupo_1012609" data-name="Grupo 1012609">
                <g id="Grupo_1012608" data-name="Grupo 1012608" clip-path="url(#clip-path-13)">
                  <path id="Trazado_724359" data-name="Trazado 724359" d="M248.735,301.479l-5.372,24.935c-.835-.659-3.238-.7-6.295-.414a9.826,9.826,0,0,0,1.626-2.435c8.121-17.573,9.9-21.734,10.042-22.086" transform="translate(-237.068 -301.479)"/>
                </g>
              </g>
            </g>
            <g id="Grupo_1012613" data-name="Grupo 1012613" transform="translate(9.22 47.026)" opacity="0.2">
              <g id="Grupo_1012612" data-name="Grupo 1012612">
                <g id="Grupo_1012611" data-name="Grupo 1012611" clip-path="url(#clip-path-14)">
                  <path id="Trazado_724360" data-name="Trazado 724360" d="M237.627,345.129a110.428,110.428,0,0,0-2.874,15.113H180.878l.5-8c3.358-.477,9.251-.966,15.37-2.052a13.658,13.658,0,0,1,.144,5.843s24.778,3.075,33.094,1.073c2.372-.571,4.519-3.885,6.358-8.448.446-1.111.872-2.3,1.287-3.533" transform="translate(-180.878 -345.129)"/>
                </g>
              </g>
            </g>
            <g id="Grupo_1012616" data-name="Grupo 1012616" transform="translate(-0.003 18.301)" opacity="0.3">
              <g id="Grupo_1012615" data-name="Grupo 1012615">
                <g id="Grupo_1012614" data-name="Grupo 1012614" clip-path="url(#clip-path-15)">
                  <path id="Trazado_724361" data-name="Trazado 724361" d="M171.2,325.219s-1.206-1.075-5.016,1.08v10.261s6.279-.225,8.741-1.559c2.119,1.311,1.742-22.7,2.119-35.642-3.075.845-3.321,6.7-3.8,12.2a110.721,110.721,0,0,1-2.047,13.656" transform="translate(-166.183 -299.36)"/>
                </g>
              </g>
            </g>
          </g>
        </g>
        <g id="Grupo_1012620" data-name="Grupo 1012620">
          <g id="Grupo_1012619" data-name="Grupo 1012619" clip-path="url(#clip-path)">
            <path id="Trazado_724363" data-name="Trazado 724363" d="M230.876,320.7c-.464,3.571-.992,7.437-1.594,11.636H175.408l.257-6.941c-3.22.778-9.477.3-9.477.3V315.438c3.8-2.153,4.368-1.55,4.368-1.55s.195-25.042,2.473-31.293a12.607,12.607,0,0,1,4.456-5.862v-.006a15.255,15.255,0,0,1,1.7-1.1.93.93,0,0,0,.082-.05c.628-.333,1.387-.684,2.253-1.048.075-.031.157-.063.238-.094,8.435-3.446,26.843-7.443,44-.113,1.2.515,10.989,5.19,11.824,11.95C238.056,290.126,235.432,309.293,230.876,320.7Z" transform="translate(-61.887 -100.62)" fill="none" stroke="#263238" stroke-linecap="round" stroke-linejoin="round" stroke-width="1"/>
            <path id="Trazado_724364" data-name="Trazado 724364" d="M251.45,295.809c.019.151.038.326.044.521.276,4.82-2.347,23.008-6.753,33.966-1.839,4.563-3.985,7.876-6.358,8.448-8.316,2-33.094-1.073-33.094-1.073a13.733,13.733,0,0,0-1.851-9.853s24.326-5.95,27.4-3.515l5.385-24.96" transform="translate(-75.758 -110.156)" fill="none" stroke="#263238" stroke-linecap="round" stroke-linejoin="round" stroke-width="1"/>
            <path id="Trazado_724365" data-name="Trazado 724365" d="M249.8,343.375a11.036,11.036,0,0,1,4.31,3.694" transform="translate(-93.021 -127.869)" fill="none" stroke="#263238" stroke-linecap="round" stroke-linejoin="round" stroke-width="1"/>
            <path id="Trazado_724366" data-name="Trazado 724366" d="M146.9,344.738s-2.266-.477-3.19.555c-.965,1.078-4.876,6.975-3.54,8.107s4.053-5.08,4.053-5.08Z" transform="translate(-52.094 -128.336)" fill="#fff"/>
            <path id="Trazado_724367" data-name="Trazado 724367" d="M146.9,344.738s-2.266-.477-3.19.555c-.965,1.078-4.876,6.975-3.54,8.107s4.053-5.08,4.053-5.08Z" transform="translate(-52.094 -128.336)" fill="none" stroke="#263238" stroke-linecap="round" stroke-linejoin="round" stroke-width="1"/>
            <path id="Trazado_724368" data-name="Trazado 724368" d="M151.8,344.412s-5.04-1.082-6.169.457-7.479,9.493-3.528,9.749l6.311-7.081Z" transform="translate(-52.441 -128.118)" fill="#fff"/>
            <path id="Trazado_724369" data-name="Trazado 724369" d="M151.8,344.412s-5.04-1.082-6.169.457-7.479,9.493-3.528,9.749l6.311-7.081Z" transform="translate(-52.441 -128.118)" fill="none" stroke="#263238" stroke-linecap="round" stroke-linejoin="round" stroke-width="1"/>
            <path id="Trazado_724370" data-name="Trazado 724370" d="M167,356.421s-5.178,1.129-7.282,1.54-6,3.129-8.312,2.052,7.543-5.08,7.543-5.08l3.387-1.363Z" transform="translate(-56.25 -131.666)" fill="#bfbfbf"/>
            <path id="Trazado_724371" data-name="Trazado 724371" d="M167,356.421s-5.178,1.129-7.282,1.54-6,3.129-8.312,2.052,7.543-5.08,7.543-5.08l3.387-1.363Z" transform="translate(-56.25 -131.666)" fill="none" stroke="#263238" stroke-linecap="round" stroke-linejoin="round" stroke-width="1"/>
            <path id="Trazado_724372" data-name="Trazado 724372" d="M183.136,305.25l.22-5.89" transform="translate(-68.198 -111.479)" fill="none" stroke="#263238" stroke-linecap="round" stroke-linejoin="round" stroke-width="1"/>
            <path id="Trazado_724373" data-name="Trazado 724373" d="M180.878,348.279C181.838,336.4,182.2,313,182.2,313" transform="translate(-67.357 -116.559)" fill="none" stroke="#263238" stroke-linecap="round" stroke-linejoin="round" stroke-width="1"/>
            <path id="Trazado_724374" data-name="Trazado 724374" d="M182.587,346.616H164.731s-13.853-4.156-16.162-.923-7.234,8.158-5.849,9.082S149.954,349,149.954,349l5.08.048s-4.31,1.876-5.234,2.8-2.925,3.54-1.847,4,4.464-2.924,4.464-2.924,5.079-1.231,6.311-.616a17.5,17.5,0,0,0,12.776,1.231l13.625,1.693Z" transform="translate(-53.057 -128.274)" fill="#fff"/>
            <path id="Trazado_724375" data-name="Trazado 724375" d="M182.587,346.616H164.731s-13.853-4.156-16.162-.923-7.234,8.158-5.849,9.082S149.954,349,149.954,349l5.08.048s-4.31,1.876-5.234,2.8-2.925,3.54-1.847,4,4.464-2.924,4.464-2.924,5.079-1.231,6.311-.616a17.5,17.5,0,0,0,12.776,1.231l13.625,1.693Z" transform="translate(-53.057 -128.274)" fill="none" stroke="#263238" stroke-linecap="round" stroke-linejoin="round" stroke-width="1"/>
            <path id="Trazado_724376" data-name="Trazado 724376" d="M252.48,310.081a26.448,26.448,0,0,1-.056-8.642" transform="translate(-93.878 -112.253)" fill="none" stroke="#263238" stroke-linecap="round" stroke-linejoin="round" stroke-width="1"/>
            <path id="Trazado_724377" data-name="Trazado 724377" d="M259.16,288.788s8.662-11.412,13.04,2.792" transform="translate(-96.508 -105.927)" fill="none" stroke="#263238" stroke-linecap="round" stroke-linejoin="round" stroke-width="1"/>
            <path id="Trazado_724378" data-name="Trazado 724378" d="M200.257,344.986a2.225,2.225,0,0,1,2.571-.618,2.306,2.306,0,0,1,2.551-.177c1.258.828,3.764,10.245,1.322,12-.7.508-2.668.978-3.27-.035a1.484,1.484,0,0,1-2.288-.724c-.705-1.634.58-3.651-1.243-8.4a1.992,1.992,0,0,1,.358-2.047" transform="translate(-74.39 -128.052)" fill="#0174d2"/>
          </g>
        </g>
        <g id="Grupo_1012627" data-name="Grupo 1012627">
          <g id="Grupo_1012626" data-name="Grupo 1012626" clip-path="url(#clip-path)">
            <path id="Trazado_724381" data-name="Trazado 724381" d="M200.257,344.986a2.225,2.225,0,0,1,2.571-.618,2.306,2.306,0,0,1,2.551-.177c1.258.828,3.764,10.245,1.322,12-.7.508-2.668.978-3.27-.035a1.484,1.484,0,0,1-2.288-.724c-.705-1.634.58-3.651-1.243-8.4A1.992,1.992,0,0,1,200.257,344.986Z" transform="translate(-74.39 -128.052)" fill="none" stroke="#263238" stroke-linecap="round" stroke-linejoin="round" stroke-width="1"/>
            <path id="Trazado_724382" data-name="Trazado 724382" d="M206.866,353.441a15.682,15.682,0,0,1,.051,4.416" transform="translate(-77.035 -131.618)" fill="none" stroke="#263238" stroke-linecap="round" stroke-linejoin="round" stroke-width="1"/>
            <path id="Trazado_724383" data-name="Trazado 724383" d="M217.925,307.767a1.223,1.223,0,1,1-1.15-1.291,1.222,1.222,0,0,1,1.15,1.291" transform="translate(-80.243 -114.128)" fill="#fff"/>
            <path id="Trazado_724384" data-name="Trazado 724384" d="M217.925,307.767a1.223,1.223,0,1,1-1.15-1.291A1.222,1.222,0,0,1,217.925,307.767Z" transform="translate(-80.243 -114.128)" fill="none" stroke="#263238" stroke-linecap="round" stroke-linejoin="round" stroke-width="1"/>
            <path id="Trazado_724385" data-name="Trazado 724385" d="M216.523,337.96a1.223,1.223,0,1,1-1.15-1.291,1.223,1.223,0,0,1,1.15,1.291" transform="translate(-79.721 -125.371)" fill="#fff"/>
            <path id="Trazado_724386" data-name="Trazado 724386" d="M216.523,337.96a1.223,1.223,0,1,1-1.15-1.291A1.223,1.223,0,0,1,216.523,337.96Z" transform="translate(-79.721 -125.371)" fill="none" stroke="#263238" stroke-linecap="round" stroke-linejoin="round" stroke-width="1"/>
            <path id="Trazado_724387" data-name="Trazado 724387" d="M225.707,264.043l-.9-12.644-13.084,3.029-.7,10.155c-.826.1-1.611.218-2.378.336l3.2,7.672,6.256.821,10-9.22c-.812-.061-1.615-.113-2.4-.151" transform="translate(-77.7 -93.618)" fill="#fff"/>
          </g>
        </g>
        <g id="Grupo_1012629" data-name="Grupo 1012629" transform="translate(130.952 157.781)">
          <g id="Grupo_1012628" data-name="Grupo 1012628" clip-path="url(#clip-path-18)">
            <path id="Trazado_724388" data-name="Trazado 724388" d="M213.242,258.908c.085,8.995,10.6,6.236,13.507-2.75l-.23-4.759-13.084,3.029Z" transform="translate(-210.361 -251.399)" fill="#263238"/>
          </g>
        </g>
        <g id="Grupo_1012631" data-name="Grupo 1012631">
          <g id="Grupo_1012630" data-name="Grupo 1012630" clip-path="url(#clip-path)">
            <path id="Trazado_724390" data-name="Trazado 724390" d="M225.707,264.043l-.9-12.644-13.084,3.029-.7,10.155c-.826.1-1.611.218-2.378.336l3.2,7.672,6.256.821,10-9.22C227.3,264.133,226.5,264.081,225.707,264.043Z" transform="translate(-77.7 -93.618)" fill="none" stroke="#263238" stroke-linecap="round" stroke-linejoin="round" stroke-width="1"/>
            <path id="Trazado_724391" data-name="Trazado 724391" d="M197.021,218.509s-4.779-8.273-5.488-12.636c-2.186-13.475,7.543-8.928,7.543-8.928s6.878-6.157,15.445-5.08,10.824,4.723,16.589,6.963c0,0-4.329,21.975-9.869,26.9s-24.221-7.22-24.221-7.22" transform="translate(-71.206 -71.401)" fill="#263238"/>
            <path id="Trazado_724392" data-name="Trazado 724392" d="M197.021,218.509s-4.779-8.273-5.488-12.636c-2.186-13.475,7.543-8.928,7.543-8.928s6.878-6.157,15.445-5.08,10.824,4.723,16.589,6.963c0,0-4.329,21.975-9.869,26.9S197.021,218.509,197.021,218.509Z" transform="translate(-71.206 -71.401)" fill="none" stroke="#263238" stroke-linecap="round" stroke-linejoin="round" stroke-width="1"/>
            <path id="Trazado_724393" data-name="Trazado 724393" d="M204.228,197.742s-2.155-5.234,3.309-9.235" transform="translate(-75.896 -70.198)" fill="none" stroke="#263238" stroke-linecap="round" stroke-linejoin="round" stroke-width="1"/>
            <path id="Trazado_724394" data-name="Trazado 724394" d="M219.46,197.686c6.4-2.827,9.247,1.9,16.384,3.144" transform="translate(-81.725 -73.286)" fill="none" stroke="#bfbfbf" stroke-miterlimit="10" stroke-width="1"/>
            <path id="Trazado_724395" data-name="Trazado 724395" d="M211.589,202.122a8.06,8.06,0,0,1,2.074-1.855" transform="translate(-78.794 -74.577)" fill="none" stroke="#bfbfbf" stroke-miterlimit="10" stroke-width="1"/>
            <path id="Trazado_724396" data-name="Trazado 724396" d="M222.048,205.91s2.767-2.659,8.257.8a14.321,14.321,0,0,0,5.482,2.161" transform="translate(-82.688 -76.315)" fill="none" stroke="#bfbfbf" stroke-miterlimit="10" stroke-width="1"/>
            <path id="Trazado_724397" data-name="Trazado 724397" d="M222.148,213.639c-7.962.205-16.179-3.387-16.179-3.387-7.416,4.473-6.316,11.749-6.316,11.749,1.7,17.384,3.987,22.013,12.109,22.013,8.07,0,14.724-8.762,15.253-21.3-3.073.145-4.867-9.071-4.867-9.071" transform="translate(-74.327 -78.296)" fill="#fff"/>
            <path id="Trazado_724398" data-name="Trazado 724398" d="M222.148,213.639c-7.962.205-16.179-3.387-16.179-3.387-7.416,4.473-6.316,11.749-6.316,11.749,1.7,17.384,3.987,22.013,12.109,22.013,8.07,0,14.724-8.762,15.253-21.3C223.942,222.854,222.148,213.639,222.148,213.639Z" transform="translate(-74.327 -78.296)" fill="none" stroke="#263238" stroke-linecap="round" stroke-linejoin="round" stroke-width="1"/>
            <path id="Trazado_724399" data-name="Trazado 724399" d="M241.921,228.425a2.1,2.1,0,0,1,1.631-.923c1.445,0,2.514,1.9,2,4.233-.5,2.283-1.172,4.233-2.617,4.233a1.633,1.633,0,0,1-1.482-1.1" transform="translate(-89.915 -84.719)" fill="#fff"/>
            <path id="Trazado_724400" data-name="Trazado 724400" d="M241.921,228.425a2.1,2.1,0,0,1,1.631-.923c1.445,0,2.514,1.9,2,4.233-.5,2.283-1.172,4.233-2.617,4.233a1.633,1.633,0,0,1-1.482-1.1" transform="translate(-89.915 -84.719)" fill="none" stroke="#263238" stroke-linecap="round" stroke-linejoin="round" stroke-width="1"/>
            <path id="Trazado_724401" data-name="Trazado 724401" d="M214.149,237.532s.972,1.332-.891,2.331-3.35.978-3.826-.163,1.6-10.656,1.6-10.656" transform="translate(-77.964 -85.294)" fill="none" stroke="#263238" stroke-linecap="round" stroke-linejoin="round" stroke-width="1"/>
            <path id="Trazado_724402" data-name="Trazado 724402" d="M206.275,230.8c-1-.508-5.027-2.266-8.837.132l.245,3.69a10.447,10.447,0,0,0,4.632.772,12.961,12.961,0,0,0,3.144-.326" transform="translate(-73.524 -85.538)" fill="none" stroke="#263238" stroke-linecap="round" stroke-linejoin="round" stroke-width="1"/>
            <path id="Trazado_724403" data-name="Trazado 724403" d="M216.829,230.934,218,234.781s.477.628,3.709.628,4.293-.772,4.293-.772l-.094-3.69S221.216,228.166,216.829,230.934Z" transform="translate(-80.745 -85.541)" fill="none" stroke="#263238" stroke-linecap="round" stroke-linejoin="round" stroke-width="1"/>
            <line id="Línea_379" data-name="Línea 379" x2="3.075" transform="translate(133.009 145.394)" fill="none" stroke="#263238" stroke-linecap="round" stroke-linejoin="round" stroke-width="1"/>
            <path id="Trazado_724404" data-name="Trazado 724404" d="M212.971,250.324a8.455,8.455,0,0,0,5.116-.155,7.129,7.129,0,0,0,3.182-2.4" transform="translate(-79.308 -92.267)" fill="none" stroke="#263238" stroke-linecap="round" stroke-linejoin="round" stroke-width="1"/>
            <path id="Trazado_724405" data-name="Trazado 724405" d="M221.116,225.467c4.037-1.665,5.817.333,5.817.333" transform="translate(-82.341 -83.715)" fill="none" stroke="#263238" stroke-linecap="round" stroke-linejoin="round" stroke-width="1"/>
            <path id="Trazado_724406" data-name="Trazado 724406" d="M204.148,225.363a4.078,4.078,0,0,1,4.315.5" transform="translate(-76.023 -83.774)" fill="none" stroke="#263238" stroke-linecap="round" stroke-linejoin="round" stroke-width="1"/>
            <path id="Trazado_724407" data-name="Trazado 724407" d="M223.279,230.332c.374,0,.639.6.639,1.359s-.313,1.359-.68,1.359-.632-.625-.632-1.359.3-1.359.673-1.359" transform="translate(-82.896 -85.773)" fill="#263238"/>
            <path id="Trazado_724408" data-name="Trazado 724408" d="M207.308,230.062c.367,0,.632.6.632,1.359s-.313,1.359-.68,1.359-.632-.625-.632-1.359c.021-.734.313-1.359.68-1.359" transform="translate(-76.946 -85.673)" fill="#263238"/>
            <path id="Trazado_724409" data-name="Trazado 724409" d="M197.045,219.021a10.414,10.414,0,0,0,.626,2.16" transform="translate(-73.378 -81.561)" fill="none" stroke="#bfbfbf" stroke-miterlimit="10" stroke-width="1"/>
            <path id="Trazado_724410" data-name="Trazado 724410" d="M201.591,205.66c-3.967-1.068-5.537,1.317-5.243,5.079" transform="translate(-73.105 -76.49)" fill="none" stroke="#bfbfbf" stroke-miterlimit="10" stroke-width="1"/>
            <path id="Trazado_724411" data-name="Trazado 724411" d="M209.538,271.2l4.834,8.7,11.605-9.159,3.566.5-7.508,13.276a1.023,1.023,0,0,1-1.432.355l-6.419-4.05-5.006,3.06a1.022,1.022,0,0,1-1.55-.761l-1.243-11.329Z" transform="translate(-76.856 -100.82)" fill="#005192"/>
          </g>
        </g>
        <g id="Grupo_1012638" data-name="Grupo 1012638">
          <g id="Grupo_1012637" data-name="Grupo 1012637" clip-path="url(#clip-path)">
            <path id="Trazado_724414" data-name="Trazado 724414" d="M209.538,271.2l4.834,8.7,11.605-9.159,3.566.5-7.508,13.276a1.023,1.023,0,0,1-1.432.355l-6.419-4.05-5.006,3.06a1.022,1.022,0,0,1-1.55-.761l-1.243-11.329Z" transform="translate(-76.856 -100.82)" fill="none" stroke="#263238" stroke-linecap="round" stroke-linejoin="round" stroke-width="1"/>
            <path id="Trazado_724415" data-name="Trazado 724415" d="M127.577,366.713H96.022a1.236,1.236,0,0,1-1.236-1.236v-1.735a1.236,1.236,0,0,1,1.236-1.236h31.554Z" transform="translate(-35.297 -134.993)" fill="#263238"/>
            <path id="Trazado_724416" data-name="Trazado 724416" d="M127.577,366.713H96.022a1.236,1.236,0,0,1-1.236-1.236v-1.735a1.236,1.236,0,0,1,1.236-1.236h31.554Z" transform="translate(-35.297 -134.993)" fill="none" stroke="#263238" stroke-linecap="round" stroke-linejoin="round" stroke-width="1"/>
            <path id="Trazado_724417" data-name="Trazado 724417" d="M174.188,366.713H147.033v-4.208l27.211,1.794a.86.86,0,0,1,.8.858v.7a.86.86,0,0,1-.86.86" transform="translate(-54.754 -134.993)" fill="#0174d2"/>
            <path id="Trazado_724418" data-name="Trazado 724418" d="M174.188,366.713H147.033v-4.208l27.211,1.794a.86.86,0,0,1,.8.858v.7A.86.86,0,0,1,174.188,366.713Z" transform="translate(-54.754 -134.993)" fill="none" stroke="#263238" stroke-linecap="round" stroke-linejoin="round" stroke-width="1"/>
            <path id="Trazado_724419" data-name="Trazado 724419" d="M231.313,231.277l6.832-2.3-.811,1.022" transform="translate(-86.139 -85.267)" fill="none" stroke="#263238" stroke-linecap="round" stroke-linejoin="round" stroke-width="1"/>
          </g>
        </g>
        <g id="Grupo_1012640" data-name="Grupo 1012640">
          <g id="Grupo_1012639" data-name="Grupo 1012639" clip-path="url(#clip-path)">
            <path id="Trazado_724420" data-name="Trazado 724420" d="M300.09,229.855S292.228,205.847,312,204.163s22.108,16.745,23.92,25.985c1.417,7.222,14.924,20.436,4.471,30.3-10.913,10.3-37.485,6.861-39.012-7.779s-.137-17.635-1.29-22.81" transform="translate(-111.176 -75.988)" fill="#263238"/>
            <path id="Trazado_724421" data-name="Trazado 724421" d="M300.09,229.855S292.228,205.847,312,204.163s22.108,16.745,23.92,25.985c1.417,7.222,14.924,20.436,4.471,30.3-10.913,10.3-37.485,6.861-39.012-7.779S301.243,235.03,300.09,229.855Z" transform="translate(-111.176 -75.988)" fill="none" stroke="#263238" stroke-linecap="round" stroke-linejoin="round" stroke-width="1"/>
            <path id="Trazado_724422" data-name="Trazado 724422" d="M331.115,251.254s-.865,10.648,4.629,19.807a28.251,28.251,0,0,1-15.121.119,25.285,25.285,0,0,0-.464-8.465l-.263-1.16,5.611-4.854Z" transform="translate(-119.126 -93.564)" fill="#fff"/>
          </g>
        </g>
        <g id="Grupo_1012642" data-name="Grupo 1012642" transform="translate(200.769 157.69)">
          <g id="Grupo_1012641" data-name="Grupo 1012641" clip-path="url(#clip-path-22)">
            <path id="Trazado_724423" data-name="Trazado 724423" d="M316.129,258.421c1.02,5.731,1.961,6.979,6.813,5.957,3.6-.758,6.668-6.157,6.841-10.078a53.021,53.021,0,0,1-.256-5.359l-5.423,6.9Z" transform="translate(-318.493 -250.394)" fill="#263238"/>
          </g>
        </g>
        <g id="Grupo_1012644" data-name="Grupo 1012644">
          <g id="Grupo_1012643" data-name="Grupo 1012643" clip-path="url(#clip-path)">
            <path id="Trazado_724425" data-name="Trazado 724425" d="M331.115,251.254s-.865,10.648,4.629,19.807a28.251,28.251,0,0,1-15.121.119,25.285,25.285,0,0,0-.464-8.465l-.263-1.16,5.611-4.854Z" transform="translate(-119.126 -93.564)" fill="none" stroke="#263238" stroke-linecap="round" stroke-linejoin="round" stroke-width="1"/>
            <path id="Trazado_724426" data-name="Trazado 724426" d="M243.126,346.854s-10.952-5.035-11.562-.863,2.062,10.565,12.09,7.411l21.04,2.773s3.6-7.175-.249-11.085c0,0-18.539,2.884-21.32,1.763" transform="translate(-86.202 -128.227)" fill="#fff"/>
            <path id="Trazado_724427" data-name="Trazado 724427" d="M243.126,346.854s-10.952-5.035-11.562-.863,2.062,10.565,12.09,7.411l21.04,2.773s3.6-7.175-.249-11.085C264.446,345.091,245.907,347.974,243.126,346.854Z" transform="translate(-86.202 -128.227)" fill="none" stroke="#263238" stroke-linecap="round" stroke-linejoin="round" stroke-width="1"/>
            <path id="Trazado_724428" data-name="Trazado 724428" d="M221.693,355.512s-1.735.555-1.989,1.7-.818,2.776-.151,2.781,1.474-2.284,1.474-2.284l1.688-.439Z" transform="translate(-81.642 -132.389)" fill="#fff"/>
            <path id="Trazado_724429" data-name="Trazado 724429" d="M221.693,355.512s-1.735.555-1.989,1.7-.818,2.776-.151,2.781,1.474-2.284,1.474-2.284l1.688-.439Z" transform="translate(-81.642 -132.389)" fill="none" stroke="#263238" stroke-linecap="round" stroke-linejoin="round" stroke-width="1"/>
            <rect id="Rectángulo_347186" data-name="Rectángulo 347186" width="11.446" height="16.306" transform="translate(140.135 213.412) rotate(-5.98)" fill="#fff"/>
            <rect id="Rectángulo_347187" data-name="Rectángulo 347187" width="11.446" height="16.306" transform="translate(140.135 213.412) rotate(-5.98)" fill="none" stroke="#263238" stroke-linecap="round" stroke-linejoin="round" stroke-width="1"/>
            <rect id="Rectángulo_347188" data-name="Rectángulo 347188" width="1.71" height="16.306" transform="translate(138.435 213.59) rotate(-5.981)" fill="#005ca8"/>
            <rect id="Rectángulo_347189" data-name="Rectángulo 347189" width="1.71" height="16.306" transform="translate(138.435 213.59) rotate(-5.981)" fill="none" stroke="#263238" stroke-linecap="round" stroke-linejoin="round" stroke-width="1"/>
            <path id="Trazado_724430" data-name="Trazado 724430" d="M235.229,334.391a2.481,2.481,0,0,0-2.207,2.724c.006.059.024.114.034.171l.576-.06.609-.064a1.278,1.278,0,0,1-.036-.171,1.29,1.29,0,1,1,2.037.9,1.116,1.116,0,0,0,.958.737,2.469,2.469,0,0,0-1.97-4.241" transform="translate(-86.77 -124.519)" fill="#fff"/>
            <path id="Trazado_724431" data-name="Trazado 724431" d="M235.229,334.391a2.481,2.481,0,0,0-2.207,2.724c.006.059.024.114.034.171l.576-.06.609-.064a1.278,1.278,0,0,1-.036-.171,1.29,1.29,0,1,1,2.037.9,1.116,1.116,0,0,0,.958.737,2.469,2.469,0,0,0-1.97-4.241Z" transform="translate(-86.77 -124.519)" fill="none" stroke="#263238" stroke-linecap="round" stroke-linejoin="round" stroke-width="1"/>
            <line id="Línea_380" data-name="Línea 380" y1="0.41" x2="3.918" transform="translate(142.281 216.363)" fill="none" stroke="#263238" stroke-linecap="round" stroke-linejoin="round" stroke-width="1"/>
            <line id="Línea_381" data-name="Línea 381" y1="0.798" x2="7.614" transform="translate(142.468 217.763)" fill="none" stroke="#263238" stroke-linecap="round" stroke-linejoin="round" stroke-width="1"/>
            <line id="Línea_382" data-name="Línea 382" y1="0.399" x2="3.807" transform="translate(142.655 219.95)" fill="none" stroke="#263238" stroke-linecap="round" stroke-linejoin="round" stroke-width="1"/>
            <line id="Línea_383" data-name="Línea 383" y1="0.666" x2="6.357" transform="translate(142.842 221.469)" fill="none" stroke="#263238" stroke-linecap="round" stroke-linejoin="round" stroke-width="1"/>
            <line id="Línea_384" data-name="Línea 384" y1="0.399" x2="3.806" transform="translate(143.029 223.524)" fill="none" stroke="#263238" stroke-linecap="round" stroke-linejoin="round" stroke-width="1"/>
            <line id="Línea_385" data-name="Línea 385" y1="0.875" x2="8.353" transform="translate(143.216 224.834)" fill="none" stroke="#263238" stroke-linecap="round" stroke-linejoin="round" stroke-width="1"/>
            <line id="Línea_386" data-name="Línea 386" y1="0.41" x2="3.918" transform="translate(143.404 227.086)" fill="none" stroke="#263238" stroke-linecap="round" stroke-linejoin="round" stroke-width="1"/>
            <path id="Trazado_724432" data-name="Trazado 724432" d="M231.872,334.743a2.481,2.481,0,0,0-2.207,2.723c.006.06.024.115.035.174l.575-.06v0l.609-.064a1.278,1.278,0,0,1-.036-.171,1.29,1.29,0,1,1,2.037.9,1.116,1.116,0,0,0,.958.737,2.469,2.469,0,0,0-1.97-4.241" transform="translate(-85.52 -124.65)" fill="#fff"/>
            <path id="Trazado_724433" data-name="Trazado 724433" d="M231.872,334.743a2.481,2.481,0,0,0-2.207,2.723c.006.06.024.115.035.174l.575-.06v0l.609-.064a1.278,1.278,0,0,1-.036-.171,1.29,1.29,0,1,1,2.037.9,1.116,1.116,0,0,0,.958.737,2.469,2.469,0,0,0-1.97-4.241Z" transform="translate(-85.52 -124.65)" fill="none" stroke="#263238" stroke-linecap="round" stroke-linejoin="round" stroke-width="1"/>
            <path id="Trazado_724434" data-name="Trazado 724434" d="M228.516,335.094a2.482,2.482,0,0,0-2.207,2.724c.006.059.024.114.034.171l.576-.06.609-.064a1.27,1.27,0,0,1-.036-.171,1.29,1.29,0,1,1,2.037.9,1.115,1.115,0,0,0,.958.737,2.469,2.469,0,0,0-1.97-4.241" transform="translate(-84.27 -124.78)" fill="#fff"/>
            <path id="Trazado_724435" data-name="Trazado 724435" d="M228.516,335.094a2.482,2.482,0,0,0-2.207,2.724c.006.059.024.114.034.171l.576-.06.609-.064a1.27,1.27,0,0,1-.036-.171,1.29,1.29,0,1,1,2.037.9,1.115,1.115,0,0,0,.958.737,2.469,2.469,0,0,0-1.97-4.241Z" transform="translate(-84.27 -124.78)" fill="none" stroke="#263238" stroke-linecap="round" stroke-linejoin="round" stroke-width="1"/>
            <path id="Trazado_724436" data-name="Trazado 724436" d="M225.159,335.446a2.481,2.481,0,0,0-2.207,2.723c.006.06.024.114.035.172l.575-.06.609-.064a1.278,1.278,0,0,1-.036-.171,1.29,1.29,0,1,1,2.037.9,1.116,1.116,0,0,0,.958.737,2.469,2.469,0,0,0-1.97-4.241" transform="translate(-83.02 -124.911)" fill="#fff"/>
            <path id="Trazado_724437" data-name="Trazado 724437" d="M225.159,335.446a2.481,2.481,0,0,0-2.207,2.723c.006.06.024.114.035.172l.575-.06.609-.064a1.278,1.278,0,0,1-.036-.171,1.29,1.29,0,1,1,2.037.9,1.116,1.116,0,0,0,.958.737,2.469,2.469,0,0,0-1.97-4.241Z" transform="translate(-83.02 -124.911)" fill="none" stroke="#263238" stroke-linecap="round" stroke-linejoin="round" stroke-width="1"/>
            <path id="Trazado_724438" data-name="Trazado 724438" d="M220.778,338.4a1.289,1.289,0,1,1,2.037.9,1.114,1.114,0,0,0,.958.738,2.482,2.482,0,1,0-3.42,0l-.147-1.409.609-.064a1.3,1.3,0,0,1-.036-.171" transform="translate(-81.77 -125.042)" fill="#fff"/>
            <path id="Trazado_724439" data-name="Trazado 724439" d="M220.778,338.4a1.289,1.289,0,1,1,2.037.9,1.114,1.114,0,0,0,.958.738,2.482,2.482,0,1,0-3.42,0l-.147-1.409.609-.064A1.3,1.3,0,0,1,220.778,338.4Z" transform="translate(-81.77 -125.042)" fill="none" stroke="#263238" stroke-linecap="round" stroke-linejoin="round" stroke-width="1"/>
            <path id="Trazado_724440" data-name="Trazado 724440" d="M218.361,345.889a5.617,5.617,0,0,0,.373.685,3.006,3.006,0,0,0,.449,2.556s.053,1.788.687,2.07,1.643.625,1.625.129-.316-2.006-1.454-2.338c0,0,1.312.261,1.164-.471s-.392-1.779-1.2-2.08l-.434-.191s1.038.19.955-.6-.177-1.7-.771-1.926a4.036,4.036,0,0,0-.46-.135c-.881-.208-1.446,1.177-.938,2.3" transform="translate(-81.244 -127.942)" fill="#fff"/>
            <path id="Trazado_724441" data-name="Trazado 724441" d="M218.361,345.889a5.617,5.617,0,0,0,.373.685,3.006,3.006,0,0,0,.449,2.556s.053,1.788.687,2.07,1.643.625,1.625.129-.316-2.006-1.454-2.338c0,0,1.312.261,1.164-.471s-.392-1.779-1.2-2.08l-.434-.191s1.038.19.955-.6-.177-1.7-.771-1.926a4.036,4.036,0,0,0-.46-.135C218.417,343.383,217.853,344.767,218.361,345.889Z" transform="translate(-81.244 -127.942)" fill="none" stroke="#263238" stroke-linecap="round" stroke-linejoin="round" stroke-width="1"/>
            <path id="Trazado_724442" data-name="Trazado 724442" d="M243.841,343.545a11.584,11.584,0,0,0-3.228-4.121c-2.007-1.412-2.751-4.162-3.568-3.493s-.075,3.579,1.19,4.577-.149,3.228,2.973,5.977" transform="translate(-88.146 -125.059)" fill="#fff"/>
            <path id="Trazado_724443" data-name="Trazado 724443" d="M243.841,343.545a11.584,11.584,0,0,0-3.228-4.121c-2.007-1.412-2.751-4.162-3.568-3.493s-.075,3.579,1.19,4.577-.149,3.228,2.973,5.977" transform="translate(-88.146 -125.059)" fill="none" stroke="#263238" stroke-linecap="round" stroke-linejoin="round" stroke-width="1"/>
            <path id="Trazado_724444" data-name="Trazado 724444" d="M332.107,331.558q-.414,2.561-.885,5.316H288.181a25.492,25.492,0,0,1,.728-3.759c-4.795,1.626-13.161-.9-13.161-.9,1.042-2.743.32-9.709.32-9.709l4.883-1.036s2.027-21.226,3.571-27.307c1.638-6.452,10.6-13.5,40.744-11.416,0,0,13.909-.264,16.068,8.956,2.015,8.6-8.65,39.458-9.227,39.853" transform="translate(-102.686 -105.154)" fill="#0174d2"/>
          </g>
        </g>
        <g id="Grupo_1012652" data-name="Grupo 1012652" transform="translate(173.062 177.223)">
          <g id="Grupo_1012651" data-name="Grupo 1012651" clip-path="url(#clip-path-24)">
            <g id="Grupo_1012647" data-name="Grupo 1012647" transform="translate(2.003 19.131)" opacity="0.2">
              <g id="Grupo_1012646" data-name="Grupo 1012646">
                <g id="Grupo_1012645" data-name="Grupo 1012645" clip-path="url(#clip-path-25)">
                  <path id="Trazado_724445" data-name="Trazado 724445" d="M290.1,344.465c-3.333,1.13-8.385.257-11.159-.383a4.57,4.57,0,0,0,1.343-3.113c2.259-.351,4.519-3.941,6.006-20.259.351-3.828,1.1-6.232,2.071-7.851a22.739,22.739,0,0,0-.113,11.222c.54,2.19,2.234,7.462,2.385,9.646a40.588,40.588,0,0,1-.533,10.738" transform="translate(-278.938 -312.859)"/>
                </g>
              </g>
            </g>
            <g id="Grupo_1012650" data-name="Grupo 1012650" transform="translate(12.426 12.353)" opacity="0.2">
              <g id="Grupo_1012649" data-name="Grupo 1012649">
                <g id="Grupo_1012648" data-name="Grupo 1012648" clip-path="url(#clip-path-26)">
                  <path id="Trazado_724446" data-name="Trazado 724446" d="M339.474,338.893q-.4,2.561-.879,5.31H295.554c.772-2.36,2.667-13.594-.006-20.422-.107-.276,9.245-4.205,15.508-2.6,26.548,6.81,17.4-15.132,24.985-19.123l-6.54,25.65-3.571,1.136c7.732.477,5.5,12.069,5.5,12.069a11.219,11.219,0,0,0,8.046-2.021" transform="translate(-295.546 -302.059)"/>
                </g>
              </g>
            </g>
          </g>
        </g>
        <g id="Grupo_1012657" data-name="Grupo 1012657">
          <g id="Grupo_1012656" data-name="Grupo 1012656" clip-path="url(#clip-path)">
            <path id="Trazado_724448" data-name="Trazado 724448" d="M332.107,331.558q-.414,2.561-.885,5.316H288.181a25.492,25.492,0,0,1,.728-3.759c-4.795,1.626-13.161-.9-13.161-.9,1.042-2.743.32-9.709.32-9.709l4.883-1.036s2.027-21.226,3.571-27.307c1.638-6.452,10.6-13.5,40.744-11.416,0,0,13.909-.264,16.068,8.956C343.349,300.3,332.685,331.162,332.107,331.558Z" transform="translate(-102.686 -105.154)" fill="none" stroke="#263238" stroke-linecap="round" stroke-linejoin="round" stroke-width="1"/>
            <path id="Trazado_724449" data-name="Trazado 724449" d="M274.9,344.239s1.63.872,2.162,4.708-.286,7.137-2.416,7.084-2.5-.887-2.069-1.676,1.368-1.853.658-5.131c-.891-4.113-2.722-3.738-2.722-3.738s2.445-2.339,4.388-1.246" transform="translate(-100.738 -128.083)" fill="#362b9e"/>
            <path id="Trazado_724450" data-name="Trazado 724450" d="M274.9,344.239s1.63.872,2.162,4.708-.286,7.137-2.416,7.084-2.5-.887-2.069-1.676,1.368-1.853.658-5.131c-.891-4.113-2.722-3.738-2.722-3.738S272.962,343.147,274.9,344.239Z" transform="translate(-100.738 -128.083)" fill="#0174d2" stroke="#263238" stroke-linecap="round" stroke-linejoin="round" stroke-width="1"/>
            <path id="Trazado_724452" data-name="Trazado 724452" d="M332.893,270.737s-10.823,3.282-15.744,1.531l-1.021,6.57s4.786,4.171,20.128-.956Z" transform="translate(-117.723 -100.82)" fill="#0174d2"/>
            <path id="Trazado_724453" data-name="Trazado 724453" d="M332.893,270.737s-10.823,3.282-15.744,1.531l-1.021,6.57s4.786,4.171,20.128-.956Z" transform="translate(-117.723 -100.82)" fill="none" stroke="#263238" stroke-linecap="round" stroke-linejoin="round" stroke-width="1"/>
            <path id="Trazado_724454" data-name="Trazado 724454" d="M279.309,337.029c1.287,4.189,2.437,7.552,1.3,7.9s-2.072-3.08-3.358-7.269-2.436-7.552-1.3-7.9,2.072,3.08,3.358,7.27" transform="translate(-102.588 -122.79)" fill="#005ca8"/>
            <path id="Trazado_724455" data-name="Trazado 724455" d="M279.309,337.029c1.287,4.189,2.437,7.552,1.3,7.9s-2.072-3.08-3.358-7.269-2.436-7.552-1.3-7.9S278.023,332.84,279.309,337.029Z" transform="translate(-102.588 -122.79)" fill="none" stroke="#263238" stroke-linecap="round" stroke-linejoin="round" stroke-width="1"/>
            <path id="Trazado_724456" data-name="Trazado 724456" d="M277.535,339.5l2.06-.633c-.3-.989-.586-1.924-.857-2.769l-2.047.629c.249.852.54,1.785.845,2.773" transform="translate(-103.036 -125.159)" fill="#263238"/>
            <path id="Trazado_724457" data-name="Trazado 724457" d="M277.737,332.313s.963-1.929,1.847-.567,1.067,5.5,1.69,5.5" transform="translate(-103.426 -123.357)" fill="none" stroke="#263238" stroke-linecap="round" stroke-linejoin="round" stroke-width="1"/>
            <path id="Trazado_724458" data-name="Trazado 724458" d="M296.087,300.269c-.785,2.4-1.87,5-2.592,7.9a22.739,22.739,0,0,0-.113,11.222c.54,2.19,2.234,7.462,2.385,9.646a40.588,40.588,0,0,1-.533,10.738,25.5,25.5,0,0,0-.728,3.759" transform="translate(-109.01 -111.817)" fill="none" stroke="#263238" stroke-linecap="round" stroke-linejoin="round" stroke-width="1"/>
            <path id="Trazado_724459" data-name="Trazado 724459" d="M317.255,345.373s-17.508,2.392-23.412,2.527c-.908.021-3.617-.314-3.617-.314l-4.2-2.807a18.235,18.235,0,0,0-4.821-.116l-1.808,2.362s-2.256.727-.967,2.436a2.186,2.186,0,0,0,.594,2.3,2.89,2.89,0,0,0,1.09,2.081,2.361,2.361,0,0,0,1.288,1.784c1.09.4,7.928-.694,10.009-1.288s22.3,2.576,30.224,2.378c0,0,6.788-7.928-4.385-11.347" transform="translate(-103.538 -128.298)" fill="#fff"/>
            <path id="Trazado_724460" data-name="Trazado 724460" d="M317.255,345.373s-17.508,2.392-23.412,2.527c-.908.021-3.617-.314-3.617-.314l-4.2-2.807a18.235,18.235,0,0,0-4.821-.116l-1.808,2.362s-2.256.727-.967,2.436a2.186,2.186,0,0,0,.594,2.3,2.89,2.89,0,0,0,1.09,2.081,2.361,2.361,0,0,0,1.288,1.784c1.09.4,7.928-.694,10.009-1.288s22.3,2.576,30.224,2.378C321.64,356.719,328.428,348.791,317.255,345.373Z" transform="translate(-103.538 -128.298)" fill="none" stroke="#263238" stroke-linecap="round" stroke-linejoin="round" stroke-width="1"/>
            <path id="Trazado_724461" data-name="Trazado 724461" d="M326.478,233.052s-4.622,1.8-7.357-3.179c-1.186-2.16-3.585-6.664-3.585-6.664-.683,1.765.155,4.454.155,4.454a17.351,17.351,0,0,0-4.592-.849c-1.074-1.8-1.387-5.874-1.387-5.874-1.487,2.485-1.058,6.048-1.058,6.048a11.946,11.946,0,0,0-6.587,2.79c.394,1.6.537,4.1.4,9.284-.172,6.777,3.085,8.632,6.256,11.165s11.87,3.845,14.869-9.4c0,0,6.289-2.338,3.212-7.253-.1-.166-.215-.341-.331-.523" transform="translate(-112.486 -82.276)" fill="#fff"/>
            <path id="Trazado_724462" data-name="Trazado 724462" d="M326.478,233.052s-4.622,1.8-7.357-3.179c-1.186-2.16-3.585-6.664-3.585-6.664-.683,1.765.155,4.454.155,4.454a17.351,17.351,0,0,0-4.592-.849c-1.074-1.8-1.387-5.874-1.387-5.874-1.487,2.485-1.058,6.048-1.058,6.048a11.946,11.946,0,0,0-6.587,2.79c.394,1.6.537,4.1.4,9.284-.172,6.777,3.085,8.632,6.256,11.165s11.87,3.845,14.869-9.4c0,0,6.289-2.338,3.212-7.253C326.7,233.408,326.593,233.233,326.478,233.052Z" transform="translate(-112.486 -82.276)" fill="none" stroke="#263238" stroke-linecap="round" stroke-linejoin="round" stroke-width="1"/>
            <path id="Trazado_724463" data-name="Trazado 724463" d="M332.762,227.287a15.306,15.306,0,0,0,9.832,8.322" transform="translate(-123.917 -84.639)" fill="none" stroke="#bfbfbf" stroke-miterlimit="10" stroke-width="1"/>
            <path id="Trazado_724464" data-name="Trazado 724464" d="M330.131,219.291a16.3,16.3,0,0,0,.605,2.426" transform="translate(-122.937 -81.662)" fill="none" stroke="#bfbfbf" stroke-miterlimit="10" stroke-width="1"/>
            <path id="Trazado_724465" data-name="Trazado 724465" d="M335.126,219.772s3.564,6.8,9.137,6.965" transform="translate(-124.797 -81.841)" fill="none" stroke="#bfbfbf" stroke-miterlimit="10" stroke-width="1"/>
            <path id="Trazado_724466" data-name="Trazado 724466" d="M352.541,247.342s9.066,14.683,9.066,23.228" transform="translate(-131.283 -92.108)" fill="none" stroke="#bfbfbf" stroke-miterlimit="10" stroke-width="1"/>
            <path id="Trazado_724467" data-name="Trazado 724467" d="M348.716,253.579s2.244,8.191,5.848,12.3" transform="translate(-129.858 -94.43)" fill="none" stroke="#bfbfbf" stroke-miterlimit="10" stroke-width="1"/>
            <path id="Trazado_724468" data-name="Trazado 724468" d="M302.989,219.651a24.751,24.751,0,0,0-.535,3.672" transform="translate(-112.631 -81.796)" fill="none" stroke="#bfbfbf" stroke-miterlimit="10" stroke-width="1"/>
            <path id="Trazado_724469" data-name="Trazado 724469" d="M310.994,207.391s-4.219.793-6.978,5.768" transform="translate(-113.212 -77.23)" fill="none" stroke="#bfbfbf" stroke-miterlimit="10" stroke-width="1"/>
            <path id="Trazado_724470" data-name="Trazado 724470" d="M306.621,267.984s-.139,6.587,3.222,10.287" transform="translate(-114.182 -99.794)" fill="none" stroke="#bfbfbf" stroke-miterlimit="10" stroke-width="1"/>
            <path id="Trazado_724471" data-name="Trazado 724471" d="M316.129,235.725c4.572-.9,6.58,1.433,6.58,1.433" transform="translate(-117.723 -87.705)" fill="none" stroke="#263238" stroke-linecap="round" stroke-linejoin="round" stroke-width="1"/>
            <path id="Trazado_724472" data-name="Trazado 724472" d="M303.984,238a5.2,5.2,0,0,1,3.874-1.543" transform="translate(-113.2 -88.055)" fill="none" stroke="#263238" stroke-linecap="round" stroke-linejoin="round" stroke-width="1"/>
            <path id="Trazado_724473" data-name="Trazado 724473" d="M318.5,258.573a6.415,6.415,0,0,0,2.2-2.9l-.294.158a17.023,17.023,0,0,1-5.918,1.892A3.4,3.4,0,0,0,318.5,258.573Z" transform="translate(-117.11 -95.21)" fill="none" stroke="#263238" stroke-linecap="round" stroke-linejoin="round" stroke-width="1"/>
            <path id="Trazado_724474" data-name="Trazado 724474" d="M310.5,248.722c-.6-.073-2.3-.881-2.44-2.032-.043-.345.208-.661.579-.934a5.28,5.28,0,0,0,2.229-4.607c-.009-.129-.014-.2-.014-.2" transform="translate(-114.718 -89.725)" fill="none" stroke="#263238" stroke-linecap="round" stroke-linejoin="round" stroke-width="1"/>
            <path id="Trazado_724475" data-name="Trazado 724475" d="M320.92,238.772c.434-.053.879.667.993,1.6s-.143,1.736-.576,1.789-.878-.662-.993-1.6.142-1.741.576-1.794" transform="translate(-119.283 -88.915)" fill="#263238"/>
            <path id="Trazado_724476" data-name="Trazado 724476" d="M308.327,242.153c.113.918-.14,1.7-.565,1.757s-.86-.65-.973-1.568.14-1.7.565-1.756.86.65.973,1.567" transform="translate(-114.235 -89.591)" fill="#263238"/>
            <path id="Trazado_724477" data-name="Trazado 724477" d="M331.5,238.529s-.587-1.659.081-2.536" transform="translate(-123.358 -87.881)" fill="none" stroke="#263238" stroke-linecap="round" stroke-linejoin="round" stroke-width="1"/>
            <path id="Trazado_724478" data-name="Trazado 724478" d="M357.5,338.9a11.214,11.214,0,0,1-8.045,2.018s2.23-11.591-5.5-12.068l3.568-1.138,6.54-25.65" transform="translate(-128.087 -112.484)" fill="none" stroke="#263238" stroke-linecap="round" stroke-linejoin="round" stroke-width="1"/>
            <path id="Trazado_724479" data-name="Trazado 724479" d="M352.722,342.929s4.139,1.09,5.3,4.656" transform="translate(-131.35 -127.703)" fill="none" stroke="#263238" stroke-linecap="round" stroke-linejoin="round" stroke-width="1"/>
            <path id="Trazado_724480" data-name="Trazado 724480" d="M325.792,275.674a28.018,28.018,0,0,0,11.421-2.5" transform="translate(-121.322 -101.728)" fill="none" stroke="#263238" stroke-linecap="round" stroke-linejoin="round" stroke-width="1"/>
            <path id="Trazado_724481" data-name="Trazado 724481" d="M317.288,276.179a17.316,17.316,0,0,0,2.7.476" transform="translate(-118.155 -102.846)" fill="none" stroke="#263238" stroke-linecap="round" stroke-linejoin="round" stroke-width="1"/>
            <path id="Trazado_724482" data-name="Trazado 724482" d="M345.4,287.077q1.675-.6,3.517-1.385" transform="translate(-128.622 -106.389)" fill="none" stroke="#263238" stroke-linecap="round" stroke-linejoin="round" stroke-width="1"/>
            <path id="Trazado_724483" data-name="Trazado 724483" d="M314.522,288.05s4.209,4,15.349,1.144" transform="translate(-117.125 -107.267)" fill="none" stroke="#263238" stroke-linecap="round" stroke-linejoin="round" stroke-width="1"/>
            <path id="Trazado_724484" data-name="Trazado 724484" d="M320.317,319.7s.662,9.65,7.811,13.243" transform="translate(-119.283 -119.055)" fill="none" stroke="#263238" stroke-linecap="round" stroke-linejoin="round" stroke-width="1"/>
            <path id="Trazado_724485" data-name="Trazado 724485" d="M340.244,344.939s1.411-3.1,5.611-1.571a8.762,8.762,0,0,1,5.165,5.455c1.189,4.088-.3,7.73-3.2,7.878s-3.427-.075-2.94-.967a7.288,7.288,0,0,0,.227-6.346c-1.8-4.314-4.866-4.45-4.866-4.45" transform="translate(-126.703 -127.709)" fill="#0174d2" stroke="#263238" stroke-width="1"/>
          </g>
        </g>
        <g id="Grupo_1012672" data-name="Grupo 1012672">
          <g id="Grupo_1012671" data-name="Grupo 1012671" clip-path="url(#clip-path)">
            <path id="Trazado_724489" data-name="Trazado 724489" d="M21.246,318.2S19.088,299.741,0,307.18c0,0,16.24-.121,18.987,13.787l2.526-.27Z" transform="translate(0 -113.733)" fill="#005192"/>
            <path id="Trazado_724491" data-name="Trazado 724491" d="M31.153,304.537s-1.651-19.684-5.246-34.981c0,0,10.983,11.618,8.473,33.494Z" transform="translate(-9.647 -100.38)" fill="#005192"/>
            <path id="Trazado_724493" data-name="Trazado 724493" d="M24.438,324.444s-3.166-27.113-13.7-36.423c0,0,18.845,4.687,16.054,33.482Z" transform="translate(-3.998 -107.256)" fill="#0174d2"/>
            <path id="Trazado_724494" data-name="Trazado 724494" d="M36.513,323.1s4.616-26.9,15.638-35.635c0,0-19.069,3.669-17.827,32.572Z" transform="translate(-12.76 -107.049)" fill="#0174d2"/>
            <path id="Trazado_724495" data-name="Trazado 724495" d="M40.036,330.223H17.756v3.87H18.5v13.661a6.936,6.936,0,0,0,6.936,6.937h6.924a6.936,6.936,0,0,0,6.936-6.937V334.093h.742Z" transform="translate(-6.612 -122.972)" fill="#fff"/>
            <path id="Trazado_724496" data-name="Trazado 724496" d="M40.036,330.223H17.756v3.87H18.5v13.661a6.936,6.936,0,0,0,6.936,6.937h6.924a6.936,6.936,0,0,0,6.936-6.937V334.093h.742Z" transform="translate(-6.612 -122.972)" fill="none" stroke="#263238" stroke-miterlimit="10" stroke-width="1"/>
            <line id="Línea_387" data-name="Línea 387" x2="2.967" transform="translate(26.519 210.939)" fill="#fff"/>
            <line id="Línea_388" data-name="Línea 388" x2="2.967" transform="translate(26.519 210.939)" fill="none" stroke="#263238" stroke-miterlimit="10" stroke-width="1"/>
            <line id="Línea_389" data-name="Línea 389" x2="8.597" transform="translate(14.905 210.939)" fill="#fff"/>
            <line id="Línea_390" data-name="Línea 390" x2="8.597" transform="translate(14.905 210.939)" fill="none" stroke="#263238" stroke-miterlimit="10" stroke-width="1"/>
            <path id="Trazado_724497" data-name="Trazado 724497" d="M164.366,312.867l-5.711-46.508a3.112,3.112,0,0,0-3-2.675H149.1l7.566,51.858h5.355a2.316,2.316,0,0,0,2.346-2.675" transform="translate(-55.523 -98.193)" fill="#362b9e"/>
            <path id="Trazado_724498" data-name="Trazado 724498" d="M164.366,312.867l-5.711-46.508a3.112,3.112,0,0,0-3-2.675H149.1l7.566,51.858h5.355A2.316,2.316,0,0,0,164.366,312.867Z" transform="translate(-55.523 -98.193)" fill="none" stroke="#263238" stroke-linecap="round" stroke-linejoin="round" stroke-width="1"/>
            <path id="Trazado_724499" data-name="Trazado 724499" d="M123.2,315.542H57.388a3.112,3.112,0,0,1-3-2.675l-5.711-46.508a2.316,2.316,0,0,1,2.346-2.674h65.811a3.111,3.111,0,0,1,3,2.674l5.711,46.508a2.316,2.316,0,0,1-2.346,2.675" transform="translate(-18.118 -98.194)" fill="#263238"/>
          </g>
        </g>
        <g id="Grupo_1012677" data-name="Grupo 1012677" transform="translate(30.536 165.491)">
          <g id="Grupo_1012676" data-name="Grupo 1012676" clip-path="url(#clip-path-30)">
            <g id="Grupo_1012675" data-name="Grupo 1012675" transform="translate(0 0)" opacity="0.1">
              <g id="Grupo_1012674" data-name="Grupo 1012674">
                <g id="Grupo_1012673" data-name="Grupo 1012673" clip-path="url(#clip-path-31)">
                  <path id="Trazado_724500" data-name="Trazado 724500" d="M123.2,315.542H57.388a3.112,3.112,0,0,1-3-2.675l-5.711-46.508a2.316,2.316,0,0,1,2.346-2.674h65.811a3.111,3.111,0,0,1,3,2.674l5.711,46.508a2.316,2.316,0,0,1-2.346,2.675" transform="translate(-48.654 -263.684)" fill="#fff"/>
                </g>
              </g>
            </g>
          </g>
        </g>
        <g id="Grupo_1012679" data-name="Grupo 1012679">
          <g id="Grupo_1012678" data-name="Grupo 1012678" clip-path="url(#clip-path)">
            <path id="Trazado_724502" data-name="Trazado 724502" d="M123.2,315.542H57.388a3.112,3.112,0,0,1-3-2.675l-5.711-46.508a2.316,2.316,0,0,1,2.346-2.674h65.811a3.111,3.111,0,0,1,3,2.674l5.711,46.508A2.316,2.316,0,0,1,123.2,315.542Z" transform="translate(-18.118 -98.194)" fill="none" stroke="#263238" stroke-linecap="round" stroke-linejoin="round" stroke-width="1"/>
            <path id="Trazado_724503" data-name="Trazado 724503" d="M107.08,344.583l2.628-29.955a1.232,1.232,0,0,0-1.227-1.339H91.866a1.231,1.231,0,0,0-1.226,1.124l-2.863,32.632A1.231,1.231,0,0,0,89,348.385h32.911a1.232,1.232,0,0,0,0-2.463H108.307a1.231,1.231,0,0,1-1.227-1.339" transform="translate(-32.685 -116.666)" fill="#263238"/>
            <path id="Trazado_724504" data-name="Trazado 724504" d="M107.08,344.583l2.628-29.955a1.232,1.232,0,0,0-1.227-1.339H91.866a1.231,1.231,0,0,0-1.226,1.124l-2.863,32.632A1.231,1.231,0,0,0,89,348.385h32.911a1.232,1.232,0,0,0,0-2.463H108.307A1.231,1.231,0,0,1,107.08,344.583Z" transform="translate(-32.685 -116.666)" fill="none" stroke="#263238" stroke-linecap="round" stroke-linejoin="round" stroke-width="1"/>
            <path id="Trazado_724505" data-name="Trazado 724505" d="M133.011,347.154a1.231,1.231,0,0,0-1.231-1.231H118.171a1.231,1.231,0,0,1-1.226-1.339l2.627-29.954a1.227,1.227,0,1,0-2.444-.215l-2.863,32.632a1.232,1.232,0,0,0,1.227,1.339h16.287a1.231,1.231,0,0,0,1.231-1.231" transform="translate(-42.549 -116.666)" fill="#0174d2"/>
            <path id="Trazado_724506" data-name="Trazado 724506" d="M133.011,347.154a1.231,1.231,0,0,0-1.231-1.231H118.171a1.231,1.231,0,0,1-1.226-1.339l2.627-29.954a1.227,1.227,0,1,0-2.444-.215l-2.863,32.632a1.232,1.232,0,0,0,1.227,1.339h16.287A1.231,1.231,0,0,0,133.011,347.154Z" transform="translate(-42.549 -116.666)" fill="none" stroke="#263238" stroke-linecap="round" stroke-linejoin="round" stroke-width="1"/>
            <line id="Línea_391" data-name="Línea 391" x2="235.354" transform="translate(15.005 231.719)" fill="none" stroke="#263238" stroke-linecap="round" stroke-linejoin="round" stroke-width="1"/>
          </g>
        </g>
        <g id="Grupo_1012681" data-name="Grupo 1012681">
          <g id="Grupo_1012680" data-name="Grupo 1012680" clip-path="url(#clip-path)">
            <path id="Trazado_724507" data-name="Trazado 724507" d="M364.755,187.609H352.381a2.908,2.908,0,0,0-2.908,2.908v6.02a2.908,2.908,0,0,0,2.908,2.909h3.234l.944,5.554,4.961-5.554h3.235a2.908,2.908,0,0,0,2.908-2.909v-6.02a2.908,2.908,0,0,0-2.908-2.908" transform="translate(-130.14 -69.864)" fill="#fff"/>
            <path id="Trazado_724508" data-name="Trazado 724508" d="M364.755,187.609H352.381a2.908,2.908,0,0,0-2.908,2.908v6.02a2.908,2.908,0,0,0,2.908,2.909h3.234l.944,5.554,4.961-5.554h3.235a2.908,2.908,0,0,0,2.908-2.909v-6.02A2.908,2.908,0,0,0,364.755,187.609Z" transform="translate(-130.14 -69.864)" fill="none" stroke="#263238" stroke-linecap="round" stroke-linejoin="round" stroke-width="1"/>
            <path id="Trazado_724509" data-name="Trazado 724509" d="M334.534,159.236H322.161a2.909,2.909,0,0,0-2.909,2.908v6.02a2.909,2.909,0,0,0,2.909,2.909H325.4l2.45,5.554,3.455-5.554h3.234a2.908,2.908,0,0,0,2.908-2.909v-6.02a2.908,2.908,0,0,0-2.908-2.908" transform="translate(-118.886 -59.298)" fill="#fff"/>
            <path id="Trazado_724510" data-name="Trazado 724510" d="M334.534,159.236H322.161a2.909,2.909,0,0,0-2.909,2.908v6.02a2.909,2.909,0,0,0,2.909,2.909H325.4l2.45,5.554,3.455-5.554h3.234a2.908,2.908,0,0,0,2.908-2.909v-6.02A2.908,2.908,0,0,0,334.534,159.236Z" transform="translate(-118.886 -59.298)" fill="none" stroke="#263238" stroke-linecap="round" stroke-linejoin="round" stroke-width="1"/>
            <path id="Trazado_724511" data-name="Trazado 724511" d="M296.675,169.192H284.989a2.747,2.747,0,0,0-2.747,2.747v5.685a2.747,2.747,0,0,0,2.747,2.747h3.054l3.187,5.246,2.391-5.246h3.054a2.747,2.747,0,0,0,2.747-2.747v-5.685a2.747,2.747,0,0,0-2.747-2.747" transform="translate(-105.104 -63.005)" fill="#fff"/>
            <path id="Trazado_724512" data-name="Trazado 724512" d="M296.675,169.192H284.989a2.747,2.747,0,0,0-2.747,2.747v5.685a2.747,2.747,0,0,0,2.747,2.747h3.054l3.187,5.246,2.391-5.246h3.054a2.747,2.747,0,0,0,2.747-2.747v-5.685A2.747,2.747,0,0,0,296.675,169.192Z" transform="translate(-105.104 -63.005)" fill="none" stroke="#263238" stroke-linecap="round" stroke-linejoin="round" stroke-width="1"/>
            <path id="Trazado_724513" data-name="Trazado 724513" d="M291.926,175.184v.685c0,.844-.407,1.3-1.234,1.3H290.3v1.979h-.827v-5.269h1.219c.827,0,1.234.459,1.234,1.3m-1.627-.55v1.784h.392c.264,0,.405-.121.405-.5v-.79c0-.377-.142-.5-.405-.5Z" transform="translate(-107.796 -64.752)" fill="#263238"/>
            <path id="Trazado_724514" data-name="Trazado 724514" d="M294.884,179.151h-.827v-5.269h.827v2.258h.941v-2.258h.844v5.269h-.844v-2.258h-.941Z" transform="translate(-109.504 -64.752)" fill="#263238"/>
            <path id="Trazado_724515" data-name="Trazado 724515" d="M301.634,175.184v.685c0,.844-.406,1.3-1.235,1.3h-.39v1.979h-.828v-5.269H300.4c.829,0,1.235.459,1.235,1.3m-1.625-.55v1.784h.39c.264,0,.407-.121.407-.5v-.79c0-.377-.143-.5-.407-.5Z" transform="translate(-111.412 -64.752)" fill="#263238"/>
            <path id="Trazado_724516" data-name="Trazado 724516" d="M329.453,167.965v.7c0,.843-.422,1.325-1.235,1.325s-1.234-.482-1.234-1.325v-2.74c0-.843.421-1.324,1.234-1.324s1.235.481,1.235,1.324v.511h-.783v-.564c0-.377-.166-.519-.429-.519s-.429.142-.429.519v2.846c0,.377.166.512.429.512s.429-.136.429-.512v-.753Z" transform="translate(-121.765 -61.295)" fill="#263238"/>
            <path id="Trazado_724517" data-name="Trazado 724517" d="M333.14,167.823h1.008v.587H333.14v1.031h-.587v-1.031h-1.009v-.587h1.009v-1.016h.587Z" transform="translate(-123.464 -62.117)" fill="#263238"/>
            <path id="Trazado_724518" data-name="Trazado 724518" d="M337.892,167.823H338.9v.587h-1.009v1.031H337.3v-1.031H336.3v-.587H337.3v-1.016h.587Z" transform="translate(-125.233 -62.117)" fill="#263238"/>
            <path id="Trazado_724519" data-name="Trazado 724519" d="M354.721,196.75v-.8l3.353-1.234v.813l-2.3.823,2.3.823v.813Z" transform="translate(-132.094 -72.509)" fill="#263238"/>
            <path id="Trazado_724520" data-name="Trazado 724520" d="M363.641,191.584h.977l-2.839,7.2H360.8Z" transform="translate(-134.359 -71.344)" fill="#263238"/>
            <path id="Trazado_724521" data-name="Trazado 724521" d="M367.621,197.985v-.813l2.3-.823-2.3-.823v-.813l3.353,1.234v.8Z" transform="translate(-136.898 -72.509)" fill="#263238"/>
          </g>
        </g>
      </g>
    </g>
  </g>
</svg>
