<svg xmlns="http://www.w3.org/2000/svg" xmlns:xlink="http://www.w3.org/1999/xlink" width="1240" height="622.5" viewBox="0 0 1240 622.5">
  <defs>
    <clipPath id="clip-path">
      <rect id="Rect치ngulo_348557" data-name="Rect치ngulo 348557" width="1240" height="620" rx="23" transform="translate(180 489)" fill="#37f871" opacity="0.15"/>
    </clipPath>
  </defs>
  <g id="Grupo_1021310" data-name="Grupo 1021310" transform="translate(159 13532.5)">
    <g id="Grupo_1021309" data-name="Grupo 1021309" transform="translate(-339 -14019)">
      <g id="Grupo_1013565" data-name="Grupo 1013565" transform="translate(0 -2.5)">
        <rect id="Rect치ngulo_348555" data-name="Rect치ngulo 348555" width="1240" height="620" rx="23" transform="translate(180 489)" fill="#dad4fc"/>
      </g>
      <path id="Rectangle_652" data-name="Rectangle 652" d="M1220.473,520.449H19.528A19.4,19.4,0,0,1,0,501.173V19.276A19.4,19.4,0,0,1,19.528,0H1220.473A19.4,19.4,0,0,1,1240,19.276v481.9A19.4,19.4,0,0,1,1220.473,520.449Z" transform="translate(180 487.552)" fill="none" opacity="0.238"/>
      <g id="Enmascarar_grupo_952098" data-name="Enmascarar grupo 952098" clip-path="url(#clip-path)">
        <g id="Grupo_1013564" data-name="Grupo 1013564" transform="translate(-45.049 -237.786)">
          <path id="Trazado_726348" data-name="Trazado 726348" d="M985.312,112.531s-86.594,1.024-232.8,87.224-163.763-67.02-252.455-66.023-111.707,66.6-207.86,49.075S171.716,92.364,57.439,125.062,34.7,20.7,34.7,20.7L972.387,0Z" transform="matrix(0.995, 0.105, -0.105, 0.995, 611.734, 689.871)" fill="none" stroke="#12263f" stroke-width="3" stroke-dasharray="11" opacity="0.142"/>
          <path id="Trazado_726350" data-name="Trazado 726350" d="M1863.595,765l-145.4-415.9,40.049-190.579L1471.389,0c-3.768,4.187-7.249,8.688-11.358,12.509-30.777,28.627-59.652,59.784-92.963,85.09-66.047,50.165-139.287,58.806-216.258,26.459q-40.182-16.886-79.309-36.245c-48.274-23.949-98.4-38.181-152.927-35-34.129,1.993-64.265,12.58-90.535,34.794-39.319,33.25-66.7,76.325-97.675,116.5-16.414,21.291-33.173,42.488-51.569,62.043C640.962,306.378,595,324.794,538.565,319.782c-60.71-5.393-111.426-25.856-148.074-77.005C359.91,200.1,328.924,157.5,295.2,117.32c-54.58-65.044-125.852-86.927-208.28-70.144C57.416,53.181,28.946,64.277,0,73.048L181.845,572.314Z" transform="matrix(-0.921, -0.391, 0.391, -0.921, 1715.448, 1432.349)" fill="none" stroke="#31313c" stroke-width="3" opacity="0.05"/>
          <path id="Trazado_726351" data-name="Trazado 726351" d="M1370.008,0,1263.117,305.748l29.441,140.1L1081.68,562.382c-2.77-3.078-5.329-6.386-8.35-9.2-22.625-21.045-43.853-43.95-68.341-62.553-48.553-36.879-102.4-43.231-158.98-19.451q-29.539,12.414-58.3,26.645c-35.488,17.606-72.338,28.068-112.423,25.726-25.089-1.465-47.244-9.248-66.557-25.578-28.905-24.443-49.031-56.11-71.8-85.647-12.067-15.652-24.387-31.234-37.911-45.611-27.812-29.566-61.6-43.1-103.088-39.42-44.63,3.964-81.914,19.008-108.855,56.61-22.482,31.376-45.261,62.688-70.049,92.229C176.893,523.951,124.5,540.039,63.9,527.7c-21.693-4.415-42.622-12.572-63.9-19.02L133.682,141.65Z" transform="matrix(0.891, 0.454, -0.454, 0.891, 697.943, 355.63)" fill="none" stroke="#fff" stroke-width="1" opacity="0.81"/>
        </g>
      </g>
    </g>
  </g>
</svg>
