<svg xmlns="http://www.w3.org/2000/svg" xmlns:xlink="http://www.w3.org/1999/xlink" width="1328" height="874" viewBox="0 0 1328 874">
  <defs>
    <clipPath id="clip-path">
      <rect id="Rectángulo_36954" data-name="Rectángulo 36954" width="1328" height="719.5" fill="#d5cef8" opacity="0.3"/>
    </clipPath>
  </defs>
  <g id="Grupo_1021312" data-name="Grupo 1021312" transform="translate(-5205 14920)">
    <g id="Grupo_1021311" data-name="Grupo 1021311" transform="translate(5113 -16863)">
      <g id="Grupo_1019743" data-name="Grupo 1019743" transform="translate(-44 1607.131)">
        <g id="Enmascarar_grupo_952090" data-name="Enmascarar grupo 952090" transform="translate(136 425.068)" opacity="0.51" clip-path="url(#clip-path)">
          <rect id="Rectángulo_36947" data-name="Rectángulo 36947" width="1328" height="719.5" fill="#d5cef8" opacity="0.52"/>
          <path id="Trazado_656249" data-name="Trazado 656249" d="M1458.324,580.187l-126.3-304.241,24.233-135.722L1129.985,16.261c-2.755,2.882-5.279,6-8.31,8.607-22.7,19.53-43.845,40.947-68.609,58-49.1,33.806-105.173,37.489-165.536,11.555q-31.512-13.538-62.3-28.819c-37.984-18.9-77.058-30.872-118.917-30.466-26.2.253-49.029,6.827-68.481,21.9-29.114,22.561-48.7,52.6-71.149,80.437-11.9,14.749-24.064,29.419-37.546,42.852-27.727,27.625-62.465,39.285-106.077,33.727-46.914-5.979-86.658-22.456-116.635-60.522-25.015-31.763-50.337-63.477-77.681-93.553C184.487,11.3,128.873-6.911,66.009,2.311,43.5,5.611,21.976,12.609,0,17.918L157.234,383.393Z" transform="matrix(0.891, -0.454, 0.454, 0.891, 250.994, 538.303)" fill="none" stroke="#fff" stroke-width="1" opacity="0.81"/>
          <path id="Rectangle_652" data-name="Rectangle 652" d="M1307.087,496.845H20.913C9.363,496.845,0,488.606,0,478.443V18.4C0,8.239,9.363,0,20.913,0H1307.087C1318.637,0,1328,8.239,1328,18.4V478.443C1328,488.606,1318.637,496.845,1307.087,496.845Z" transform="translate(0 14.542)" fill="none" opacity="0.238"/>
        </g>
      </g>
      <rect id="Rectángulo_369888" data-name="Rectángulo 369888" width="1328" height="89" transform="translate(92 1943)" fill="none"/>
    </g>
    <rect id="Rectángulo_369889" data-name="Rectángulo 369889" width="1328" height="65" transform="translate(5205 -14111)" fill="none"/>
  </g>
</svg>
