<svg xmlns="http://www.w3.org/2000/svg" width="146.857" height="98.531" viewBox="0 0 146.857 98.531">
  <g id="Grupo_1020496" data-name="Grupo 1020496" transform="translate(11559.34 12485.369)">
    <g id="Grupo_1020299" data-name="Grupo 1020299" transform="translate(-11566.963 -12663.899)">
      <g id="Grupo_1020064" data-name="Grupo 1020064" transform="translate(23.37 190.23)">
        <g id="Grupo_1020062" data-name="Grupo 1020062">
          <rect id="Rectángulo_369484" data-name="Rectángulo 369484" width="40.228" height="61.294" fill="#e0e0e0"/>
          <rect id="Rectángulo_369485" data-name="Rectángulo 369485" width="40.228" height="61.294" transform="translate(40.228)" fill="#bfbfbf"/>
        </g>
        <g id="Grupo_1020063" data-name="Grupo 1020063">
          <rect id="Rectángulo_369486" data-name="Rectángulo 369486" width="40.228" height="7.016" fill="#263963"/>
          <rect id="Rectángulo_369487" data-name="Rectángulo 369487" width="40.228" height="7.016" transform="translate(40.228)" fill="#17233d"/>
        </g>
        <rect id="Rectángulo_369488" data-name="Rectángulo 369488" width="3.574" height="3.574" transform="translate(67.665 1.721)" fill="#fff"/>
        <rect id="Rectángulo_369489" data-name="Rectángulo 369489" width="3.574" height="3.574" transform="translate(73.473 1.721)" fill="#fff"/>
      </g>
      <g id="Grupo_1020068" data-name="Grupo 1020068" transform="translate(74.024 178.53)">
        <g id="Grupo_1020065" data-name="Grupo 1020065">
          <rect id="Rectángulo_369490" data-name="Rectángulo 369490" width="40.228" height="61.294" fill="#e0e0e0"/>
          <rect id="Rectángulo_369491" data-name="Rectángulo 369491" width="40.228" height="61.294" transform="translate(40.228)" fill="#bfbfbf"/>
        </g>
        <g id="Grupo_1020066" data-name="Grupo 1020066" transform="translate(5.461 10.591)">
          <rect id="Rectángulo_369492" data-name="Rectángulo 369492" width="34.751" height="12.825" fill="#34466d"/>
          <rect id="Rectángulo_369493" data-name="Rectángulo 369493" width="34.751" height="12.825" transform="translate(34.768)" fill="#263963"/>
        </g>
        <rect id="Rectángulo_369494" data-name="Rectángulo 369494" width="14.298" height="12.825" transform="translate(5.461 27.288)" fill="#2691bf"/>
        <rect id="Rectángulo_369495" data-name="Rectángulo 369495" width="52.06" height="3.376" transform="translate(22.919 27.288)" fill="#263963"/>
        <path id="Trazado_735364" data-name="Trazado 735364" d="M109.531,199.121v2.118H67.83V197.88h41.7v1.241Z" transform="translate(-44.911 -165.859)" fill="#263963"/>
        <path id="Trazado_735365" data-name="Trazado 735365" d="M116.035,201.988v2.118H67.83V200.73h48.2v1.258Z" transform="translate(-44.911 -163.993)" fill="#263963"/>
        <rect id="Rectángulo_369496" data-name="Rectángulo 369496" width="52.06" height="3.376" transform="translate(22.919 43.985)" fill="#263963"/>
        <path id="Trazado_735366" data-name="Trazado 735366" d="M109.531,209.228v2.118H67.83V207.97h41.7v1.258Z" transform="translate(-44.911 -159.252)" fill="#263963"/>
        <path id="Trazado_735367" data-name="Trazado 735367" d="M116.035,212.071v2.118H67.83V210.83h48.2v1.241Z" transform="translate(-44.911 -157.38)" fill="#263963"/>
        <rect id="Rectángulo_369497" data-name="Rectángulo 369497" width="14.298" height="12.825" transform="translate(5.461 43.985)" fill="#2691bf"/>
        <g id="Grupo_1020067" data-name="Grupo 1020067">
          <rect id="Rectángulo_369498" data-name="Rectángulo 369498" width="40.228" height="7.016" fill="#263963"/>
          <rect id="Rectángulo_369499" data-name="Rectángulo 369499" width="40.228" height="7.016" transform="translate(40.228)" fill="#17233d"/>
        </g>
        <rect id="Rectángulo_369500" data-name="Rectángulo 369500" width="3.574" height="3.574" transform="translate(67.649 1.738)" fill="#fff"/>
        <rect id="Rectángulo_369501" data-name="Rectángulo 369501" width="3.574" height="3.574" transform="translate(73.457 1.738)" fill="#fff"/>
      </g>
      <path id="Trazado_735368" data-name="Trazado 735368" d="M126.8,197.01v.745h-3.972l-30.779-5.693-3.988-.728L57.28,185.658v-.728h3.988l30.779,5.676,3.988.728Z" transform="translate(22.205 4.191)" fill="#fff"/>
      <path id="Trazado_735369" data-name="Trazado 735369" d="M126.8,184.93v.728l-30.763,5.676-3.988.728-30.779,5.693H57.28v-.745l30.779-5.676,3.988-.728,30.763-5.676Z" transform="translate(22.205 4.191)" fill="#fff"/>
      <path id="Trazado_735370" data-name="Trazado 735370" d="M71.578,207.365v.48h-.53l-6.619-5.924-.53-.5L57.28,195.5v-.48h.546l6.6,5.924.546.48Z" transform="translate(22.205 10.798)" fill="#fff"/>
      <path id="Trazado_735371" data-name="Trazado 735371" d="M71.578,195.02v.48l-6.6,5.924-.546.5-6.6,5.924H57.28v-.48l6.619-5.941.53-.48,6.619-5.924Z" transform="translate(22.205 10.798)" fill="#fff"/>
      <path id="Trazado_735372" data-name="Trazado 735372" d="M71.578,217.455v.48h-.53l-6.619-5.924-.546-.48-6.6-5.924v-.5h.546l6.6,5.924.546.5Z" transform="translate(22.205 17.405)" fill="#fff"/>
      <path id="Trazado_735373" data-name="Trazado 735373" d="M71.578,205.11v.5l-6.6,5.924-.546.48-6.6,5.924H57.28v-.48l6.6-5.924.546-.5,6.619-5.924Z" transform="translate(22.205 17.405)" fill="#fff"/>
    </g>
    <g id="Grupo_1020297" data-name="Grupo 1020297" transform="translate(-11559.34 -12461.55)">
      <rect id="Rectángulo_369355" data-name="Rectángulo 369355" width="67.862" height="74.711" transform="translate(0 0)" fill="#fff"/>
      <path id="Trazado_734866" data-name="Trazado 734866" d="M356.59,284.928l2.254-.636-2.254-.52V281.72l4.538,1.561v2.052l-4.538,1.647v-2.052Z" transform="translate(-353.902 -266.489)" fill="#362b9e"/>
      <path id="Trazado_734867" data-name="Trazado 734867" d="M356.59,296.788l2.254-.636-2.254-.52V293.58l4.538,1.561v2.052l-4.538,1.647v-2.052Z" transform="translate(-353.902 -244.071)" fill="#362b9e"/>
      <path id="Trazado_734868" data-name="Trazado 734868" d="M356.59,300.748l2.254-.636-2.254-.52V297.54l4.538,1.59v2.052l-4.538,1.647v-2.052Z" transform="translate(-353.902 -236.586)" fill="#362b9e"/>
      <path id="Trazado_735790" data-name="Trazado 735790" d="M0,0H66.07V74.711H0Z" transform="translate(67.862 0)" fill="#e0e0e0"/>
      <g id="Grupo_1019927" data-name="Grupo 1019927" transform="translate(10.318 15.116)">
        <rect id="Rectángulo_369357" data-name="Rectángulo 369357" width="92.024" height="5.434" transform="translate(0.058)" fill="#2d4375"/>
        <rect id="Rectángulo_369358" data-name="Rectángulo 369358" width="89.712" height="5.462" transform="translate(0.058 45.752)" fill="#2d4375"/>
        <rect id="Rectángulo_369359" data-name="Rectángulo 369359" width="113.152" height="5.462" transform="translate(0 34.306)" fill="#2d4375"/>
      </g>
      <g id="Grupo_1019928" data-name="Grupo 1019928" transform="translate(0 0)">
        <rect id="Rectángulo_369360" data-name="Rectángulo 369360" width="67.862" height="8.179" fill="#2d4375"/>
        <rect id="Rectángulo_369361" data-name="Rectángulo 369361" width="66.07" height="8.179" transform="translate(67.862)" fill="#1e2d4f"/>
        <rect id="Rectángulo_369362" data-name="Rectángulo 369362" width="4.133" height="3.873" transform="translate(126.62 2.168)" fill="#fff"/>
        <rect id="Rectángulo_369363" data-name="Rectángulo 369363" width="4.133" height="3.873" transform="translate(117.95 2.168)" fill="#fff"/>
      </g>
      <g id="Grupo_1020300" data-name="Grupo 1020300" transform="translate(22.139 24.364)">
        <path id="Trazado_734869" data-name="Trazado 734869" d="M363.32,289.948l9.22-3.208v4.191L367.973,292l4.567,1.3v4.191l-9.22-3.353v-4.191Z" transform="translate(-363.32 -281.364)" fill="#221b6b"/>
        <path id="Trazado_734870" data-name="Trazado 734870" d="M373.758,285.01h4.884l-6.908,20.723H366.85Z" transform="translate(-356.648 -284.634)" fill="#221b6b"/>
        <path id="Trazado_734871" data-name="Trazado 734871" d="M375.566,287.019a16.331,16.331,0,0,1,6.359.9v2.8s-1.474-.144-3.671-.144c-1.676,0-2.225-.058-2.225,3.15,0,3.006.434,3.064,2.225,3.064a33.694,33.694,0,0,0,3.844-.2v2.8c-1.85,1.3-4.48.925-6.532.925-2.428,0-4.306-1.561-4.306-6.676s1.792-6.647,4.306-6.647Z" transform="translate(-348.312 -280.892)" fill="#221b6b"/>
        <path id="Trazado_734872" data-name="Trazado 734872" d="M381.387,287c4.567,0,6.127,1.647,6.127,6.85,0,4.855-1.416,6.474-6.127,6.474s-6.127-1.792-6.127-6.474C375.26,288.5,376.85,287,381.387,287Zm0,9.769c1.358,0,1.358-.2,1.358-2.919s0-3.295-1.358-3.295c-1.445,0-1.358.491-1.358,3.295C380.029,296.422,380.144,296.769,381.387,296.769Z" transform="translate(-340.751 -280.873)" fill="#221b6b"/>
        <path id="Trazado_734873" data-name="Trazado 734873" d="M384.219,290.949a7.4,7.4,0,0,1,3.237.723V284.88h4.769v19.306h-4.075l-.723-1.214a4.508,4.508,0,0,1-3.237,1.358c-2.919,0-4.22-1.676-4.22-6.619s.694-6.792,4.22-6.792Zm1.619,9.538c.751,0,1.358-.116,1.59-.549v-5.2a2.634,2.634,0,0,0-1.59-.376c-.694,0-1.1.347-1.1,3.121S385.115,300.487,385.837,300.487Z" transform="translate(-331.848 -284.88)" fill="#221b6b"/>
        <path id="Trazado_734874" data-name="Trazado 734874" d="M390.434,287.01c4.364,0,5.983.549,5.983,4.855,0,2.688-1.5,3.5-3.873,3.5h-3.035c0,1.763,1.156,1.387,2.977,1.387a17.858,17.858,0,0,0,3.7-.26v3.092c-1.734.78-5.087.694-7.139.694-3.324,0-4.306-2.2-4.306-6.705,0-5.434,1.474-6.561,5.694-6.561Zm.491,5.347a.714.714,0,0,0,.723-.78c0-.9,0-1.243-.867-1.243-1.04,0-1.329.173-1.272,2.052h1.416Z" transform="translate(-322.832 -280.854)" fill="#221b6b"/>
        <path id="Trazado_734875" data-name="Trazado 734875" d="M389.2,293.3l4.538-1.3-4.538-1.069V286.74l9.22,3.208v4.191l-9.22,3.353V293.3Z" transform="translate(-314.401 -281.364)" fill="#221b6b"/>
      </g>
    </g>
  </g>
</svg>
