<svg xmlns="http://www.w3.org/2000/svg" width="76.999" height="76.999" viewBox="0 0 76.999 76.999">
  <g id="Grupo_1019899" data-name="Grupo 1019899" transform="translate(-331 -1539)">
    <path id="Trazado_734782" data-name="Trazado 734782" d="M38.5,0A38.5,38.5,0,1,1,0,38.5,38.5,38.5,0,0,1,38.5,0Z" transform="translate(331 1539)" fill="#362b9e"/>
    <g id="coding-programer-web_design-programing-developer" data-name="coding-programer-web design-programing-developer" transform="translate(344.848 1554.848)">
      <path id="Trazado_734813" data-name="Trazado 734813" d="M29.127,16.194a.755.755,0,0,0,1.047.209l2.265-1.51a.755.755,0,0,0,0-1.256l-2.265-1.51a.755.755,0,1,0-.838,1.256l1.325.882-1.323.882a.755.755,0,0,0-.211,1.047Z" transform="translate(-6.613 -2.449)" fill="#fff"/>
      <path id="Trazado_734814" data-name="Trazado 734814" d="M22.378,16.692a.746.746,0,0,0,.378.1.755.755,0,0,0,.656-.378l3.02-5.286a.755.755,0,1,0-1.311-.749L22.1,15.665A.755.755,0,0,0,22.378,16.692Z" transform="translate(-4.899 -1.955)" fill="#fff"/>
      <path id="Trazado_734815" data-name="Trazado 734815" d="M21.755,22.51h1.51a.755.755,0,1,0,0-1.51h-1.51a.755.755,0,1,0,0,1.51Z" transform="translate(-4.654 -4.654)" fill="#fff"/>
      <path id="Trazado_734816" data-name="Trazado 734816" d="M21.755,26.51H32.326a.755.755,0,1,0,0-1.51H21.755a.755.755,0,1,0,0,1.51Z" transform="translate(-4.654 -5.633)" fill="#fff"/>
      <path id="Trazado_734817" data-name="Trazado 734817" d="M27,21.755a.755.755,0,0,0,.755.755H38.326a.755.755,0,1,0,0-1.51H27.755A.755.755,0,0,0,27,21.755Z" transform="translate(-6.123 -4.654)" fill="#fff"/>
      <path id="Trazado_734818" data-name="Trazado 734818" d="M41.265,25h-1.51a.755.755,0,1,0,0,1.51h1.51a.755.755,0,0,0,0-1.51Z" transform="translate(-9.062 -5.633)" fill="#fff"/>
      <path id="Trazado_734819" data-name="Trazado 734819" d="M21.755,30.51h1.51a.755.755,0,0,0,0-1.51h-1.51a.755.755,0,0,0,0,1.51Z" transform="translate(-4.654 -6.613)" fill="#fff"/>
      <path id="Trazado_734820" data-name="Trazado 734820" d="M38.326,29H27.755a.755.755,0,0,0,0,1.51H38.326a.755.755,0,0,0,0-1.51Z" transform="translate(-6.123 -6.613)" fill="#fff"/>
      <path id="Trazado_734821" data-name="Trazado 734821" d="M44.284,29.817V4.265A2.272,2.272,0,0,0,42.019,2H7.286A2.272,2.272,0,0,0,5.02,4.265V29.817L2,38.878v1.631a2.272,2.272,0,0,0,2.265,2.265H9.551V42.9a2.232,2.232,0,0,0,.664,1.6l.627.627a.747.747,0,0,1,.219.536v.883a.755.755,0,0,0,1.51,0v-.883a2.232,2.232,0,0,0-.664-1.6l-.627-.627a.748.748,0,0,1-.219-.536V35.6a.378.378,0,0,1,.755,0v2.643a.755.755,0,1,0,1.51,0V34.091a.378.378,0,1,1,.755,0v4.153a.755.755,0,1,0,1.51,0V33.336a.378.378,0,0,1,.755,0v4.908a.755.755,0,1,0,1.51,0V34.091a.378.378,0,1,1,.755,0v6.418a.755.755,0,0,0,1.51,0V38.244H20.5a.378.378,0,0,1,.378.378V42.9a.748.748,0,0,1-.219.536l-.627.627a2.232,2.232,0,0,0-.664,1.6v.883a.755.755,0,1,0,1.51,0v-.883a.748.748,0,0,1,.219-.536l.627-.627a2.232,2.232,0,0,0,.664-1.6v-.128h4.53V42.9a2.232,2.232,0,0,0,.664,1.6l.627.627a.748.748,0,0,1,.219.536v.883a.755.755,0,0,0,1.51,0v-.883a2.232,2.232,0,0,0-.664-1.6l-.627-.627a.748.748,0,0,1-.219-.536V38.621a.378.378,0,0,1,.378-.378h.378v2.265a.755.755,0,0,0,1.51,0V34.091a.378.378,0,1,1,.755,0v4.153a.755.755,0,0,0,1.51,0V33.336a.378.378,0,1,1,.755,0v4.908a.755.755,0,1,0,1.51,0V34.091a.378.378,0,1,1,.755,0v4.153a.755.755,0,1,0,1.51,0V35.6a.378.378,0,0,1,.755,0v7.3a.748.748,0,0,1-.219.536l-.627.627a2.232,2.232,0,0,0-.664,1.6v.883a.755.755,0,1,0,1.51,0v-.883a.748.748,0,0,1,.219-.536l.627-.627a2.232,2.232,0,0,0,.664-1.6v-.128h5.286A2.272,2.272,0,0,0,47.3,40.509V38.878ZM6.53,4.265a.755.755,0,0,1,.755-.755H42.019a.755.755,0,0,1,.755.755V29.183H6.53Zm3.02,37H4.265a.755.755,0,0,1-.755-.755v-.755H9.551Zm17.367,0h-4.53v-1.51h4.53Zm10.949-7.551a1.776,1.776,0,0,0-.408.045A1.888,1.888,0,0,0,35.6,32.2a1.834,1.834,0,0,0-.672.128,1.879,1.879,0,0,0-3.186,0,1.834,1.834,0,0,0-.672-.128,1.888,1.888,0,0,0-1.888,1.888v2.643h-.378a1.888,1.888,0,0,0-1.85,1.511H22.349a1.888,1.888,0,0,0-1.85-1.51h-.378V34.091A1.888,1.888,0,0,0,18.234,32.2a1.834,1.834,0,0,0-.672.128,1.879,1.879,0,0,0-3.186,0A1.834,1.834,0,0,0,13.7,32.2a1.888,1.888,0,0,0-1.857,1.555,1.776,1.776,0,0,0-.408-.045A1.888,1.888,0,0,0,9.551,35.6v2.643H3.8l2.514-7.551H42.986L45.5,38.244H39.754V35.6a1.888,1.888,0,0,0-1.888-1.888Zm7.928,6.8a.755.755,0,0,1-.755.755H39.754v-1.51h6.041Z" transform="translate(0 0)" fill="#fff"/>
      <path id="Trazado_734822" data-name="Trazado 734822" d="M42.468,6H10.755A.755.755,0,0,0,10,6.755V27.9a.755.755,0,0,0,.755.755H42.468a.755.755,0,0,0,.755-.755V6.755A.755.755,0,0,0,42.468,6Zm-.755,21.142H11.51V7.51h30.2Z" transform="translate(-1.959 -0.98)" fill="#fff"/>
      <path id="Trazado_734823" data-name="Trazado 734823" d="M10.51,42H9.755a.755.755,0,0,0,0,1.51h.755a.755.755,0,1,0,0-1.51Z" transform="translate(-1.714 -9.797)" fill="#fff"/>
      <path id="Trazado_734824" data-name="Trazado 734824" d="M9.51,46H8.755a.755.755,0,0,0,0,1.51H9.51a.755.755,0,0,0,0-1.51Z" transform="translate(-1.47 -10.777)" fill="#fff"/>
      <path id="Trazado_734825" data-name="Trazado 734825" d="M52.755,43.51h.755a.755.755,0,1,0,0-1.51h-.755a.755.755,0,0,0,0,1.51Z" transform="translate(-12.246 -9.797)" fill="#fff"/>
      <path id="Trazado_734826" data-name="Trazado 734826" d="M53.755,46a.755.755,0,0,0,0,1.51h.755a.755.755,0,0,0,0-1.51Z" transform="translate(-12.491 -10.777)" fill="#fff"/>
      <path id="Trazado_734827" data-name="Trazado 734827" d="M29.51,42h-.755a.755.755,0,1,0,0,1.51h.755a.755.755,0,1,0,0-1.51Z" transform="translate(-6.368 -9.797)" fill="#fff"/>
      <path id="Trazado_734828" data-name="Trazado 734828" d="M34.51,42h-.755a.755.755,0,1,0,0,1.51h.755a.755.755,0,0,0,0-1.51Z" transform="translate(-7.593 -9.797)" fill="#fff"/>
      <path id="Trazado_734829" data-name="Trazado 734829" d="M29.51,46h-.755a.755.755,0,0,0,0,1.51h.755a.755.755,0,0,0,0-1.51Z" transform="translate(-6.368 -10.777)" fill="#fff"/>
      <path id="Trazado_734830" data-name="Trazado 734830" d="M34.51,46h-.755a.755.755,0,0,0,0,1.51h.755a.755.755,0,0,0,0-1.51Z" transform="translate(-7.593 -10.777)" fill="#fff"/>
      <path id="Trazado_734831" data-name="Trazado 734831" d="M19.648,16.194A.755.755,0,0,1,18.6,16.4l-2.265-1.51a.755.755,0,0,1,0-1.256l2.265-1.51a.755.755,0,0,1,.838,1.256l-1.325.882,1.323.882a.755.755,0,0,1,.211,1.047Z" transform="translate(-3.429 -2.449)" fill="#fff"/>
    </g>
  </g>
</svg>
