<svg xmlns="http://www.w3.org/2000/svg" width="76.999" height="76.999" viewBox="0 0 76.999 76.999">
  <g id="Grupo_1019898" data-name="Grupo 1019898" transform="translate(-331 -1539)">
    <path id="Trazado_734782" data-name="Trazado 734782" d="M38.5,0A38.5,38.5,0,1,1,0,38.5,38.5,38.5,0,0,1,38.5,0Z" transform="translate(331 1539)" fill="#362b9e"/>
    <g id="copia-de-seguridad-de-archivos" transform="translate(346.371 1554.374)">
      <path id="Trazado_734803" data-name="Trazado 734803" d="M33.683,3.133C33.683.66,27.282,0,23.5,0S13.317.66,13.317,3.133V7.05H6.267a3.133,3.133,0,0,0-3.133,3.133V20.366A3.179,3.179,0,0,0,.678,21.5,2.9,2.9,0,0,0,.052,23.89L3.926,44.533A3.1,3.1,0,0,0,7.012,47H39.989a3.1,3.1,0,0,0,3.086-2.466l3.873-20.642a2.9,2.9,0,0,0-.627-2.389,3.179,3.179,0,0,0-2.456-1.136v-4.7a3.133,3.133,0,0,0-3.133-3.133h-7.05Zm-18.8,17.233v-2.9c2.138,1.018,6,1.332,8.616,1.332s6.479-.313,8.616-1.332v2.9Zm17.233-4.742c-.313.584-3.426,1.609-8.616,1.609-5.229,0-8.349-1.04-8.616-1.567V11.2c2.138,1.018,6,1.332,8.616,1.332s6.479-.313,8.616-1.332ZM23.5,10.966c-5.229,0-8.349-1.04-8.616-1.567V4.935c2.138,1.018,6,1.332,8.616,1.332s6.479-.313,8.616-1.332V9.354C31.8,9.942,28.69,10.966,23.5,10.966Zm0-9.4c5.065,0,8.151.976,8.592,1.567C31.651,3.724,28.567,4.7,23.5,4.7s-8.151-.976-8.592-1.567C15.349,2.543,18.435,1.567,23.5,1.567ZM6.267,8.616h7.05v11.75H4.7V10.183A1.567,1.567,0,0,1,6.267,8.616ZM45.41,23.6,41.535,44.243a1.533,1.533,0,0,1-1.547,1.189H7.012a1.533,1.533,0,0,1-1.547-1.189L1.59,23.6a1.318,1.318,0,0,1,.295-1.1,1.613,1.613,0,0,1,1.249-.572H43.866a1.613,1.613,0,0,1,1.253.569,1.318,1.318,0,0,1,.291,1.1Zm-4.677-9.5A1.567,1.567,0,0,1,42.3,15.666v4.7H33.683V14.1Z" transform="translate(0 0)" fill="#fff"/>
      <path id="Trazado_734804" data-name="Trazado 734804" d="M24.439,9.669c-.535-.062-1.044-.135-1.517-.221a.784.784,0,0,0-.277,1.542c.5.09,1.045.17,1.616.235a.705.705,0,0,0,.09.005.783.783,0,0,0,.089-1.562Z" transform="translate(-4.767 -2.045)" fill="#fff"/>
      <path id="Trazado_734805" data-name="Trazado 734805" d="M30.333,9.989c-.506.011-1.028.011-1.534,0a.783.783,0,1,0-.033,1.567q.4.009.8.009t.8-.009a.783.783,0,0,0,.767-.8A.8.8,0,0,0,30.333,9.989Z" transform="translate(-6.067 -2.164)" fill="#fff"/>
      <path id="Trazado_734806" data-name="Trazado 734806" d="M36.21,9.449c-.47.086-.982.157-1.517.221a.783.783,0,0,0,.089,1.562.7.7,0,0,0,.09-.005c.571-.065,1.112-.145,1.616-.235a.784.784,0,1,0-.277-1.542Z" transform="translate(-7.366 -2.045)" fill="#fff"/>
      <path id="Trazado_734807" data-name="Trazado 734807" d="M24.439,17.669c-.535-.062-1.044-.135-1.517-.221a.784.784,0,0,0-.277,1.542c.5.09,1.045.17,1.616.235a.705.705,0,0,0,.09.005.783.783,0,0,0,.089-1.562Z" transform="translate(-4.767 -3.778)" fill="#fff"/>
      <path id="Trazado_734808" data-name="Trazado 734808" d="M28,18.757a.783.783,0,0,0,.767.8q.4.009.8.009t.8-.009a.783.783,0,0,0,.767-.8.8.8,0,0,0-.8-.768c-.506.011-1.028.011-1.534,0a.788.788,0,0,0-.8.768Z" transform="translate(-6.067 -3.898)" fill="#fff"/>
      <path id="Trazado_734809" data-name="Trazado 734809" d="M34.783,19.231a.705.705,0,0,0,.09-.005c.571-.065,1.112-.145,1.616-.235a.784.784,0,0,0-.277-1.542c-.47.086-.982.157-1.517.221a.783.783,0,0,0,.089,1.562Z" transform="translate(-7.366 -3.778)" fill="#fff"/>
      <path id="Trazado_734810" data-name="Trazado 734810" d="M27.575,31a8.61,8.61,0,1,0-.309,17.218l-1.028,1.028a.783.783,0,1,0,1.108,1.108L29.7,48a.783.783,0,0,0,0-1.108l-2.35-2.35a.783.783,0,1,0-1.108,1.108l1,1a7.037,7.037,0,1,1,5.981-2.8.783.783,0,1,0,1.253.94A8.616,8.616,0,0,0,27.575,31Z" transform="translate(-4.075 -6.717)" fill="#fff"/>
    </g>
  </g>
</svg>
