<svg xmlns="http://www.w3.org/2000/svg" width="76.999" height="76.999" viewBox="0 0 76.999 76.999">
  <g id="Grupo_1019901" data-name="Grupo 1019901" transform="translate(-331 -1539)">
    <path id="Trazado_734791" data-name="Trazado 734791" d="M38.5,0A38.5,38.5,0,1,1,0,38.5,38.5,38.5,0,0,1,38.5,0Z" transform="translate(331 1539)" fill="#362b9e"/>
    <g id="programador_6_" data-name="programador (6)" transform="translate(341.562 1505.094)">
      <g id="Grupo_1019876" data-name="Grupo 1019876" transform="translate(-0.965 47.907)">
        <g id="Grupo_1019872" data-name="Grupo 1019872" transform="translate(8.777 0)">
          <g id="Grupo_1019870" data-name="Grupo 1019870" transform="translate(9.627)">
            <path id="Trazado_734792" data-name="Trazado 734792" d="M184.415,60.826a.923.923,0,0,1-.67-.288,2.459,2.459,0,0,1-.367-.6,13.824,13.824,0,0,0-1.636-2.575,7.888,7.888,0,0,0-.647-.761,6.057,6.057,0,0,0-.492-.424,3.674,3.674,0,0,1-.761.632,4.427,4.427,0,0,1-2.632.557h-.049c-.023,0-2.227-.049-4.578.114l-.114.008a5.523,5.523,0,0,0-2.139.42c-.564.3-.894.932-1.106,2.109a.983.983,0,0,1-.636.75.964.964,0,0,1-1.1-.341,3.965,3.965,0,0,1-.606-1.988l0-.019a10.436,10.436,0,0,1,.061-3.6,8.078,8.078,0,0,1,1.81-2.579,14.492,14.492,0,0,1,6.441-3.067,14.273,14.273,0,0,1,3.855-.3,12.948,12.948,0,0,1,2.189.322,3.257,3.257,0,0,1,1.908,1.2,4.247,4.247,0,0,1,.454.863,2.222,2.222,0,0,0,.318.591,4,4,0,0,0,.655.526,6.648,6.648,0,0,1,.871.7,5.581,5.581,0,0,1,1.587,3.071,4.53,4.53,0,0,1-.807,2.8c-.049.083-.288.454-.53.8-.485.708-.716,1.022-1.189,1.072A.606.606,0,0,1,184.415,60.826ZM180.4,54.1a1.737,1.737,0,0,1,.958.382l.019.015a7.358,7.358,0,0,1,.981.807,9.028,9.028,0,0,1,.8.935,16.413,16.413,0,0,1,1.359,2c.064-.1.117-.182.148-.231a2.8,2.8,0,0,0,.553-1.674,3.8,3.8,0,0,0-1.075-1.98,4.936,4.936,0,0,0-.625-.5,6.3,6.3,0,0,1-.928-.765,3.665,3.665,0,0,1-.663-1.117,2.534,2.534,0,0,0-.261-.519,1.539,1.539,0,0,0-.875-.492,10.794,10.794,0,0,0-1.871-.273,13.306,13.306,0,0,0-8.906,2.863,6.257,6.257,0,0,0-1.39,1.958,6.828,6.828,0,0,0-.034,1.488,3.306,3.306,0,0,1,.882-.689,6.929,6.929,0,0,1,2.87-.629l.11-.008c2.439-.167,4.654-.117,4.745-.117h.053a2.759,2.759,0,0,0,1.624-.28,2.011,2.011,0,0,0,.659-.685.992.992,0,0,1,.647-.462,1.04,1.04,0,0,1,.216-.023Zm.693,1.416s0,0,0,.008S181.1,55.522,181.1,55.518Z" transform="translate(-166.217 -48.848)" fill="#fff"/>
            <path id="Trazado_734793" data-name="Trazado 734793" d="M172.684,151.694a8.073,8.073,0,0,1-1.719-.186,8.516,8.516,0,0,1-3.438-1.7,8.8,8.8,0,0,1-2.647-3.775,9.9,9.9,0,0,1-.379-1.431,4.106,4.106,0,0,1-1.291-.977,4.367,4.367,0,0,1-1.015-1.969,4.028,4.028,0,0,1,1.375-3.98.91.91,0,1,1,1.2,1.371,2.191,2.191,0,0,0-.8,2.219,2.465,2.465,0,0,0,1.6,1.806.908.908,0,0,1,.648.75,8.7,8.7,0,0,0,.375,1.6,7.033,7.033,0,0,0,2.09,2.984,6.573,6.573,0,0,0,2.677,1.333,6.106,6.106,0,0,0,2.613,0,5.865,5.865,0,0,0,2.026-.928,7.072,7.072,0,0,0,1.348-1.242,8.872,8.872,0,0,0,1.772-3.866.918.918,0,0,1,.738-.708c.587-.1,1.337-1.113,1.42-2.276.057-.8-.212-1.3-.8-1.492a.909.909,0,0,1,.557-1.731,2.836,2.836,0,0,1,1.685,1.39,3.63,3.63,0,0,1,.371,1.965,4.555,4.555,0,0,1-2.314,3.753,10.271,10.271,0,0,1-2.037,4.142,8.993,8.993,0,0,1-1.708,1.568,7.72,7.72,0,0,1-2.635,1.2A8.171,8.171,0,0,1,172.684,151.694Z" transform="translate(-162.098 -127.292)" fill="#fff"/>
          </g>
          <g id="Grupo_1019871" data-name="Grupo 1019871" transform="translate(14.529 21.215)">
            <path id="Trazado_734794" data-name="Trazado 734794" d="M205.766,240.035a.891.891,0,0,1-.4-.095.908.908,0,0,1-.409-1.219,6.232,6.232,0,0,0,.663-2.476,2.459,2.459,0,0,0-.129-.894q-.04-.131-.08-.3a.909.909,0,0,1,1.761-.451c.023.087.045.167.068.25a4.2,4.2,0,0,1,.2,1.439,8.072,8.072,0,0,1-.852,3.238A.922.922,0,0,1,205.766,240.035Z" transform="translate(-204.86 -233.921)" fill="#fff"/>
            <path id="Trazado_734795" data-name="Trazado 734795" d="M280.161,241.513a.908.908,0,0,1-.8-.466,7.892,7.892,0,0,1-1.053-3.563,4.2,4.2,0,0,1,.2-1.439c.011-.034.019-.068.03-.106a.908.908,0,1,1,1.749.485l-.034.114a2.468,2.468,0,0,0-.129.9,6.07,6.07,0,0,0,.822,2.719.908.908,0,0,1-.348,1.238A.8.8,0,0,1,280.161,241.513Z" transform="translate(-269.891 -235.119)" fill="#fff"/>
          </g>
          <path id="Trazado_734796" data-name="Trazado 734796" d="M117.461,279.932H79.027a.908.908,0,0,1-.909-.9c-.008-2.738.117-9.584,1.484-13.991A11.429,11.429,0,0,1,81,262.01a11.877,11.877,0,0,1,4.442-3.9,12.153,12.153,0,0,1,5.987-1.3.885.885,0,0,1,.583.246l4.025,3.775a.908.908,0,1,1-1.242,1.325l-3.768-3.537a10.322,10.322,0,0,0-4.756,1.106,10.035,10.035,0,0,0-3.749,3.279,9.513,9.513,0,0,0-1.174,2.56c-1.174,3.79-1.375,9.777-1.4,12.541h36.609c-.026-2.764-.227-8.751-1.4-12.541a9.632,9.632,0,0,0-1.174-2.56,10,10,0,0,0-3.749-3.279,10.336,10.336,0,0,0-4.771-1.106l-3.983,3.552a.909.909,0,1,1-1.212-1.356l4.233-3.775a.917.917,0,0,1,.568-.231,12.153,12.153,0,0,1,5.987,1.3,11.877,11.877,0,0,1,4.442,3.9,11.428,11.428,0,0,1,1.393,3.025c1.367,4.408,1.5,11.254,1.484,13.991a.91.91,0,0,1-.909.9Z" transform="translate(-78.118 -232.969)" fill="#fff"/>
        </g>
        <path id="Trazado_734797" data-name="Trazado 734797" d="M48.317,444.49H.767a.922.922,0,0,1,0-1.818h47.55a.922.922,0,0,1,0,1.818Z" transform="translate(4.36 -397.527)" fill="#fff"/>
        <g id="Grupo_1019875" data-name="Grupo 1019875" transform="translate(13.548 27.625)">
          <path id="Trazado_734798" data-name="Trazado 734798" d="M146.623,418.637H123.57a3.832,3.832,0,0,1-3.828-3.828v-.428a.907.907,0,0,1,.909-.909h28.892a.907.907,0,0,1,.909.909v.428A3.835,3.835,0,0,1,146.623,418.637Zm-25.007-3.347a2.014,2.014,0,0,0,1.954,1.53h23.049a2.019,2.019,0,0,0,1.954-1.53Z" transform="translate(-119.742 -399.299)" fill="#fff"/>
          <path id="Trazado_734799" data-name="Trazado 734799" d="M162.883,305.823H137.96a.907.907,0,0,1-.909-.909V292.255a2.426,2.426,0,0,1,2.423-2.423h21.894a2.426,2.426,0,0,1,2.423,2.423v12.659A.909.909,0,0,1,162.883,305.823Zm-24.015-1.817h23.106v-11.75a.608.608,0,0,0-.606-.606H139.474a.608.608,0,0,0-.606.606Z" transform="translate(-135.067 -289.832)" fill="#fff"/>
          <g id="Grupo_1019874" data-name="Grupo 1019874" transform="translate(7.509 3.163)">
            <g id="Grupo_1019873" data-name="Grupo 1019873" transform="translate(0 1.362)">
              <path id="Trazado_734800" data-name="Trazado 734800" d="M189.5,336.242a.9.9,0,0,1-.549-.186L185.6,333.5a.913.913,0,0,1,0-1.446l3.351-2.56a.908.908,0,1,1,1.1,1.443l-2.4,1.837,2.4,1.836a.906.906,0,0,1,.17,1.272A.886.886,0,0,1,189.5,336.242Z" transform="translate(-185.244 -329.305)" fill="#fff"/>
              <path id="Trazado_734801" data-name="Trazado 734801" d="M277.97,336.288a.907.907,0,0,1-.553-1.628l2.4-1.837-2.4-1.837a.908.908,0,1,1,1.1-1.443l3.351,2.56a.913.913,0,0,1,0,1.446l-3.351,2.56A.949.949,0,0,1,277.97,336.288Z" transform="translate(-266.535 -329.351)" fill="#fff"/>
            </g>
            <path id="Trazado_734802" data-name="Trazado 734802" d="M237.1,327.083a.94.94,0,0,1-.246-.034.912.912,0,0,1-.632-1.121l2.189-7.838a.91.91,0,1,1,1.753.488l-2.189,7.838a.908.908,0,0,1-.875.666Z" transform="translate(-230.351 -317.424)" fill="#fff"/>
          </g>
        </g>
      </g>
    </g>
  </g>
</svg>
