<svg xmlns="http://www.w3.org/2000/svg" width="384.067" height="436.622" viewBox="0 0 384.067 436.622">
  <g id="Grupo_1020629" data-name="Grupo 1020629" transform="translate(-245.552 -558.326)">
    <path id="AdobeStock_63496949" d="M38,0H350.22a0,0,0,0,1,0,0V398.175a38,38,0,0,1-38,38H0a0,0,0,0,1,0,0V38A38,38,0,0,1,38,0Z" transform="translate(264 558.326)" fill="#9e92d8"/>
    <g id="Grupo_1020622" data-name="Grupo 1020622">
      <g id="Grupo_1020619" data-name="Grupo 1020619">
        <g id="Grupo_1020620" data-name="Grupo 1020620">
          <g id="Grupo_1020617" data-name="Grupo 1020617">
            <g id="Grupo_1020614" data-name="Grupo 1020614">
              <rect id="Rectángulo_348567" data-name="Rectángulo 348567" width="108.348" height="155.125" rx="7.17" transform="translate(382.081 682.63)" fill="#f2ecd1"/>
              <rect id="Rectángulo_348568" data-name="Rectángulo 348568" width="95.592" height="135.803" transform="translate(388.454 691.272)" fill="#0c2742"/>
              <rect id="Rectángulo_348569" data-name="Rectángulo 348569" width="74.279" height="116.28" transform="translate(395.322 701.034)" fill="#112e4c"/>
              <g id="Grupo_1013583" data-name="Grupo 1013583" transform="translate(404.783 709.36)">
                <rect id="Rectángulo_348570" data-name="Rectángulo 348570" width="2.191" height="2.616" fill="#fbf2d8"/>
                <rect id="Rectángulo_348571" data-name="Rectángulo 348571" width="2.191" height="2.608" transform="translate(0 82.852)" fill="#fbf2d8"/>
                <rect id="Rectángulo_348572" data-name="Rectángulo 348572" width="5.425" height="2.608" transform="translate(3.357 82.852)" fill="#fbf2d8"/>
                <rect id="Rectángulo_348573" data-name="Rectángulo 348573" width="12.408" height="2.616" transform="translate(3.094)" fill="#fbf2d8"/>
                <rect id="Rectángulo_348574" data-name="Rectángulo 348574" width="8.11" height="2.616" transform="translate(17.609)" fill="#fbf2d8"/>
                <path id="Trazado_726377" data-name="Trazado 726377" d="M310.682,278.69h-.841L309,281.3h.841Z" transform="translate(-309 -190.498)" fill="#fbf2d8"/>
                <rect id="Rectángulo_348575" data-name="Rectángulo 348575" width="8.334" height="2.608" transform="translate(2.06 4.645)" fill="#fbf2d8"/>
                <rect id="Rectángulo_348576" data-name="Rectángulo 348576" width="3.496" height="2.616" transform="translate(2.06 78.13)" fill="#fbf2d8"/>
                <rect id="Rectángulo_348577" data-name="Rectángulo 348577" width="4.969" height="2.616" transform="translate(6.767 78.13)" fill="#fbf2d8"/>
                <rect id="Rectángulo_348578" data-name="Rectángulo 348578" width="18.497" height="2.616" transform="translate(13.041 78.13)" fill="#fbf2d8"/>
                <rect id="Rectángulo_348579" data-name="Rectángulo 348579" width="7.578" height="2.616" transform="translate(11.127 9.869)" fill="#fbf2d8"/>
                <rect id="Rectángulo_348580" data-name="Rectángulo 348580" width="7.578" height="2.616" transform="translate(20.225 9.869)" fill="#fbf2d8"/>
                <rect id="Rectángulo_348581" data-name="Rectángulo 348581" width="1.366" height="2.616" transform="translate(29.091 9.869)" fill="#fbf2d8"/>
                <rect id="Rectángulo_348582" data-name="Rectángulo 348582" width="2.199" height="2.616" transform="translate(31.53 9.869)" fill="#fbf2d8"/>
                <rect id="Rectángulo_348583" data-name="Rectángulo 348583" width="11.467" height="2.608" transform="translate(23.474 4.645)" fill="#fbf2d8"/>
                <rect id="Rectángulo_348584" data-name="Rectángulo 348584" width="9.584" height="2.608" transform="translate(11.914 4.645)" fill="#fbf2d8"/>
                <rect id="Rectángulo_348585" data-name="Rectángulo 348585" width="11.467" height="2.608" transform="translate(4.661 14.422)" fill="#fbf2d8"/>
                <rect id="Rectángulo_348586" data-name="Rectángulo 348586" width="3.31" height="2.616" transform="translate(4.661 19.191)" fill="#fbf2d8"/>
                <rect id="Rectángulo_348587" data-name="Rectángulo 348587" width="5.818" height="2.616" transform="translate(9.406 19.191)" fill="#fbf2d8"/>
                <rect id="Rectángulo_348588" data-name="Rectángulo 348588" width="4.391" height="2.616" transform="translate(17.648 19.191)" fill="#fbf2d8"/>
                <rect id="Rectángulo_348589" data-name="Rectángulo 348589" width="4.391" height="2.616" transform="translate(23.119 19.191)" fill="#fbf2d8"/>
                <rect id="Rectángulo_348590" data-name="Rectángulo 348590" width="5.733" height="2.616" transform="translate(8.511 24.137)" fill="#fbf2d8"/>
                <rect id="Rectángulo_348591" data-name="Rectángulo 348591" width="18.458" height="2.616" transform="translate(14.962 24.137)" fill="#fbf2d8"/>
                <rect id="Rectángulo_348592" data-name="Rectángulo 348592" width="5.733" height="2.616" transform="translate(4.661 29.076)" fill="#fbf2d8"/>
                <rect id="Rectángulo_348593" data-name="Rectángulo 348593" width="2.863" height="2.616" transform="translate(11.467 29.076)" fill="#fbf2d8"/>
                <rect id="Rectángulo_348594" data-name="Rectángulo 348594" width="10.217" height="2.616" transform="translate(15.857 29.076)" fill="#fbf2d8"/>
                <rect id="Rectángulo_348595" data-name="Rectángulo 348595" width="3.141" height="2.616" transform="translate(9.229 34.03)" fill="#fbf2d8"/>
                <rect id="Rectángulo_348596" data-name="Rectángulo 348596" width="1.343" height="2.616" transform="translate(13.442 34.03)" fill="#fbf2d8"/>
                <rect id="Rectángulo_348597" data-name="Rectángulo 348597" width="3.496" height="2.616" transform="translate(16.482 34.03)" fill="#fbf2d8"/>
                <rect id="Rectángulo_348598" data-name="Rectángulo 348598" width="8.334" height="2.616" transform="translate(20.966 34.03)" fill="#fbf2d8"/>
                <rect id="Rectángulo_348599" data-name="Rectángulo 348599" width="4.213" height="2.616" transform="translate(30.465 34.03)" fill="#fbf2d8"/>
                <rect id="Rectángulo_348600" data-name="Rectángulo 348600" width="12.902" height="2.616" transform="translate(35.751 34.03)" fill="#fbf2d8"/>
                <rect id="Rectángulo_348601" data-name="Rectángulo 348601" width="5.733" height="2.616" transform="translate(9.229 38.976)" fill="#fbf2d8"/>
                <rect id="Rectángulo_348602" data-name="Rectángulo 348602" width="3.851" height="2.616" transform="translate(16.753 38.976)" fill="#fbf2d8"/>
                <rect id="Rectángulo_348603" data-name="Rectángulo 348603" width="3.851" height="2.616" transform="translate(22.131 38.976)" fill="#fbf2d8"/>
                <rect id="Rectángulo_348604" data-name="Rectángulo 348604" width="14.43" height="2.608" transform="translate(9.229 43.922)" fill="#fbf2d8"/>
                <rect id="Rectángulo_348605" data-name="Rectángulo 348605" width="7.616" height="2.608" transform="translate(24.909 43.922)" fill="#fbf2d8"/>
                <rect id="Rectángulo_348606" data-name="Rectángulo 348606" width="5.733" height="2.608" transform="translate(4.661 48.869)" fill="#fbf2d8"/>
                <rect id="Rectángulo_348607" data-name="Rectángulo 348607" width="4.121" height="2.608" transform="translate(11.914 48.869)" fill="#fbf2d8"/>
                <rect id="Rectángulo_348608" data-name="Rectángulo 348608" width="9.9" height="2.608" transform="translate(17.293 48.869)" fill="#fbf2d8"/>
                <rect id="Rectángulo_348609" data-name="Rectángulo 348609" width="4.931" height="2.608" transform="translate(27.911 48.869)" fill="#fbf2d8"/>
                <rect id="Rectángulo_348610" data-name="Rectángulo 348610" width="12.454" height="2.608" transform="translate(33.69 48.869)" fill="#fbf2d8"/>
                <rect id="Rectángulo_348611" data-name="Rectángulo 348611" width="5.733" height="2.616" transform="translate(9.229 53.815)" fill="#fbf2d8"/>
                <rect id="Rectángulo_348612" data-name="Rectángulo 348612" width="4.653" height="2.616" transform="translate(16.891 53.815)" fill="#fbf2d8"/>
                <rect id="Rectángulo_348613" data-name="Rectángulo 348613" width="3.002" height="2.616" transform="translate(23.25 53.815)" fill="#fbf2d8"/>
                <rect id="Rectángulo_348614" data-name="Rectángulo 348614" width="10.525" height="2.616" transform="translate(27.957 53.815)" fill="#fbf2d8"/>
                <rect id="Rectángulo_348615" data-name="Rectángulo 348615" width="3.002" height="2.616" transform="translate(39.648 53.815)" fill="#fbf2d8"/>
                <rect id="Rectángulo_348616" data-name="Rectángulo 348616" width="9.322" height="2.608" transform="translate(9.229 58.761)" fill="#fbf2d8"/>
                <rect id="Rectángulo_348617" data-name="Rectángulo 348617" width="5.733" height="2.608" transform="translate(20.071 58.761)" fill="#fbf2d8"/>
                <rect id="Rectángulo_348618" data-name="Rectángulo 348618" width="7.616" height="2.608" transform="translate(27.147 58.761)" fill="#fbf2d8"/>
                <rect id="Rectángulo_348619" data-name="Rectángulo 348619" width="17.108" height="2.608" transform="translate(35.928 58.761)" fill="#fbf2d8"/>
                <rect id="Rectángulo_348620" data-name="Rectángulo 348620" width="5.733" height="2.608" transform="translate(9.229 63.7)" fill="#fbf2d8"/>
                <rect id="Rectángulo_348621" data-name="Rectángulo 348621" width="5.733" height="2.608" transform="translate(16.66 63.7)" fill="#fbf2d8"/>
                <rect id="Rectángulo_348622" data-name="Rectángulo 348622" width="6.003" height="2.608" transform="translate(24.014 63.7)" fill="#fbf2d8"/>
                <rect id="Rectángulo_348623" data-name="Rectángulo 348623" width="3.403" height="2.608" transform="translate(31.182 63.7)" fill="#fbf2d8"/>
                <rect id="Rectángulo_348624" data-name="Rectángulo 348624" width="5.733" height="2.608" transform="translate(4.661 68.654)" fill="#fbf2d8"/>
                <rect id="Rectángulo_348625" data-name="Rectángulo 348625" width="8.334" height="2.608" transform="translate(11.204 68.654)" fill="#fbf2d8"/>
                <rect id="Rectángulo_348626" data-name="Rectángulo 348626" width="5.872" height="2.608" transform="translate(9.229 73.477)" fill="#fbf2d8"/>
                <rect id="Rectángulo_348627" data-name="Rectángulo 348627" width="4.283" height="2.608" transform="translate(16.868 73.477)" fill="#fbf2d8"/>
                <rect id="Rectángulo_348628" data-name="Rectángulo 348628" width="2.67" height="2.608" transform="translate(22.957 73.477)" fill="#fbf2d8"/>
                <rect id="Rectángulo_348629" data-name="Rectángulo 348629" width="4.036" height="2.608" transform="translate(20.788 68.654)" fill="#fbf2d8"/>
                <rect id="Rectángulo_348630" data-name="Rectángulo 348630" width="6.358" height="2.608" transform="translate(25.982 68.654)" fill="#fbf2d8"/>
                <rect id="Rectángulo_348631" data-name="Rectángulo 348631" width="3.226" height="2.608" transform="translate(18.28 14.422)" fill="#fbf2d8"/>
              </g>
            </g>
            <g id="Grupo_1020615" data-name="Grupo 1020615">
              <path id="Trazado_726372" data-name="Trazado 726372" d="M508.682,317.56H485l6.845,34.848h23.682Z" transform="translate(55.593 509.986)" fill="#e5ddba"/>
              <path id="Trazado_726373" data-name="Trazado 726373" d="M512.833,338.672l-4.151-21.112H485l3.488,17.771Z" transform="translate(55.593 509.986)" fill="#d1c79f"/>
              <rect id="Rectángulo_348565" data-name="Rectángulo 348565" width="20.974" height="6.166" transform="translate(534.729 856.074)" fill="#f2ecd1"/>
              <path id="Trazado_726374" data-name="Trazado 726374" d="M435.065,207.26h92.089a5.358,5.358,0,0,1,5.355,5.355v84.9a5.358,5.358,0,0,1-5.355,5.355H435.065a5.358,5.358,0,0,1-5.355-5.355v-84.9a5.358,5.358,0,0,1,5.355-5.355Z" transform="translate(68.219 535.173)" fill="#e0d8b6"/>
              <path id="Trazado_726375" data-name="Trazado 726375" d="M539.249,207.26H483.821l-1.281,2.855,62.033,27.9V212.592a5.325,5.325,0,0,0-5.324-5.324Z" transform="translate(56.155 535.173)" fill="#d1c9a6"/>
              <rect id="Rectángulo_348566" data-name="Rectángulo 348566" width="94.473" height="95.6" rx="8.71" transform="translate(497.929 742.433)" fill="#f2ecd1"/>
              <path id="Trazado_726376" data-name="Trazado 726376" d="M519.594,207.26H434.311a4.588,4.588,0,0,0-4.591,4.591v74.356h94.473V211.851a4.587,4.587,0,0,0-4.591-4.591Z" transform="translate(68.216 535.173)" fill="#5e5153"/>
              <path id="Trazado_726447" data-name="Trazado 726447" d="M0,0H82.343V72.937H0Z" transform="translate(502.659 748.444)" fill="#112e4c"/>
              <path id="Trazado_726400" data-name="Trazado 726400" d="M510.973,215.05H477.707l-28.6,72.937h39.609Z" transform="translate(63.789 533.395)" fill="#0c2742"/>
              <path id="Trazado_726409" data-name="Trazado 726409" d="M471.873,319.34h18.242a.362.362,0,0,1,.363.363v1.011a.362.362,0,0,1-.363.363H471.873a.362.362,0,0,1-.363-.363V319.7a.362.362,0,0,1,.363-.363Z" transform="translate(58.674 509.58)" fill="#d1c79f"/>
              <rect id="Rectángulo_348647" data-name="Rectángulo 348647" width="37.417" height="46.878" transform="translate(508.315 771.216)" fill="#4c4445"/>
              <rect id="Rectángulo_348648" data-name="Rectángulo 348648" width="28.574" height="34.331" transform="translate(551.698 751.886)" fill="#4c4445"/>
              <g id="Grupo_1013585" data-name="Grupo 1013585" transform="translate(511.741 777.365)">
                <rect id="Rectángulo_348649" data-name="Rectángulo 348649" width="1.273" height="1.435" fill="#fbf2d8"/>
                <rect id="Rectángulo_348650" data-name="Rectángulo 348650" width="7.176" height="1.435" transform="translate(1.79)" fill="#fbf2d8"/>
                <rect id="Rectángulo_348651" data-name="Rectángulo 348651" width="4.692" height="1.435" transform="translate(10.178)" fill="#fbf2d8"/>
                <rect id="Rectángulo_348652" data-name="Rectángulo 348652" width="4.823" height="1.435" transform="translate(1.188 2.546)" fill="#fbf2d8"/>
                <rect id="Rectángulo_348653" data-name="Rectángulo 348653" width="4.383" height="1.435" transform="translate(6.436 5.417)" fill="#fbf2d8"/>
                <rect id="Rectángulo_348654" data-name="Rectángulo 348654" width="4.383" height="1.435" transform="translate(11.691 5.417)" fill="#fbf2d8"/>
                <rect id="Rectángulo_348655" data-name="Rectángulo 348655" width="0.795" height="1.435" transform="translate(16.822 5.417)" fill="#fbf2d8"/>
                <rect id="Rectángulo_348656" data-name="Rectángulo 348656" width="1.273" height="1.435" transform="translate(18.234 5.417)" fill="#fbf2d8"/>
                <rect id="Rectángulo_348657" data-name="Rectángulo 348657" width="6.628" height="1.435" transform="translate(13.573 2.546)" fill="#fbf2d8"/>
                <rect id="Rectángulo_348658" data-name="Rectángulo 348658" width="5.54" height="1.435" transform="translate(6.891 2.546)" fill="#fbf2d8"/>
                <rect id="Rectángulo_348659" data-name="Rectángulo 348659" width="6.628" height="1.435" transform="translate(2.693 7.917)" fill="#fbf2d8"/>
                <rect id="Rectángulo_348660" data-name="Rectángulo 348660" width="1.914" height="1.435" transform="translate(2.693 10.541)" fill="#fbf2d8"/>
                <rect id="Rectángulo_348661" data-name="Rectángulo 348661" width="3.364" height="1.435" transform="translate(5.44 10.541)" fill="#fbf2d8"/>
                <rect id="Rectángulo_348662" data-name="Rectángulo 348662" width="2.539" height="1.435" transform="translate(10.209 10.541)" fill="#fbf2d8"/>
                <rect id="Rectángulo_348663" data-name="Rectángulo 348663" width="2.539" height="1.435" transform="translate(13.365 10.541)" fill="#fbf2d8"/>
                <rect id="Rectángulo_348664" data-name="Rectángulo 348664" width="3.318" height="1.435" transform="translate(4.923 13.257)" fill="#fbf2d8"/>
                <rect id="Rectángulo_348665" data-name="Rectángulo 348665" width="10.672" height="1.435" transform="translate(8.65 13.257)" fill="#fbf2d8"/>
                <rect id="Rectángulo_348666" data-name="Rectángulo 348666" width="3.31" height="1.435" transform="translate(2.693 15.973)" fill="#fbf2d8"/>
                <rect id="Rectángulo_348667" data-name="Rectángulo 348667" width="1.659" height="1.435" transform="translate(6.629 15.973)" fill="#fbf2d8"/>
                <rect id="Rectángulo_348668" data-name="Rectángulo 348668" width="5.903" height="1.435" transform="translate(9.167 15.973)" fill="#fbf2d8"/>
                <rect id="Rectángulo_348669" data-name="Rectángulo 348669" width="1.813" height="1.435" transform="translate(5.332 18.689)" fill="#fbf2d8"/>
                <rect id="Rectángulo_348670" data-name="Rectángulo 348670" width="0.779" height="1.435" transform="translate(7.771 18.689)" fill="#fbf2d8"/>
                <rect id="Rectángulo_348671" data-name="Rectángulo 348671" width="2.022" height="1.435" transform="translate(9.53 18.689)" fill="#fbf2d8"/>
                <rect id="Rectángulo_348672" data-name="Rectángulo 348672" width="4.815" height="1.435" transform="translate(12.123 18.689)" fill="#fbf2d8"/>
                <rect id="Rectángulo_348673" data-name="Rectángulo 348673" width="2.431" height="1.435" transform="translate(17.617 18.689)" fill="#fbf2d8"/>
                <rect id="Rectángulo_348674" data-name="Rectángulo 348674" width="7.462" height="1.435" transform="translate(20.673 18.689)" fill="#fbf2d8"/>
                <rect id="Rectángulo_348675" data-name="Rectángulo 348675" width="3.318" height="1.435" transform="translate(5.332 21.406)" fill="#fbf2d8"/>
                <rect id="Rectángulo_348676" data-name="Rectángulo 348676" width="2.23" height="1.435" transform="translate(9.684 21.406)" fill="#fbf2d8"/>
                <rect id="Rectángulo_348677" data-name="Rectángulo 348677" width="2.23" height="1.435" transform="translate(12.794 21.406)" fill="#fbf2d8"/>
                <rect id="Rectángulo_348678" data-name="Rectángulo 348678" width="8.342" height="1.435" transform="translate(5.332 24.122)" fill="#fbf2d8"/>
                <rect id="Rectángulo_348679" data-name="Rectángulo 348679" width="4.406" height="1.435" transform="translate(14.399 24.122)" fill="#fbf2d8"/>
                <rect id="Rectángulo_348680" data-name="Rectángulo 348680" width="3.31" height="1.435" transform="translate(2.693 26.838)" fill="#fbf2d8"/>
                <rect id="Rectángulo_348681" data-name="Rectángulo 348681" width="2.384" height="1.435" transform="translate(6.891 26.838)" fill="#fbf2d8"/>
                <rect id="Rectángulo_348682" data-name="Rectángulo 348682" width="5.726" height="1.435" transform="translate(10.001 26.838)" fill="#fbf2d8"/>
                <rect id="Rectángulo_348683" data-name="Rectángulo 348683" width="2.847" height="1.435" transform="translate(16.143 26.838)" fill="#fbf2d8"/>
                <rect id="Rectángulo_348684" data-name="Rectángulo 348684" width="7.2" height="1.435" transform="translate(19.484 26.838)" fill="#fbf2d8"/>
                <rect id="Rectángulo_348685" data-name="Rectángulo 348685" width="3.318" height="1.435" transform="translate(5.332 29.562)" fill="#fbf2d8"/>
                <rect id="Rectángulo_348686" data-name="Rectángulo 348686" width="2.693" height="1.435" transform="translate(9.769 29.562)" fill="#fbf2d8"/>
                <rect id="Rectángulo_348687" data-name="Rectángulo 348687" width="1.736" height="1.435" transform="translate(13.442 29.562)" fill="#fbf2d8"/>
                <rect id="Rectángulo_348688" data-name="Rectángulo 348688" width="6.088" height="1.435" transform="translate(16.166 29.562)" fill="#fbf2d8"/>
                <rect id="Rectángulo_348689" data-name="Rectángulo 348689" width="1.736" height="1.435" transform="translate(22.926 29.562)" fill="#fbf2d8"/>
                <rect id="Rectángulo_348690" data-name="Rectángulo 348690" width="5.386" height="1.435" transform="translate(5.332 32.278)" fill="#fbf2d8"/>
                <rect id="Rectángulo_348691" data-name="Rectángulo 348691" width="3.318" height="1.435" transform="translate(11.606 32.278)" fill="#fbf2d8"/>
                <rect id="Rectángulo_348692" data-name="Rectángulo 348692" width="4.406" height="1.435" transform="translate(15.703 32.278)" fill="#fbf2d8"/>
                <rect id="Rectángulo_348693" data-name="Rectángulo 348693" width="3.858" height="1.435" transform="translate(20.781 32.278)" fill="#fbf2d8"/>
                <rect id="Rectángulo_348694" data-name="Rectángulo 348694" width="1.659" height="1.435" transform="translate(25.665 32.278)" fill="#fbf2d8"/>
                <rect id="Rectángulo_348695" data-name="Rectángulo 348695" width="3.318" height="1.435" transform="translate(5.332 34.994)" fill="#fbf2d8"/>
                <rect id="Rectángulo_348696" data-name="Rectángulo 348696" width="3.318" height="1.435" transform="translate(9.638 34.994)" fill="#fbf2d8"/>
                <rect id="Rectángulo_348697" data-name="Rectángulo 348697" width="1.867" height="1.435" transform="translate(10.572 7.917)" fill="#fbf2d8"/>
              </g>
              <g id="Grupo_1013586" data-name="Grupo 1013586" transform="translate(553.704 755.705)">
                <rect id="Rectángulo_348698" data-name="Rectángulo 348698" width="0.918" height="1.628" fill="#fbf2d8"/>
                <rect id="Rectángulo_348699" data-name="Rectángulo 348699" width="5.201" height="1.628" transform="translate(1.296)" fill="#fbf2d8"/>
                <rect id="Rectángulo_348700" data-name="Rectángulo 348700" width="3.403" height="1.628" transform="translate(7.385)" fill="#fbf2d8"/>
                <rect id="Rectángulo_348701" data-name="Rectángulo 348701" width="3.496" height="1.628" transform="translate(0.864 2.901)" fill="#fbf2d8"/>
                <rect id="Rectángulo_348702" data-name="Rectángulo 348702" width="3.179" height="1.628" transform="translate(4.669 6.165)" fill="#fbf2d8"/>
                <rect id="Rectángulo_348703" data-name="Rectángulo 348703" width="3.179" height="1.628" transform="translate(8.48 6.165)" fill="#fbf2d8"/>
                <rect id="Rectángulo_348704" data-name="Rectángulo 348704" width="0.571" height="1.628" transform="translate(12.2 6.165)" fill="#fbf2d8"/>
                <rect id="Rectángulo_348705" data-name="Rectángulo 348705" width="0.918" height="1.628" transform="translate(13.218 6.165)" fill="#fbf2d8"/>
                <rect id="Rectángulo_348706" data-name="Rectángulo 348706" width="4.807" height="1.628" transform="translate(9.846 2.901)" fill="#fbf2d8"/>
                <rect id="Rectángulo_348707" data-name="Rectángulo 348707" width="4.02" height="1.628" transform="translate(5 2.901)" fill="#fbf2d8"/>
                <rect id="Rectángulo_348708" data-name="Rectángulo 348708" width="4.807" height="1.628" transform="translate(1.952 9.005)" fill="#fbf2d8"/>
                <rect id="Rectángulo_348709" data-name="Rectángulo 348709" width="1.389" height="1.628" transform="translate(1.952 11.984)" fill="#fbf2d8"/>
                <rect id="Rectángulo_348710" data-name="Rectángulo 348710" width="2.438" height="1.628" transform="translate(3.943 11.984)" fill="#fbf2d8"/>
                <rect id="Rectángulo_348711" data-name="Rectángulo 348711" width="1.844" height="1.628" transform="translate(7.4 11.984)" fill="#fbf2d8"/>
                <rect id="Rectángulo_348712" data-name="Rectángulo 348712" width="1.837" height="1.628" transform="translate(9.692 11.984)" fill="#fbf2d8"/>
                <rect id="Rectángulo_348713" data-name="Rectángulo 348713" width="2.408" height="1.628" transform="translate(3.573 15.07)" fill="#fbf2d8"/>
                <rect id="Rectángulo_348714" data-name="Rectángulo 348714" width="7.74" height="1.628" transform="translate(6.274 15.07)" fill="#fbf2d8"/>
                <rect id="Rectángulo_348715" data-name="Rectángulo 348715" width="2.4" height="1.636" transform="translate(1.952 18.157)" fill="#fbf2d8"/>
                <rect id="Rectángulo_348716" data-name="Rectángulo 348716" width="1.204" height="1.636" transform="translate(4.807 18.157)" fill="#fbf2d8"/>
                <rect id="Rectángulo_348717" data-name="Rectángulo 348717" width="4.283" height="1.636" transform="translate(6.652 18.157)" fill="#fbf2d8"/>
                <rect id="Rectángulo_348718" data-name="Rectángulo 348718" width="1.32" height="1.628" transform="translate(3.866 21.244)" fill="#fbf2d8"/>
                <rect id="Rectángulo_348719" data-name="Rectángulo 348719" width="0.563" height="1.628" transform="translate(5.633 21.244)" fill="#fbf2d8"/>
                <rect id="Rectángulo_348720" data-name="Rectángulo 348720" width="1.466" height="1.628" transform="translate(6.914 21.244)" fill="#fbf2d8"/>
                <rect id="Rectángulo_348721" data-name="Rectángulo 348721" width="3.496" height="1.628" transform="translate(8.789 21.244)" fill="#fbf2d8"/>
                <rect id="Rectángulo_348722" data-name="Rectángulo 348722" width="1.767" height="1.628" transform="translate(12.771 21.244)" fill="#fbf2d8"/>
                <rect id="Rectángulo_348723" data-name="Rectángulo 348723" width="5.409" height="1.628" transform="translate(14.993 21.251)" fill="#fbf2d8"/>
                <rect id="Rectángulo_348724" data-name="Rectángulo 348724" width="1.35" height="1.628" transform="translate(7.663 9.005)" fill="#fbf2d8"/>
              </g>
            </g>
            <g id="Grupo_1020616" data-name="Grupo 1020616">
              <g id="Grupo_1020612" data-name="Grupo 1020612">
                <path id="Trazado_726370" data-name="Trazado 726370" d="M196.672,317.56H211.75l-4.36,34.848H192.32Z" transform="translate(122.426 509.986)" fill="#e5ddba"/>
                <path id="Trazado_726371" data-name="Trazado 726371" d="M209.9,336.381l2.354-18.821H197.179L194.54,338.7Z" transform="translate(121.919 509.986)" fill="#d1c79f"/>
                <rect id="Rectángulo_348633" data-name="Rectángulo 348633" width="93.748" height="109.791" rx="5.42" transform="translate(278.455 728.76)" fill="#e0d8b6"/>
                <path id="Trazado_726378" data-name="Trazado 726378" d="M145.288,193.516v23.358l65.621-12.7-2.832-14.623H149.254a3.973,3.973,0,0,0-3.974,3.974Z" transform="translate(133.168 539.217)" fill="#d1c9a6"/>
                <rect id="Rectángulo_348634" data-name="Rectángulo 348634" width="87.791" height="109.791" rx="5.42" transform="translate(284.42 728.76)" fill="#f2ecd1"/>
                <path id="Trazado_726379" data-name="Trazado 726379" d="M237.284,189.54H156.539a3.517,3.517,0,0,0-3.519,3.519V283.4h87.791V193.059a3.517,3.517,0,0,0-3.519-3.519Z" transform="translate(131.4 539.219)" fill="#5e5153"/>
                <rect id="Rectángulo_348635" data-name="Rectángulo 348635" width="78.346" height="89.743" transform="translate(289.683 732.872)" fill="#112e4c"/>
                <path id="Trazado_726380" data-name="Trazado 726380" d="M229.471,194.87H211.646L175.88,284.613h27.888Z" transform="translate(126.18 538.002)" fill="#0c2742"/>
                <path id="Trazado_726410" data-name="Trazado 726410" d="M203.483,319.34h18.242a.362.362,0,0,1,.363.363v1.011a.362.362,0,0,1-.363.363H203.483a.362.362,0,0,1-.363-.363V319.7A.362.362,0,0,1,203.483,319.34Z" transform="translate(119.96 509.58)" fill="#d1c79f"/>
                <path id="Trazado_726445" data-name="Trazado 726445" d="M0,0H53.869V77.512H0Z" transform="translate(293.672 740.581)" fill="#4c4445"/>
                <g id="Grupo_1013587" data-name="Grupo 1013587" transform="translate(298.966 746.214)">
                  <rect id="Rectángulo_348725" data-name="Rectángulo 348725" width="1.759" height="2.207" fill="#fbf2d8"/>
                  <rect id="Rectángulo_348726" data-name="Rectángulo 348726" width="9.947" height="2.207" transform="translate(2.477)" fill="#fbf2d8"/>
                  <rect id="Rectángulo_348727" data-name="Rectángulo 348727" width="6.497" height="2.207" transform="translate(14.114)" fill="#fbf2d8"/>
                  <rect id="Rectángulo_348728" data-name="Rectángulo 348728" width="6.683" height="2.207" transform="translate(1.651 3.92)" fill="#fbf2d8"/>
                  <rect id="Rectángulo_348729" data-name="Rectángulo 348729" width="6.073" height="2.207" transform="translate(8.92 8.334)" fill="#fbf2d8"/>
                  <rect id="Rectángulo_348730" data-name="Rectángulo 348730" width="6.073" height="2.207" transform="translate(16.212 8.334)" fill="#fbf2d8"/>
                  <rect id="Rectángulo_348731" data-name="Rectángulo 348731" width="1.096" height="2.207" transform="translate(23.319 8.334)" fill="#fbf2d8"/>
                  <rect id="Rectángulo_348732" data-name="Rectángulo 348732" width="1.759" height="2.207" transform="translate(25.279 8.334)" fill="#fbf2d8"/>
                  <rect id="Rectángulo_348733" data-name="Rectángulo 348733" width="9.19" height="2.207" transform="translate(18.821 3.92)" fill="#fbf2d8"/>
                  <rect id="Rectángulo_348734" data-name="Rectángulo 348734" width="7.686" height="2.207" transform="translate(9.553 3.92)" fill="#fbf2d8"/>
                  <rect id="Rectángulo_348735" data-name="Rectángulo 348735" width="9.198" height="2.199" transform="translate(3.735 12.177)" fill="#fbf2d8"/>
                  <rect id="Rectángulo_348736" data-name="Rectángulo 348736" width="2.654" height="2.207" transform="translate(3.735 16.205)" fill="#fbf2d8"/>
                  <rect id="Rectángulo_348737" data-name="Rectángulo 348737" width="4.668" height="2.207" transform="translate(7.547 16.205)" fill="#fbf2d8"/>
                  <rect id="Rectángulo_348738" data-name="Rectángulo 348738" width="3.519" height="2.207" transform="translate(14.152 16.205)" fill="#fbf2d8"/>
                  <rect id="Rectángulo_348739" data-name="Rectángulo 348739" width="3.519" height="2.207" transform="translate(18.535 16.205)" fill="#fbf2d8"/>
                  <rect id="Rectángulo_348740" data-name="Rectángulo 348740" width="4.599" height="2.207" transform="translate(6.821 20.379)" fill="#fbf2d8"/>
                  <rect id="Rectángulo_348741" data-name="Rectángulo 348741" width="14.793" height="2.207" transform="translate(11.999 20.379)" fill="#fbf2d8"/>
                  <rect id="Rectángulo_348742" data-name="Rectángulo 348742" width="4.599" height="2.207" transform="translate(3.735 24.554)" fill="#fbf2d8"/>
                  <rect id="Rectángulo_348743" data-name="Rectángulo 348743" width="2.3" height="2.207" transform="translate(9.198 24.554)" fill="#fbf2d8"/>
                  <rect id="Rectángulo_348744" data-name="Rectángulo 348744" width="8.187" height="2.207" transform="translate(12.717 24.554)" fill="#fbf2d8"/>
                  <rect id="Rectángulo_348745" data-name="Rectángulo 348745" width="2.516" height="2.207" transform="translate(7.4 28.729)" fill="#fbf2d8"/>
                  <rect id="Rectángulo_348746" data-name="Rectángulo 348746" width="1.08" height="2.207" transform="translate(10.772 28.729)" fill="#fbf2d8"/>
                  <rect id="Rectángulo_348747" data-name="Rectángulo 348747" width="2.801" height="2.207" transform="translate(13.218 28.729)" fill="#fbf2d8"/>
                  <rect id="Rectángulo_348748" data-name="Rectángulo 348748" width="6.683" height="2.207" transform="translate(16.807 28.729)" fill="#fbf2d8"/>
                  <rect id="Rectángulo_348749" data-name="Rectángulo 348749" width="3.372" height="2.207" transform="translate(24.423 28.729)" fill="#fbf2d8"/>
                  <rect id="Rectángulo_348750" data-name="Rectángulo 348750" width="10.34" height="2.207" transform="translate(28.659 28.729)" fill="#fbf2d8"/>
                  <rect id="Rectángulo_348751" data-name="Rectángulo 348751" width="4.599" height="2.207" transform="translate(7.4 32.903)" fill="#fbf2d8"/>
                  <rect id="Rectángulo_348752" data-name="Rectángulo 348752" width="3.087" height="2.207" transform="translate(13.434 32.903)" fill="#fbf2d8"/>
                  <rect id="Rectángulo_348753" data-name="Rectángulo 348753" width="3.087" height="2.207" transform="translate(17.74 32.903)" fill="#fbf2d8"/>
                  <rect id="Rectángulo_348754" data-name="Rectángulo 348754" width="11.567" height="2.199" transform="translate(7.4 37.078)" fill="#fbf2d8"/>
                  <rect id="Rectángulo_348755" data-name="Rectángulo 348755" width="6.104" height="2.199" transform="translate(19.97 37.078)" fill="#fbf2d8"/>
                  <rect id="Rectángulo_348756" data-name="Rectángulo 348756" width="4.599" height="2.199" transform="translate(3.735 41.26)" fill="#fbf2d8"/>
                  <rect id="Rectángulo_348757" data-name="Rectángulo 348757" width="3.303" height="2.199" transform="translate(9.553 41.26)" fill="#fbf2d8"/>
                  <rect id="Rectángulo_348758" data-name="Rectángulo 348758" width="7.94" height="2.199" transform="translate(13.867 41.26)" fill="#fbf2d8"/>
                  <rect id="Rectángulo_348759" data-name="Rectángulo 348759" width="3.951" height="2.199" transform="translate(22.378 41.26)" fill="#fbf2d8"/>
                  <rect id="Rectángulo_348760" data-name="Rectángulo 348760" width="9.985" height="2.199" transform="translate(27.008 41.26)" fill="#fbf2d8"/>
                  <rect id="Rectángulo_348761" data-name="Rectángulo 348761" width="4.599" height="2.207" transform="translate(7.4 45.427)" fill="#fbf2d8"/>
                  <rect id="Rectángulo_348762" data-name="Rectángulo 348762" width="3.735" height="2.207" transform="translate(13.543 45.427)" fill="#fbf2d8"/>
                  <rect id="Rectángulo_348763" data-name="Rectángulo 348763" width="2.408" height="2.207" transform="translate(18.643 45.427)" fill="#fbf2d8"/>
                  <rect id="Rectángulo_348764" data-name="Rectángulo 348764" width="8.442" height="2.207" transform="translate(22.409 45.427)" fill="#fbf2d8"/>
                  <rect id="Rectángulo_348765" data-name="Rectángulo 348765" width="2.408" height="2.207" transform="translate(31.784 45.427)" fill="#fbf2d8"/>
                  <rect id="Rectángulo_348766" data-name="Rectángulo 348766" width="7.47" height="2.199" transform="translate(7.4 49.61)" fill="#fbf2d8"/>
                  <rect id="Rectángulo_348767" data-name="Rectángulo 348767" width="4.599" height="2.199" transform="translate(16.089 49.61)" fill="#fbf2d8"/>
                  <rect id="Rectángulo_348768" data-name="Rectángulo 348768" width="6.104" height="2.199" transform="translate(21.768 49.61)" fill="#fbf2d8"/>
                  <rect id="Rectángulo_348769" data-name="Rectángulo 348769" width="13.712" height="2.199" transform="translate(28.806 49.61)" fill="#fbf2d8"/>
                  <rect id="Rectángulo_348770" data-name="Rectángulo 348770" width="4.599" height="2.207" transform="translate(7.4 53.784)" fill="#fbf2d8"/>
                  <rect id="Rectángulo_348771" data-name="Rectángulo 348771" width="4.599" height="2.207" transform="translate(13.357 53.784)" fill="#fbf2d8"/>
                  <rect id="Rectángulo_348772" data-name="Rectángulo 348772" width="4.815" height="2.207" transform="translate(19.253 53.784)" fill="#fbf2d8"/>
                  <rect id="Rectángulo_348773" data-name="Rectángulo 348773" width="2.732" height="2.207" transform="translate(24.994 53.784)" fill="#fbf2d8"/>
                  <rect id="Rectángulo_348774" data-name="Rectángulo 348774" width="4.599" height="2.199" transform="translate(3.735 57.959)" fill="#fbf2d8"/>
                  <rect id="Rectángulo_348775" data-name="Rectángulo 348775" width="6.683" height="2.199" transform="translate(8.982 57.959)" fill="#fbf2d8"/>
                  <rect id="Rectángulo_348776" data-name="Rectángulo 348776" width="3.233" height="2.199" transform="translate(16.66 57.959)" fill="#fbf2d8"/>
                  <rect id="Rectángulo_348777" data-name="Rectángulo 348777" width="5.101" height="2.199" transform="translate(20.827 57.959)" fill="#fbf2d8"/>
                  <rect id="Rectángulo_348778" data-name="Rectángulo 348778" width="2.585" height="2.199" transform="translate(14.654 12.177)" fill="#fbf2d8"/>
                </g>
              </g>
              <rect id="Rectángulo_348632" data-name="Rectángulo 348632" width="19.939" height="5.24" transform="translate(325.025 856.846)" fill="#f2ecd1"/>
            </g>
          </g>
        </g>
      </g>
      <g id="Grupo_1020621" data-name="Grupo 1020621">
        <g id="Grupo_1013584" data-name="Grupo 1013584" transform="translate(398.454 982.189)">
          <path id="Trazado_726394" data-name="Trazado 726394" d="M303.269,518.054c-1.767.455-2.824,2.531-2.361,4.638s2.261,3.442,4.028,2.986,2.824-2.531,2.361-4.638S305.036,517.6,303.269,518.054Z" transform="translate(-300.799 -517.965)" fill="#f2ecd1"/>
          <path id="Trazado_726395" data-name="Trazado 726395" d="M340.823,518.59a3.362,3.362,0,0,0-3.164,3.588,3.443,3.443,0,0,0,3.426,3.411A3.362,3.362,0,0,0,344.249,522,3.443,3.443,0,0,0,340.823,518.59Z" transform="translate(-309.215 -518.107)" fill="#f2ecd1"/>
          <path id="Trazado_726396" data-name="Trazado 726396" d="M381.33,518.59c-1.5.046-2.662,1.659-2.6,3.588s1.32,3.457,2.817,3.411,2.662-1.659,2.6-3.588S382.827,518.543,381.33,518.59Z" transform="translate(-318.594 -518.107)" fill="#f2ecd1"/>
        </g>
        <path id="Trazado_726441" data-name="Trazado 726441" d="M293.2,533.244c97.452,0,177.141-1.875,183.036-4.244H110.16C116.055,531.369,195.744,533.244,293.2,533.244Z" transform="translate(141.187 461.704)" fill="#efd9c2"/>
        <g id="Grupo_1020613" data-name="Grupo 1020613">
          <path id="Trazado_726386" data-name="Trazado 726386" d="M355.281,232.552c1.713-2.346,4.043-2.963,5.193-1.374s.694,4.777-1.019,7.122-4.043,2.963-5.193,1.374S353.568,234.9,355.281,232.552Z" transform="translate(85.592 529.913)" fill="#edb984"/>
          <path id="Trazado_726387" data-name="Trazado 726387" d="M328.285,232.542c-1.713-2.346-4.043-2.963-5.193-1.374s-.694,4.777,1.019,7.122,4.043,2.963,5.193,1.374S330,234.888,328.285,232.542Z" transform="translate(92.71 529.915)" fill="#edb984"/>
          <path id="Trazado_726388" data-name="Trazado 726388" d="M350.108,238.03H328.726l-.926,14.083h23.234Z" transform="translate(91.49 528.146)" fill="#d27558"/>
          <ellipse id="Elipse_5999" data-name="Elipse 5999" cx="16.243" cy="4.622" rx="16.243" ry="4.622" transform="translate(414.351 775.02)" fill="#e5ddba"/>
          <path id="Trazado_726389" data-name="Trazado 726389" d="M328.5,233.887c-4.823-9.869-3.912-21.166-3.141-23.628,2.261-7.238,21.483-8.882,25.889-1.266,1.937,3.357,1.8,19.183-2.647,25.256S330.836,238.679,328.5,233.887Z" transform="translate(92.189 535.917)" fill="#ce2828"/>
          <g id="Grupo_1020612-2" data-name="Grupo 1020612">
            <path id="Trazado_726442" data-name="Trazado 726442" d="M0,0H333.693V127.793H0Z" transform="translate(270.739 862.911)" fill="#492d31"/>
            <path id="Trazado_726381" data-name="Trazado 726381" d="M133.76,363.39v95.4h3.619c-.015-.4-.031-.81-.031-1.212,0-41.661,74.063-72.805,165.427-72.805S468.2,415.916,468.2,457.578c0,.409-.023.81-.031,1.212h3.619v-95.4Z" transform="translate(135.798 499.521)" fill="#4f373c"/>
            <rect id="Rectángulo_348637" data-name="Rectángulo 348637" width="7.346" height="126.335" transform="translate(602.079 864.146)" fill="#6b5154"/>
            <rect id="Rectángulo_348638" data-name="Rectángulo 348638" width="7.346" height="126.335" transform="translate(265.754 864.146)" fill="#6b5154"/>
            <path id="Trazado_726382" data-name="Trazado 726382" d="M381.271,259.06c20,10.88,43.1,39.794,43.66,64.279.347,15.495-17.517,15.4-32.934,15.4s-10.726-79.681-10.726-79.681Z" transform="translate(79.433 523.345)" fill="#f38a4c"/>
            <path id="Trazado_726383" data-name="Trazado 726383" d="M422.253,330.68c-11.042,3.488-27.224-12.416-36.136-35.527A85.674,85.674,0,0,1,380.8,274.11c-.625,22.108-.517,68.075,11.2,68.075,14.476,0,31.113.077,32.8-12.74A9.921,9.921,0,0,1,422.253,330.68Z" transform="translate(79.434 519.908)" fill="#f8782d"/>
            <path id="Trazado_726384" data-name="Trazado 726384" d="M279.168,260.62c-20.032,10.718-43.213,39.192-43.83,63.306-.394,15.256,24.052,15.171,39.478,15.171S279.168,260.62,279.168,260.62Z" transform="translate(112.604 522.988)" fill="#f38a4c"/>
            <path id="Trazado_726385" data-name="Trazado 726385" d="M281.07,281.61a83.818,83.818,0,0,1-6.791,21.012c-9.839,21.035-25.441,34.516-34.856,30.11a9.619,9.619,0,0,1-4.074-3.781c-.123,15.016,24.13,14.939,39.47,14.939,10.911,0,8.558-39.308,6.25-62.28Z" transform="translate(112.6 518.195)" fill="#f8782d"/>
            <rect id="Rectángulo_348639" data-name="Rectángulo 348639" width="384.067" height="5.757" transform="translate(245.552 860.441)" fill="#896268"/>
            <rect id="Rectángulo_348640" data-name="Rectángulo 348640" width="85.113" height="43.174" transform="translate(391.024 872.264)" fill="#38272d"/>
            <path id="Trazado_726390" data-name="Trazado 726390" d="M396.407,485.663c13.064-32.718,28.428-81.934.841-103.826-15.966-12.671-29.284-1.736-36.522,7.192-3.858,4.769-4.452,11.66-1.474,17.925l37.147,78.7Z" transform="translate(84.738 496.622)" fill="#473239"/>
            <path id="Trazado_726391" data-name="Trazado 726391" d="M410.6,420.382c-10.085,2.485-22.856-14.137-28.52-37.124-.586-2.377-1.065-4.73-1.458-7.037-8.45.887-15.356,7.254-19.885,12.84-3.858,4.769-4.452,11.66-1.474,17.925l37.147,78.7c7.709-19.3,16.2-44.331,16.228-66.115a8.549,8.549,0,0,1-2.037.8Z" transform="translate(84.736 496.592)" fill="#38272d"/>
            <path id="Trazado_726392" data-name="Trazado 726392" d="M287.074,483.751c-17.03-31.591-38.945-76.934-14.268-101.526,14.283-14.229,28.868-4.53,37.163,3.742,4.422,4.414,5.865,11.282,3.681,17.848l-26.576,79.943Z" transform="translate(106.574 496.876)" fill="#473239"/>
            <path id="Trazado_726393" data-name="Trazado 726393" d="M310.53,385.957c-6.737-6.729-17.648-14.4-29.161-9.376,1.366,6.3,1.335,14.276-.417,22.663-2.917,13.921-9.715,24.878-16.753,28.219,4.167,19.222,14.476,39.655,23.435,56.284L314.211,403.8C316.395,397.238,314.952,390.371,310.53,385.957Z" transform="translate(106.013 496.879)" fill="#38272d"/>
            <path id="Trazado_726397" data-name="Trazado 726397" d="M344.946,442.79H339.39l1.4,48.522h2.77Z" transform="translate(88.843 481.391)" fill="#936068"/>
            <rect id="Rectángulo_348641" data-name="Rectángulo 348641" width="57.149" height="7.4" rx="1.99" transform="translate(402.437 921.302)" fill="#936068"/>
            <rect id="Rectángulo_348642" data-name="Rectángulo 348642" width="71.339" height="15.217" rx="4.09" transform="translate(395.338 910.406)" fill="#cc375e"/>
            <rect id="Rectángulo_348643" data-name="Rectángulo 348643" width="65.004" height="6.366" rx="1.71" transform="translate(398.509 910.406)" fill="#e25070"/>
            <path id="Trazado_726398" data-name="Trazado 726398" d="M329.373,374.954c-26.73,1.235-41.106-17.138-41.939-25.9s-.988-87.405,3.526-90.168c12.763-7.8,61.076-7.8,69.526-1.173s14.276,71.5,12.377,91.31c-1.242,12.979-13.851,24.569-43.49,25.935Z" transform="translate(100.812 524.757)" fill="#f38a4c"/>
            <path id="Trazado_726399" data-name="Trazado 726399" d="M330.181,322.92c-18.1,0-33.968-10.039-42.858-25.11-3.087,24.492-.671,56.115-.162,61.5.833,8.766,15.209,27.139,41.939,25.9,29.647-1.366,42.248-12.956,43.49-25.935,1.042-10.88,1.381-34.663-3.025-56.307a49.436,49.436,0,0,1-39.393,19.947Z" transform="translate(101.084 514.496)" fill="#f8782d"/>
            <path id="Trazado_726401" data-name="Trazado 726401" d="M359.726,284.3c-2.253-6.605-7.67-10.981-13.743-11l-28.968-.093c-5.656-.015-10.888,3.712-13.357,9.684-9.869,23.9-13.218,53.383-11.845,91.371.116,3.256,2.3,5.834,4.977,5.841l69.148.239c2.755.008,4.993-2.7,5.016-6.057.316-37.24-3.079-66.1-11.228-89.982Z" transform="translate(99.774 520.113)" fill="#e25070"/>
            <path id="Trazado_726402" data-name="Trazado 726402" d="M359.1,289.439c-2.168-6.343-7.377-10.533-13.226-10.556L318,278.79c-5.448-.015-10.471,3.557-12.848,9.291-9.5,22.934-12.717,51.23-11.4,87.691.116,3.125,2.215,5.594,4.784,5.6l66.532.224c2.647.008,4.8-2.593,4.831-5.811.309-35.735-2.963-63.43-10.8-86.356Z" transform="translate(99.328 518.839)" fill="#cc375e"/>
            <rect id="Rectángulo_348645" data-name="Rectángulo 348645" width="5.726" height="17.887" transform="translate(428.164 895.189)" fill="#d1c79f"/>
            <circle id="Elipse_6000" data-name="Elipse 6000" cx="8.172" cy="8.172" r="8.172" transform="translate(420.364 895.231) rotate(-67.65)" fill="#f2ecd1"/>
            <circle id="Elipse_6001" data-name="Elipse 6001" cx="5.363" cy="5.363" r="5.363" transform="translate(425.663 907.15)" fill="#f2ecd1"/>
            <path id="Trazado_726403" data-name="Trazado 726403" d="M336.35,397.971a5.131,5.131,0,1,0,5.131-5.131A5.134,5.134,0,0,0,336.35,397.971Z" transform="translate(89.537 492.796)" fill="#cc375e"/>
            <path id="Trazado_726404" data-name="Trazado 726404" d="M339.25,426.814a2.894,2.894,0,1,0,2.894-2.894A2.895,2.895,0,0,0,339.25,426.814Z" transform="translate(88.875 485.699)" fill="#cc375e"/>
            <path id="Trazado_726405" data-name="Trazado 726405" d="M415.36,524.922h-8.4s-3.889-9.4-.023-10.564,3.7,7.454,3.7,7.454l4.715,3.11Z" transform="translate(73.811 465.072)" fill="#d1c79f"/>
            <path id="Trazado_726406" data-name="Trazado 726406" d="M284.66,524.922h8.4s3.889-9.4.023-10.564-3.7,7.454-3.7,7.454l-4.715,3.11Z" transform="translate(101.341 465.072)" fill="#d1c79f"/>
            <path id="Trazado_726407" data-name="Trazado 726407" d="M361.439,505.27h-55.5c-2.045,0-3.7,5.772-3.7,7.809h62.905c0-2.045-1.659-7.809-3.7-7.809Z" transform="translate(97.328 467.123)" fill="#936068"/>
            <path id="Trazado_726408" data-name="Trazado 726408" d="M352.452,500.2H323.978c-1.049,0-1.9,4.329-1.9,5.857h32.271c0-1.536-.849-5.857-1.9-5.857Z" transform="translate(92.796 468.281)" fill="#936068"/>
            <g id="Grupo_1013606" data-name="Grupo 1013606" transform="translate(246.093 776.077)">
              <path id="Trazado_726437" data-name="Trazado 726437" d="M104.98,328.38h18.3v24.214H105.057Z" transform="translate(-103.723 -268.562)" fill="#f0dcb6"/>
              <path id="Trazado_726438" data-name="Trazado 726438" d="M127.44,347.057a6.874,6.874,0,0,0,.687.062,5.412,5.412,0,1,0,0-10.8,6.485,6.485,0,0,0-.687.062v-3.156c.231-.015.455-.031.687-.031a8.544,8.544,0,1,1,0,17.053c-.231,0-.463-.015-.687-.031v-3.156Z" transform="translate(-108.852 -269.66)" fill="#e3cead"/>
              <path id="Trazado_726439" data-name="Trazado 726439" d="M110.046,346.352c5.309,0,9.615-8.025,9.615-17.926v-.046h3.619v24.214H105.061l-.031-8.889a6.77,6.77,0,0,0,5.008,2.647Z" transform="translate(-103.735 -268.562)" fill="#e3cead"/>
              <path id="Trazado_726440" data-name="Trazado 726440" d="M114.3,304.629c.224-10.4-13.149-8.766-9.692-15.194s23.119,1.636,21.614-4.854c-1.605-6.914-18.018-4.244-21.136-7.014-2.67-2.369-2.855-8.9,3.758-10.7,15.873-4.3,9.692-16.012,9.692-16.012,15.958,16.976-5.888,18.443-7.1,20.31-4.26,6.574,17.131,1.142,16.683,14.291-.255,7.6-16.382,2.647-18.52,5.872-1.921,2.894,7.6,4.036,4.707,13.3Z" transform="translate(-103.351 -250.86)" fill="#faf0db"/>
            </g>
          </g>
        </g>
      </g>
    </g>
  </g>
</svg>
