<svg xmlns="http://www.w3.org/2000/svg" xmlns:xlink="http://www.w3.org/1999/xlink" width="316.718" height="156.302" viewBox="0 0 316.718 156.302">
  <defs>
    <clipPath id="clip-path">
      <circle id="Elipse_5989" data-name="Elipse 5989" cx="13.92" cy="13.92" r="13.92" transform="matrix(0.964, -0.265, 0.265, 0.964, 0, 7.384)" fill="#4ba1a4"/>
    </clipPath>
  </defs>
  <g id="Grupo_1021308" data-name="Grupo 1021308" transform="translate(-12.066 -9.232)">
    <g id="Grupo_1006275" data-name="Grupo 1006275" transform="translate(203.603 44.873)">
      <g id="Grupo_1006257" data-name="Grupo 1006257">
        <g id="Grupo_1006250" data-name="Grupo 1006250">
          <g id="Grupo_1006247" data-name="Grupo 1006247">
            <path id="Trazado_680145" data-name="Trazado 680145" d="M1047.883,109.844c-76.038,0-75.119,1.259-75.119-3.079,0-54.707-1.161-55.1,3.079-55.1,76.038,0,75.119-1.259,75.119,3.079C1050.962,109.447,1052.123,109.844,1047.883,109.844Z" transform="translate(-972.263 -51.136)" fill="#0d8d8c"/>
            <path id="Trazado_680146" data-name="Trazado 680146" d="M989.176,108.155c-13.693,0-17.263-.263-18.442-1.439a2.558,2.558,0,0,1-.539-2.014v-.152c0-11.742-.052-20.9-.1-28.253-.118-20.312-.145-25.138,1.32-26.613a2.863,2.863,0,0,1,2.21-.593c17.147,0,30.148-.062,40.593-.113,27.147-.131,32.8-.159,34.342,1.382a2.563,2.563,0,0,1,.54,2.014v.152c0,11.742.052,20.9.1,28.253.118,20.312.145,25.138-1.32,26.613a2.863,2.863,0,0,1-2.21.593c-17.148,0-30.151.062-40.6.113-6.427.032-11.649.057-15.9.057Zm40.889-58.522c-4.257,0-9.468.025-15.84.057-10.447.051-23.448.113-40.6.113-.821,0-1.343.018-1.707.383-1.258,1.265-1.224,7.025-1.114,26.108.043,7.357.1,16.513.1,28.257v.155c0,.773.011,1.19.33,1.508,1.335,1.332,8.219,1.3,33.834,1.175,10.448-.051,23.449-.113,40.6-.113.821,0,1.343-.018,1.707-.383,1.258-1.265,1.224-7.025,1.114-26.108-.043-7.357-.1-16.513-.1-28.257v-.155c0-.773-.011-1.19-.33-1.508-1-1-5.14-1.231-18-1.231Z" transform="translate(-970.05 -48.922)" fill="#0d8d8c"/>
          </g>
          <path id="Trazado_680147" data-name="Trazado 680147" d="M1050,52.9H971.09v-.355a3.251,3.251,0,0,1,3.246-3.246c16.6,0,29.368-.05,39.63-.09,28.905-.113,34.116-.133,35.563,1.323a2.237,2.237,0,0,1,.473,1.762V52.9Z" transform="translate(-970.946 -49.13)" fill="#ff5e00"/>
          <g id="Grupo_1006249" data-name="Grupo 1006249" transform="translate(75.027 1.181)">
            <path id="Trazado_680148" data-name="Trazado 680148" d="M1513.219,59.037c.871,0,1.267.086,1.267-.292,0-.871.086-1.267-.292-1.267-.871,0-1.268-.086-1.268.292C1512.928,58.64,1512.842,59.037,1513.219,59.037Z" transform="translate(-1512.919 -57.47)" fill="#0d8d8c"/>
            <g id="Grupo_1006248" data-name="Grupo 1006248" transform="translate(0.154 0.156)">
              <path id="Trazado_680149" data-name="Trazado 680149" d="M1514.223,59.86a.178.178,0,0,1-.126-.3l.909-.909a.178.178,0,0,1,.251.252l-.909.909A.178.178,0,0,1,1514.223,59.86Z" transform="translate(-1514.044 -58.595)" fill="#fff"/>
              <path id="Trazado_680150" data-name="Trazado 680150" d="M1515.122,59.86a.178.178,0,0,1-.126-.053l-.909-.909a.178.178,0,1,1,.251-.252l.909.909a.178.178,0,0,1-.126.3Z" transform="translate(-1514.035 -58.595)" fill="#fff"/>
            </g>
          </g>
        </g>
        <g id="Grupo_1006256" data-name="Grupo 1006256" transform="translate(4.395 6.625)">
          <g id="Grupo_1006254" data-name="Grupo 1006254" transform="translate(0 1.268)">
            <g id="Grupo_1006251" data-name="Grupo 1006251">
              <path id="Trazado_680151" data-name="Trazado 680151" d="M1009.736,106.387h-7.708a.178.178,0,0,1,0-.357h7.708a.178.178,0,0,1,0,.357Z" transform="translate(-1001.85 -106.03)" fill="#fff"/>
              <path id="Trazado_680152" data-name="Trazado 680152" d="M1009.736,418.157h-7.708a.178.178,0,0,1,0-.357h7.708a.178.178,0,0,1,0,.357Z" transform="translate(-1001.85 -374.712)" fill="#fff"/>
              <path id="Trazado_680153" data-name="Trazado 680153" d="M1002.028,149.483a.179.179,0,0,1-.178-.178V106.218a.178.178,0,1,1,.356,0v43.088a.179.179,0,0,1-.178.178Z" transform="translate(-1001.85 -106.039)" fill="#fff"/>
            </g>
            <g id="Grupo_1006252" data-name="Grupo 1006252" transform="translate(4.559 3.944)">
              <path id="Trazado_680154" data-name="Trazado 680154" d="M1041.315,134.937h-6.3a.178.178,0,0,1,0-.357h6.3a.178.178,0,1,1,0,.357Z" transform="translate(-1034.84 -134.579)" fill="#fff"/>
              <path id="Trazado_680155" data-name="Trazado 680155" d="M1041.315,389.607h-6.3a.178.178,0,0,1,0-.357h6.3a.178.178,0,1,1,0,.357Z" transform="translate(-1034.84 -354.052)" fill="#fff"/>
              <path id="Trazado_680156" data-name="Trazado 680156" d="M1035.018,170.124a.178.178,0,0,1-.178-.178v-35.2a.178.178,0,1,1,.357,0v35.2A.179.179,0,0,1,1035.018,170.124Z" transform="translate(-1034.84 -134.57)" fill="#fff"/>
            </g>
            <g id="Grupo_1006253" data-name="Grupo 1006253" transform="translate(10.303 9.184)">
              <path id="Trazado_680157" data-name="Trazado 680157" d="M1081,172.837h-4.423a.178.178,0,0,1,0-.357H1081a.178.178,0,1,1,0,.357Z" transform="translate(-1076.4 -172.48)" fill="#fff"/>
              <path id="Trazado_680158" data-name="Trazado 680158" d="M1081,351.707h-4.423a.178.178,0,0,1,0-.357H1081a.178.178,0,1,1,0,.357Z" transform="translate(-1076.4 -326.629)" fill="#fff"/>
              <path id="Trazado_680159" data-name="Trazado 680159" d="M1076.578,197.557a.179.179,0,0,1-.178-.178V172.658a.178.178,0,1,1,.357,0v24.721A.179.179,0,0,1,1076.578,197.557Z" transform="translate(-1076.4 -172.48)" fill="#fff"/>
            </g>
            <path id="Trazado_680160" data-name="Trazado 680160" d="M1113.078,238.2a.179.179,0,0,1-.178-.178v-18.2a.178.178,0,1,1,.357,0v18.2A.178.178,0,0,1,1113.078,238.2Z" transform="translate(-1097.552 -203.939)" fill="#fff"/>
          </g>
          <g id="Grupo_1006255" data-name="Grupo 1006255" transform="translate(1.867)">
            <path id="Trazado_680161" data-name="Trazado 680161" d="M1030.227,99.745c-15.291,0-14.854.182-14.854-.426,0-1.914-.126-2.409.426-2.409,15.291,0,14.854-.182,14.854.426C1030.653,99.25,1030.777,99.745,1030.227,99.745Z" transform="translate(-1015.361 -96.881)" fill="#fff"/>
            <path id="Trazado_680162" data-name="Trazado 680162" d="M1073.689,129.265c-15.291,0-14.854.182-14.854-.426,0-1.914-.125-2.409.426-2.409,15.291,0,14.854-.182,14.854.426C1074.115,128.77,1074.24,129.265,1073.689,129.265Z" transform="translate(-1052.816 -122.321)" fill="#fff"/>
            <path id="Trazado_680163" data-name="Trazado 680163" d="M1095.131,166.256c-4.113,0-4.446.142-4.446-.426,0-1.914-.124-2.409.426-2.409,4.112,0,4.446-.142,4.446.426C1095.556,165.761,1095.681,166.256,1095.131,166.256Z" transform="translate(-1080.264 -154.208)" fill="#fff"/>
            <path id="Trazado_680164" data-name="Trazado 680164" d="M1200.349,129.326c-4.113,0-4.446.142-4.446-.426,0-1.914-.126-2.409.426-2.409,4.113,0,4.446-.142,4.446.426C1200.775,128.831,1200.9,129.326,1200.349,129.326Z" transform="translate(-1170.941 -122.382)" fill="#fff"/>
            <path id="Trazado_680165" data-name="Trazado 680165" d="M1285.731,254.746c-4.112,0-4.446.142-4.446-.426,0-1.914-.124-2.409.426-2.409,4.111,0,4.446-.142,4.446.426C1286.156,254.251,1286.281,254.746,1285.731,254.746Z" transform="translate(-1244.523 -230.468)" fill="#fff"/>
            <path id="Trazado_680166" data-name="Trazado 680166" d="M1337,254.746c-4.112,0-4.446.142-4.446-.426,0-1.914-.124-2.409.426-2.409,4.113,0,4.446-.142,4.446.426v1.983A.426.426,0,0,1,1337,254.746Z" transform="translate(-1288.707 -230.468)" fill="#fff"/>
            <path id="Trazado_680167" data-name="Trazado 680167" d="M1386.021,254.746c-4.113,0-4.446.142-4.446-.426,0-1.914-.124-2.409.426-2.409,4.111,0,4.446-.142,4.446.426C1386.446,254.251,1386.571,254.746,1386.021,254.746Z" transform="translate(-1330.952 -230.468)" fill="#fff"/>
            <path id="Trazado_680168" data-name="Trazado 680168" d="M1182.729,383.026c-4.113,0-4.446.142-4.446-.426,0-1.914-.126-2.409.426-2.409,4.113,0,4.446-.142,4.446.426C1183.155,382.531,1183.28,383.026,1182.729,383.026Z" transform="translate(-1155.756 -341.02)" fill="#fff"/>
            <path id="Trazado_680169" data-name="Trazado 680169" d="M1100.929,345.126c-4.112,0-4.446.142-4.446-.426,0-1.914-.126-2.409.426-2.409,4.112,0,4.446-.142,4.446.426C1101.354,344.631,1101.479,345.126,1100.929,345.126Z" transform="translate(-1085.261 -308.357)" fill="#fff"/>
            <path id="Trazado_680170" data-name="Trazado 680170" d="M1100.929,301.226c-4.112,0-4.446.142-4.446-.426,0-1.914-.126-2.409.426-2.409,4.112,0,4.446-.142,4.446.426C1101.354,300.731,1101.479,301.226,1100.929,301.226Z" transform="translate(-1085.261 -270.525)" fill="#fff"/>
            <path id="Trazado_680171" data-name="Trazado 680171" d="M1100.929,254.746c-4.112,0-4.446.142-4.446-.426,0-1.914-.126-2.409.426-2.409,4.112,0,4.446-.142,4.446.426C1101.354,254.251,1101.479,254.746,1100.929,254.746Z" transform="translate(-1085.261 -230.468)" fill="#fff"/>
            <path id="Trazado_680172" data-name="Trazado 680172" d="M1100.929,213.416c-4.112,0-4.446.142-4.446-.426,0-1.914-.126-2.409.426-2.409,4.112,0,4.446-.142,4.446.426C1101.354,212.921,1101.479,213.416,1100.929,213.416Z" transform="translate(-1085.261 -194.85)" fill="#fff"/>
            <path id="Trazado_680173" data-name="Trazado 680173" d="M1070.461,382.447c-11.855,0-11.616.181-11.616-.426,0-1.914-.124-2.409.426-2.409,11.855,0,11.616-.181,11.616.426C1070.886,381.952,1071.011,382.447,1070.461,382.447Z" transform="translate(-1052.825 -340.513)" fill="#fff"/>
            <path id="Trazado_680174" data-name="Trazado 680174" d="M1029.547,411.55c-7.059,0-7.214.16-7.214-.426,0-1.914-.126-2.409.426-2.409,7.059,0,7.214-.16,7.214.426C1029.973,411.055,1030.1,411.55,1029.547,411.55Z" transform="translate(-1021.359 -365.598)" fill="#fff"/>
            <path id="Trazado_680175" data-name="Trazado 680175" d="M1171.009,99.721c-28.015,0-26.646.2-26.646-.426,0-1.914-.126-2.409.426-2.409,28.015,0,26.646-.2,26.646.426C1171.434,99.227,1171.56,99.721,1171.009,99.721Z" transform="translate(-1126.524 -96.857)" fill="#fff"/>
            <path id="Trazado_680176" data-name="Trazado 680176" d="M1172.619,301.141c-28.015,0-26.646.2-26.646-.426,0-1.914-.126-2.409.426-2.409,28.015,0,26.646-.2,26.646.426C1173.044,300.647,1173.169,301.141,1172.619,301.141Z" transform="translate(-1127.911 -270.44)" fill="#fff"/>
            <path id="Trazado_680177" data-name="Trazado 680177" d="M1161.236,254.687c-15.914,0-15.273.181-15.273-.426,0-1.914-.126-2.409.426-2.409,15.914,0,15.273-.181,15.273.426C1161.662,254.192,1161.787,254.687,1161.236,254.687Z" transform="translate(-1127.903 -230.41)" fill="#fff"/>
            <path id="Trazado_680178" data-name="Trazado 680178" d="M1172.619,213.331c-28.015,0-26.646.2-26.646-.426,0-1.914-.126-2.409.426-2.409,28.015,0,26.646-.2,26.646.426C1173.044,212.837,1173.169,213.331,1172.619,213.331Z" transform="translate(-1127.911 -194.766)" fill="#fff"/>
            <path id="Trazado_680179" data-name="Trazado 680179" d="M1394.184,99.733c-18.7,0-18.069.189-18.069-.426,0-1.914-.124-2.409.426-2.409,18.7,0,18.069-.189,18.069.426C1394.609,99.238,1394.735,99.733,1394.184,99.733Z" transform="translate(-1326.247 -96.869)" fill="#fff"/>
          </g>
        </g>
      </g>
      <g id="Grupo_1006266" data-name="Grupo 1006266" transform="translate(56.747 41.263)">
        <g id="Grupo_1006262" data-name="Grupo 1006262">
          <g id="Grupo_1006258" data-name="Grupo 1006258">
            <path id="Trazado_680180" data-name="Trazado 680180" d="M1448.4,392.041c-66.366,0-65.068,1.014-65.068-2.427,0-38.761-.916-39.424,2.427-39.424,66.365,0,65.068-1.014,65.068,2.427,0,38.761.916,39.424-2.427,39.424Z" transform="translate(-1382.864 -349.696)" fill="#f7ba18"/>
            <path id="Trazado_680181" data-name="Trazado 680181" d="M1396.623,390.328c-11.771,0-14.482-.214-15.432-1.165a1.988,1.988,0,0,1-.426-1.564v-.192c0-8.3-.042-14.809-.075-20.035-.094-14.6-.116-18.067,1.046-19.238a2.335,2.335,0,0,1,1.81-.506c15.182,0,26.586-.052,35.749-.094,23.73-.108,28.006-.127,29.248,1.119a1.988,1.988,0,0,1,.426,1.564v.192c0,8.306.042,14.81.075,20.037.094,14.6.116,18.066-1.046,19.235a2.335,2.335,0,0,1-1.811.506c-15.183,0-26.588.052-35.751.094-5.625.026-10.158.047-13.816.047Zm36.326-42.13c-3.654,0-8.143.021-13.648.046-9.163.041-20.569.094-35.752.094-.7,0-1.055.043-1.306.3-.954.96-.924,5.438-.84,18.732.033,5.227.076,11.734.076,20.041v.2c-.005.547,0,.843.218,1.059,1.034,1.037,6.9,1.009,28.741.911,9.164-.041,20.569-.094,35.753-.094.7,0,1.054-.043,1.306-.3.953-.959.925-5.438.84-18.729-.033-5.228-.074-11.734-.074-20.042v-.2c.005-.547,0-.842-.219-1.057-.772-.775-4.252-.956-15.095-.956Z" transform="translate(-1380.651 -347.487)" fill="#f7ba18"/>
          </g>
          <g id="Grupo_1006259" data-name="Grupo 1006259" transform="translate(0.115 0.015)">
            <path id="Trazado_680182" data-name="Trazado 680182" d="M1451.553,352.368H1384.06a2.08,2.08,0,0,1,2.08-2.08C1453.664,350.288,1451.553,349.4,1451.553,352.368Z" transform="translate(-1383.703 -349.808)" fill="#444244"/>
            <path id="Trazado_680183" data-name="Trazado 680183" d="M1449.685,350.511H1381.48v-.355a2.438,2.438,0,0,1,2.435-2.435c15.692,0,27.83-.048,36.693-.084,23.432-.1,27.656-.112,28.737.988a1.6,1.6,0,0,1,.343,1.277c0,.082,0,.166,0,.254v.355Z" transform="translate(-1381.48 -347.595)" fill="#ff5e00"/>
          </g>
          <g id="Grupo_1006261" data-name="Grupo 1006261" transform="translate(64.787 0.955)">
            <path id="Trazado_680184" data-name="Trazado 680184" d="M1849.675,355.534c.584,0,1.115.122,1.115-.229,0-.423.1-.891-.231-.891-.585,0-1.115-.122-1.115.231,0,.423-.1.891.231.891Z" transform="translate(-1849.431 -354.393)" fill="#f7ba18"/>
            <g id="Grupo_1006260" data-name="Grupo 1006260" transform="translate(0.118 0.075)">
              <path id="Trazado_680185" data-name="Trazado 680185" d="M1850.461,355.952a.181.181,0,0,1-.137-.064.179.179,0,0,1,.022-.25l.785-.654a.178.178,0,1,1,.228.272l-.785.654A.177.177,0,0,1,1850.461,355.952Z" transform="translate(-1850.284 -354.943)" fill="#fff"/>
              <path id="Trazado_680186" data-name="Trazado 680186" d="M1851.249,355.946a.177.177,0,0,1-.114-.041l-.785-.654a.178.178,0,1,1,.228-.272l.785.654a.178.178,0,0,1-.115.314Z" transform="translate(-1850.286 -354.936)" fill="#fff"/>
            </g>
          </g>
        </g>
        <g id="Grupo_1006265" data-name="Grupo 1006265" transform="translate(5.645 5.647)">
          <g id="Grupo_1006263" data-name="Grupo 1006263">
            <path id="Trazado_680187" data-name="Trazado 680187" d="M1423.272,390.437c-1.154,0-1.692.116-1.692-.394v-1.3a.4.4,0,0,1,.394-.394h1.3a.4.4,0,0,1,.394.394v1.3a.4.4,0,0,1-.394.394Z" transform="translate(-1421.569 -388.35)" fill="#fff"/>
            <path id="Trazado_680188" data-name="Trazado 680188" d="M1423.2,423.635c-1.154,0-1.692.116-1.692-.394,0-1.154-.116-1.692.394-1.692h1.3a.394.394,0,0,1,.394.394v1.3a.394.394,0,0,1-.394.394Z" transform="translate(-1421.498 -416.962)" fill="#fff"/>
            <path id="Trazado_680189" data-name="Trazado 680189" d="M1423.2,458.976c-1.154,0-1.692.116-1.692-.394,0-1.154-.116-1.692.394-1.692h1.3a.394.394,0,0,1,.394.394v1.3a.4.4,0,0,1-.394.394Z" transform="translate(-1421.498 -447.418)" fill="#fff"/>
            <path id="Trazado_680190" data-name="Trazado 680190" d="M1423.2,487.936c-1.154,0-1.692.116-1.692-.394,0-1.154-.116-1.692.394-1.692h1.3a.394.394,0,0,1,.394.394v1.3a.394.394,0,0,1-.394.394Z" transform="translate(-1421.498 -472.375)" fill="#fff"/>
            <path id="Trazado_680191" data-name="Trazado 680191" d="M1423.2,521.816c-1.154,0-1.692.116-1.692-.394,0-1.154-.116-1.692.394-1.692h1.3a.394.394,0,0,1,.394.394v1.3a.4.4,0,0,1-.394.394Z" transform="translate(-1421.498 -501.573)" fill="#fff"/>
          </g>
          <g id="Grupo_1006264" data-name="Grupo 1006264" transform="translate(3.155 0.891)">
            <path id="Trazado_680192" data-name="Trazado 680192" d="M1449.94,395.107h-5.456a.153.153,0,0,1,0-.307h5.456a.153.153,0,0,1,0,.307Z" transform="translate(-1444.33 -394.8)" fill="#fff"/>
            <path id="Trazado_680193" data-name="Trazado 680193" d="M1449.94,615.8h-5.456a.153.153,0,0,1,0-.307h5.456a.153.153,0,0,1,0,.307Z" transform="translate(-1444.33 -584.99)" fill="#eee4d9"/>
            <path id="Trazado_680194" data-name="Trazado 680194" d="M1444.483,425.616a.154.154,0,0,1-.153-.153v-30.5a.153.153,0,1,1,.307,0v30.5A.154.154,0,0,1,1444.483,425.616Z" transform="translate(-1444.33 -394.809)" fill="#fff"/>
          </g>
          <rect id="Rectángulo_345606" data-name="Rectángulo 345606" width="9.206" height="2.085" rx="1" transform="translate(7.343 0.001)" fill="#fff"/>
          <path id="Trazado_680195" data-name="Trazado 680195" d="M1586.415,390.437c-28.7,0-27.729.285-27.729-.625v-.837a.624.624,0,0,1,.625-.625h27.1a.624.624,0,0,1,.625.625v.837A.624.624,0,0,1,1586.415,390.437Z" transform="translate(-1539.722 -388.35)" fill="#fff" opacity="0.8"/>
          <path id="Trazado_680196" data-name="Trazado 680196" d="M1586.439,456.554h-27.1a.624.624,0,0,1-.625-.625v-.838a.624.624,0,0,1,.625-.625c28.7,0,27.729-.285,27.729.625,0,.632.129,1.461-.625,1.461Z" transform="translate(-1539.747 -445.293)" fill="#fff" opacity="0.8"/>
          <path id="Trazado_680197" data-name="Trazado 680197" d="M1586.439,522.934h-27.1a.624.624,0,0,1-.625-.625v-.838a.624.624,0,0,1,.625-.625c28.7,0,27.729-.285,27.729.625,0,.632.129,1.461-.625,1.461Z" transform="translate(-1539.747 -502.499)" fill="#fff" opacity="0.8"/>
          <path id="Trazado_680198" data-name="Trazado 680198" d="M1586.387,589.312c-28.7,0-27.729.285-27.729-.625,0-.632-.128-1.461.625-1.461,28.7,0,27.729-.285,27.729.625C1587.012,588.483,1587.141,589.312,1586.387,589.312Z" transform="translate(-1539.695 -559.705)" fill="#fff" opacity="0.8"/>
          <rect id="Rectángulo_345607" data-name="Rectángulo 345607" width="9.206" height="2.085" rx="1" transform="translate(7.343 4.588)" fill="#fff"/>
          <path id="Trazado_680199" data-name="Trazado 680199" d="M1483.212,456.646h-7.958a.625.625,0,0,1-.625-.625v-.838a.624.624,0,0,1,.625-.625c8.3,0,8.583-.227,8.583.625v.838A.624.624,0,0,1,1483.212,456.646Z" transform="translate(-1467.287 -445.385)" fill="#fff"/>
          <path id="Trazado_680200" data-name="Trazado 680200" d="M1474.768,487.93h8.931a.139.139,0,0,1,.138.138v1.81a.139.139,0,0,1-.138.138h-8.931a.139.139,0,0,1-.138-.138v-1.81A.139.139,0,0,1,1474.768,487.93Z" transform="translate(-1467.287 -474.168)" fill="#fff"/>
          <path id="Trazado_680201" data-name="Trazado 680201" d="M1474.768,521.12h8.931a.139.139,0,0,1,.138.138v1.81a.139.139,0,0,1-.138.138h-8.931a.139.139,0,0,1-.138-.138v-1.81A.139.139,0,0,1,1474.768,521.12Z" transform="translate(-1467.287 -502.771)" fill="#fff"/>
          <path id="Trazado_680202" data-name="Trazado 680202" d="M1474.768,554.3h8.931a.139.139,0,0,1,.138.138v1.81a.139.139,0,0,1-.138.138h-8.931a.139.139,0,0,1-.138-.138v-1.81A.139.139,0,0,1,1474.768,554.3Z" transform="translate(-1467.287 -531.365)" fill="#fff"/>
          <path id="Trazado_680203" data-name="Trazado 680203" d="M1483.161,589.4c-8.3,0-8.583.227-8.583-.625,0-.632-.129-1.461.625-1.461,8.3,0,8.583-.227,8.583.625C1483.785,588.576,1483.914,589.4,1483.161,589.4Z" transform="translate(-1467.235 -559.797)" fill="#9ebfd8"/>
          <path id="Trazado_680204" data-name="Trazado 680204" d="M1776.821,423.465c-8.3,0-8.582.227-8.582-.625,0-.632-.129-1.461.625-1.461,8.3,0,8.583-.227,8.583.625C1777.445,422.636,1777.574,423.465,1776.821,423.465Z" transform="translate(-1720.31 -416.791)" fill="#fff"/>
          <path id="Trazado_680205" data-name="Trazado 680205" d="M1776.821,489.845c-8.3,0-8.582.227-8.582-.625,0-.632-.129-1.461.625-1.461,8.3,0,8.583-.227,8.583.625C1777.445,489.016,1777.574,489.845,1776.821,489.845Z" transform="translate(-1720.31 -473.997)" fill="#fff"/>
          <path id="Trazado_680206" data-name="Trazado 680206" d="M1776.821,556.225c-8.3,0-8.582.227-8.582-.625,0-.632-.129-1.461.625-1.461,8.3,0,8.583-.227,8.583.625C1777.445,555.4,1777.574,556.225,1776.821,556.225Z" transform="translate(-1720.31 -531.203)" fill="#fff"/>
        </g>
      </g>
      <g id="Grupo_1006274" data-name="Grupo 1006274" transform="translate(5.365 70.358)">
        <g id="Grupo_1006271" data-name="Grupo 1006271">
          <g id="Grupo_1006267" data-name="Grupo 1006267" transform="translate(0 0.146)">
            <path id="Trazado_680207" data-name="Trazado 680207" d="M1087.137,610.217c-77.1,0-75.555,1.168-75.555-2.818,0-44.952-1.055-45.779,2.818-45.779h72.738a2.818,2.818,0,0,1,2.818,2.818c0,44.952,1.054,45.779-2.818,45.779Z" transform="translate(-1011.095 -561.266)" fill="#4ba1a4"/>
            <path id="Trazado_680208" data-name="Trazado 680208" d="M1027.435,608.526c-13.715,0-16.872-.246-17.96-1.336a2.25,2.25,0,0,1-.475-1.769v-.227c0-9.584-.047-17.108-.084-23.155-.108-17.017-.133-21.061,1.205-22.407a2.647,2.647,0,0,1,2.054-.572h72.738a3.177,3.177,0,0,1,3.173,3.173c0,9.583.047,17.107.086,23.153.108,17.018.133,21.062-1.205,22.41a2.648,2.648,0,0,1-2.054.572c-17.553,0-30.764.059-41.378.106-6.555.029-11.837.054-16.1.054Zm-15.26-48.757c-.822,0-1.241.053-1.549.362-1.129,1.137-1.1,5.951-1,21.9.039,6.046.086,13.573.086,23.159v.232c-.005.647,0,1,.267,1.262,1.216,1.22,8.066,1.189,33.552,1.074,10.615-.047,23.825-.106,41.381-.106.822,0,1.242-.053,1.551-.362,1.129-1.137,1.1-5.951,1-21.9-.039-6.046-.086-13.572-.086-23.158a2.465,2.465,0,0,0-2.463-2.461Z" transform="translate(-1008.87 -559.06)" fill="#4ba1a4"/>
          </g>
          <g id="Grupo_1006268" data-name="Grupo 1006268" transform="translate(0.133)">
            <path id="Trazado_680209" data-name="Trazado 680209" d="M1090.763,563.13H1012.39a2.415,2.415,0,0,1,2.414-2.416C1093.216,560.715,1090.763,559.681,1090.763,563.13Z" transform="translate(-1012.036 -560.215)" fill="#444244"/>
            <path id="Trazado_680210" data-name="Trazado 680210" d="M1088.913,561.277H1009.83v-.355a2.773,2.773,0,0,1,2.771-2.77c18.213,0,32.3-.057,42.594-.1,27.2-.11,32.1-.13,33.343,1.132a1.789,1.789,0,0,1,.382,1.44c0,.1,0,.193,0,.3v.355Z" transform="translate(-1009.83 -558.007)" fill="#0c1a3a"/>
          </g>
          <g id="Grupo_1006270" data-name="Grupo 1006270" transform="translate(75.189 1.058)">
            <rect id="Rectángulo_345608" data-name="Rectángulo 345608" width="1.562" height="1.302" rx="0.43" transform="translate(1.562 1.302) rotate(180)" fill="#4ba1a4"/>
            <g id="Grupo_1006269" data-name="Grupo 1006269" transform="translate(0.147 0.093)">
              <path id="Trazado_680211" data-name="Trazado 680211" d="M1554.152,567.445a.181.181,0,0,1-.137-.064.179.179,0,0,1,.022-.25l.911-.76a.178.178,0,0,1,.228.272l-.911.76A.177.177,0,0,1,1554.152,567.445Z" transform="translate(-1553.974 -566.33)" fill="#fff"/>
              <path id="Trazado_680212" data-name="Trazado 680212" d="M1555.065,567.445a.176.176,0,0,1-.113-.041l-.911-.76a.178.178,0,1,1,.228-.272l.911.76a.176.176,0,0,1,.022.25A.178.178,0,0,1,1555.065,567.445Z" transform="translate(-1553.976 -566.33)" fill="#fff"/>
            </g>
          </g>
        </g>
        <g id="Grupo_1006273" data-name="Grupo 1006273" transform="translate(6.122 10.855)">
          <path id="Trazado_680213" data-name="Trazado 680213" d="M1108.981,639.421c-20.673,0-20.059.223-20.059-.493,0-1.7-.145-2.341.493-2.341,20.673,0,20.059-.222,20.059.493C1109.474,638.779,1109.619,639.421,1108.981,639.421Z" transform="translate(-1083.968 -636.553)" fill="#fff"/>
          <path id="Trazado_680214" data-name="Trazado 680214" d="M1124.4,820.3c-37.079,0-35.507.3-35.507-.654,0-1.187-.192-2.179.654-2.179H1124.4a.654.654,0,0,1,.654.654v1.526A.654.654,0,0,1,1124.4,820.3Z" transform="translate(-1083.939 -792.467)" fill="#fff"/>
          <g id="Grupo_1006272" data-name="Grupo 1006272" transform="translate(0 0.019)">
            <path id="Trazado_680215" data-name="Trazado 680215" d="M1055.509,639.57c-1.584,0-2.326.159-2.326-.54,0-1.584-.159-2.326.54-2.326,1.584,0,2.326-.159,2.326.54C1056.05,638.827,1056.209,639.57,1055.509,639.57Z" transform="translate(-1053.168 -636.688)" fill="#fff"/>
            <path id="Trazado_680216" data-name="Trazado 680216" d="M1055.509,685.18c-1.584,0-2.326.159-2.326-.54,0-1.584-.159-2.326.54-2.326,1.584,0,2.326-.159,2.326.54C1056.05,684.437,1056.209,685.18,1055.509,685.18Z" transform="translate(-1053.168 -675.994)" fill="#fff"/>
            <path id="Trazado_680217" data-name="Trazado 680217" d="M1055.509,733.76c-1.584,0-2.326.159-2.326-.54,0-1.584-.159-2.326.54-2.326,1.584,0,2.326-.159,2.326.54C1056.05,733.017,1056.209,733.76,1055.509,733.76Z" transform="translate(-1053.168 -717.86)" fill="#fff"/>
            <path id="Trazado_680218" data-name="Trazado 680218" d="M1055.509,773.56c-1.584,0-2.326.159-2.326-.54,0-1.584-.159-2.326.54-2.326,1.584,0,2.326-.159,2.326.54C1056.05,772.817,1056.209,773.56,1055.509,773.56Z" transform="translate(-1053.168 -752.16)" fill="#fff"/>
            <path id="Trazado_680219" data-name="Trazado 680219" d="M1055.509,820.11c-1.584,0-2.326.159-2.326-.54,0-1.584-.159-2.326.54-2.326,1.584,0,2.326-.159,2.326.54C1056.05,819.367,1056.209,820.11,1055.509,820.11Z" transform="translate(-1053.168 -792.276)" fill="#fff"/>
          </g>
          <path id="Trazado_680220" data-name="Trazado 680220" d="M1294.953,639.578c-39.331,0-38.06.4-38.06-.862,0-.907-.173-2.036.862-2.036h37.2a.862.862,0,0,1,.862.862v1.173A.862.862,0,0,1,1294.953,639.578Z" transform="translate(-1228.728 -636.663)" fill="#fff" opacity="0.8"/>
          <path id="Trazado_680221" data-name="Trazado 680221" d="M1108.981,685.041c-20.673,0-20.059.223-20.059-.493,0-1.7-.145-2.341.493-2.341,20.673,0,20.059-.222,20.059.493v1.848A.494.494,0,0,1,1108.981,685.041Z" transform="translate(-1083.968 -675.868)" fill="#fff"/>
          <path id="Trazado_680222" data-name="Trazado 680222" d="M1291.065,685.2c-35.383,0-34.182.357-34.182-.818,0-.992-.178-2.08.818-2.08h33.364a.818.818,0,0,1,.818.818v1.263a.818.818,0,0,1-.818.818Z" transform="translate(-1228.718 -675.978)" fill="#fff" opacity="0.8"/>
          <path id="Trazado_680223" data-name="Trazado 680223" d="M1108.981,733.611c-20.673,0-20.059.222-20.059-.493,0-1.7-.145-2.341.493-2.341,20.673,0,20.059-.223,20.059.493C1109.474,732.969,1109.619,733.611,1108.981,733.611Z" transform="translate(-1083.968 -717.726)" fill="#fff"/>
          <path id="Trazado_680224" data-name="Trazado 680224" d="M1284.572,733.768c-28.529,0-27.713.318-27.713-.737,0-1.121-.191-2.161.737-2.161h26.976a.736.736,0,0,1,.737.737v1.424a.736.736,0,0,1-.737.737Z" transform="translate(-1228.694 -717.835)" fill="#fff" opacity="0.8"/>
          <path id="Trazado_680225" data-name="Trazado 680225" d="M1284.572,783.938c-28.529,0-27.713.318-27.713-.737,0-1.121-.191-2.161.737-2.161h26.976a.736.736,0,0,1,.737.737V783.2a.736.736,0,0,1-.737.737Z" transform="translate(-1228.694 -761.071)" fill="#fff" opacity="0.8"/>
          <path id="Trazado_680226" data-name="Trazado 680226" d="M1108.981,782.191c-20.673,0-20.059.223-20.059-.493,0-1.7-.145-2.341.493-2.341,20.673,0,20.059-.222,20.059.493C1109.474,781.549,1109.619,782.191,1108.981,782.191Z" transform="translate(-1083.968 -759.592)" fill="#fff"/>
          <path id="Trazado_680227" data-name="Trazado 680227" d="M1383.793,820.128c-24.733,0-24.006.3-24.006-.687,0-1.245-.177-2.211.687-2.211h23.319a.688.688,0,0,1,.687.687v1.524A.688.688,0,0,1,1383.793,820.128Z" transform="translate(-1317.398 -792.26)" fill="#fff" opacity="0.8"/>
        </g>
      </g>
    </g>
    <g id="Grupo_1006305" data-name="Grupo 1006305" transform="translate(126.293 9.232)">
      <g id="Grupo_1006303" data-name="Grupo 1006303">
        <path id="Rectángulo_345638" data-name="Rectángulo 345638" d="M9,0H58.163a8,8,0,0,1,8,8V30.79a12,12,0,0,1-12,12H12a12,12,0,0,1-12-12V9A9,9,0,0,1,9,0Z" fill="#fff"/>
        <g id="Grupo_1006302" data-name="Grupo 1006302" transform="translate(0 0)">
          <path id="Trazado_680276" data-name="Trazado 680276" d="M659.943,43.086V46.04H593.78V43.086a2.856,2.856,0,0,1,2.856-2.856h60.45a2.856,2.856,0,0,1,2.856,2.856Z" transform="translate(-593.78 -40.23)" fill="#0d8d8c"/>
          <g id="Grupo_1006301" data-name="Grupo 1006301" transform="translate(1.212 1.276)">
            <path id="Trazado_680277" data-name="Trazado 680277" d="M639.8,47.418a1.628,1.628,0,1,1-1.628-1.628A1.628,1.628,0,0,1,639.8,47.418Z" transform="translate(-627.936 -45.79)" fill="#4ba1a4"/>
            <path id="Trazado_680278" data-name="Trazado 680278" d="M621.3,47.418a1.628,1.628,0,1,1-1.628-1.628A1.628,1.628,0,0,1,621.3,47.418Z" transform="translate(-613.683 -45.79)" fill="#f7ba18"/>
            <path id="Trazado_680279" data-name="Trazado 680279" d="M602.315,47.418a1.628,1.628,0,1,1-1.628-1.628A1.628,1.628,0,0,1,602.315,47.418Z" transform="translate(-599.06 -45.79)" fill="#ff5e00"/>
          </g>
        </g>
      </g>
      <g id="Grupo_1006304" data-name="Grupo 1006304" transform="translate(6.572 16.636)">
        <path id="Trazado_680280" data-name="Trazado 680280" d="M630.784,125.544v-4.782h-4.564v4.782H622.41V112.7h3.811v5.112h4.564V112.7h3.811v12.844Z" transform="translate(-622.41 -112.7)" fill="#ff5e00"/>
        <path id="Trazado_680281" data-name="Trazado 680281" d="M688.238,115.742v9.8h-3.829v-9.8H680.69V112.7h11.287v3.042H688.24Z" transform="translate(-667.311 -112.7)" fill="#ff5e00"/>
        <path id="Trazado_680282" data-name="Trazado 680282" d="M746.088,125.544l-.018-7.6-2.583,6.34H741l-2.583-6.34v7.6H735.06V112.7h4.086l3.1,7.109,3.1-7.109h4.086v12.844H746.09Z" transform="translate(-709.2 -112.7)" fill="#ff5e00"/>
        <path id="Trazado_680283" data-name="Trazado 680283" d="M816.238,122.355v3.189h-9.2V112.7h3.811v9.655h5.388Z" transform="translate(-764.657 -112.7)" fill="#ff5e00"/>
      </g>
    </g>
    <g id="Grupo_1006307" data-name="Grupo 1006307" transform="translate(292.413 34.694)">
      <rect id="Rectángulo_345639" data-name="Rectángulo 345639" width="34.656" height="34.656" rx="6.65" fill="#0c1a3a"/>
      <g id="Grupo_1006306" data-name="Grupo 1006306" transform="translate(4.834 9.83)">
        <path id="Trazado_680284" data-name="Trazado 680284" d="M1653.207,198.257l-4.823,1.655,4.823,1.655v2.706l-8.117-2.945V198.5l8.117-2.945Z" transform="translate(-1645.09 -192.079)" fill="#fff"/>
        <path id="Trazado_680285" data-name="Trazado 680285" d="M1686.742,180.43h3.184l-5.252,14.995h-3.184Z" transform="translate(-1673.134 -180.43)" fill="#fff"/>
        <path id="Trazado_680286" data-name="Trazado 680286" d="M1726.707,198.5v2.833l-8.117,2.945v-2.706l4.823-1.655-4.823-1.655V195.55Z" transform="translate(-1701.718 -192.079)" fill="#fff"/>
      </g>
    </g>
    <g id="Grupo_1006309" data-name="Grupo 1006309" transform="translate(161.127 99.687)">
      <rect id="Rectángulo_345640" data-name="Rectángulo 345640" width="28.656" height="28.656" rx="5.5" fill="#0c1a3a"/>
      <g id="Grupo_1006308" data-name="Grupo 1006308" transform="translate(3.651 4.203)">
        <path id="Trazado_680287" data-name="Trazado 680287" d="M942.9,485.174a2.779,2.779,0,1,1-2.8-2.755A2.777,2.777,0,0,1,942.9,485.174Z" transform="translate(-929.418 -466.412)" fill="#fff"/>
        <path id="Trazado_680288" data-name="Trazado 680288" d="M921.494,418.316a13.126,13.126,0,0,0-15.952.14,1.863,1.863,0,0,1-2.36.1h0a1.7,1.7,0,0,1,.516-2.465,16.126,16.126,0,0,1,19.6-.172,1.7,1.7,0,0,1,.56,2.456h0a1.858,1.858,0,0,1-2.36-.06Z" transform="translate(-902.834 -412.69)" fill="#fff"/>
        <path id="Trazado_680289" data-name="Trazado 680289" d="M927.988,441.081a9.354,9.354,0,0,0-10.571.094,1.959,1.959,0,0,1-2.38.062h0c-.611-.556-.372-1.8.663-2.518a12.358,12.358,0,0,1,13.962-.124c1.049.707,1.308,1.94.709,2.507h0A1.961,1.961,0,0,1,927.988,441.081Z" transform="translate(-911.98 -431.031)" fill="#fff"/>
        <path id="Trazado_680290" data-name="Trazado 680290" d="M934.291,463.956a5.45,5.45,0,0,0-4.945.044,2.266,2.266,0,0,1-2.431-.039h0c-.627-.537-.266-1.935,1.047-2.619a8.458,8.458,0,0,1,7.669-.067c1.325.663,1.708,2.052,1.093,2.6h0a2.267,2.267,0,0,1-2.431.08Z" transform="translate(-921.156 -449.439)" fill="#fff"/>
      </g>
    </g>
    <g id="Grupo_1006314" data-name="Grupo 1006314" transform="translate(108.334 66.856)">
      <g id="Grupo_1006312" data-name="Grupo 1006312">
        <rect id="Rectángulo_345642" data-name="Rectángulo 345642" width="65.126" height="23.658" rx="8.4" fill="#f7ba18"/>
        <path id="Trazado_680294" data-name="Trazado 680294" d="M515,369.8v14.8l7.431-9.807Z" transform="translate(-515 -351.768)" fill="#f7ba18"/>
      </g>
      <g id="Grupo_1006313" data-name="Grupo 1006313" transform="translate(7.213 5.652)">
        <path id="Trazado_680295" data-name="Trazado 680295" d="M554.526,330.842c0,2.245-1.3,3.71-3.319,3.71a2.587,2.587,0,0,1-2.071-.941v3.455H546.42v-9.922h2.716v.847a2.491,2.491,0,0,1,2-.941c2.043,0,3.388,1.506,3.388,3.792Zm-2.743-.067c0-.969-.523-1.628-1.331-1.628s-1.318.659-1.318,1.628.537,1.628,1.318,1.628S551.782,331.744,551.782,330.776Z" transform="translate(-546.42 -324.484)" fill="#0c1a3a"/>
        <path id="Trazado_680296" data-name="Trazado 680296" d="M594.376,321.207v4.637h-2.716v-3.859a1.043,1.043,0,0,0-1.049-1.182,1.258,1.258,0,0,0-1.2,1.426v3.616H586.7V315.87h2.716v3.792a2.61,2.61,0,0,1,2.325-1.237A2.554,2.554,0,0,1,594.376,321.207Z" transform="translate(-577.453 -315.87)" fill="#0c1a3a"/>
        <path id="Trazado_680297" data-name="Trazado 680297" d="M627.112,335.4a3.017,3.017,0,0,1-3.039,2.11,3.677,3.677,0,0,1-2.353-.806l1.129-1.816a1.384,1.384,0,0,0,.98.418.818.818,0,0,0,.794-.471l.135-.255-3.026-7.112h2.782l1.6,4.476,1.357-4.476h2.7L627.11,335.4Z" transform="translate(-604.434 -324.807)" fill="#0c1a3a"/>
        <path id="Trazado_680298" data-name="Trazado 680298" d="M664.5,328.9a4.308,4.308,0,0,1-2.029.471,2.33,2.33,0,0,1-2.608-2.406v-2.918H658.86v-1.733h1.008V320.28h2.7v2.029h1.8v1.733h-1.8v2.5c0,.471.241.7.617.7a2.687,2.687,0,0,0,.833-.216l.484,1.869Z" transform="translate(-633.048 -319.268)" fill="#0c1a3a"/>
        <path id="Trazado_680299" data-name="Trazado 680299" d="M693.573,330.811c0,2.259-1.6,3.751-4.061,3.751s-4.072-1.492-4.072-3.751,1.614-3.751,4.072-3.751S693.573,328.538,693.573,330.811Zm-5.39.028c0,.98.523,1.628,1.331,1.628s1.318-.645,1.318-1.628-.523-1.628-1.318-1.628S688.183,329.87,688.183,330.839Z" transform="translate(-653.527 -324.491)" fill="#0c1a3a"/>
        <path id="Trazado_680300" data-name="Trazado 680300" d="M733.226,329.775v4.637h-2.716v-3.859a1.05,1.05,0,0,0-1.049-1.182,1.258,1.258,0,0,0-1.2,1.426v3.616H725.55V327.1h2.716v1.129a2.61,2.61,0,0,1,2.325-1.237,2.561,2.561,0,0,1,2.635,2.782Z" transform="translate(-684.429 -324.437)" fill="#0c1a3a"/>
      </g>
    </g>
    <g id="Grupo_1006330" data-name="Grupo 1006330" transform="translate(15.387 38.046)">
      <g id="Grupo_1006325" data-name="Grupo 1006325" transform="translate(0 0.032)">
        <rect id="Rectángulo_345644" data-name="Rectángulo 345644" width="67.341" height="56.46" transform="translate(0 5.147)" fill="#4ba1a4"/>
        <rect id="Rectángulo_345645" data-name="Rectángulo 345645" width="67.341" height="5.147" fill="#0d8d8c"/>
        <g id="Grupo_1006324" data-name="Grupo 1006324" transform="translate(2.746 8.921)">
          <rect id="Rectángulo_345646" data-name="Rectángulo 345646" width="18.183" height="2.254" fill="#fff" opacity="0.3"/>
          <rect id="Rectángulo_345647" data-name="Rectángulo 345647" width="29.113" height="2.254" transform="translate(11.958 3.921)" fill="#fff" opacity="0.3"/>
          <g id="Grupo_1006318" data-name="Grupo 1006318" transform="translate(11.958 7.842)">
            <rect id="Rectángulo_345648" data-name="Rectángulo 345648" width="20.203" height="2.254" fill="#fff" opacity="0.3"/>
            <rect id="Rectángulo_345649" data-name="Rectángulo 345649" width="8.907" height="2.254" transform="translate(22.214)" fill="#ed1c24" opacity="0.3"/>
          </g>
          <g id="Grupo_1006319" data-name="Grupo 1006319" transform="translate(19.237 11.763)">
            <rect id="Rectángulo_345650" data-name="Rectángulo 345650" width="7.277" height="2.254" fill="#ed1c24" opacity="0.3"/>
            <rect id="Rectángulo_345651" data-name="Rectángulo 345651" width="7.277" height="2.254" transform="translate(9.288)" fill="#1c1f23" opacity="0.3"/>
          </g>
          <rect id="Rectángulo_345652" data-name="Rectángulo 345652" width="20.203" height="2.254" transform="translate(19.237 15.683)" fill="#1c1f23" opacity="0.3"/>
          <g id="Grupo_1006320" data-name="Grupo 1006320" transform="translate(19.237 19.604)">
            <rect id="Rectángulo_345653" data-name="Rectángulo 345653" width="9.141" height="2.254" fill="#fff" opacity="0.3"/>
            <rect id="Rectángulo_345654" data-name="Rectángulo 345654" width="19.972" height="2.254" transform="translate(11.15)" fill="#ed1c24" opacity="0.3"/>
          </g>
          <g id="Grupo_1006321" data-name="Grupo 1006321" transform="translate(26.514 23.525)">
            <rect id="Rectángulo_345655" data-name="Rectángulo 345655" width="7.277" height="2.254" fill="#1c1f23" opacity="0.3"/>
            <rect id="Rectángulo_345656" data-name="Rectángulo 345656" width="7.277" height="2.254" transform="translate(9.288)" fill="#ed1c24" opacity="0.3"/>
          </g>
          <rect id="Rectángulo_345657" data-name="Rectángulo 345657" width="20.203" height="2.254" transform="translate(26.514 27.446)" fill="#fff" opacity="0.3"/>
          <g id="Grupo_1006322" data-name="Grupo 1006322" transform="translate(26.514 31.367)" opacity="0.3">
            <rect id="Rectángulo_345658" data-name="Rectángulo 345658" width="14.556" height="2.254" fill="#fff" opacity="0.3"/>
            <rect id="Rectángulo_345659" data-name="Rectángulo 345659" width="14.556" height="2.254" transform="translate(16.565)" fill="#fff" opacity="0.3"/>
          </g>
          <g id="Grupo_1006323" data-name="Grupo 1006323" transform="translate(33.793 35.288)">
            <rect id="Rectángulo_345660" data-name="Rectángulo 345660" width="11.076" height="2.254" fill="#fff" opacity="0.3"/>
            <rect id="Rectángulo_345661" data-name="Rectángulo 345661" width="3.48" height="2.254" transform="translate(13.085)" fill="#fff" opacity="0.3"/>
          </g>
          <rect id="Rectángulo_345662" data-name="Rectángulo 345662" width="13.796" height="2.254" transform="translate(33.793 39.209)" fill="#fff" opacity="0.3"/>
          <rect id="Rectángulo_345663" data-name="Rectángulo 345663" width="7.277" height="2.254" transform="translate(33.793 43.129)" fill="#fff" opacity="0.3"/>
        </g>
        <rect id="Rectángulo_345664" data-name="Rectángulo 345664" width="2.206" height="2.206" transform="translate(2.181 1.471)" fill="#ff5e00"/>
        <rect id="Rectángulo_345665" data-name="Rectángulo 345665" width="2.206" height="2.206" transform="translate(5.932 1.471)" fill="#f7ba18"/>
        <rect id="Rectángulo_345666" data-name="Rectángulo 345666" width="2.206" height="2.206" transform="translate(9.68 1.471)" fill="#4ba1a4"/>
      </g>
      <g id="Grupo_1006329" data-name="Grupo 1006329" transform="translate(5.895)">
        <path id="Trazado_680308" data-name="Trazado 680308" d="M138.521,321.73h0a4.073,4.073,0,0,1,0-5.757l27.843-27.843,5.757,5.757L144.279,321.73a4.073,4.073,0,0,1-5.757,0Z" transform="translate(-137.33 -269.859)" fill="#193149"/>
        <circle id="Elipse_5987" data-name="Elipse 5987" cx="17.938" cy="17.938" r="17.938" transform="matrix(0.158, -0.987, 0.987, 0.158, 11.971, 35.423)" fill="#193149"/>
        <g id="Grupo_1006328" data-name="Grupo 1006328" transform="translate(15.399 3.436)">
          <circle id="Elipse_5988" data-name="Elipse 5988" cx="13.92" cy="13.92" r="13.92" transform="matrix(0.964, -0.265, 0.265, 0.964, 0, 7.384)" fill="#4ba1a4"/>
          <g id="Grupo_1006327" data-name="Grupo 1006327" transform="translate(0 0)" clip-path="url(#clip-path)">
            <g id="Grupo_1006326" data-name="Grupo 1006326" transform="translate(-13.489 11.796)">
              <path id="Trazado_680309" data-name="Trazado 680309" d="M154.052,287.08h-8.4V274.89h8.4Zm-6.423-1.976h4.447v-8.237h-4.447Z" transform="translate(-145.65 -274.89)" fill="#193149"/>
              <rect id="Rectángulo_345667" data-name="Rectángulo 345667" width="1.976" height="12.19" transform="translate(11.971 0)" fill="#193149"/>
              <path id="Trazado_680310" data-name="Trazado 680310" d="M232.442,287.08h-8.4V274.89h8.4Zm-6.423-1.976h4.447v-8.237h-4.447Z" transform="translate(-206.045 -274.89)" fill="#fff"/>
              <rect id="Rectángulo_345668" data-name="Rectángulo 345668" width="1.976" height="12.19" transform="translate(29.967 0)" fill="#fff"/>
              <path id="Trazado_680311" data-name="Trazado 680311" d="M334.992,287.08h-8.4V274.89h8.4Zm-6.423-1.976h4.447v-8.237h-4.447Z" transform="translate(-285.054 -274.89)" fill="#fff"/>
              <rect id="Rectángulo_345669" data-name="Rectángulo 345669" width="1.976" height="12.19" transform="translate(35.99 0)" fill="#fff"/>
            </g>
          </g>
        </g>
      </g>
    </g>
    <g id="Grupo_1006341" data-name="Grupo 1006341" transform="translate(12.066 126.652)">
      <path id="Trazado_680314" data-name="Trazado 680314" d="M152.149,644.8l-.023-.477a4.241,4.241,0,0,0-.062-.484,3.8,3.8,0,0,0-.119-.549,4.055,4.055,0,0,0-.17-.535q-.048-.127-.09-.241c-.034-.073-.069-.145-.1-.209-.062-.129-.112-.239-.154-.31l-.069-.112,1.214-.7s-.03-.05-.085-.14-.126-.218-.232-.363-.232-.308-.365-.484-.305-.342-.468-.514-.349-.321-.514-.468-.344-.257-.484-.365-.275-.174-.363-.232-.14-.085-.14-.085l-.7,1.214-.112-.069c-.073-.041-.181-.09-.31-.154-.064-.03-.135-.064-.209-.1l-.241-.09a3.728,3.728,0,0,0-.535-.17,4.136,4.136,0,0,0-.549-.119,4.325,4.325,0,0,0-.484-.062l-.477-.023v-1.4l-.59.028a7.491,7.491,0,0,0-1.283.223,5.2,5.2,0,0,0-.663.211c-.1.039-.207.076-.3.115l-.259.124c-.161.078-.294.14-.386.191l-.14.083.7,1.214-.112.069c-.069.046-.177.1-.292.186s-.248.186-.393.294-.273.248-.415.376-.257.282-.376.416-.207.278-.294.393-.14.223-.186.292l-.069.112-1.214-.7-.083.14c-.051.09-.112.225-.191.386-.039.08-.08.168-.124.259s-.076.2-.115.3a5.207,5.207,0,0,0-.211.663,5.413,5.413,0,0,0-.147.682,5.58,5.58,0,0,0-.076.6c-.016.354-.028.59-.028.59h1.4l.023.477a4.242,4.242,0,0,0,.062.484,3.8,3.8,0,0,0,.119.549,4.048,4.048,0,0,0,.17.535q.048.127.09.241c.034.073.069.145.1.209.062.129.112.239.154.31l.069.112-1.214.7s.03.051.085.14.126.218.232.363.232.308.365.484.305.342.468.514.349.321.514.468.344.257.484.365.275.174.363.232.14.085.14.085l.7-1.214.112.069c.073.041.181.09.31.154.064.032.135.064.209.1l.241.09a3.736,3.736,0,0,0,.535.17,4.144,4.144,0,0,0,.549.119,4.3,4.3,0,0,0,.484.062l.477.023v1.4l.59-.027a7.507,7.507,0,0,0,1.283-.223,5.2,5.2,0,0,0,.663-.211c.1-.039.207-.076.3-.115l.259-.124c.161-.078.294-.14.386-.191l.14-.083-.7-1.214.112-.069c.069-.046.177-.1.292-.186s.248-.186.393-.294.273-.248.415-.376.257-.282.376-.415.207-.278.294-.393.14-.223.186-.292l.069-.112,1.214.7.083-.14c.051-.089.112-.225.191-.386.039-.08.08-.168.124-.259s.076-.2.115-.3a5.213,5.213,0,0,0,.211-.663,5.414,5.414,0,0,0,.147-.682,5.583,5.583,0,0,0,.076-.6c.016-.354.028-.59.028-.59Zm-5.84,3.319a3.319,3.319,0,1,1,3.319-3.319A3.318,3.318,0,0,1,146.309,648.119Z" transform="translate(-119.203 -617.85)" fill="#0c1a3a"/>
      <g id="Grupo_1006332" data-name="Grupo 1006332" transform="translate(4.832 4.825)">
        <path id="Trazado_680315" data-name="Trazado 680315" d="M91.258,581.476s-.025-.177-.064-.441c-.023-.131-.037-.287-.073-.45l-.129-.507a3.613,3.613,0,0,0-.158-.5c-.057-.156-.11-.3-.156-.429s-.1-.223-.135-.294l-.053-.11,1.258-.6s-.087-.191-.232-.468c-.08-.133-.174-.289-.278-.457a4.92,4.92,0,0,0-.34-.51c-.126-.168-.25-.333-.37-.489s-.25-.282-.356-.4l-.257-.278a.807.807,0,0,0-.1-.1l-.976,1-.331-.3a8.608,8.608,0,0,0-.769-.6c-.145-.1-.3-.188-.443-.276a3.9,3.9,0,0,0-.4-.225l-.4-.193.576-1.269-.129-.062a2.913,2.913,0,0,0-.351-.14l-.5-.184c-.184-.071-.39-.11-.59-.168a8.36,8.36,0,0,0-1.127-.218,2.624,2.624,0,0,0-.376-.044c-.092,0-.142-.009-.142-.009l-.106,1.391-.445-.023c-.266-.016-.622.021-.978.032-.351.057-.707.092-.966.158l-.432.11-.374-1.345-.138.037a3.151,3.151,0,0,0-.36.117,8.585,8.585,0,0,0-1.063.436c-.186.094-.381.174-.546.278l-.457.278a3.677,3.677,0,0,0-.317.207l-.115.085.815,1.134-.356.269a4.064,4.064,0,0,0-.344.3c-.122.115-.259.227-.381.358a8.116,8.116,0,0,0-.638.744l-.266.358-1.152-.787a.783.783,0,0,0-.08.119c-.048.078-.115.188-.2.321s-.179.289-.271.461-.177.365-.266.551a4.928,4.928,0,0,0-.234.567l-.181.5c-.087.3-.135.505-.135.505l1.352.347s-.011.044-.03.119-.053.181-.073.314-.044.287-.071.452a3.776,3.776,0,0,0-.057.519c-.009.179-.018.356-.028.523s.011.321.014.455l.023.445-1.389.138s.03.207.076.514c.025.154.046.335.09.526s.1.393.149.595a4.469,4.469,0,0,0,.184.585c.067.184.131.356.186.5s.119.262.156.344.062.129.062.129l1.258-.6s.076.163.2.4c.069.115.152.248.236.39a3.85,3.85,0,0,0,.289.434c.108.142.213.285.314.418s.216.241.305.34l.218.239a.508.508,0,0,0,.087.085l-.976,1,.386.349a9.152,9.152,0,0,0,.9.7c.17.119.354.22.519.324s.321.2.464.264l.471.227.576-1.272s.041.018.11.053a2.71,2.71,0,0,0,.3.119l.429.156c.156.062.333.092.5.142a6.921,6.921,0,0,0,.962.186,2.9,2.9,0,0,0,.321.039l.122.007L82.4,591.81l.521.028c.312.016.728-.021,1.143-.039.411-.064.826-.108,1.129-.186l.505-.129-.374-1.343.119-.03a2.332,2.332,0,0,0,.308-.1,7.108,7.108,0,0,0,.907-.372c.158-.08.326-.147.466-.236s.275-.168.39-.236a2.331,2.331,0,0,0,.271-.177l.1-.073.815,1.134.416-.315c.129-.09.257-.22.4-.349s.3-.269.445-.42a9.963,9.963,0,0,0,.746-.868l.31-.418-1.152-.787a.583.583,0,0,0,.069-.1c.041-.067.1-.161.168-.276s.154-.246.232-.393.149-.312.227-.471a3.919,3.919,0,0,0,.2-.484c.057-.156.11-.3.156-.429.073-.257.115-.429.115-.429l1.352.347s.014-.051.037-.14.06-.214.087-.367.053-.335.083-.528a4.652,4.652,0,0,0,.067-.608c.011-.209.021-.418.032-.613s-.011-.376-.016-.533c-.016-.312-.028-.519-.028-.519l-1.389.138Zm-7.5,7.121a6.349,6.349,0,1,1,5.7-6.942A6.348,6.348,0,0,1,83.754,588.6Z" transform="translate(-73.61 -572.75)" fill="#0c1a3a"/>
        <path id="Trazado_680316" data-name="Trazado 680316" d="M107.941,603.8a3.025,3.025,0,1,1-3.308-2.713A3.025,3.025,0,0,1,107.941,603.8Z" transform="translate(-95.409 -594.572)" fill="#0c1a3a"/>
      </g>
      <g id="Grupo_1006340" data-name="Grupo 1006340">
        <g id="Grupo_1006333" data-name="Grupo 1006333" transform="translate(9.352)">
          <path id="Trazado_680317" data-name="Trazado 680317" d="M142.622,565.855l.227.184a4.692,4.692,0,0,1,.491.416c.331.335.661.668.661.668l2.436-2.144s-.443-.45-.886-.9a7.711,7.711,0,0,0-.659-.562c-.186-.147-.308-.248-.308-.248l-1.965,2.583Zm1.446.59s-.184-.188-.367-.374a1.892,1.892,0,0,0-.269-.241c-.076-.062-.129-.1-.129-.1l1.409-1.68.156.126a2.751,2.751,0,0,1,.328.294l.45.455-1.577,1.522Z" transform="translate(-131.298 -560.622)" fill="#0c1a3a"/>
          <path id="Trazado_680318" data-name="Trazado 680318" d="M139.757,559.24l.505.317-1.74,2.741-.372-.239Z" transform="translate(-127.854 -557.517)" fill="#0c1a3a"/>
          <path id="Trazado_680319" data-name="Trazado 680319" d="M126.83,556.554l.289.069c.087.021.188.044.3.071s.216.078.326.119c.223.078.445.158.613.218s.266.126.266.126l1.331-2.959s-.14-.073-.358-.165l-.813-.292c-.149-.053-.3-.106-.436-.154l-.39-.1-.381-.092-.744,3.159Zm1.575-.062s-.248-.09-.5-.177l-.34-.124-.161-.039.6-2.11s.078.018.193.048l.413.147.6.216Z" transform="translate(-119.133 -553.017)" fill="#0c1a3a"/>
          <path id="Trazado_680320" data-name="Trazado 680320" d="M121.808,552.15l.581.078-.494,3.207-.445-.06Z" transform="translate(-114.988 -552.054)" fill="#0c1a3a"/>
          <path id="Trazado_680321" data-name="Trazado 680321" d="M100.9,555.594l.292-.076.3-.078c.11-.025.23-.037.349-.057l.654-.1a1.279,1.279,0,0,1,.216-.023l.083,0-.292-3.232-.106.007a2.334,2.334,0,0,0-.28.03l-.84.131c-.152.025-.308.046-.448.076l-.383.1-.374.1.833,3.136Zm1.375-.81-.528.083c-.131.023-.264.037-.363.06l-.161.041-.477-2.14c-.007-.034,1.244-.218,1.244-.218l.285,2.174Z" transform="translate(-98.516 -551.954)" fill="#0c1a3a"/>
          <path id="Trazado_680322" data-name="Trazado 680322" d="M93.3,555.447l.549-.2,1.054,3.069-.427.154Z" transform="translate(-93.3 -554.443)" fill="#0c1a3a"/>
          <path id="Trazado_680323" data-name="Trazado 680323" d="M115.25,551.737c0-.014.585.014.585.014l-.08,3.244s-.45-.025-.45-.014Z" transform="translate(-110.211 -551.733)" fill="#0c1a3a"/>
        </g>
        <g id="Grupo_1006334" data-name="Grupo 1006334" transform="translate(0 1.425)">
          <path id="Trazado_680324" data-name="Trazado 680324" d="M81.659,561.836a11.764,11.764,0,0,1,1.667-.962l-1.387-2.934-.349.165a7.271,7.271,0,0,0-.746.409l-.73.436-.314.227Zm1.01-1.237a.752.752,0,0,0-.147.078l-.314.188c-.23.135-.459.273-.459.273l-1.185-1.846s.271-.163.542-.324c.135-.08.271-.161.374-.22a1.047,1.047,0,0,1,.174-.092l1.015,1.944Z" transform="translate(-73.547 -557.94)" fill="#0c1a3a"/>
          <path id="Trazado_680325" data-name="Trazado 680325" d="M74.21,566.438s.108-.1.216-.2l.149-.133c.039-.037.069-.06.069-.06l2.048,2.518a.449.449,0,0,0-.053.046c-.032.028-.073.067-.115.106-.083.076-.168.152-.168.152Z" transform="translate(-69.24 -564.188)" fill="#0c1a3a"/>
          <path id="Trazado_680326" data-name="Trazado 680326" d="M66.344,575.059s.285-.388.572-.776l.643-.716-2.339-2.247s-.422.455-.824.925l-.735,1,2.686,1.82Zm.517-1.506s-.184.193-.354.4-.317.429-.317.429l-1.765-1.3s.188-.255.376-.507.418-.473.418-.473Z" transform="translate(-61.112 -568.248)" fill="#0c1a3a"/>
          <path id="Trazado_680327" data-name="Trazado 680327" d="M59.98,584.093l.292-.5,2.81,1.623s-.239.386-.23.393L59.98,584.1Z" transform="translate(-58.277 -577.702)" fill="#0c1a3a"/>
          <path id="Trazado_680328" data-name="Trazado 680328" d="M56.308,599.958s.018-.119.048-.3.057-.418.108-.654c.119-.468.241-.934.241-.934L53.6,597.13s-.154.6-.308,1.2c-.115.608-.2,1.221-.2,1.221l3.218.409Zm-.223-1.577-.133.516c-.034.129-.046.264-.064.36s-.025.165-.025.165l-2.162-.363s.011-.078.032-.2.037-.275.076-.427l.156-.611Z" transform="translate(-52.968 -588.134)" fill="#0c1a3a"/>
          <path id="Trazado_680329" data-name="Trazado 680329" d="M52.56,612.823l.032-.583,3.241.172-.03.452Z" transform="translate(-52.56 -599.775)" fill="#0c1a3a"/>
          <path id="Trazado_680330" data-name="Trazado 680330" d="M56.84,591.012s.2-.546.211-.542l2.984,1.276c-.014,0-.163.422-.163.422l-3.03-1.159Z" transform="translate(-55.857 -583.002)" fill="#0c1a3a"/>
        </g>
        <g id="Grupo_1006335" data-name="Grupo 1006335" transform="translate(0.034 15.327)">
          <path id="Trazado_680331" data-name="Trazado 680331" d="M56.243,620.375s-.028-.115-.071-.287c-.021-.087-.046-.186-.073-.294s-.03-.23-.046-.347c-.032-.236-.064-.471-.09-.65s-.014-.3-.014-.3l-3.239.2s0,.156.021.388.073.542.115.852c.021.154.044.31.064.455l.094.39.092.381,3.147-.792ZM55.462,619s.037.262.071.526c.018.131.034.262.048.36s.039.161.039.161l-2.149.438-.046-.193c-.016-.117-.039-.275-.06-.434-.044-.315-.085-.629-.085-.629Z" transform="translate(-52.71 -618.5)" fill="#0c1a3a"/>
          <path id="Trazado_680332" data-name="Trazado 680332" d="M55.9,631.622l-.2-.558,3.074-1.044.149.418Z" transform="translate(-55.014 -627.375)" fill="#0c1a3a"/>
          <path id="Trazado_680333" data-name="Trazado 680333" d="M62.655,637a9.362,9.362,0,0,1-1.01-1.568L58.75,636.9s.069.142.174.354.289.473.455.741a7.324,7.324,0,0,0,.489.721c.149.184.248.308.248.308L62.652,637Zm-1.269-.914.562.884-1.777,1.283-.691-1.081,1.905-1.083Z" transform="translate(-57.363 -631.544)" fill="#0c1a3a"/>
          <path id="Trazado_680334" data-name="Trazado 680334" d="M68.187,647.531l-.427-.413,2.353-2.238.317.308Z" transform="translate(-64.305 -638.824)" fill="#0c1a3a"/>
          <path id="Trazado_680335" data-name="Trazado 680335" d="M82.18,654.217l-.863-.661-.852-.666-2.016,2.544s.441.344.882.691l.884.677,1.963-2.583Zm-1.639-.6.911.707-1.334,1.74-.93-.721Z" transform="translate(-72.541 -644.995)" fill="#0c1a3a"/>
          <path id="Trazado_680336" data-name="Trazado 680336" d="M89.835,664.006l-.415-.312,1.951-2.594.411.31Z" transform="translate(-80.993 -651.321)" fill="#0c1a3a"/>
          <path id="Trazado_680337" data-name="Trazado 680337" d="M73.8,651.84l-.413-.344,2.084-2.486.383.319Z" transform="translate(-68.643 -642.006)" fill="#0c1a3a"/>
        </g>
        <g id="Grupo_1006336" data-name="Grupo 1006336" transform="translate(9.628 25.972)">
          <path id="Trazado_680338" data-name="Trazado 680338" d="M98.205,666.181,96.44,664.87l-1.94,2.6,1.77,1.315,1.933-2.608Zm-1.664-.578.934.693-1.306,1.761-.937-.7Z" transform="translate(-94.5 -664.87)" fill="#0c1a3a"/>
          <rect id="Rectángulo_345670" data-name="Rectángulo 345670" width="3.246" height="0.519" transform="translate(2.53 4.462) rotate(-53.43)" fill="#0c1a3a"/>
          <path id="Trazado_680339" data-name="Trazado 680339" d="M114.712,678.454l-1.77-1.334-1.942,2.6,1.747,1.315Zm-1.669-.6.937.7-1.322,1.749-.927-.7,1.313-1.756Z" transform="translate(-107.212 -674.308)" fill="#0c1a3a"/>
          <path id="Trazado_680340" data-name="Trazado 680340" d="M122.214,688.321l-.4-.312,1.981-2.569.415.321Z" transform="translate(-115.541 -680.718)" fill="#0c1a3a"/>
          <path id="Trazado_680341" data-name="Trazado 680341" d="M135.582,695.146l-.248-.165c-.142-.108-.326-.262-.512-.409l-.28-.227c-.1-.087-.2-.17-.28-.241-.165-.14-.273-.234-.273-.234l-2.089,2.482.25.214c.076.064.163.138.255.218l.347.282c.243.2.484.395.67.535l.324.218,1.839-2.674Zm-1.527-.526c.025.034.845.689.845.689l-1.32,1.752s-1-.8-.962-.785l1.437-1.655Z" transform="translate(-123.315 -687.213)" fill="#0c1a3a"/>
          <path id="Trazado_680342" data-name="Trazado 680342" d="M144.357,704.4l-.517-.285,1.623-2.81.39.216Z" transform="translate(-132.514 -692.945)" fill="#0c1a3a"/>
          <path id="Trazado_680343" data-name="Trazado 680343" d="M127.525,692.6l-.395-.317,2.025-2.537.413.333Z" transform="translate(-119.639 -684.039)" fill="#0c1a3a"/>
        </g>
        <g id="Grupo_1006337" data-name="Grupo 1006337" transform="translate(22.435 31.685)">
          <path id="Trazado_680344" data-name="Trazado 680344" d="M153.345,704.3s-.115-.028-.285-.071a6.2,6.2,0,0,1-.624-.168l-.613-.209c-.165-.067-.271-.117-.271-.117l-1.263,2.989s.142.067.36.154l.817.28a8.552,8.552,0,0,0,.836.227l.383.092Zm-1.563.092.5.17a2.314,2.314,0,0,0,.347.1l.158.039-.544,2.123-.2-.048a3.407,3.407,0,0,1-.422-.124l-.6-.207.76-2.057Z" transform="translate(-150.29 -700.531)" fill="#0c1a3a"/>
          <path id="Trazado_680345" data-name="Trazado 680345" d="M165.945,710.024s-.6-.037-.595-.051l.383-3.223c0,.014.436.037.436.037Z" transform="translate(-161.893 -702.85)" fill="#0c1a3a"/>
          <path id="Trazado_680346" data-name="Trazado 680346" d="M174.653,705.87l-.28.064-.287.069-.335.044a6.224,6.224,0,0,1-.921.078l.1,3.244a9.415,9.415,0,0,0,1.269-.108l.464-.064c.147-.032.282-.064.4-.089.234-.055.39-.09.39-.09l-.8-3.145Zm-1.345.764.514-.069c.129-.016.257-.034.354-.046s.158-.037.158-.037l.432,2.151s-.078.018-.2.044-.28.039-.441.06l-.64.083-.179-2.185Z" transform="translate(-167.656 -702.172)" fill="#0c1a3a"/>
          <path id="Trazado_680347" data-name="Trazado 680347" d="M185.682,707.191s-.135.067-.278.119-.285.1-.285.1l-1.1-3.053.2-.069c.1-.039.2-.087.2-.087l1.258,2.991Z" transform="translate(-176.277 -700.885)" fill="#0c1a3a"/>
          <path id="Trazado_680348" data-name="Trazado 680348" d="M194.968,694.042l-.2.213a4.429,4.429,0,0,1-.441.459c-.172.156-.344.312-.473.427s-.23.174-.23.174l1.977,2.573s.133-.09.317-.243.413-.374.652-.588a6.8,6.8,0,0,0,.606-.631c.161-.177.266-.3.266-.3l-2.482-2.091Zm-.657,1.4.386-.349a2.21,2.21,0,0,0,.255-.25c.064-.073.108-.122.108-.122l1.6,1.5-.135.149a2.888,2.888,0,0,1-.314.31l-.477.432-1.423-1.669Z" transform="translate(-183.681 -693.057)" fill="#0c1a3a"/>
          <path id="Trazado_680349" data-name="Trazado 680349" d="M204.518,691.468l-.154.259c-.087.122-.177.243-.177.243l-2.667-1.85.129-.174c.053-.094.108-.186.108-.186l2.762,1.706Z" transform="translate(-189.76 -689.76)" fill="#0c1a3a"/>
          <path id="Trazado_680350" data-name="Trazado 680350" d="M191.328,704.308l-.523.305-1.575-2.835.372-.218Z" transform="translate(-180.291 -698.851)" fill="#0c1a3a"/>
        </g>
        <g id="Grupo_1006338" data-name="Grupo 1006338" transform="translate(31.989 17.439)">
          <path id="Trazado_680351" data-name="Trazado 680351" d="M204.821,679.31s-.025.112-.062.28-.126.381-.2.6a3.924,3.924,0,0,1-.236.583c-.071.156-.117.262-.117.262l2.913,1.432s.067-.147.168-.365a6.606,6.606,0,0,0,.331-.817c.1-.305.213-.606.271-.84s.09-.39.09-.39l-3.159-.742Zm.051,1.538c.03.011.354-.971.354-.971l2.105.613-.207.615a4.254,4.254,0,0,1-.236.6Z" transform="translate(-201.386 -667.462)" fill="#0c1a3a"/>
          <path id="Trazado_680352" data-name="Trazado 680352" d="M210.78,674.355l-.076.6-3.214-.441.055-.432Z" transform="translate(-203.913 -663.433)" fill="#0c1a3a"/>
          <path id="Trazado_680353" data-name="Trazado 680353" d="M206.842,659.737a2.834,2.834,0,0,1,.067.287c.028.174.062.406.1.638s.032.466.051.64.018.292.018.292l3.244-.06-.023-.395c-.021-.236-.021-.556-.071-.868s-.1-.624-.131-.859-.087-.383-.087-.383l-3.166.712Zm.73,1.38s0-.064-.009-.163a2.792,2.792,0,0,0-.034-.358c-.039-.259-.08-.519-.08-.519l2.16-.381.1.634a3.861,3.861,0,0,1,.044.438l.011.2-2.188.147Z" transform="translate(-203.413 -651.838)" fill="#0c1a3a"/>
          <path id="Trazado_680354" data-name="Trazado 680354" d="M208.379,652.08l.191.56-3.1.969-.142-.42Z" transform="translate(-202.249 -646.483)" fill="#0c1a3a"/>
          <path id="Trazado_680355" data-name="Trazado 680355" d="M196.05,634.521s.09.108.227.271l.409.517a5.3,5.3,0,0,1,.379.537c.1.149.165.248.165.248l2.75-1.722s-.085-.131-.213-.326a7.813,7.813,0,0,0-.494-.7l-.53-.67-.213-.257-2.477,2.1Zm1.364.9a3.388,3.388,0,0,0-.31-.432l-.331-.418,1.685-1.4s.2.248.393.5a4.812,4.812,0,0,1,.37.514l-1.809,1.24Z" transform="translate(-195.1 -631.337)" fill="#0c1a3a"/>
          <path id="Trazado_680356" data-name="Trazado 680356" d="M194.447,627.7l.317.393-2.521,2.043-.333-.413Z" transform="translate(-191.91 -627.7)" fill="#0c1a3a"/>
          <path id="Trazado_680357" data-name="Trazado 680357" d="M205.8,644.94s.069.129.14.259.124.266.124.266l-2.938,1.38s-.041-.1-.092-.2-.108-.2-.108-.2l2.876-1.5Z" transform="translate(-200.4 -640.982)" fill="#0c1a3a"/>
        </g>
        <g id="Grupo_1006339" data-name="Grupo 1006339" transform="translate(22.637 5.102)">
          <path id="Trazado_680358" data-name="Trazado 680358" d="M183.442,618.976l1.352,1.768,2.56-1.995-1.322-1.729-2.592,1.954Zm1.446,1.031-.714-.932,1.747-1.325.7.918Z" transform="translate(-176.032 -607.135)" fill="#0c1a3a"/>
          <path id="Trazado_680359" data-name="Trazado 680359" d="M182.231,611.99l.308.413-2.6,1.944-.312-.418Z" transform="translate(-173.097 -603.26)" fill="#0c1a3a"/>
          <path id="Trazado_680360" data-name="Trazado 680360" d="M171.14,602.525l1.313,1.768,2.605-1.935-1.311-1.768-2.605,1.933Zm1.426,1.038-.693-.937,1.761-1.306.693.937Z" transform="translate(-166.556 -594.477)" fill="#0c1a3a"/>
          <path id="Trazado_680361" data-name="Trazado 680361" d="M169.981,595.5l.31.418-2.6,1.938-.308-.416Z" transform="translate(-163.659 -590.555)" fill="#0c1a3a"/>
          <path id="Trazado_680362" data-name="Trazado 680362" d="M155.04,581.028l.668.852c.331.432.663.863.663.863l2.58-1.967s-.34-.441-.68-.884-.691-.882-.691-.882Zm1.437.985-.707-.911,1.726-1.352.721.93Z" transform="translate(-154.152 -577.851)" fill="#0c1a3a"/>
          <path id="Trazado_680363" data-name="Trazado 680363" d="M153.663,573.96l.337.411-2.514,2.055-.317-.388Z" transform="translate(-151.17 -573.96)" fill="#0c1a3a"/>
          <path id="Trazado_680364" data-name="Trazado 680364" d="M165.869,589.97l.314.416-2.6,1.949-.308-.411Z" transform="translate(-160.5 -586.295)" fill="#0c1a3a"/>
        </g>
      </g>
    </g>
  </g>
</svg>
