<svg xmlns="http://www.w3.org/2000/svg" width="85" height="109" viewBox="0 0 85 109">
  <g id="Grupo_1019741" data-name="Grupo 1019741" transform="translate(-180 -3059)">
    <rect id="Rectángulo_345292" data-name="Rectángulo 345292" width="85" height="109" rx="5" transform="translate(180 3059)" fill="#221b6b"/>
    <g id="Grupo_1019742" data-name="Grupo 1019742" transform="translate(-3.996 -6.352)">
      <g id="medalla" transform="translate(198 3089)">
        <circle id="Elipse_7684" data-name="Elipse 7684" cx="24.768" cy="24.768" r="24.768" transform="translate(3.819 0)" fill="#056522"/>
        <g id="Grupo_1019739" data-name="Grupo 1019739" transform="translate(0 39.185)">
          <path id="Trazado_734668" data-name="Trazado 734668" d="M29.272,319.7,20.75,334.473l9.947-.528,4.519,8.878L43.1,329.155A24.743,24.743,0,0,1,29.272,319.7Z" transform="translate(-20.75 -319.626)" fill="#1ce057"/>
          <path id="Trazado_734669" data-name="Trazado 734669" d="M318.84,319.1a24.752,24.752,0,0,1-13.79,9.5l7.908,13.692,4.519-8.878,9.947.528Z" transform="translate(-270.139 -319.1)" fill="#1ce057"/>
        </g>
        <circle id="Elipse_7685" data-name="Elipse 7685" cx="17.953" cy="17.953" r="17.953" transform="translate(10.634 6.815)" fill="#1ce057"/>
        <path id="Trazado_734670" data-name="Trazado 734670" d="M175.946,113.816a.938.938,0,0,0-.516-1.6l-7.085-1.031a.924.924,0,0,1-.7-.516l-3.168-6.422a.936.936,0,0,0-1.682,0l-3.156,6.422a.975.975,0,0,1-.7.516l-7.085,1.031a.938.938,0,0,0-.516,1.6l5.121,5a.946.946,0,0,1,.27.823l-1.2,7.049a.935.935,0,0,0,1.363.982l6.336-3.328a.915.915,0,0,1,.872,0l6.336,3.328a.94.94,0,0,0,1.363-.982l-1.216-7.049a.924.924,0,0,1,.27-.823Z" transform="translate(-135.055 -90.988)" fill="#f6f6f6"/>
      </g>
    </g>
  </g>
</svg>
