<svg xmlns="http://www.w3.org/2000/svg" xmlns:xlink="http://www.w3.org/1999/xlink" width="295" height="344" viewBox="0 0 295 344">
  <defs>
    <clipPath id="clip-path">
      <rect id="Rectángulo_369336" data-name="Rectángulo 369336" width="84" height="53" transform="translate(-2)" fill="#bdb6e5" stroke="#707070" stroke-width="1" opacity="0.6"/>
    </clipPath>
    <clipPath id="clip-path-2">
      <rect id="Rectángulo_369338" data-name="Rectángulo 369338" width="86" height="53" transform="translate(-3)" fill="#d3d3d3" stroke="#707070" stroke-width="1" opacity="0.6"/>
    </clipPath>
  </defs>
  <g id="Grupo_1019904" data-name="Grupo 1019904" transform="translate(-495 -1880)">
    <rect id="Rectángulo_34563" data-name="Rectángulo 34563" width="295" height="344" rx="12" transform="translate(495 1880)" fill="#ebebeb"/>
    <g id="Enmascarar_grupo_952103" data-name="Enmascarar grupo 952103" transform="translate(672 1880)" opacity="0.64" clip-path="url(#clip-path)">
      <path id="Trazado_734783" data-name="Trazado 734783" d="M580.865,579.492A35.735,35.735,0,1,1,616.6,543.761a35.776,35.776,0,0,1-35.731,35.731m0-64.42a28.689,28.689,0,1,0,28.689,28.689,28.691,28.691,0,0,0-28.689-28.689" transform="translate(-540.68 -544.336)" fill="#ccc" stroke="#bdb6e5" stroke-width="10"/>
    </g>
    <g id="Enmascarar_grupo_952105" data-name="Enmascarar grupo 952105" transform="translate(672 2171)" opacity="0.64" clip-path="url(#clip-path-2)">
      <path id="Trazado_734812" data-name="Trazado 734812" d="M580.865,508.023A35.735,35.735,0,1,0,616.6,543.754a35.776,35.776,0,0,0-35.731-35.731m0,64.42a28.689,28.689,0,1,1,28.689-28.689,28.691,28.691,0,0,1-28.689,28.689" transform="translate(-540.68 -490.18)" fill="#d3d3d3" stroke="#bdb6e5" stroke-width="10"/>
    </g>
    <path id="Trazado_734811" data-name="Trazado 734811" d="M185.959,457.009a7.657,7.657,0,1,0,7.656-7.656,7.656,7.656,0,0,0-7.656,7.656" transform="translate(558.857 1730.516)" fill="#bdb6e5" opacity="0.64"/>
  </g>
</svg>
