<svg xmlns="http://www.w3.org/2000/svg" xmlns:xlink="http://www.w3.org/1999/xlink" width="129" height="59" viewBox="0 0 129 59">
  <defs>
    <clipPath id="clip-path">
      <rect id="Rect치ngulo_348556" data-name="Rect치ngulo 348556" width="129" height="59" transform="translate(0.03 135.939)" fill="#362b9e" stroke="#707070" stroke-width="1"/>
    </clipPath>
  </defs>
  <g id="Grupo_1013559" data-name="Grupo 1013559" transform="translate(-0.03 -135.939)" clip-path="url(#clip-path)">
    <g id="Grupo_1013558" data-name="Grupo 1013558" transform="translate(2.818 68.364)">
      <path id="Sustracci칩n_23" data-name="Sustracci칩n 23" d="M62.5,0A62.962,62.962,0,0,0,49.9,1.27a62.158,62.158,0,0,0-22.348,9.4,62.682,62.682,0,0,0-22.644,27.5A62.187,62.187,0,0,0,1.27,49.9a63.11,63.11,0,0,0,0,25.192,62.158,62.158,0,0,0,9.4,22.348,62.682,62.682,0,0,0,27.5,22.644A62.188,62.188,0,0,0,49.9,123.73a63.11,63.11,0,0,0,25.192,0,62.158,62.158,0,0,0,22.348-9.4,62.682,62.682,0,0,0,22.644-27.5A62.188,62.188,0,0,0,123.73,75.1a63.11,63.11,0,0,0,0-25.192,62.157,62.157,0,0,0-9.4-22.348,62.682,62.682,0,0,0-27.5-22.644A62.187,62.187,0,0,0,75.1,1.27,62.962,62.962,0,0,0,62.5,0Zm-.233,95.339a32.846,32.846,0,0,1-6.571-.662A32.428,32.428,0,0,1,44.037,89.77,32.7,32.7,0,0,1,32.224,75.425a32.441,32.441,0,0,1-1.9-6.121,32.924,32.924,0,0,1,0-13.143A32.427,32.427,0,0,1,35.23,44.5,32.7,32.7,0,0,1,49.575,32.689a32.441,32.441,0,0,1,6.121-1.9,32.924,32.924,0,0,1,13.142,0A32.428,32.428,0,0,1,80.5,35.7,32.7,32.7,0,0,1,92.311,50.041a32.441,32.441,0,0,1,1.9,6.121,32.924,32.924,0,0,1,0,13.143A32.427,32.427,0,0,1,89.3,80.963,32.7,32.7,0,0,1,74.959,92.777a32.44,32.44,0,0,1-6.12,1.9A32.846,32.846,0,0,1,62.267,95.339Z" transform="translate(0.212 -0.424)" fill="#362b9e"/>
    </g>
  </g>
</svg>
