<svg xmlns="http://www.w3.org/2000/svg" xmlns:xlink="http://www.w3.org/1999/xlink" width="263.186" height="211.822" viewBox="0 0 263.186 211.822">
  <defs>
    <clipPath id="clip-path">
      <rect id="Rectángulo_347159" data-name="Rectángulo 347159" width="224.492" height="211.822" fill="none"/>
    </clipPath>
    <clipPath id="clip-path-3">
      <rect id="Rectángulo_347130" data-name="Rectángulo 347130" width="212.111" height="208.845" fill="none"/>
    </clipPath>
  </defs>
  <g id="Grupo_1012743" data-name="Grupo 1012743" transform="translate(-1103.456 -901.179)">
    <g id="Grupo_1012559" data-name="Grupo 1012559">
      <path id="Trazado_724085" data-name="Trazado 724085" d="M251.924,80.5c14.239-38.224-31.58-39.674-57.482-38.92-8.9.259-12.3-.789-27.543,2.606-33.095,7.368-41.877,6.136-72.844-17.252-21.852-16.5-73.931-25.19-57.294,30.4,7.859,26.261,11.351,59.772-13.654,67.917S-9.666,174.763,15.212,189s56.925-4.405,84.308,18.477,43.963-26.665,91.52-15.913,66.568-9.27,71.8-40.371c3.372-20.057-18.967-49.066-10.912-70.69" transform="translate(1103.456 895.391)" fill="#aad2fc" opacity="0.82"/>
      <path id="Trazado_724086" data-name="Trazado 724086" d="M211.208,69.824c11.938-32.047-26.476-33.262-48.191-32.63-7.46.217-10.31-.661-23.092,2.185-27.746,6.177-35.109,5.144-61.071-14.464C60.534,11.079,16.872,3.8,30.82,50.4c6.589,22.017,9.517,50.112-11.447,56.94s-27.477,41.51-6.62,53.443,47.724-3.693,70.682,15.49,36.857-22.355,76.728-13.341,55.809-7.772,60.192-33.846c2.827-16.815-15.9-41.136-9.148-59.265" transform="translate(1124.711 912.601)" fill="#75b2f5" opacity="0.82"/>
      <g id="Grupo_1013553" data-name="Grupo 1013553" transform="translate(1125 901.179)">
        <g id="Grupo_1012574" data-name="Grupo 1012574" clip-path="url(#clip-path)">
          <line id="Línea_308" data-name="Línea 308" x2="7.213" transform="translate(213.678 125.817)" fill="none" stroke="#263238" stroke-linecap="round" stroke-linejoin="round" stroke-width="1"/>
          <line id="Línea_309" data-name="Línea 309" x2="206.351" transform="translate(4.092 125.817)" fill="none" stroke="#263238" stroke-linecap="round" stroke-linejoin="round" stroke-width="1"/>
          <g id="Grupo_1012565" data-name="Grupo 1012565">
            <g id="Grupo_1012564" data-name="Grupo 1012564" clip-path="url(#clip-path)">
              <path id="Trazado_724089" data-name="Trazado 724089" d="M390.4,127.621V123.9l-3.561-.51a12.9,12.9,0,0,0-2.046-4.983l2.166-2.889-2.629-2.629-2.878,2.158a12.9,12.9,0,0,0-4.97-2.076l-.511-3.575h-3.719l-.509,3.562a12.9,12.9,0,0,0-4.983,2.045l-2.889-2.166-2.629,2.63,2.158,2.878a12.91,12.91,0,0,0-2.076,4.969l-3.575.512v3.719l3.561.509a12.9,12.9,0,0,0,2.046,4.983l-2.166,2.889,2.629,2.629L366.7,136.4a12.9,12.9,0,0,0,4.97,2.076l.511,3.575h3.719l.509-3.561a12.91,12.91,0,0,0,4.983-2.046l2.888,2.166,2.63-2.629-2.158-2.879a12.91,12.91,0,0,0,2.076-4.969Zm-16.326,7.12a9.016,9.016,0,1,1,9.015-9.016A9.015,9.015,0,0,1,374.072,134.741Z" transform="translate(-187.799 -57.429)" fill="none" stroke="#263238" stroke-miterlimit="10" stroke-width="1"/>
              <path id="Trazado_724090" data-name="Trazado 724090" d="M422.375,180.066v-2.659l-2.547-.364a9.227,9.227,0,0,0-1.463-3.563l1.549-2.066-1.881-1.881-2.058,1.543a9.229,9.229,0,0,0-3.554-1.485l-.366-2.557H409.4l-.364,2.547a9.225,9.225,0,0,0-3.563,1.463L403.4,169.5l-1.881,1.88,1.543,2.058a9.228,9.228,0,0,0-1.485,3.554l-2.557.366v2.659l2.547.364a9.226,9.226,0,0,0,1.463,3.563l-1.549,2.066,1.88,1.881,2.058-1.543a9.229,9.229,0,0,0,3.554,1.485l.366,2.557H412l.364-2.547a9.226,9.226,0,0,0,3.563-1.463L418,187.925l1.881-1.881-1.543-2.058a9.229,9.229,0,0,0,1.485-3.554ZM410.7,185.158a6.447,6.447,0,1,1,6.447-6.447A6.447,6.447,0,0,1,410.7,185.158Z" transform="translate(-209.467 -87.685)" fill="none" stroke="#263238" stroke-miterlimit="10" stroke-width="1"/>
              <path id="Trazado_724091" data-name="Trazado 724091" d="M52.534,176.064v3.393l3.25.465a11.785,11.785,0,0,0,1.866,4.547l-1.976,2.636,2.4,2.4,2.627-1.97a11.774,11.774,0,0,0,4.535,1.895l.466,3.262h3.393l.465-3.25a11.782,11.782,0,0,0,4.547-1.866l2.636,1.976,2.4-2.4-1.97-2.627a11.774,11.774,0,0,0,1.895-4.535l3.262-.467v-3.394l-3.25-.465a11.775,11.775,0,0,0-1.866-4.547l1.976-2.636-2.4-2.4-2.627,1.969a11.773,11.773,0,0,0-4.535-1.894l-.466-3.262H65.768l-.465,3.25a11.767,11.767,0,0,0-4.547,1.866l-2.636-1.976-2.4,2.4,1.97,2.627A11.774,11.774,0,0,0,55.8,175.6Zm14.9-6.5a8.227,8.227,0,1,1-8.227,8.227A8.227,8.227,0,0,1,67.432,169.568Z" transform="translate(-27.578 -85.513)" fill="none" stroke="#263238" stroke-miterlimit="10" stroke-width="1"/>
              <path id="Trazado_724092" data-name="Trazado 724092" d="M34.863,142.855v2.07l1.982.284a7.186,7.186,0,0,0,1.138,2.774l-1.205,1.608,1.464,1.464,1.6-1.2a7.185,7.185,0,0,0,2.767,1.155L42.9,153h2.07l.284-1.982a7.185,7.185,0,0,0,2.773-1.139l1.608,1.206,1.464-1.464-1.2-1.6a7.186,7.186,0,0,0,1.155-2.766l1.99-.285V142.9l-1.982-.284a7.188,7.188,0,0,0-1.138-2.773l1.205-1.608-1.464-1.464-1.6,1.2a7.173,7.173,0,0,0-2.766-1.156l-.285-1.99h-2.07l-.284,1.982a7.185,7.185,0,0,0-2.773,1.139l-1.608-1.206L36.807,138.2l1.2,1.6a7.186,7.186,0,0,0-1.155,2.766Zm9.087-3.963a5.018,5.018,0,1,1-5.018,5.018A5.018,5.018,0,0,1,43.95,138.892Z" transform="translate(-18.301 -70.775)" fill="none" stroke="#263238" stroke-miterlimit="10" stroke-width="1"/>
              <path id="Trazado_724093" data-name="Trazado 724093" d="M202.713,60.032v2.843l2.722.389A9.868,9.868,0,0,0,207,67.073l-1.655,2.208,2.01,2.01,2.2-1.649a9.863,9.863,0,0,0,3.8,1.587l.39,2.732h2.843l.39-2.723a9.858,9.858,0,0,0,3.808-1.563l2.208,1.656L225,69.32l-1.649-2.2a9.863,9.863,0,0,0,1.587-3.8l2.733-.391V60.088l-2.723-.39a9.863,9.863,0,0,0-1.563-3.809l1.656-2.208-2.01-2.01-2.2,1.65a9.863,9.863,0,0,0-3.8-1.587L216.641,49H213.8l-.39,2.723a9.858,9.858,0,0,0-3.808,1.563l-2.208-1.656-2.01,2.01,1.649,2.2a9.864,9.864,0,0,0-1.587,3.8Zm12.479-5.442a6.891,6.891,0,1,1-6.892,6.892A6.892,6.892,0,0,1,215.192,54.59Z" transform="translate(-106.414 -25.724)" fill="none" stroke="#263238" stroke-miterlimit="10" stroke-width="1"/>
            </g>
          </g>
          <g id="Grupo_1012567" data-name="Grupo 1012567">
            <g id="Grupo_1012566" data-name="Grupo 1012566" clip-path="url(#clip-path)">
              <path id="Trazado_724094" data-name="Trazado 724094" d="M231.211,166.652H92.952V75.706a3.786,3.786,0,0,1,3.786-3.787H227.424a3.787,3.787,0,0,1,3.787,3.787Z" transform="translate(-48.795 -37.754)" fill="#263238"/>
              <path id="Trazado_724095" data-name="Trazado 724095" d="M231.211,166.652H92.952V75.706a3.786,3.786,0,0,1,3.786-3.787H227.424a3.787,3.787,0,0,1,3.787,3.787Z" transform="translate(-48.795 -37.754)" fill="none" stroke="#263238" stroke-linecap="round" stroke-linejoin="round" stroke-width="1"/>
              <path id="Trazado_724096" data-name="Trazado 724096" d="M229.032,313.214H49.3l20.739-41.879H208.293Z" transform="translate(-25.878 -142.438)" fill="#fff"/>
              <path id="Trazado_724097" data-name="Trazado 724097" d="M229.032,313.214H49.3l20.739-41.879H208.293Z" transform="translate(-25.878 -142.438)" fill="none" stroke="#263238" stroke-linecap="round" stroke-linejoin="round" stroke-width="1"/>
              <rect id="Rectángulo_347133" data-name="Rectángulo 347133" width="121.51" height="79.731" transform="translate(52.531 41.666)" fill="#0174d2"/>
              <rect id="Rectángulo_347134" data-name="Rectángulo 347134" width="121.51" height="79.731" transform="translate(52.531 41.666)" fill="none" stroke="#263238" stroke-linecap="round" stroke-linejoin="round" stroke-width="1"/>
              <path id="Trazado_724098" data-name="Trazado 724098" d="M217.989,293.6l.239-5.1h-7.305l-.484,5.1Z" transform="translate(-110.47 -151.448)" fill="#263238"/>
              <path id="Trazado_724099" data-name="Trazado 724099" d="M217.989,293.6l.239-5.1h-7.305l-.484,5.1Z" transform="translate(-110.47 -151.448)" fill="none" stroke="#fff" stroke-linecap="round" stroke-linejoin="round" stroke-width="1"/>
              <path id="Trazado_724100" data-name="Trazado 724100" d="M249.768,293.6l-.249-5.1h-7.305l0,5.1Z" transform="translate(-127.15 -151.448)" fill="#263238"/>
              <path id="Trazado_724101" data-name="Trazado 724101" d="M249.768,293.6l-.249-5.1h-7.305l0,5.1Z" transform="translate(-127.15 -151.448)" fill="none" stroke="#fff" stroke-linecap="round" stroke-linejoin="round" stroke-width="1"/>
              <path id="Trazado_724102" data-name="Trazado 724102" d="M339.149,304.7h7.811l-1.834-5.456h-7.549Z" transform="translate(-177.211 -157.086)" fill="#263238"/>
              <path id="Trazado_724103" data-name="Trazado 724103" d="M339.149,304.7h7.811l-1.834-5.456h-7.549Z" transform="translate(-177.211 -157.086)" fill="none" stroke="#fff" stroke-linecap="round" stroke-linejoin="round" stroke-width="1"/>
              <path id="Trazado_724104" data-name="Trazado 724104" d="M202.1,293.6l.484-5.1h-7.305l-.728,5.1Z" transform="translate(-102.127 -151.448)" fill="#263238"/>
              <path id="Trazado_724105" data-name="Trazado 724105" d="M202.1,293.6l.484-5.1h-7.305l-.728,5.1Z" transform="translate(-102.127 -151.448)" fill="none" stroke="#fff" stroke-linecap="round" stroke-linejoin="round" stroke-width="1"/>
              <path id="Trazado_724106" data-name="Trazado 724106" d="M170.312,293.6l.972-5.1h-7.305l-1.217,5.1Z" transform="translate(-85.442 -151.448)" fill="#263238"/>
              <path id="Trazado_724107" data-name="Trazado 724107" d="M170.312,293.6l.972-5.1h-7.305l-1.217,5.1Z" transform="translate(-85.442 -151.448)" fill="none" stroke="#fff" stroke-linecap="round" stroke-linejoin="round" stroke-width="1"/>
              <path id="Trazado_724108" data-name="Trazado 724108" d="M312.257,293.6l-1.226-5.1h-7.305l.982,5.1Z" transform="translate(-159.441 -151.448)" fill="#263238"/>
              <path id="Trazado_724109" data-name="Trazado 724109" d="M312.257,293.6l-1.226-5.1h-7.305l.982,5.1Z" transform="translate(-159.441 -151.448)" fill="none" stroke="#fff" stroke-linecap="round" stroke-linejoin="round" stroke-width="1"/>
              <path id="Trazado_724110" data-name="Trazado 724110" d="M327.879,293.6l-1.471-5.1H319.1l1.227,5.1Z" transform="translate(-167.513 -151.448)" fill="#263238"/>
              <path id="Trazado_724111" data-name="Trazado 724111" d="M327.879,293.6l-1.471-5.1H319.1l1.227,5.1Z" transform="translate(-167.513 -151.448)" fill="none" stroke="#fff" stroke-linecap="round" stroke-linejoin="round" stroke-width="1"/>
              <path id="Trazado_724112" data-name="Trazado 724112" d="M154.42,293.6l1.217-5.1h-7.3l-1.461,5.1Z" transform="translate(-77.099 -151.448)" fill="#263238"/>
              <path id="Trazado_724113" data-name="Trazado 724113" d="M154.42,293.6l1.217-5.1h-7.3l-1.461,5.1Z" transform="translate(-77.099 -151.448)" fill="none" stroke="#fff" stroke-linecap="round" stroke-linejoin="round" stroke-width="1"/>
              <path id="Trazado_724114" data-name="Trazado 724114" d="M265.391,293.6l-.493-5.1h-7.305l.249,5.1Z" transform="translate(-135.223 -151.448)" fill="#263238"/>
              <path id="Trazado_724115" data-name="Trazado 724115" d="M265.391,293.6l-.493-5.1h-7.305l.249,5.1Z" transform="translate(-135.223 -151.448)" fill="none" stroke="#fff" stroke-linecap="round" stroke-linejoin="round" stroke-width="1"/>
              <path id="Trazado_724116" data-name="Trazado 724116" d="M343.5,293.6l-1.715-5.1h-7.3l1.47,5.1Z" transform="translate(-175.586 -151.448)" fill="#263238"/>
              <path id="Trazado_724117" data-name="Trazado 724117" d="M343.5,293.6l-1.715-5.1h-7.3l1.47,5.1Z" transform="translate(-175.586 -151.448)" fill="none" stroke="#fff" stroke-linecap="round" stroke-linejoin="round" stroke-width="1"/>
              <path id="Trazado_724118" data-name="Trazado 724118" d="M296.635,293.6l-.982-5.1h-7.305l.738,5.1Z" transform="translate(-151.368 -151.448)" fill="#263238"/>
              <path id="Trazado_724119" data-name="Trazado 724119" d="M296.635,293.6l-.982-5.1h-7.305l.738,5.1Z" transform="translate(-151.368 -151.448)" fill="none" stroke="#fff" stroke-linecap="round" stroke-linejoin="round" stroke-width="1"/>
              <path id="Trazado_724120" data-name="Trazado 724120" d="M281.012,293.6l-.737-5.1h-7.306l.494,5.1Z" transform="translate(-143.295 -151.448)" fill="#263238"/>
              <path id="Trazado_724121" data-name="Trazado 724121" d="M281.012,293.6l-.737-5.1h-7.306l.494,5.1Z" transform="translate(-143.295 -151.448)" fill="none" stroke="#fff" stroke-linecap="round" stroke-linejoin="round" stroke-width="1"/>
              <path id="Trazado_724122" data-name="Trazado 724122" d="M233.881,293.6l0-5.1h-7.305l-.239,5.1Z" transform="translate(-118.813 -151.448)" fill="#263238"/>
              <path id="Trazado_724123" data-name="Trazado 724123" d="M233.881,293.6l0-5.1h-7.305l-.239,5.1Z" transform="translate(-118.813 -151.448)" fill="none" stroke="#fff" stroke-linecap="round" stroke-linejoin="round" stroke-width="1"/>
              <path id="Trazado_724124" data-name="Trazado 724124" d="M120.332,299.241h-7.55L110.7,304.7h7.81Z" transform="translate(-58.111 -157.087)" fill="#263238"/>
              <path id="Trazado_724125" data-name="Trazado 724125" d="M120.332,299.241h-7.55L110.7,304.7h7.81Z" transform="translate(-58.111 -157.087)" fill="none" stroke="#fff" stroke-linecap="round" stroke-linejoin="round" stroke-width="1"/>
              <path id="Trazado_724126" data-name="Trazado 724126" d="M124.341,288.5h-7.305l-1.95,5.1h7.549Z" transform="translate(-60.414 -151.447)" fill="#263238"/>
              <path id="Trazado_724127" data-name="Trazado 724127" d="M124.341,288.5h-7.305l-1.95,5.1h7.549Z" transform="translate(-60.414 -151.447)" fill="none" stroke="#fff" stroke-linecap="round" stroke-linejoin="round" stroke-width="1"/>
              <path id="Trazado_724128" data-name="Trazado 724128" d="M138.528,293.6l1.461-5.1h-7.3l-1.705,5.1Z" transform="translate(-68.757 -151.448)" fill="#263238"/>
              <path id="Trazado_724129" data-name="Trazado 724129" d="M138.528,293.6l1.461-5.1h-7.3l-1.705,5.1Z" transform="translate(-68.757 -151.448)" fill="none" stroke="#fff" stroke-linecap="round" stroke-linejoin="round" stroke-width="1"/>
              <path id="Trazado_724130" data-name="Trazado 724130" d="M103.343,323.036l-2.4,6.282h8.391l2.1-6.282Z" transform="translate(-52.99 -169.578)" fill="#263238"/>
              <path id="Trazado_724131" data-name="Trazado 724131" d="M103.343,323.036l-2.4,6.282h8.391l2.1-6.282Z" transform="translate(-52.99 -169.578)" fill="none" stroke="#fff" stroke-linecap="round" stroke-linejoin="round" stroke-width="1"/>
              <path id="Trazado_724132" data-name="Trazado 724132" d="M116.04,310.727h-7.811l-2.234,5.847h8.091Z" transform="translate(-55.642 -163.116)" fill="#263238"/>
              <path id="Trazado_724133" data-name="Trazado 724133" d="M116.04,310.727h-7.811l-2.234,5.847h8.091Z" transform="translate(-55.642 -163.116)" fill="none" stroke="#fff" stroke-linecap="round" stroke-linejoin="round" stroke-width="1"/>
              <path id="Trazado_724134" data-name="Trazado 724134" d="M120.707,323.036l-2.1,6.282H127l1.8-6.282Z" transform="translate(-62.263 -169.578)" fill="#263238"/>
              <path id="Trazado_724135" data-name="Trazado 724135" d="M120.707,323.036l-2.1,6.282H127l1.8-6.282Z" transform="translate(-62.263 -169.578)" fill="none" stroke="#fff" stroke-linecap="round" stroke-linejoin="round" stroke-width="1"/>
              <path id="Trazado_724136" data-name="Trazado 724136" d="M186.2,293.6l.728-5.1h-7.305l-.972,5.1Z" transform="translate(-93.785 -151.448)" fill="#263238"/>
              <path id="Trazado_724137" data-name="Trazado 724137" d="M186.2,293.6l.728-5.1h-7.305l-.972,5.1Z" transform="translate(-93.785 -151.448)" fill="none" stroke="#fff" stroke-linecap="round" stroke-linejoin="round" stroke-width="1"/>
              <path id="Trazado_724138" data-name="Trazado 724138" d="M184.277,304.7l.779-5.456h-7.549l-1.04,5.456Z" transform="translate(-92.636 -157.086)" fill="#263238"/>
              <path id="Trazado_724139" data-name="Trazado 724139" d="M184.277,304.7l.779-5.456h-7.549l-1.04,5.456Z" transform="translate(-92.636 -157.086)" fill="none" stroke="#fff" stroke-linecap="round" stroke-linejoin="round" stroke-width="1"/>
              <path id="Trazado_724140" data-name="Trazado 724140" d="M167.835,304.7l1.04-5.456h-7.55l-1.3,5.456Z" transform="translate(-84.004 -157.086)" fill="#263238"/>
              <path id="Trazado_724141" data-name="Trazado 724141" d="M167.835,304.7l1.04-5.456h-7.55l-1.3,5.456Z" transform="translate(-84.004 -157.086)" fill="none" stroke="#fff" stroke-linecap="round" stroke-linejoin="round" stroke-width="1"/>
              <path id="Trazado_724142" data-name="Trazado 724142" d="M200.719,304.7l.517-5.456h-7.55l-.779,5.456Z" transform="translate(-101.267 -157.086)" fill="#263238"/>
              <path id="Trazado_724143" data-name="Trazado 724143" d="M200.719,304.7l.517-5.456h-7.55l-.779,5.456Z" transform="translate(-101.267 -157.086)" fill="none" stroke="#fff" stroke-linecap="round" stroke-linejoin="round" stroke-width="1"/>
              <path id="Trazado_724144" data-name="Trazado 724144" d="M136.513,299.241h-7.549l-1.824,5.456h7.811Z" transform="translate(-66.742 -157.087)" fill="#263238"/>
              <path id="Trazado_724145" data-name="Trazado 724145" d="M136.513,299.241h-7.549l-1.824,5.456h7.811Z" transform="translate(-66.742 -157.087)" fill="none" stroke="#fff" stroke-linecap="round" stroke-linejoin="round" stroke-width="1"/>
              <path id="Trazado_724146" data-name="Trazado 724146" d="M342.572,316.574h8.091l-1.965-5.847h-7.811Z" transform="translate(-178.948 -163.116)" fill="#263238"/>
              <path id="Trazado_724147" data-name="Trazado 724147" d="M342.572,316.574h8.091l-1.965-5.847h-7.811Z" transform="translate(-178.948 -163.116)" fill="none" stroke="#fff" stroke-linecap="round" stroke-linejoin="round" stroke-width="1"/>
              <path id="Trazado_724148" data-name="Trazado 724148" d="M151.393,304.7l1.3-5.456h-7.549l-1.562,5.456Z" transform="translate(-75.373 -157.086)" fill="#263238"/>
              <path id="Trazado_724149" data-name="Trazado 724149" d="M151.393,304.7l1.3-5.456h-7.549l-1.562,5.456Z" transform="translate(-75.373 -157.086)" fill="none" stroke="#fff" stroke-linecap="round" stroke-linejoin="round" stroke-width="1"/>
              <path id="Trazado_724150" data-name="Trazado 724150" d="M124.98,310.727l-1.954,5.847h8.091l1.674-5.847Z" transform="translate(-64.583 -163.116)" fill="#263238"/>
              <path id="Trazado_724151" data-name="Trazado 724151" d="M124.98,310.727l-1.954,5.847h8.091l1.674-5.847Z" transform="translate(-64.583 -163.116)" fill="none" stroke="#fff" stroke-linecap="round" stroke-linejoin="round" stroke-width="1"/>
              <path id="Trazado_724152" data-name="Trazado 724152" d="M298.5,304.7l-1.05-5.456H289.9l.789,5.456Z" transform="translate(-152.183 -157.086)" fill="#263238"/>
              <path id="Trazado_724153" data-name="Trazado 724153" d="M298.5,304.7l-1.05-5.456H289.9l.789,5.456Z" transform="translate(-152.183 -157.086)" fill="none" stroke="#fff" stroke-linecap="round" stroke-linejoin="round" stroke-width="1"/>
              <path id="Trazado_724154" data-name="Trazado 724154" d="M282.346,304.7l-.789-5.456h-7.55l.528,5.456Z" transform="translate(-143.84 -157.086)" fill="#263238"/>
              <path id="Trazado_724155" data-name="Trazado 724155" d="M282.346,304.7l-.789-5.456h-7.55l.528,5.456Z" transform="translate(-143.84 -157.086)" fill="none" stroke="#fff" stroke-linecap="round" stroke-linejoin="round" stroke-width="1"/>
              <path id="Trazado_724156" data-name="Trazado 724156" d="M330.807,304.7l-1.572-5.456h-7.549L323,304.7Z" transform="translate(-168.868 -157.086)" fill="#263238"/>
              <path id="Trazado_724157" data-name="Trazado 724157" d="M330.807,304.7l-1.572-5.456h-7.549L323,304.7Z" transform="translate(-168.868 -157.086)" fill="none" stroke="#fff" stroke-linecap="round" stroke-linejoin="round" stroke-width="1"/>
              <path id="Trazado_724158" data-name="Trazado 724158" d="M233.6,304.7l0-5.456h-7.55l-.256,5.456Z" transform="translate(-118.53 -157.086)" fill="#263238"/>
              <path id="Trazado_724159" data-name="Trazado 724159" d="M233.6,304.7l0-5.456h-7.55l-.256,5.456Z" transform="translate(-118.53 -157.086)" fill="none" stroke="#fff" stroke-linecap="round" stroke-linejoin="round" stroke-width="1"/>
              <path id="Trazado_724160" data-name="Trazado 724160" d="M266.193,304.7l-.527-5.456h-7.549l.266,5.456Z" transform="translate(-135.498 -157.086)" fill="#263238"/>
              <path id="Trazado_724161" data-name="Trazado 724161" d="M266.193,304.7l-.527-5.456h-7.549l.266,5.456Z" transform="translate(-135.498 -157.086)" fill="none" stroke="#fff" stroke-linecap="round" stroke-linejoin="round" stroke-width="1"/>
              <path id="Trazado_724162" data-name="Trazado 724162" d="M250.04,304.7l-.266-5.456h-7.55l.005,5.456Z" transform="translate(-127.155 -157.086)" fill="#263238"/>
              <path id="Trazado_724163" data-name="Trazado 724163" d="M250.04,304.7l-.266-5.456h-7.55l.005,5.456Z" transform="translate(-127.155 -157.086)" fill="none" stroke="#fff" stroke-linecap="round" stroke-linejoin="round" stroke-width="1"/>
              <path id="Trazado_724164" data-name="Trazado 724164" d="M217.161,304.7l.256-5.456h-7.55l-.517,5.456Z" transform="translate(-109.898 -157.086)" fill="#263238"/>
              <path id="Trazado_724165" data-name="Trazado 724165" d="M217.161,304.7l.256-5.456h-7.55l-.517,5.456Z" transform="translate(-109.898 -157.086)" fill="none" stroke="#fff" stroke-linecap="round" stroke-linejoin="round" stroke-width="1"/>
              <path id="Trazado_724166" data-name="Trazado 724166" d="M275.118,310.727l.565,5.847h8.091l-.845-5.847Z" transform="translate(-144.423 -163.116)" fill="#263238"/>
              <path id="Trazado_724167" data-name="Trazado 724167" d="M275.118,310.727l.565,5.847h8.091l-.845-5.847Z" transform="translate(-144.423 -163.116)" fill="none" stroke="#fff" stroke-linecap="round" stroke-linejoin="round" stroke-width="1"/>
              <path id="Trazado_724168" data-name="Trazado 724168" d="M291.561,310.727l.845,5.847H300.5l-1.125-5.847Z" transform="translate(-153.055 -163.116)" fill="#263238"/>
              <path id="Trazado_724169" data-name="Trazado 724169" d="M291.561,310.727l.845,5.847H300.5l-1.125-5.847Z" transform="translate(-153.055 -163.116)" fill="none" stroke="#fff" stroke-linecap="round" stroke-linejoin="round" stroke-width="1"/>
              <path id="Trazado_724170" data-name="Trazado 724170" d="M141.732,310.727l-1.674,5.847h8.091l1.394-5.847Z" transform="translate(-73.523 -163.116)" fill="#263238"/>
              <path id="Trazado_724171" data-name="Trazado 724171" d="M141.732,310.727l-1.674,5.847h8.091l1.394-5.847Z" transform="translate(-73.523 -163.116)" fill="none" stroke="#fff" stroke-linecap="round" stroke-linejoin="round" stroke-width="1"/>
              <path id="Trazado_724172" data-name="Trazado 724172" d="M308,310.727l1.125,5.847h8.091l-1.405-5.847Z" transform="translate(-161.686 -163.116)" fill="#263238"/>
              <path id="Trazado_724173" data-name="Trazado 724173" d="M308,310.727l1.125,5.847h8.091l-1.405-5.847Z" transform="translate(-161.686 -163.116)" fill="none" stroke="#fff" stroke-linecap="round" stroke-linejoin="round" stroke-width="1"/>
              <path id="Trazado_724174" data-name="Trazado 724174" d="M242.234,310.727l.006,5.847h8.091l-.286-5.847Z" transform="translate(-127.161 -163.116)" fill="#263238"/>
              <path id="Trazado_724175" data-name="Trazado 724175" d="M242.234,310.727l.006,5.847h8.091l-.286-5.847Z" transform="translate(-127.161 -163.116)" fill="none" stroke="#fff" stroke-linecap="round" stroke-linejoin="round" stroke-width="1"/>
              <path id="Trazado_724176" data-name="Trazado 724176" d="M324.445,310.727l1.405,5.847h8.091l-1.685-5.847Z" transform="translate(-170.317 -163.116)" fill="#263238"/>
              <path id="Trazado_724177" data-name="Trazado 724177" d="M324.445,310.727l1.405,5.847h8.091l-1.685-5.847Z" transform="translate(-170.317 -163.116)" fill="none" stroke="#fff" stroke-linecap="round" stroke-linejoin="round" stroke-width="1"/>
              <path id="Trazado_724178" data-name="Trazado 724178" d="M258.677,310.727l.285,5.847h8.091l-.565-5.847Z" transform="translate(-135.792 -163.116)" fill="#263238"/>
              <path id="Trazado_724179" data-name="Trazado 724179" d="M258.677,310.727l.285,5.847h8.091l-.565-5.847Z" transform="translate(-135.792 -163.116)" fill="none" stroke="#fff" stroke-linecap="round" stroke-linejoin="round" stroke-width="1"/>
              <path id="Trazado_724180" data-name="Trazado 724180" d="M175.234,310.727l-1.114,5.847h8.091l.834-5.847Z" transform="translate(-91.404 -163.116)" fill="#263238"/>
              <path id="Trazado_724181" data-name="Trazado 724181" d="M175.234,310.727l-1.114,5.847h8.091l.834-5.847Z" transform="translate(-91.404 -163.116)" fill="none" stroke="#fff" stroke-linecap="round" stroke-linejoin="round" stroke-width="1"/>
              <path id="Trazado_724182" data-name="Trazado 724182" d="M158.483,310.727l-1.394,5.847h8.091l1.114-5.847Z" transform="translate(-82.464 -163.116)" fill="#263238"/>
              <path id="Trazado_724183" data-name="Trazado 724183" d="M158.483,310.727l-1.394,5.847h8.091l1.114-5.847Z" transform="translate(-82.464 -163.116)" fill="none" stroke="#fff" stroke-linecap="round" stroke-linejoin="round" stroke-width="1"/>
              <path id="Trazado_724184" data-name="Trazado 724184" d="M225.489,310.727l-.275,5.847h8.091l-.006-5.847Z" transform="translate(-118.226 -163.116)" fill="#263238"/>
              <path id="Trazado_724185" data-name="Trazado 724185" d="M225.489,310.727l-.275,5.847h8.091l-.006-5.847Z" transform="translate(-118.226 -163.116)" fill="none" stroke="#fff" stroke-linecap="round" stroke-linejoin="round" stroke-width="1"/>
              <path id="Trazado_724186" data-name="Trazado 724186" d="M208.738,310.727l-.554,5.847h8.091l.275-5.847Z" transform="translate(-109.286 -163.116)" fill="#263238"/>
              <path id="Trazado_724187" data-name="Trazado 724187" d="M208.738,310.727l-.554,5.847h8.091l.275-5.847Z" transform="translate(-109.286 -163.116)" fill="none" stroke="#fff" stroke-linecap="round" stroke-linejoin="round" stroke-width="1"/>
              <path id="Trazado_724188" data-name="Trazado 724188" d="M191.986,310.727l-.834,5.847h8.091l.554-5.847Z" transform="translate(-100.345 -163.116)" fill="#263238"/>
              <path id="Trazado_724189" data-name="Trazado 724189" d="M191.986,310.727l-.834,5.847h8.091l.554-5.847Z" transform="translate(-100.345 -163.116)" fill="none" stroke="#fff" stroke-linecap="round" stroke-linejoin="round" stroke-width="1"/>
              <path id="Trazado_724190" data-name="Trazado 724190" d="M314.653,304.7l-1.311-5.456h-7.549l1.05,5.456Z" transform="translate(-160.526 -157.086)" fill="#263238"/>
              <path id="Trazado_724191" data-name="Trazado 724191" d="M314.653,304.7l-1.311-5.456h-7.549l1.05,5.456Z" transform="translate(-160.526 -157.086)" fill="none" stroke="#fff" stroke-linecap="round" stroke-linejoin="round" stroke-width="1"/>
              <path id="Trazado_724192" data-name="Trazado 724192" d="M126.5,282.727l1.745-5.223h-7.055l-2,5.223Z" transform="translate(-62.569 -145.676)" fill="#263238"/>
              <path id="Trazado_724193" data-name="Trazado 724193" d="M126.5,282.727l1.745-5.223h-7.055l-2,5.223Z" transform="translate(-62.569 -145.676)" fill="none" stroke="#fff" stroke-linecap="round" stroke-linejoin="round" stroke-width="1"/>
              <path id="Trazado_724194" data-name="Trazado 724194" d="M109.335,288.5h-6.743l-2.175,5.1h6.969Z" transform="translate(-52.713 -151.447)" fill="#263238"/>
              <path id="Trazado_724195" data-name="Trazado 724195" d="M109.335,288.5h-6.743l-2.175,5.1h6.969Z" transform="translate(-52.713 -151.447)" fill="none" stroke="#fff" stroke-linecap="round" stroke-linejoin="round" stroke-width="1"/>
              <path id="Trazado_724196" data-name="Trazado 724196" d="M113.734,277.5h-6.512l-2.227,5.223h6.743Z" transform="translate(-55.117 -145.676)" fill="#263238"/>
              <path id="Trazado_724197" data-name="Trazado 724197" d="M113.734,277.5h-6.512l-2.227,5.223h6.743Z" transform="translate(-55.117 -145.676)" fill="none" stroke="#fff" stroke-linecap="round" stroke-linejoin="round" stroke-width="1"/>
              <path id="Trazado_724198" data-name="Trazado 724198" d="M104.815,299.241H97.846L95.52,304.7h7.21Z" transform="translate(-50.143 -157.087)" fill="#263238"/>
              <path id="Trazado_724199" data-name="Trazado 724199" d="M104.815,299.241H97.846L95.52,304.7h7.21Z" transform="translate(-50.143 -157.087)" fill="none" stroke="#fff" stroke-linecap="round" stroke-linejoin="round" stroke-width="1"/>
              <path id="Trazado_724200" data-name="Trazado 724200" d="M99.976,310.727h-7.21l-2.492,5.847h7.468Z" transform="translate(-47.389 -163.116)" fill="#263238"/>
              <path id="Trazado_724201" data-name="Trazado 724201" d="M99.976,310.727h-7.21l-2.492,5.847h7.468Z" transform="translate(-47.389 -163.116)" fill="none" stroke="#fff" stroke-linecap="round" stroke-linejoin="round" stroke-width="1"/>
              <path id="Trazado_724202" data-name="Trazado 724202" d="M94.783,323.036H87.315l-2.678,6.282h7.746Z" transform="translate(-44.43 -169.578)" fill="#263238"/>
              <path id="Trazado_724203" data-name="Trazado 724203" d="M94.783,323.036H87.315l-2.678,6.282h7.746Z" transform="translate(-44.43 -169.578)" fill="none" stroke="#fff" stroke-linecap="round" stroke-linejoin="round" stroke-width="1"/>
              <path id="Trazado_724204" data-name="Trazado 724204" d="M369.362,299.241l2.095,5.456h6.91l-2.325-5.456Z" transform="translate(-193.896 -157.087)" fill="#263238"/>
              <path id="Trazado_724205" data-name="Trazado 724205" d="M369.362,299.241l2.095,5.456h6.91l-2.325-5.456Z" transform="translate(-193.896 -157.087)" fill="none" stroke="#fff" stroke-linecap="round" stroke-linejoin="round" stroke-width="1"/>
              <path id="Trazado_724206" data-name="Trazado 724206" d="M376.016,316.574h7.157l-2.492-5.847h-6.91Z" transform="translate(-196.211 -163.116)" fill="#263238"/>
              <path id="Trazado_724207" data-name="Trazado 724207" d="M376.016,316.574h7.157l-2.492-5.847h-6.91Z" transform="translate(-196.211 -163.116)" fill="none" stroke="#fff" stroke-linecap="round" stroke-linejoin="round" stroke-width="1"/>
              <path id="Trazado_724208" data-name="Trazado 724208" d="M380.908,329.318h7.423l-2.677-6.282H378.5Z" transform="translate(-198.691 -169.578)" fill="#263238"/>
              <path id="Trazado_724209" data-name="Trazado 724209" d="M380.908,329.318h7.423l-2.677-6.282H378.5Z" transform="translate(-198.691 -169.578)" fill="none" stroke="#fff" stroke-linecap="round" stroke-linejoin="round" stroke-width="1"/>
              <path id="Trazado_724210" data-name="Trazado 724210" d="M249.514,282.727l-.255-5.223H242.2l0,5.223Z" transform="translate(-127.145 -145.676)" fill="#263238"/>
              <path id="Trazado_724211" data-name="Trazado 724211" d="M249.514,282.727l-.255-5.223H242.2l0,5.223Z" transform="translate(-127.145 -145.676)" fill="none" stroke="#fff" stroke-linecap="round" stroke-linejoin="round" stroke-width="1"/>
              <path id="Trazado_724212" data-name="Trazado 724212" d="M367.2,293.6h6.679l-2.175-5.1h-6.463Z" transform="translate(-191.731 -151.448)" fill="#263238"/>
              <path id="Trazado_724213" data-name="Trazado 724213" d="M367.2,293.6h6.679l-2.175-5.1h-6.463Z" transform="translate(-191.731 -151.448)" fill="none" stroke="#fff" stroke-linecap="round" stroke-linejoin="round" stroke-width="1"/>
              <path id="Trazado_724214" data-name="Trazado 724214" d="M359.294,316.574h8.091l-2.245-5.847h-7.811Z" transform="translate(-187.58 -163.116)" fill="#263238"/>
              <path id="Trazado_724215" data-name="Trazado 724215" d="M359.294,316.574h8.091l-2.245-5.847h-7.811Z" transform="translate(-187.58 -163.116)" fill="none" stroke="#fff" stroke-linecap="round" stroke-linejoin="round" stroke-width="1"/>
              <path id="Trazado_724216" data-name="Trazado 724216" d="M141.873,282.727l1.5-5.223h-7.055l-1.745,5.223Z" transform="translate(-70.641 -145.676)" fill="#263238"/>
              <path id="Trazado_724217" data-name="Trazado 724217" d="M141.873,282.727l1.5-5.223h-7.055l-1.745,5.223Z" transform="translate(-70.641 -145.676)" fill="none" stroke="#fff" stroke-linecap="round" stroke-linejoin="round" stroke-width="1"/>
              <path id="Trazado_724218" data-name="Trazado 724218" d="M349.86,288.5l1.715,5.1h7.549l-1.959-5.1Z" transform="translate(-183.659 -151.447)" fill="#263238"/>
              <path id="Trazado_724219" data-name="Trazado 724219" d="M349.86,288.5l1.715,5.1h7.549l-1.959-5.1Z" transform="translate(-183.659 -151.447)" fill="none" stroke="#fff" stroke-linecap="round" stroke-linejoin="round" stroke-width="1"/>
              <path id="Trazado_724220" data-name="Trazado 724220" d="M369.484,282.727l-2.227-5.223h-6.241l2.005,5.223Z" transform="translate(-189.515 -145.676)" fill="#263238"/>
              <path id="Trazado_724221" data-name="Trazado 724221" d="M369.484,282.727l-2.227-5.223h-6.241l2.005,5.223Z" transform="translate(-189.515 -145.676)" fill="none" stroke="#fff" stroke-linecap="round" stroke-linejoin="round" stroke-width="1"/>
              <path id="Trazado_724222" data-name="Trazado 724222" d="M355.225,282.727,353.22,277.5h-7.055l1.755,5.223Z" transform="translate(-181.719 -145.676)" fill="#263238"/>
              <path id="Trazado_724223" data-name="Trazado 724223" d="M355.225,282.727,353.22,277.5h-7.055l1.755,5.223Z" transform="translate(-181.719 -145.676)" fill="none" stroke="#fff" stroke-linecap="round" stroke-linejoin="round" stroke-width="1"/>
              <path id="Trazado_724224" data-name="Trazado 724224" d="M310.371,323.036l1.208,6.282h8.392l-1.51-6.282Z" transform="translate(-162.929 -169.578)" fill="#263238"/>
              <path id="Trazado_724225" data-name="Trazado 724225" d="M310.371,323.036l1.208,6.282h8.392l-1.51-6.282Z" transform="translate(-162.929 -169.578)" fill="none" stroke="#fff" stroke-linecap="round" stroke-linejoin="round" stroke-width="1"/>
              <path id="Trazado_724226" data-name="Trazado 724226" d="M363.576,329.318h8.392l-2.412-6.282h-8.091Z" transform="translate(-189.751 -169.578)" fill="#263238"/>
              <path id="Trazado_724227" data-name="Trazado 724227" d="M363.576,329.318h8.392l-2.412-6.282h-8.091Z" transform="translate(-189.751 -169.578)" fill="none" stroke="#fff" stroke-linecap="round" stroke-linejoin="round" stroke-width="1"/>
              <path id="Trazado_724228" data-name="Trazado 724228" d="M340.124,282.727l-1.755-5.223h-7.055l1.5,5.223Z" transform="translate(-173.923 -145.676)" fill="#263238"/>
              <path id="Trazado_724229" data-name="Trazado 724229" d="M340.124,282.727l-1.755-5.223h-7.055l1.5,5.223Z" transform="translate(-173.923 -145.676)" fill="none" stroke="#fff" stroke-linecap="round" stroke-linejoin="round" stroke-width="1"/>
              <path id="Trazado_724230" data-name="Trazado 724230" d="M344.434,323.036l1.81,6.282h8.392l-2.111-6.282Z" transform="translate(-180.81 -169.578)" fill="#263238"/>
              <path id="Trazado_724231" data-name="Trazado 724231" d="M344.434,323.036l1.81,6.282h8.392l-2.111-6.282Z" transform="translate(-180.81 -169.578)" fill="none" stroke="#fff" stroke-linecap="round" stroke-linejoin="round" stroke-width="1"/>
              <path id="Trazado_724232" data-name="Trazado 724232" d="M327.4,323.036l1.51,6.282H337.3l-1.81-6.282Z" transform="translate(-171.87 -169.578)" fill="#263238"/>
              <path id="Trazado_724233" data-name="Trazado 724233" d="M327.4,323.036l1.51,6.282H337.3l-1.81-6.282Z" transform="translate(-171.87 -169.578)" fill="none" stroke="#fff" stroke-linecap="round" stroke-linejoin="round" stroke-width="1"/>
              <path id="Trazado_724234" data-name="Trazado 724234" d="M355.3,304.7h7.811l-2.095-5.456h-7.55Z" transform="translate(-185.553 -157.086)" fill="#263238"/>
              <path id="Trazado_724235" data-name="Trazado 724235" d="M355.3,304.7h7.811l-2.095-5.456h-7.55Z" transform="translate(-185.553 -157.086)" fill="none" stroke="#fff" stroke-linecap="round" stroke-linejoin="round" stroke-width="1"/>
              <path id="Trazado_724236" data-name="Trazado 724236" d="M203.385,282.727l.5-5.223h-7.055l-.745,5.223Z" transform="translate(-102.932 -145.676)" fill="#263238"/>
              <path id="Trazado_724237" data-name="Trazado 724237" d="M203.385,282.727l.5-5.223h-7.055l-.745,5.223Z" transform="translate(-102.932 -145.676)" fill="none" stroke="#fff" stroke-linecap="round" stroke-linejoin="round" stroke-width="1"/>
              <path id="Trazado_724238" data-name="Trazado 724238" d="M325.022,282.727l-1.5-5.223h-7.055l1.255,5.223Z" transform="translate(-166.126 -145.676)" fill="#263238"/>
              <path id="Trazado_724239" data-name="Trazado 724239" d="M325.022,282.727l-1.5-5.223h-7.055l1.255,5.223Z" transform="translate(-166.126 -145.676)" fill="none" stroke="#fff" stroke-linecap="round" stroke-linejoin="round" stroke-width="1"/>
              <path id="Trazado_724240" data-name="Trazado 724240" d="M188.007,282.727l.745-5.223H181.7l-1,5.223Z" transform="translate(-94.859 -145.676)" fill="#263238"/>
              <path id="Trazado_724241" data-name="Trazado 724241" d="M188.007,282.727l.745-5.223H181.7l-1,5.223Z" transform="translate(-94.859 -145.676)" fill="none" stroke="#fff" stroke-linecap="round" stroke-linejoin="round" stroke-width="1"/>
              <path id="Trazado_724242" data-name="Trazado 724242" d="M234.141,282.727l0-5.223h-7.055l-.245,5.223Z" transform="translate(-119.077 -145.676)" fill="#263238"/>
              <path id="Trazado_724243" data-name="Trazado 724243" d="M234.141,282.727l0-5.223h-7.055l-.245,5.223Z" transform="translate(-119.077 -145.676)" fill="none" stroke="#fff" stroke-linecap="round" stroke-linejoin="round" stroke-width="1"/>
              <path id="Trazado_724244" data-name="Trazado 724244" d="M172.629,282.727l1-5.223h-7.055l-1.246,5.223Z" transform="translate(-86.787 -145.676)" fill="#263238"/>
              <path id="Trazado_724245" data-name="Trazado 724245" d="M172.629,282.727l1-5.223h-7.055l-1.246,5.223Z" transform="translate(-86.787 -145.676)" fill="none" stroke="#fff" stroke-linecap="round" stroke-linejoin="round" stroke-width="1"/>
              <path id="Trazado_724246" data-name="Trazado 724246" d="M157.251,282.727,158.5,277.5h-7.055l-1.5,5.223Z" transform="translate(-78.714 -145.676)" fill="#263238"/>
              <path id="Trazado_724247" data-name="Trazado 724247" d="M157.251,282.727,158.5,277.5h-7.055l-1.5,5.223Z" transform="translate(-78.714 -145.676)" fill="none" stroke="#fff" stroke-linecap="round" stroke-linejoin="round" stroke-width="1"/>
              <path id="Trazado_724248" data-name="Trazado 724248" d="M218.763,282.727l.245-5.223h-7.055l-.5,5.223Z" transform="translate(-111.005 -145.676)" fill="#263238"/>
              <path id="Trazado_724249" data-name="Trazado 724249" d="M218.763,282.727l.245-5.223h-7.055l-.5,5.223Z" transform="translate(-111.005 -145.676)" fill="none" stroke="#fff" stroke-linecap="round" stroke-linejoin="round" stroke-width="1"/>
              <path id="Trazado_724250" data-name="Trazado 724250" d="M309.921,282.727l-1.255-5.223h-7.055l1,5.223Z" transform="translate(-158.33 -145.676)" fill="#263238"/>
              <path id="Trazado_724251" data-name="Trazado 724251" d="M309.921,282.727l-1.255-5.223h-7.055l1,5.223Z" transform="translate(-158.33 -145.676)" fill="none" stroke="#fff" stroke-linecap="round" stroke-linejoin="round" stroke-width="1"/>
              <path id="Trazado_724252" data-name="Trazado 724252" d="M294.819,282.727l-1.005-5.223h-7.055l.755,5.223Z" transform="translate(-150.534 -145.676)" fill="#263238"/>
              <path id="Trazado_724253" data-name="Trazado 724253" d="M294.819,282.727l-1.005-5.223h-7.055l.755,5.223Z" transform="translate(-150.534 -145.676)" fill="none" stroke="#fff" stroke-linecap="round" stroke-linejoin="round" stroke-width="1"/>
              <path id="Trazado_724254" data-name="Trazado 724254" d="M264.616,282.727l-.505-5.223h-7.055l.255,5.223Z" transform="translate(-134.941 -145.676)" fill="#263238"/>
              <path id="Trazado_724255" data-name="Trazado 724255" d="M264.616,282.727l-.505-5.223h-7.055l.255,5.223Z" transform="translate(-134.941 -145.676)" fill="none" stroke="#fff" stroke-linecap="round" stroke-linejoin="round" stroke-width="1"/>
              <path id="Trazado_724256" data-name="Trazado 724256" d="M218.978,323.036H138.071l-1.8,6.282h83.914Z" transform="translate(-71.536 -169.578)" fill="#263238"/>
              <path id="Trazado_724257" data-name="Trazado 724257" d="M218.978,323.036H138.071l-1.8,6.282h83.914Z" transform="translate(-71.536 -169.578)" fill="none" stroke="#fff" stroke-linecap="round" stroke-linejoin="round" stroke-width="1"/>
              <path id="Trazado_724258" data-name="Trazado 724258" d="M279.717,282.727l-.755-5.223h-7.055l.5,5.223Z" transform="translate(-142.737 -145.676)" fill="#263238"/>
              <path id="Trazado_724259" data-name="Trazado 724259" d="M279.717,282.727l-.755-5.223h-7.055l.5,5.223Z" transform="translate(-142.737 -145.676)" fill="none" stroke="#fff" stroke-linecap="round" stroke-linejoin="round" stroke-width="1"/>
              <rect id="Rectángulo_347135" data-name="Rectángulo 347135" width="179.818" height="2.551" transform="translate(23.418 170.777)" fill="#263238"/>
              <rect id="Rectángulo_347136" data-name="Rectángulo 347136" width="179.818" height="2.551" transform="translate(23.418 170.777)" fill="none" stroke="#263238" stroke-linecap="round" stroke-linejoin="round" stroke-width="1"/>
            </g>
          </g>
          <line id="Línea_322" data-name="Línea 322" x2="7.834" transform="translate(60.365 72.514)" fill="none" stroke="#263238" stroke-linecap="round" stroke-linejoin="round" stroke-width="3"/>
          <line id="Línea_323" data-name="Línea 323" x2="29.429" transform="translate(60.365 76.537)" fill="none" stroke="#fff" stroke-linecap="round" stroke-linejoin="round" stroke-width="3"/>
          <line id="Línea_324" data-name="Línea 324" x2="29.429" transform="translate(105.886 76.537)" fill="none" stroke="#263238" stroke-linecap="round" stroke-linejoin="round" stroke-width="3"/>
          <line id="Línea_325" data-name="Línea 325" x2="11.645" transform="translate(91.7 76.537)" fill="none" stroke="#263238" stroke-linecap="round" stroke-linejoin="round" stroke-width="3"/>
          <line id="Línea_326" data-name="Línea 326" x2="16.938" transform="translate(60.365 80.56)" fill="none" stroke="#263238" stroke-linecap="round" stroke-linejoin="round" stroke-width="3"/>
          <line id="Línea_327" data-name="Línea 327" x2="16.938" transform="translate(79.42 80.56)" fill="none" stroke="#263238" stroke-linecap="round" stroke-linejoin="round" stroke-width="3"/>
          <line id="Línea_328" data-name="Línea 328" x2="16.938" transform="translate(98.475 80.56)" fill="none" stroke="#fff" stroke-linecap="round" stroke-linejoin="round" stroke-width="3"/>
          <line id="Línea_329" data-name="Línea 329" x2="7.198" transform="translate(117.53 80.56)" fill="none" stroke="#263238" stroke-linecap="round" stroke-linejoin="round" stroke-width="3"/>
          <line id="Línea_330" data-name="Línea 330" x2="7.834" transform="translate(70.316 72.514)" fill="none" stroke="#263238" stroke-linecap="round" stroke-linejoin="round" stroke-width="3"/>
          <line id="Línea_331" data-name="Línea 331" x2="7.834" transform="translate(116.895 72.514)" fill="none" stroke="#263238" stroke-linecap="round" stroke-linejoin="round" stroke-width="3"/>
          <line id="Línea_332" data-name="Línea 332" x2="7.834" transform="translate(106.521 72.514)" fill="none" stroke="#fff" stroke-linecap="round" stroke-linejoin="round" stroke-width="3"/>
          <line id="Línea_333" data-name="Línea 333" x2="22.866" transform="translate(80.267 72.514)" fill="none" stroke="#263238" stroke-linecap="round" stroke-linejoin="round" stroke-width="3"/>
          <line id="Línea_334" data-name="Línea 334" x2="7.834" transform="translate(60.365 108.719)" fill="none" stroke="#263238" stroke-linecap="round" stroke-linejoin="round" stroke-width="3"/>
          <line id="Línea_335" data-name="Línea 335" x2="29.429" transform="translate(60.365 112.741)" fill="none" stroke="#fff" stroke-linecap="round" stroke-linejoin="round" stroke-width="3"/>
          <line id="Línea_336" data-name="Línea 336" x2="29.429" transform="translate(105.886 112.741)" fill="none" stroke="#263238" stroke-linecap="round" stroke-linejoin="round" stroke-width="3"/>
          <line id="Línea_337" data-name="Línea 337" x2="11.645" transform="translate(91.7 112.741)" fill="none" stroke="#263238" stroke-linecap="round" stroke-linejoin="round" stroke-width="3"/>
          <line id="Línea_338" data-name="Línea 338" x2="16.938" transform="translate(60.365 116.764)" fill="none" stroke="#263238" stroke-linecap="round" stroke-linejoin="round" stroke-width="3"/>
          <line id="Línea_339" data-name="Línea 339" x2="16.938" transform="translate(79.42 116.764)" fill="none" stroke="#263238" stroke-linecap="round" stroke-linejoin="round" stroke-width="3"/>
          <line id="Línea_340" data-name="Línea 340" x2="16.938" transform="translate(98.475 116.764)" fill="none" stroke="#fff" stroke-linecap="round" stroke-linejoin="round" stroke-width="3"/>
          <line id="Línea_341" data-name="Línea 341" x2="7.198" transform="translate(117.53 116.764)" fill="none" stroke="#263238" stroke-linecap="round" stroke-linejoin="round" stroke-width="3"/>
          <line id="Línea_342" data-name="Línea 342" x2="7.834" transform="translate(70.316 108.719)" fill="none" stroke="#263238" stroke-linecap="round" stroke-linejoin="round" stroke-width="3"/>
          <line id="Línea_343" data-name="Línea 343" x2="7.834" transform="translate(116.895 108.719)" fill="none" stroke="#263238" stroke-linecap="round" stroke-linejoin="round" stroke-width="3"/>
          <line id="Línea_344" data-name="Línea 344" x2="7.834" transform="translate(106.521 108.719)" fill="none" stroke="#fff" stroke-linecap="round" stroke-linejoin="round" stroke-width="3"/>
          <line id="Línea_345" data-name="Línea 345" x2="22.866" transform="translate(80.267 108.719)" fill="none" stroke="#263238" stroke-linecap="round" stroke-linejoin="round" stroke-width="3"/>
          <line id="Línea_349" data-name="Línea 349" x2="7.834" transform="translate(104.404 67.433)" fill="none" stroke="#263238" stroke-linecap="round" stroke-linejoin="round" stroke-width="3"/>
          <line id="Línea_350" data-name="Línea 350" x2="7.834" transform="translate(94.029 67.433)" fill="none" stroke="#263238" stroke-linecap="round" stroke-linejoin="round" stroke-width="3"/>
          <line id="Línea_351" data-name="Línea 351" x2="22.866" transform="translate(67.775 67.433)" fill="none" stroke="#fff" stroke-linecap="round" stroke-linejoin="round" stroke-width="3"/>
          <line id="Línea_352" data-name="Línea 352" x1="7.834" transform="translate(67.776 63.833)" fill="none" stroke="#263238" stroke-linecap="round" stroke-linejoin="round" stroke-width="3"/>
          <line id="Línea_353" data-name="Línea 353" x1="7.834" transform="translate(78.15 63.833)" fill="none" stroke="#263238" stroke-linecap="round" stroke-linejoin="round" stroke-width="3"/>
          <path id="Trazado_724301" data-name="Trazado 724301" d="M22.866,0H0" transform="translate(89.371 63.833)" fill="none" stroke="#fff" stroke-linecap="round" stroke-width="3"/>
          <line id="Línea_355" data-name="Línea 355" x2="7.834" transform="translate(104.404 85.429)" fill="none" stroke="#263238" stroke-linecap="round" stroke-linejoin="round" stroke-width="3"/>
          <line id="Línea_356" data-name="Línea 356" x2="7.834" transform="translate(94.029 85.429)" fill="none" stroke="#263238" stroke-linecap="round" stroke-linejoin="round" stroke-width="3"/>
          <line id="Línea_357" data-name="Línea 357" x2="22.866" transform="translate(67.775 85.429)" fill="none" stroke="#263238" stroke-linecap="round" stroke-linejoin="round" stroke-width="3"/>
          <line id="Línea_358" data-name="Línea 358" x2="7.834" transform="translate(104.404 92.628)" fill="none" stroke="#263238" stroke-linecap="round" stroke-linejoin="round" stroke-width="3"/>
          <line id="Línea_359" data-name="Línea 359" x2="7.834" transform="translate(94.029 92.628)" fill="none" stroke="#263238" stroke-linecap="round" stroke-linejoin="round" stroke-width="3"/>
          <line id="Línea_360" data-name="Línea 360" x2="22.866" transform="translate(67.775 92.628)" fill="none" stroke="#fff" stroke-linecap="round" stroke-linejoin="round" stroke-width="3"/>
          <line id="Línea_361" data-name="Línea 361" x1="7.834" transform="translate(67.776 89.028)" fill="none" stroke="#263238" stroke-linecap="round" stroke-linejoin="round" stroke-width="3"/>
          <line id="Línea_362" data-name="Línea 362" x1="7.834" transform="translate(78.15 89.028)" fill="none" stroke="#263238" stroke-linecap="round" stroke-linejoin="round" stroke-width="3"/>
          <line id="Línea_363" data-name="Línea 363" x1="22.866" transform="translate(89.371 89.028)" fill="none" stroke="#fff" stroke-linecap="round" stroke-linejoin="round" stroke-width="3"/>
          <line id="Línea_364" data-name="Línea 364" x1="7.834" transform="translate(67.776 96.862)" fill="none" stroke="#263238" stroke-linecap="round" stroke-linejoin="round" stroke-width="3"/>
          <line id="Línea_365" data-name="Línea 365" x1="7.834" transform="translate(78.15 96.862)" fill="none" stroke="#263238" stroke-linecap="round" stroke-linejoin="round" stroke-width="3"/>
          <line id="Línea_366" data-name="Línea 366" x1="22.866" transform="translate(89.371 96.862)" fill="none" stroke="#fff" stroke-linecap="round" stroke-linejoin="round" stroke-width="3"/>
          <line id="Línea_367" data-name="Línea 367" x1="7.834" transform="translate(67.776 104.061)" fill="none" stroke="#263238" stroke-linecap="round" stroke-linejoin="round" stroke-width="3"/>
          <line id="Línea_368" data-name="Línea 368" x1="7.834" transform="translate(78.15 104.061)" fill="none" stroke="#263238" stroke-linecap="round" stroke-linejoin="round" stroke-width="3"/>
          <line id="Línea_369" data-name="Línea 369" x1="22.866" transform="translate(89.371 104.061)" fill="none" stroke="#fff" stroke-linecap="round" stroke-linejoin="round" stroke-width="3"/>
          <line id="Línea_370" data-name="Línea 370" x2="7.834" transform="translate(104.404 100.461)" fill="none" stroke="#263238" stroke-linecap="round" stroke-linejoin="round" stroke-width="3"/>
          <line id="Línea_371" data-name="Línea 371" x2="7.834" transform="translate(94.029 100.461)" fill="none" stroke="#263238" stroke-linecap="round" stroke-linejoin="round" stroke-width="3"/>
          <line id="Línea_372" data-name="Línea 372" x2="22.866" transform="translate(67.775 100.461)" fill="none" stroke="#fff" stroke-linecap="round" stroke-linejoin="round" stroke-width="3"/>
          <rect id="Rectángulo_347138" data-name="Rectángulo 347138" width="2.501" height="2.47" transform="translate(54.958 46.557)" fill="#263238"/>
          <rect id="Rectángulo_347139" data-name="Rectángulo 347139" width="2.501" height="2.47" transform="translate(54.958 50.616)" fill="#263238"/>
          <rect id="Rectángulo_347140" data-name="Rectángulo 347140" width="2.501" height="2.47" transform="translate(54.958 54.674)" fill="#263238"/>
          <rect id="Rectángulo_347141" data-name="Rectángulo 347141" width="2.501" height="2.47" transform="translate(54.958 58.732)" fill="#263238"/>
          <rect id="Rectángulo_347142" data-name="Rectángulo 347142" width="2.501" height="2.47" transform="translate(54.958 62.791)" fill="#263238"/>
          <rect id="Rectángulo_347143" data-name="Rectángulo 347143" width="2.501" height="2.47" transform="translate(54.958 66.85)" fill="#263238"/>
          <rect id="Rectángulo_347144" data-name="Rectángulo 347144" width="2.501" height="2.47" transform="translate(54.958 70.908)" fill="#263238"/>
          <rect id="Rectángulo_347145" data-name="Rectángulo 347145" width="2.501" height="2.47" transform="translate(54.958 74.966)" fill="#263238"/>
          <rect id="Rectángulo_347146" data-name="Rectángulo 347146" width="2.501" height="2.47" transform="translate(54.958 79.025)" fill="#263238"/>
          <rect id="Rectángulo_347147" data-name="Rectángulo 347147" width="2.501" height="2.47" transform="translate(54.958 83.083)" fill="#263238"/>
          <rect id="Rectángulo_347148" data-name="Rectángulo 347148" width="2.501" height="2.47" transform="translate(54.958 87.142)" fill="#263238"/>
          <rect id="Rectángulo_347149" data-name="Rectángulo 347149" width="2.501" height="2.47" transform="translate(54.958 91.2)" fill="#263238"/>
          <rect id="Rectángulo_347150" data-name="Rectángulo 347150" width="2.501" height="2.47" transform="translate(54.958 95.259)" fill="#263238"/>
          <rect id="Rectángulo_347151" data-name="Rectángulo 347151" width="2.501" height="2.47" transform="translate(54.958 99.317)" fill="#263238"/>
          <rect id="Rectángulo_347152" data-name="Rectángulo 347152" width="2.501" height="2.47" transform="translate(54.958 103.375)" fill="#263238"/>
          <rect id="Rectángulo_347153" data-name="Rectángulo 347153" width="2.501" height="2.47" transform="translate(54.958 107.434)" fill="#263238"/>
          <rect id="Rectángulo_347154" data-name="Rectángulo 347154" width="2.501" height="2.47" transform="translate(54.958 111.492)" fill="#263238"/>
          <rect id="Rectángulo_347155" data-name="Rectángulo 347155" width="2.501" height="2.47" transform="translate(54.958 115.551)" fill="#263238"/>
          <g id="Grupo_1012569" data-name="Grupo 1012569">
            <g id="Grupo_1012568" data-name="Grupo 1012568" clip-path="url(#clip-path)">
              <path id="Trazado_724260" data-name="Trazado 724260" d="M336.032,4.585a27.162,27.162,0,0,0-18.774,46.8L313.39,58.6l9.483-3.075a27.17,27.17,0,1,0,13.159-50.94" transform="translate(-162.137 -2.407)" fill="#263238"/>
              <path id="Trazado_724261" data-name="Trazado 724261" d="M336.032,4.585a27.162,27.162,0,0,0-18.774,46.8L313.39,58.6l9.483-3.075a27.17,27.17,0,1,0,13.159-50.94Z" transform="translate(-162.137 -2.407)" fill="none" stroke="#263238" stroke-linecap="round" stroke-linejoin="round" stroke-width="1"/>
              <path id="Trazado_724262" data-name="Trazado 724262" d="M333.308.5a27.162,27.162,0,0,0-18.774,46.8l-3.867,7.218,9.482-3.075A27.17,27.17,0,1,0,333.308.5" transform="translate(-160.707 -0.262)" fill="#fff"/>
              <path id="Trazado_724263" data-name="Trazado 724263" d="M333.308.5a27.162,27.162,0,0,0-18.774,46.8l-3.867,7.218,9.482-3.075A27.17,27.17,0,1,0,333.308.5Z" transform="translate(-160.707 -0.262)" fill="none" stroke="#263238" stroke-linecap="round" stroke-linejoin="round" stroke-width="1"/>
            </g>
          </g>
          <path id="Trazado_724264" data-name="Trazado 724264" d="M332.643,60.568,322.2,53.195V49.288l10.44-7.447v3.942l-7.483,5.439,7.483,5.439Z" transform="translate(-169.14 -21.965)" fill="#89bcf3"/>
          <path id="Trazado_724265" data-name="Trazado 724265" d="M350.865,51.355l7.958-29.569h3.4l-7.994,29.569Z" transform="translate(-184.186 -11.437)" fill="#89bcf3"/>
          <path id="Trazado_724266" data-name="Trazado 724266" d="M381.447,60.568V56.662l7.52-5.476-7.52-5.4V41.841l10.477,7.411v3.906Z" transform="translate(-200.241 -21.965)" fill="#89bcf3"/>
          <path id="Trazado_724267" data-name="Trazado 724267" d="M335.367,57.164l-10.44-7.374V45.884l10.44-7.447v3.942l-7.483,5.439,7.483,5.439Z" transform="translate(-170.57 -20.177)" fill="#263238"/>
          <path id="Trazado_724268" data-name="Trazado 724268" d="M353.588,47.95l7.958-29.569h3.395L356.946,47.95Z" transform="translate(-185.616 -9.649)" fill="#263238"/>
          <path id="Trazado_724269" data-name="Trazado 724269" d="M384.171,57.164V53.258l7.52-5.476-7.52-5.4V38.437l10.477,7.411v3.906Z" transform="translate(-201.67 -20.177)" fill="#263238"/>
          <g id="Grupo_1012571" data-name="Grupo 1012571">
            <g id="Grupo_1012570" data-name="Grupo 1012570" clip-path="url(#clip-path)">
              <path id="Trazado_724270" data-name="Trazado 724270" d="M319.85,362.231,336.3,375.812a23.36,23.36,0,0,0,3.235,5.5c2.264,2.911,28.787,13.909,28.787,13.909l4.528,1.294-49.487-37.2Z" transform="translate(-167.905 -188.623)" fill="#263238"/>
              <path id="Trazado_724271" data-name="Trazado 724271" d="M319.85,362.231,336.3,375.812a23.36,23.36,0,0,0,3.235,5.5c2.264,2.911,28.787,13.909,28.787,13.909l4.528,1.294-49.487-37.2Z" transform="translate(-167.905 -188.623)" fill="none" stroke="#263238" stroke-linecap="round" stroke-linejoin="round" stroke-width="1"/>
              <path id="Trazado_724272" data-name="Trazado 724272" d="M320.089,305.509a87.363,87.363,0,0,1-6.375-8.827c-1.962-3.433-4.741-11.442-6.865-16.183s-5.231-6.211-8.99-7.683-5.231-1.144-5.231-.163,1.471,2.779,1.471,2.779l-6.375,1.144s-2.615-1.471-4.25-.981-4.741,3.6-4.741,3.6-3.269-1.144-5.231-.654-7.356,3.106-9.644,4.25-4.741,1.308-4.577,2.289,2.452,2.615,4.577,2.288,5.721-1.635,8.009-1.635a6.948,6.948,0,0,1,4.577,1.308c1.144.817,5.884,7.519,6.538,8.336s1.308,4.087,1.308,4.087a19.829,19.829,0,0,1-4.68-2.866c-1.8-1.635-4.37-5.468-7.313-5.8s-6.151,2.286-4.516,3.594,3.269,2.125,4.413,3.6,2.942,5.884,6.048,10.625,9.807,7.682,9.807,7.682l13.894,5.721s3.6-8.5,10.3-10.788a85.266,85.266,0,0,0,8.663-3.269Z" transform="translate(-136.106 -142.689)" fill="#fff"/>
              <path id="Trazado_724273" data-name="Trazado 724273" d="M320.089,305.509a87.363,87.363,0,0,1-6.375-8.827c-1.962-3.433-4.741-11.442-6.865-16.183s-5.231-6.211-8.99-7.683-5.231-1.144-5.231-.163,1.471,2.779,1.471,2.779l-6.375,1.144s-2.615-1.471-4.25-.981-4.741,3.6-4.741,3.6-3.269-1.144-5.231-.654-7.356,3.106-9.644,4.25-4.741,1.308-4.577,2.289,2.452,2.615,4.577,2.288,5.721-1.635,8.009-1.635a6.948,6.948,0,0,1,4.577,1.308c1.144.817,5.884,7.519,6.538,8.336s1.308,4.087,1.308,4.087a19.829,19.829,0,0,1-4.68-2.866c-1.8-1.635-4.37-5.468-7.313-5.8s-6.151,2.286-4.516,3.594,3.269,2.125,4.413,3.6,2.942,5.884,6.048,10.625,9.807,7.682,9.807,7.682l13.894,5.721s3.6-8.5,10.3-10.788a85.266,85.266,0,0,0,8.663-3.269Z" transform="translate(-136.106 -142.689)" fill="none" stroke="#263238" stroke-linecap="round" stroke-linejoin="round" stroke-width="1"/>
              <path id="Trazado_724274" data-name="Trazado 724274" d="M259.29,298.438s1.594-.406,2.053-.559a3.762,3.762,0,0,0,.995-.612" transform="translate(-136.114 -156.05)" fill="none" stroke="#263238" stroke-linecap="round" stroke-linejoin="round" stroke-width="1"/>
              <path id="Trazado_724275" data-name="Trazado 724275" d="M300.237,287.344s7.53,4.211,9.654,5.356c.874.47,2.943,1.438,3.582,3.582a9.107,9.107,0,0,0,2.279,3.907" transform="translate(-157.609 -150.841)" fill="none" stroke="#263238" stroke-linecap="round" stroke-linejoin="round" stroke-width="1"/>
              <path id="Trazado_724276" data-name="Trazado 724276" d="M319.162,281.839s7.356,5.721,7.846,5.884,2.289.327,3.106,1.8,1.635,3.106,1.635,3.106" transform="translate(-167.544 -147.951)" fill="none" stroke="#263238" stroke-linecap="round" stroke-linejoin="round" stroke-width="1"/>
              <path id="Trazado_724277" data-name="Trazado 724277" d="M332.582,279.37s2.615-.49,3.6,1.471,5.231,6.7,5.231,6.7" transform="translate(-174.589 -146.626)" fill="none" stroke="#263238" stroke-linecap="round" stroke-linejoin="round" stroke-width="1"/>
              <path id="Trazado_724278" data-name="Trazado 724278" d="M281.208,319.483s1.961-.98.98-2.452a3.816,3.816,0,0,0-2.942-1.471" transform="translate(-146.591 -165.653)" fill="none" stroke="#263238" stroke-linecap="round" stroke-linejoin="round" stroke-width="1"/>
              <path id="Trazado_724279" data-name="Trazado 724279" d="M364.889,338.17s-8.827,2.288-14.385,8.5-5.558,11.442-5.067,12.26,11.115,6.538,11.115,6.538,6.539-12.586,11.116-15.692a27.594,27.594,0,0,1,7.846-3.923s-8.173-5.231-8.5-5.884-.98-2.288-2.125-1.8" transform="translate(-181.233 -177.475)" fill="#0174d2"/>
              <path id="Trazado_724280" data-name="Trazado 724280" d="M364.889,338.17s-8.827,2.288-14.385,8.5-5.558,11.442-5.067,12.26,11.115,6.538,11.115,6.538,6.539-12.586,11.116-15.692a27.594,27.594,0,0,1,7.846-3.923s-8.173-5.231-8.5-5.884S366.034,337.68,364.889,338.17Z" transform="translate(-181.233 -177.475)" fill="none" stroke="#263238" stroke-linecap="round" stroke-linejoin="round" stroke-width="1"/>
              <path id="Trazado_724281" data-name="Trazado 724281" d="M401.551,394.064s-8.99-4.577-11.115-5.721-16.673-8.99-16.673-8.99a19.637,19.637,0,0,1-2.779-.981c-.981-.49-2.452-.327-3.106-3.76s.981-10.3,8.337-17.163,11.932-6.539,11.932-6.539,3.106-.327,3.923.327.98,2.616,1.8,2.942,23.435,7.106,23.435,7.106" transform="translate(-193.048 -184.167)" fill="#0174d2"/>
              <path id="Trazado_724282" data-name="Trazado 724282" d="M401.551,394.064s-8.99-4.577-11.115-5.721-16.673-8.99-16.673-8.99a19.637,19.637,0,0,1-2.779-.981c-.981-.49-2.452-.327-3.106-3.76s.981-10.3,8.337-17.163,11.932-6.539,11.932-6.539,3.106-.327,3.923.327.98,2.616,1.8,2.942,23.435,7.106,23.435,7.106" transform="translate(-193.048 -184.167)" fill="none" stroke="#263238" stroke-linecap="round" stroke-linejoin="round" stroke-width="1"/>
              <path id="Trazado_724283" data-name="Trazado 724283" d="M384.652,388.851a14.676,14.676,0,0,0,1.308,8.99" transform="translate(-201.813 -204.127)" fill="none" stroke="#263238" stroke-linecap="round" stroke-linejoin="round" stroke-width="1"/>
              <path id="Trazado_724284" data-name="Trazado 724284" d="M389.5,402.271s-.981.327,1.635,4.577" transform="translate(-204.374 -211.172)" fill="none" stroke="#263238" stroke-linecap="round" stroke-linejoin="round" stroke-width="1"/>
            </g>
          </g>
          <g id="Grupo_1012573" data-name="Grupo 1012573">
            <g id="Grupo_1012572" data-name="Grupo 1012572" clip-path="url(#clip-path)">
              <path id="Trazado_724285" data-name="Trazado 724285" d="M105.355,335.086s-10.773,12.8-14.008,15.392a49.5,49.5,0,0,1-6.145,4.2L73.558,366.327s.324,1.618-2.911,3.558-9.7,4.2-11.32,4.852-19.407,8.733-19.407,8.733Z" transform="translate(-20.956 -175.903)" fill="#263238"/>
              <path id="Trazado_724286" data-name="Trazado 724286" d="M105.355,335.086s-10.773,12.8-14.008,15.392a49.5,49.5,0,0,1-6.145,4.2L73.558,366.327s.324,1.618-2.911,3.558-9.7,4.2-11.32,4.852-19.407,8.733-19.407,8.733Z" transform="translate(-20.956 -175.903)" fill="none" stroke="#263238" stroke-linecap="round" stroke-linejoin="round" stroke-width="1"/>
              <path id="Trazado_724287" data-name="Trazado 724287" d="M147.483,281.545a28,28,0,0,1-5.21.114s-2.492-1.926-3.738-3.058-4.417-7.816-6-8.156-8.269,3.512-8.269,3.512-5.437-2.379-6.8-2.152S111.689,276,111.689,276s-6.117-.906-7.249.906-2.945,7.589-4.758,11.214S91.3,301.368,91.3,301.368l-.906,1.246a50.158,50.158,0,0,1,5.55,2.605c4.191,2.152,10.874,12.347,10.874,12.347s9.288-4.3,14.5-6.683a26.168,26.168,0,0,0,10.534-9.741,20.778,20.778,0,0,1,5.437-6.117c2.379-1.925,6.8-2.718,7.816-4.078s-.679-3.4-.679-3.4a17.03,17.03,0,0,0,1.812-1.133c.567-.453,2.832-1.7,3.058-3.059s-.679-2.152-1.812-1.812m-17.444,10.874,2.152-6.57A36.162,36.162,0,0,0,137.063,288c-2.606.679-7.023,4.417-7.023,4.417" transform="translate(-47.452 -141.959)" fill="#fff"/>
              <path id="Trazado_724288" data-name="Trazado 724288" d="M147.483,281.545a28,28,0,0,1-5.21.114s-2.492-1.926-3.738-3.058-4.417-7.816-6-8.156-8.269,3.512-8.269,3.512-5.437-2.379-6.8-2.152S111.689,276,111.689,276s-6.117-.906-7.249.906-2.945,7.589-4.758,11.214S91.3,301.368,91.3,301.368l-.906,1.246a50.158,50.158,0,0,1,5.55,2.605c4.191,2.152,10.874,12.347,10.874,12.347s9.288-4.3,14.5-6.683a26.168,26.168,0,0,0,10.534-9.741,20.778,20.778,0,0,1,5.437-6.117c2.379-1.925,6.8-2.718,7.816-4.078s-.679-3.4-.679-3.4a17.03,17.03,0,0,0,1.812-1.133c.567-.453,2.832-1.7,3.058-3.059S148.616,281.205,147.483,281.545Zm-17.444,10.874,2.152-6.57A36.162,36.162,0,0,0,137.063,288C134.457,288.681,130.039,292.419,130.039,292.419Z" transform="translate(-47.452 -141.959)" fill="none" stroke="#263238" stroke-linecap="round" stroke-linejoin="round" stroke-width="1"/>
              <path id="Trazado_724289" data-name="Trazado 724289" d="M125.949,289.628a8.582,8.582,0,0,1-.113-2.605c.226-.68,4.418-4.871,4.418-4.871" transform="translate(-66.017 -148.116)" fill="none" stroke="#263238" stroke-linecap="round" stroke-linejoin="round" stroke-width="1"/>
              <path id="Trazado_724290" data-name="Trazado 724290" d="M133.79,289.64l.906-2.945,12.347-8.835" transform="translate(-70.233 -145.862)" fill="none" stroke="#263238" stroke-linecap="round" stroke-linejoin="round" stroke-width="1"/>
              <path id="Trazado_724291" data-name="Trazado 724291" d="M146.666,295.672s.453-2.832,1.019-3.285,4.871-1.473,4.871-1.473,6.57-5.664,7.7-5.664,9.4,4.418,11.554,4.191" transform="translate(-76.992 -149.742)" fill="none" stroke="#263238" stroke-linecap="round" stroke-linejoin="round" stroke-width="1"/>
              <path id="Trazado_724292" data-name="Trazado 724292" d="M206.218,295.027s-1.475,0-.682.911,2.492.453,3.285.227" transform="translate(-107.773 -154.874)" fill="none" stroke="#263238" stroke-linecap="round" stroke-linejoin="round" stroke-width="1"/>
              <path id="Trazado_724293" data-name="Trazado 724293" d="M188.632,306.094s4.078-2.378,7.363-.453" transform="translate(-99.022 -160.052)" fill="none" stroke="#263238" stroke-linecap="round" stroke-linejoin="round" stroke-width="1"/>
              <path id="Trazado_724294" data-name="Trazado 724294" d="M199.482,307.9l-2.266.793a15.3,15.3,0,0,1,1.019,2.492l.114.68" transform="translate(-103.528 -161.634)" fill="none" stroke="#263238" stroke-linecap="round" stroke-linejoin="round" stroke-width="1"/>
              <line id="Línea_373" data-name="Línea 373" x1="2.039" y2="4.531" transform="translate(80.548 150.461)" fill="none" stroke="#263238" stroke-linecap="round" stroke-linejoin="round" stroke-width="1"/>
              <path id="Trazado_724295" data-name="Trazado 724295" d="M60.588,344.1s7.136-4.644,9.741-6.57,3.965-1.586,5.324-2.039,8.156,1.586,12.687,7.25,4.078,9.854,3.511,10.987-14.839,9.741-14.839,9.741-2.039-8.156-8.042-13.026a98.311,98.311,0,0,0-8.382-6.343" transform="translate(-31.806 -176.086)" fill="#0174d2"/>
              <path id="Trazado_724296" data-name="Trazado 724296" d="M60.588,344.1s7.136-4.644,9.741-6.57,3.965-1.586,5.324-2.039,8.156,1.586,12.687,7.25,4.078,9.854,3.511,10.987-14.839,9.741-14.839,9.741-2.039-8.156-8.042-13.026A98.311,98.311,0,0,0,60.588,344.1Z" transform="translate(-31.806 -176.086)" fill="none" stroke="#263238" stroke-linecap="round" stroke-linejoin="round" stroke-width="1"/>
              <path id="Trazado_724297" data-name="Trazado 724297" d="M.5,364.35s13.22-8.078,15.423-9.4,4.754-3.135,4.754-3.135.7-3.5,4.059-3.617,6.61,1.206,11.016,3.617,9.856,11.213,10.436,14.71,1.739,4.581.811,6.873-4.406,2.411-5.1,2.411-2.319,1.447-2.319,1.447L14.763,393.408" transform="translate(-0.262 -182.78)" fill="#0174d2"/>
              <path id="Trazado_724298" data-name="Trazado 724298" d="M.5,364.35s13.22-8.078,15.423-9.4,4.754-3.135,4.754-3.135.7-3.5,4.059-3.617,6.61,1.206,11.016,3.617,9.856,11.213,10.436,14.71,1.739,4.581.811,6.873-4.406,2.411-5.1,2.411-2.319,1.447-2.319,1.447L14.763,393.408" transform="translate(-0.262 -182.78)" fill="none" stroke="#263238" stroke-linecap="round" stroke-linejoin="round" stroke-width="1"/>
              <path id="Trazado_724299" data-name="Trazado 724299" d="M85.7,393.4s1.038.771-1.037,4.007" transform="translate(-44.444 -206.515)" fill="none" stroke="#263238" stroke-linecap="round" stroke-linejoin="round" stroke-width="1"/>
              <path id="Trazado_724300" data-name="Trazado 724300" d="M80.124,396.644a10.624,10.624,0,0,1-3.26,6.472" transform="translate(-40.35 -208.218)" fill="none" stroke="#263238" stroke-linecap="round" stroke-linejoin="round" stroke-width="1"/>
            </g>
          </g>
          <path id="Trazado_724302" data-name="Trazado 724302" d="M3.137-1.985l1.549-5.14H6.254L3.874-.29H2.4L.034-7.124H1.6Zm5,1.694H6.772V-5.369H8.133ZM6.692-6.683a.668.668,0,0,1,.2-.5.767.767,0,0,1,.556-.2.769.769,0,0,1,.554.2.664.664,0,0,1,.207.5A.666.666,0,0,1,8-6.176a.771.771,0,0,1-.552.2.771.771,0,0,1-.552-.2A.666.666,0,0,1,6.692-6.683Zm5.2,4.99a.437.437,0,0,0-.246-.392,2.8,2.8,0,0,0-.791-.256q-1.812-.38-1.812-1.54A1.4,1.4,0,0,1,9.607-5.01a2.263,2.263,0,0,1,1.467-.453,2.435,2.435,0,0,1,1.547.455,1.435,1.435,0,0,1,.58,1.183H11.844a.656.656,0,0,0-.188-.481.8.8,0,0,0-.587-.19.812.812,0,0,0-.53.155.489.489,0,0,0-.188.394.418.418,0,0,0,.214.364,2.2,2.2,0,0,0,.721.239,5.885,5.885,0,0,1,.854.228A1.4,1.4,0,0,1,13.214-1.75a1.325,1.325,0,0,1-.6,1.124,2.572,2.572,0,0,1-1.54.429A2.686,2.686,0,0,1,9.945-.424a1.9,1.9,0,0,1-.777-.624A1.451,1.451,0,0,1,8.887-1.9h1.286a.708.708,0,0,0,.268.554,1.061,1.061,0,0,0,.667.192.982.982,0,0,0,.589-.148A.46.46,0,0,0,11.9-1.694Zm5.128.887a1.7,1.7,0,0,1-1.389.61,1.6,1.6,0,0,1-1.246-.469,2,2,0,0,1-.439-1.375V-5.369h1.357v3.285q0,.794.723.794a.979.979,0,0,0,.948-.479v-3.6h1.361V-.29H17.061ZM22.2-.29a1.506,1.506,0,0,1-.136-.455A1.641,1.641,0,0,1,20.781-.2a1.8,1.8,0,0,1-1.237-.432,1.389,1.389,0,0,1-.491-1.089,1.435,1.435,0,0,1,.6-1.239,2.953,2.953,0,0,1,1.73-.437h.624v-.291a.837.837,0,0,0-.181-.563.711.711,0,0,0-.57-.211.808.808,0,0,0-.537.164.558.558,0,0,0-.195.451H19.166a1.363,1.363,0,0,1,.272-.817,1.8,1.8,0,0,1,.77-.589,2.805,2.805,0,0,1,1.117-.214,2.217,2.217,0,0,1,1.49.472,1.65,1.65,0,0,1,.552,1.326v2.2a2.428,2.428,0,0,0,.2,1.094v.08Zm-1.122-.943a1.168,1.168,0,0,0,.554-.134.879.879,0,0,0,.376-.359V-2.6H21.5q-1.019,0-1.084.7l0,.08a.543.543,0,0,0,.178.418A.693.693,0,0,0,21.076-1.234Zm4.659.943H24.374V-7.5h1.361Zm6.933-1.793a.723.723,0,0,0-.282-.613,3.694,3.694,0,0,0-1.014-.451,7.187,7.187,0,0,1-1.159-.467,1.894,1.894,0,0,1-1.164-1.694,1.65,1.65,0,0,1,.312-.988,2.036,2.036,0,0,1,.9-.678,3.374,3.374,0,0,1,1.312-.244,3.071,3.071,0,0,1,1.3.265,2.078,2.078,0,0,1,.889.749,1.959,1.959,0,0,1,.317,1.1H32.672a.922.922,0,0,0-.3-.73,1.216,1.216,0,0,0-.831-.261,1.3,1.3,0,0,0-.8.218.688.688,0,0,0-.286.575.659.659,0,0,0,.336.559,3.792,3.792,0,0,0,.988.422,4.269,4.269,0,0,1,1.751.9,1.785,1.785,0,0,1,.549,1.333A1.645,1.645,0,0,1,33.409-.7,2.938,2.938,0,0,1,31.6-.2a3.49,3.49,0,0,1-1.436-.289,2.273,2.273,0,0,1-.988-.791,2.025,2.025,0,0,1-.34-1.164H30.25q0,1.131,1.352,1.131a1.315,1.315,0,0,0,.784-.2A.664.664,0,0,0,32.668-2.083Zm3.795-4.534v1.249h.868v1h-.868v2.535a.605.605,0,0,0,.108.4.542.542,0,0,0,.413.122,2.163,2.163,0,0,0,.4-.033V-.318a2.793,2.793,0,0,1-.821.122,1.3,1.3,0,0,1-1.455-1.441V-4.374h-.742v-1h.742V-6.618Zm4.56,5.811a1.7,1.7,0,0,1-1.389.61,1.6,1.6,0,0,1-1.246-.469,2,2,0,0,1-.439-1.375V-5.369H39.3v3.285q0,.794.723.794a.979.979,0,0,0,.948-.479v-3.6h1.361V-.29H41.06Zm2.021-2.061a3.061,3.061,0,0,1,.533-1.892,1.729,1.729,0,0,1,1.457-.7,1.556,1.556,0,0,1,1.225.554V-7.5H47.62V-.29H46.395l-.066-.54a1.6,1.6,0,0,1-1.3.634A1.724,1.724,0,0,1,43.585-.9,3.159,3.159,0,0,1,43.043-2.867Zm1.357.1a2,2,0,0,0,.249,1.1.81.81,0,0,0,.723.381.908.908,0,0,0,.887-.531V-3.829a.9.9,0,0,0-.878-.531Q44.4-4.36,44.4-2.766ZM50-.29H48.636V-5.369H50ZM48.556-6.683a.668.668,0,0,1,.2-.5.767.767,0,0,1,.556-.2.769.769,0,0,1,.554.2.664.664,0,0,1,.207.5.666.666,0,0,1-.209.507.771.771,0,0,1-.552.2.771.771,0,0,1-.552-.2A.666.666,0,0,1,48.556-6.683ZM50.8-2.877a3.012,3.012,0,0,1,.291-1.347,2.13,2.13,0,0,1,.838-.915,2.444,2.444,0,0,1,1.27-.324,2.313,2.313,0,0,1,1.678.629A2.524,2.524,0,0,1,55.6-3.125l.009.347A2.655,2.655,0,0,1,54.956-.9,2.268,2.268,0,0,1,53.205-.2a2.279,2.279,0,0,1-1.753-.7A2.7,2.7,0,0,1,50.8-2.815Zm1.357.1a1.9,1.9,0,0,0,.272,1.107.9.9,0,0,0,.779.383.9.9,0,0,0,.77-.378,2.077,2.077,0,0,0,.277-1.211,1.879,1.879,0,0,0-.277-1.1.9.9,0,0,0-.779-.39.886.886,0,0,0-.77.388A2.112,2.112,0,0,0,52.154-2.78Zm11.927.213A2.418,2.418,0,0,1,63.266-.83,2.86,2.86,0,0,1,61.33-.2a2.572,2.572,0,0,1-2.068-.885,3.628,3.628,0,0,1-.753-2.429v-.418a4.1,4.1,0,0,1,.347-1.737,2.6,2.6,0,0,1,.993-1.152,2.781,2.781,0,0,1,1.5-.4,2.786,2.786,0,0,1,1.906.634,2.6,2.6,0,0,1,.836,1.779H62.682a1.427,1.427,0,0,0-.368-.96,1.364,1.364,0,0,0-.965-.3,1.2,1.2,0,0,0-1.054.5,2.828,2.828,0,0,0-.359,1.565v.516a3.027,3.027,0,0,0,.336,1.619,1.174,1.174,0,0,0,1.058.512,1.39,1.39,0,0,0,.974-.3,1.346,1.346,0,0,0,.368-.922Zm.519-.31a3.012,3.012,0,0,1,.291-1.347,2.13,2.13,0,0,1,.838-.915A2.444,2.444,0,0,1,67-5.463a2.313,2.313,0,0,1,1.678.629A2.524,2.524,0,0,1,69.4-3.125l.009.347A2.655,2.655,0,0,1,68.758-.9,2.268,2.268,0,0,1,67.007-.2a2.279,2.279,0,0,1-1.753-.7A2.7,2.7,0,0,1,64.6-2.815Zm1.357.1a1.9,1.9,0,0,0,.272,1.107.9.9,0,0,0,.779.383.9.9,0,0,0,.77-.378,2.077,2.077,0,0,0,.277-1.211,1.879,1.879,0,0,0-.277-1.1A.9.9,0,0,0,67-4.369a.886.886,0,0,0-.77.388A2.112,2.112,0,0,0,65.956-2.78Zm3.973-.087a3.061,3.061,0,0,1,.533-1.892,1.729,1.729,0,0,1,1.457-.7,1.556,1.556,0,0,1,1.225.554V-7.5h1.361V-.29H73.28l-.066-.54a1.6,1.6,0,0,1-1.3.634A1.724,1.724,0,0,1,70.471-.9,3.159,3.159,0,0,1,69.929-2.867Zm1.357.1a2,2,0,0,0,.249,1.1.81.81,0,0,0,.723.381.908.908,0,0,0,.887-.531V-3.829a.9.9,0,0,0-.878-.531Q71.286-4.36,71.285-2.766Zm6.5,2.57A2.493,2.493,0,0,1,75.97-.882a2.436,2.436,0,0,1-.7-1.826v-.131a3.068,3.068,0,0,1,.3-1.368,2.17,2.17,0,0,1,.838-.929,2.352,2.352,0,0,1,1.237-.326,2.108,2.108,0,0,1,1.641.657,2.67,2.67,0,0,1,.6,1.863v.554H76.643a1.26,1.26,0,0,0,.4.8,1.2,1.2,0,0,0,.838.3A1.464,1.464,0,0,0,79.1-1.858l.667.746a2.036,2.036,0,0,1-.826.674A2.71,2.71,0,0,1,77.789-.2Zm-.155-4.173a.848.848,0,0,0-.655.273,1.416,1.416,0,0,0-.322.783h1.887v-.108a1.01,1.01,0,0,0-.244-.7A.875.875,0,0,0,77.634-4.369Z" transform="translate(61.848 55.115)" fill="#fff"/>
        </g>
      </g>
    </g>
  </g>
</svg>
