<svg xmlns="http://www.w3.org/2000/svg" width="263.186" height="234.197" viewBox="0 0 263.186 234.197">
  <g id="Grupo_1012734" data-name="Grupo 1012734" transform="translate(3920.544 10809.62)">
    <g id="Grupo_1012575" data-name="Grupo 1012575" transform="translate(-5024 -11698)">
      <path id="Trazado_724085" data-name="Trazado 724085" d="M251.924,80.5c14.239-38.224-31.58-39.674-57.482-38.92-8.9.259-12.3-.789-27.543,2.606-33.095,7.368-41.877,6.136-72.844-17.252-21.852-16.5-73.931-25.19-57.294,30.4,7.859,26.261,11.351,59.772-13.654,67.917S-9.666,174.763,15.212,189s56.925-4.405,84.308,18.477,43.963-26.665,91.52-15.913,66.568-9.27,71.8-40.371c3.372-20.057-18.967-49.066-10.912-70.69" transform="translate(1103.456 895.391)" fill="#b1d6fc" opacity="0.82"/>
      <path id="Trazado_724086" data-name="Trazado 724086" d="M211.208,69.824c11.938-32.047-26.476-33.262-48.191-32.63-7.46.217-10.31-.661-23.092,2.185-27.746,6.177-35.109,5.144-61.071-14.464C60.534,11.079,16.872,3.8,30.82,50.4c6.589,22.017,9.517,50.112-11.447,56.94s-27.477,41.51-6.62,53.443,47.724-3.693,70.682,15.49,36.857-22.355,76.728-13.341,55.809-7.772,60.192-33.846c2.827-16.815-15.9-41.136-9.148-59.265" transform="translate(1124.711 912.601)" fill="#75b2f5" opacity="0.82"/>
    </g>
    <g id="_6502424" data-name="6502424" transform="translate(-3888.275 -10809.64)">
      <g id="Floor" transform="translate(0.5 226.35)">
        <line id="Línea_392" data-name="Línea 392" x2="213.856" fill="none" stroke="#263238" stroke-linecap="round" stroke-linejoin="round" stroke-width="1"/>
      </g>
      <g id="Segment_Lines" data-name="Segment Lines" transform="translate(13.555 2.554)">
        <g id="Grupo_1012683" data-name="Grupo 1012683">
          <path id="Trazado_724522" data-name="Trazado 724522" d="M209.133,261.85V263.3H207.68" transform="translate(-100.31 -111.984)" fill="none" stroke="#263238" stroke-miterlimit="10" stroke-width="1"/>
          <line id="Línea_393" data-name="Línea 393" x1="101.627" transform="translate(2.883 151.319)" fill="none" stroke="#263238" stroke-miterlimit="10" stroke-width="1" stroke-dasharray="0 0 4.92 4.92"/>
          <path id="Trazado_724523" data-name="Trazado 724523" d="M24.413,263.3H22.96V261.85" transform="translate(-22.96 -111.984)" fill="none" stroke="#263238" stroke-miterlimit="10" stroke-width="1"/>
          <line id="Línea_394" data-name="Línea 394" y1="144.047" transform="translate(0 2.906)" fill="none" stroke="#263238" stroke-miterlimit="10" stroke-width="1" stroke-dasharray="0 0 5.01 5.01"/>
          <path id="Trazado_724524" data-name="Trazado 724524" d="M22.96,5.473V4.02h1.453" transform="translate(-22.96 -4.02)" fill="none" stroke="#263238" stroke-miterlimit="10" stroke-width="1"/>
          <line id="Línea_395" data-name="Línea 395" x2="101.621" transform="translate(4.319)" fill="none" stroke="#263238" stroke-miterlimit="10" stroke-width="1" stroke-dasharray="0 0 4.92 4.92"/>
          <path id="Trazado_724525" data-name="Trazado 724525" d="M207.68,4.02h1.453V5.473" transform="translate(-100.31 -4.02)" fill="none" stroke="#263238" stroke-miterlimit="10" stroke-width="1"/>
          <line id="Línea_396" data-name="Línea 396" y2="144.047" transform="translate(108.823 4.359)" fill="none" stroke="#263238" stroke-miterlimit="10" stroke-width="1" stroke-dasharray="0 0 5.01 5.01"/>
        </g>
        <g id="Grupo_1012684" data-name="Grupo 1012684" transform="translate(68.135 77.505)">
          <path id="Trazado_724526" data-name="Trazado 724526" d="M362.473,342.06v1.453H361.02" transform="translate(-232.655 -223.077)" fill="none" stroke="#263238" stroke-miterlimit="10" stroke-width="1"/>
          <line id="Línea_397" data-name="Línea 397" x1="122.482" transform="translate(2.93 120.436)" fill="none" stroke="#263238" stroke-miterlimit="10" stroke-width="1" stroke-dasharray="0 0 5.08 5.08"/>
          <path id="Trazado_724527" data-name="Trazado 724527" d="M141.633,343.513H140.18V342.06" transform="translate(-140.18 -223.077)" fill="none" stroke="#263238" stroke-miterlimit="10" stroke-width="1"/>
          <line id="Línea_398" data-name="Línea 398" y1="113.229" transform="translate(0 2.889)" fill="none" stroke="#263238" stroke-miterlimit="10" stroke-width="1" stroke-dasharray="0 0 4.93 4.93"/>
          <path id="Trazado_724528" data-name="Trazado 724528" d="M140.18,138.813V137.36h1.453" transform="translate(-140.18 -137.36)" fill="none" stroke="#263238" stroke-miterlimit="10" stroke-width="1"/>
          <line id="Línea_399" data-name="Línea 399" x2="122.482" transform="translate(4.406)" fill="none" stroke="#263238" stroke-miterlimit="10" stroke-width="1" stroke-dasharray="0 0 5.08 5.08"/>
          <path id="Trazado_724529" data-name="Trazado 724529" d="M361.02,137.36h1.453v1.453" transform="translate(-232.655 -137.36)" fill="none" stroke="#263238" stroke-miterlimit="10" stroke-width="1"/>
          <line id="Línea_400" data-name="Línea 400" y2="113.235" transform="translate(129.818 4.319)" fill="none" stroke="#263238" stroke-miterlimit="10" stroke-width="1" stroke-dasharray="0 0 4.93 4.93"/>
        </g>
      </g>
      <g id="Plant" transform="translate(6.629 117.969)">
        <g id="Grupo_1012693" data-name="Grupo 1012693">
          <g id="Grupo_1012692" data-name="Grupo 1012692">
            <path id="Trazado_724530" data-name="Trazado 724530" d="M22.1,245.088s-1.36,3.737-4.243,4.243-7.981-5.1-4.755-7.981,7.644,1.7,9,3.737Z" transform="translate(-11.474 -218.426)" fill="#0174d2" stroke="#263238" stroke-linecap="round" stroke-linejoin="round" stroke-width="1"/>
            <path id="Trazado_724531" data-name="Trazado 724531" d="M34.8,215.741S30.554,226.1,32.251,231.2s12.23,8.829,15.287,2.209-3.737-15.967-6.283-18-5.6-1.36-6.452.337Z" transform="translate(-19.756 -207.423)" fill="#0174d2" stroke="#263238" stroke-linecap="round" stroke-linejoin="round" stroke-width="1"/>
            <path id="Trazado_724532" data-name="Trazado 724532" d="M73.64,223.432s-7.3,6.621-8.149,13.247,4.075,9,9.172,8.149,7.644-13.758,6.115-19.7-7.132-1.7-7.132-1.7Z" transform="translate(-33.803 -210.697)" fill="#0174d2" stroke="#263238" stroke-linecap="round" stroke-linejoin="round" stroke-width="1"/>
            <g id="Grupo_1012685" data-name="Grupo 1012685" transform="translate(32.685 49.418)">
              <path id="Trazado_724533" data-name="Trazado 724533" d="M75.787,287.6s-8.149.337-8.492,4.243,3.569,4.755,7.475,1.36S79.188,287.769,75.787,287.6Z" transform="translate(-67.275 -287.6)" fill="#0174d2" stroke="#263238" stroke-linecap="round" stroke-linejoin="round" stroke-width="1"/>
              <path id="Trazado_724534" data-name="Trazado 724534" d="M67.54,294.013s6.423-2.941,9.318-3.453" transform="translate(-67.386 -288.839)" fill="none" stroke="#263238" stroke-miterlimit="10" stroke-width="1"/>
            </g>
            <g id="Grupo_1012686" data-name="Grupo 1012686" transform="translate(32.637 71.295)">
              <path id="Trazado_724535" data-name="Trazado 724535" d="M77.567,328.918s-5.987-5.539-9-3.028-.86,5.882,4.307,6.26,6.969-.7,4.691-3.226Z" transform="translate(-67.193 -325.236)" fill="#0174d2" stroke="#263238" stroke-linecap="round" stroke-linejoin="round" stroke-width="1"/>
              <path id="Trazado_724536" data-name="Trazado 724536" d="M68.59,327.65s6.615,2.482,9.015,4.179" transform="translate(-67.778 -326.247)" fill="none" stroke="#263238" stroke-miterlimit="10" stroke-width="1"/>
            </g>
            <g id="Grupo_1012687" data-name="Grupo 1012687" transform="translate(10.093 68.268)">
              <path id="Trazado_724537" data-name="Trazado 724537" d="M29.74,325.1s8.254-7.638,12.4-4.173,1.186,8.109-5.935,8.626S26.607,328.592,29.74,325.1Z" transform="translate(-28.408 -320.029)" fill="#0174d2" stroke="#263238" stroke-linecap="round" stroke-linejoin="round" stroke-width="1"/>
              <path id="Trazado_724538" data-name="Trazado 724538" d="M44.427,323.36s-9.12,3.424-12.427,5.754" transform="translate(-29.912 -321.424)" fill="none" stroke="#263238" stroke-miterlimit="10" stroke-width="1"/>
            </g>
            <path id="Trazado_724539" data-name="Trazado 724539" d="M39.709,299.166s-.849,4.075-3.906,5.6-8.492-1.7-5.6-6.626,7.981-1.017,9.509,1.017Z" transform="translate(-18.721 -241.598)" fill="#0174d2" stroke="#263238" stroke-linecap="round" stroke-linejoin="round" stroke-width="1"/>
            <path id="Trazado_724540" data-name="Trazado 724540" d="M24.9,278.316s-1.529-3.395-7.475-1.192-8.324,5.6-4.586,6.795,12.055-5.6,12.055-5.6Z" transform="translate(-11.044 -233.484)" fill="#0174d2" stroke="#263238" stroke-linecap="round" stroke-linejoin="round" stroke-width="1"/>
            <path id="Trazado_724541" data-name="Trazado 724541" d="M25.931,279.44s-6.3.68-9.7,3.575" transform="translate(-13.215 -234.765)" fill="none" stroke="#263238" stroke-miterlimit="10" stroke-width="1"/>
            <path id="Trazado_724542" data-name="Trazado 724542" d="M64.1,206.655s1.017,2.377,3.057,1.866,2.546-3.569,5.772-2.714,5.946,4.586,5.946,2.889-4.075-6.115-8.661-6.115-5.946,1.866-6.115,4.075Z" transform="translate(-33.261 -202.58)" fill="#0174d2" stroke="#263238" stroke-linecap="round" stroke-linejoin="round" stroke-width="1"/>
            <path id="Trazado_724543" data-name="Trazado 724543" d="M34.88,279.643s7.312-1.407,10.358,6.719A22.117,22.117,0,0,1,46,288.85" transform="translate(-21.025 -234.811)" fill="none" stroke="#263238" stroke-miterlimit="10" stroke-width="1"/>
            <path id="Trazado_724544" data-name="Trazado 724544" d="M87.38,264.786s1.529-3.395,7.475-1.192,8.324,5.6,4.586,6.795-12.055-5.6-12.055-5.6Z" transform="translate(-43.009 -227.818)" fill="#0174d2" stroke="#263238" stroke-linecap="round" stroke-linejoin="round" stroke-width="1"/>
            <path id="Trazado_724545" data-name="Trazado 724545" d="M89.72,266.554s6.126-.343,9.021,3.232" transform="translate(-43.989 -229.365)" fill="none" stroke="#263238" stroke-miterlimit="10" stroke-width="1"/>
            <path id="Trazado_724546" data-name="Trazado 724546" d="M83.733,266.113a9.413,9.413,0,0,0-5.063.692" transform="translate(-39.362 -229.146)" fill="none" stroke="#263238" stroke-miterlimit="10" stroke-width="1"/>
            <path id="Trazado_724547" data-name="Trazado 724547" d="M31.208,252.3a14.13,14.13,0,0,0-7.126-4.214s-5.231-1.383-7.272.488" transform="translate(-13.458 -221.429)" fill="none" stroke="#263238" stroke-miterlimit="10" stroke-width="1"/>
            <g id="Grupo_1012688" data-name="Grupo 1012688" transform="translate(14.587 10.637)">
              <line id="Línea_401" data-name="Línea 401" x1="0.314" y1="1.424" transform="translate(3.575)" fill="none" stroke="#263238" stroke-miterlimit="10" stroke-width="1"/>
              <path id="Trazado_724548" data-name="Trazado 724548" d="M51.344,299.5s.761-29.249,0-38.13-4.313-19.286-4.313-19.286L43.41,225.92" transform="translate(-39.184 -222.99)" fill="none" stroke="#263238" stroke-miterlimit="10" stroke-width="1"/>
              <line id="Línea_402" data-name="Línea 402" y1="1.401" x2="0.657" transform="translate(27.255 6.301)" fill="none" stroke="#263238" stroke-miterlimit="10" stroke-width="1"/>
              <path id="Trazado_724549" data-name="Trazado 724549" d="M60.12,304.046s.256-26.68,1.267-34.288,5.074-19.542,5.074-19.542l6.231-13.346" transform="translate(-46.181 -227.576)" fill="none" stroke="#263238" stroke-miterlimit="10" stroke-width="1"/>
              <path id="Trazado_724550" data-name="Trazado 724550" d="M65.53,296.5s-1.779,15.293-2.79,32.55" transform="translate(-47.279 -252.545)" fill="none" stroke="#263238" stroke-miterlimit="10" stroke-width="1"/>
              <path id="Trazado_724551" data-name="Trazado 724551" d="M45.766,330.93s.506-24.4-.506-27.691-2.72-1.848-2.72-1.848-4.7.552-6.4,3.278" transform="translate(-36.14 -254.46)" fill="none" stroke="#263238" stroke-miterlimit="10" stroke-width="1"/>
              <path id="Trazado_724552" data-name="Trazado 724552" d="M54.7,298.81c1.325,7.44.1,31.2.1,31.2" transform="translate(-43.912 -253.513)" fill="none" stroke="#263238" stroke-miterlimit="10" stroke-width="1"/>
              <path id="Trazado_724553" data-name="Trazado 724553" d="M71.468,268.73a10.584,10.584,0,0,0-3.86,5.231c-3.046,8.12-2.7,43.461-2.7,43.461" transform="translate(-48.183 -240.917)" fill="none" stroke="#263238" stroke-miterlimit="10" stroke-width="1"/>
              <path id="Trazado_724554" data-name="Trazado 724554" d="M43.1,257.36a23.923,23.923,0,0,1,4.307,7.783c4.063,11.672,5.58,41.9,4.824,47.489" transform="translate(-39.054 -236.156)" fill="none" stroke="#263238" stroke-miterlimit="10" stroke-width="1"/>
              <path id="Trazado_724555" data-name="Trazado 724555" d="M60.544,276.15c-.25,14.735-.424,44.344-.424,44.344" transform="translate(-46.181 -244.024)" fill="none" stroke="#263238" stroke-miterlimit="10" stroke-width="1"/>
            </g>
            <path id="Trazado_724556" data-name="Trazado 724556" d="M60.9,244.535c.169-9.742.366-19.274.564-24.407.506-13.195,1.3-12.456,1.3-12.456s.942-2.964,6.214-2.621" transform="translate(-31.921 -203.603)" fill="none" stroke="#263238" stroke-miterlimit="10" stroke-width="1"/>
            <g id="Grupo_1012689" data-name="Grupo 1012689" transform="translate(19.534 44.302)">
              <path id="Trazado_724557" data-name="Trazado 724557" d="M47.6,286.553s-4.243-3.784-2.546-5.65,12.23-3.226,15.287-.808-3.737,5.836-6.283,6.58-5.6.494-6.452-.122Z" transform="translate(-44.651 -278.797)" fill="#0174d2" stroke="#263238" stroke-linecap="round" stroke-linejoin="round" stroke-width="1"/>
              <path id="Trazado_724558" data-name="Trazado 724558" d="M56.393,286.81a7.562,7.562,0,0,0-.093,1.128" transform="translate(-49.529 -282.152)" fill="none" stroke="#263238" stroke-miterlimit="10" stroke-width="1"/>
              <path id="Trazado_724559" data-name="Trazado 724559" d="M58.2,279.2a18.694,18.694,0,0,0-1.087,2.813" transform="translate(-49.868 -278.966)" fill="none" stroke="#263238" stroke-miterlimit="10" stroke-width="1"/>
            </g>
            <g id="Grupo_1012690" data-name="Grupo 1012690" transform="translate(19.534 69.057)">
              <path id="Trazado_724560" data-name="Trazado 724560" d="M47.6,329.143s-4.243-3.784-2.546-5.65,12.23-3.226,15.287-.808-3.737,5.836-6.283,6.58-5.6.494-6.452-.122Z" transform="translate(-44.651 -321.387)" fill="#0174d2" stroke="#263238" stroke-linecap="round" stroke-linejoin="round" stroke-width="1"/>
              <path id="Trazado_724561" data-name="Trazado 724561" d="M57.862,321.79a15.419,15.419,0,0,0-1.552,5.551" transform="translate(-49.533 -321.556)" fill="none" stroke="#263238" stroke-miterlimit="10" stroke-width="1"/>
            </g>
            <g id="Grupo_1012691" data-name="Grupo 1012691" transform="translate(23.639 61.077)">
              <path id="Trazado_724562" data-name="Trazado 724562" d="M53.717,312.925s-2.883-2.569-1.732-3.836,8.3-2.191,10.375-.546-2.534,3.964-4.266,4.47-3.807.337-4.383-.087Z" transform="translate(-51.713 -307.658)" fill="#0174d2" stroke="#263238" stroke-linecap="round" stroke-linejoin="round" stroke-width="1"/>
              <path id="Trazado_724563" data-name="Trazado 724563" d="M60.678,307.93A10.426,10.426,0,0,0,59.62,311.7" transform="translate(-55.024 -307.772)" fill="none" stroke="#263238" stroke-miterlimit="10" stroke-width="1"/>
            </g>
          </g>
          <rect id="Rectángulo_347204" data-name="Rectángulo 347204" width="11.491" height="25.488" transform="translate(21.656 82.899)" fill="#263238" stroke="#263238" stroke-linecap="round" stroke-linejoin="round" stroke-width="1"/>
        </g>
      </g>
      <g id="Gears" transform="translate(83.085 0.52)">
        <path id="Trazado_724564" data-name="Trazado 724564" d="M142.58,288.542v4.15l3.976.57a14.48,14.48,0,0,0,2.284,5.563l-2.418,3.226,2.935,2.935,3.214-2.412a14.447,14.447,0,0,0,5.551,2.319l.57,3.993h4.15l.57-3.976a14.479,14.479,0,0,0,5.563-2.284l3.226,2.418,2.935-2.935-2.412-3.214a14.447,14.447,0,0,0,2.319-5.551l3.993-.57v-4.15l-3.976-.57a14.48,14.48,0,0,0-2.284-5.563l2.418-3.226-2.935-2.935-3.214,2.412a14.448,14.448,0,0,0-5.551-2.319l-.57-3.993h-4.15l-.57,3.976a14.48,14.48,0,0,0-5.563,2.284l-3.226-2.418-2.935,2.935,2.412,3.214a14.447,14.447,0,0,0-2.319,5.551Zm18.228-7.952a10.067,10.067,0,1,1-10.067,10.067A10.068,10.068,0,0,1,160.808,280.591Z" transform="translate(-142.58 -114.38)" fill="none" stroke="#263238" stroke-miterlimit="10" stroke-width="1"/>
        <path id="Trazado_724565" data-name="Trazado 724565" d="M201.316,283.36v3.551l3.4.488a12.348,12.348,0,0,0,1.953,4.761l-2.069,2.755,2.511,2.511,2.749-2.058a12.318,12.318,0,0,0,4.743,1.982l.488,3.412h3.551l.488-3.4a12.285,12.285,0,0,0,4.755-1.953l2.755,2.069,2.511-2.511-2.058-2.749a12.317,12.317,0,0,0,1.982-4.743l3.412-.488v-3.551l-3.4-.488a12.347,12.347,0,0,0-1.953-4.761l2.069-2.755-2.511-2.511-2.749,2.063A12.318,12.318,0,0,0,219.2,273l-.488-3.412h-3.551l-.488,3.4a12.348,12.348,0,0,0-4.76,1.953l-2.755-2.069-2.511,2.511,2.058,2.749a12.317,12.317,0,0,0-1.982,4.743l-3.412.488Zm15.589-6.8a8.608,8.608,0,1,1-8.608,8.608A8.608,8.608,0,0,1,216.905,276.559Z" transform="translate(-167.173 -113.191)" fill="none" stroke="#263238" stroke-miterlimit="10" stroke-width="1"/>
        <path id="Trazado_724566" data-name="Trazado 724566" d="M272.78,14.284v3.551l3.4.488a12.348,12.348,0,0,0,1.953,4.76l-2.069,2.761,2.511,2.511,2.749-2.058a12.317,12.317,0,0,0,4.743,1.982l.488,3.412h3.551l.488-3.4a12.284,12.284,0,0,0,4.755-1.953l2.761,2.069,2.511-2.511-2.058-2.749a12.318,12.318,0,0,0,1.982-4.743l3.412-.488V14.366l-3.4-.488a12.285,12.285,0,0,0-1.953-4.755l2.069-2.761-2.511-2.511-2.749,2.063a12.316,12.316,0,0,0-4.743-1.982L290.183.52h-3.551l-.488,3.4a12.347,12.347,0,0,0-4.761,1.953L278.627,3.8l-2.511,2.511,2.058,2.749a12.316,12.316,0,0,0-1.982,4.743l-3.412.488Zm15.589-6.8a8.608,8.608,0,1,1-8.608,8.608A8.608,8.608,0,0,1,288.369,7.483Z" transform="translate(-197.1 -0.52)" fill="none" stroke="#263238" stroke-miterlimit="10" stroke-width="1"/>
      </g>
      <g id="Screen" transform="translate(38.084 11.674)">
        <g id="Grupo_1012695" data-name="Grupo 1012695">
          <path id="Trazado_724567" data-name="Trazado 724567" d="M70.112,24.81H190.56a4.956,4.956,0,0,1,4.952,4.952V154.727H65.16V29.762a4.956,4.956,0,0,1,4.952-4.952Z" transform="translate(-65.16 -21.846)" fill="#263238" stroke="#263238" stroke-linecap="round" stroke-linejoin="round" stroke-width="1"/>
          <path id="Trazado_724568" data-name="Trazado 724568" d="M75.222,19.71H195.67a4.956,4.956,0,0,1,4.952,4.952V149.627H70.27V24.662a4.956,4.956,0,0,1,4.952-4.952Z" transform="translate(-67.3 -19.71)" fill="#fff" stroke="#263238" stroke-linecap="round" stroke-linejoin="round" stroke-width="1"/>
          <path id="Trazado_724569" data-name="Trazado 724569" d="M75.222,19.71H195.67a4.956,4.956,0,0,1,4.952,4.952v7.463H70.27V24.662a4.956,4.956,0,0,1,4.952-4.952Z" transform="translate(-67.3 -19.71)" fill="#0e7dd8" stroke="#263238" stroke-linecap="round" stroke-linejoin="round" stroke-width="1"/>
          <g id="Grupo_1012694" data-name="Grupo 1012694" transform="translate(108.311 4.58)">
            <circle id="Elipse_5993" data-name="Elipse 5993" cx="2.023" cy="2.023" r="2.023" fill="#fff" stroke="#263238" stroke-linecap="round" stroke-linejoin="round" stroke-width="1"/>
            <path id="Trazado_724570" data-name="Trazado 724570" d="M265.986,29.613a2.023,2.023,0,1,0-2.023,2.023A2.024,2.024,0,0,0,265.986,29.613Z" transform="translate(-255.872 -27.59)" fill="#fff" stroke="#263238" stroke-linecap="round" stroke-linejoin="round" stroke-width="1"/>
            <circle id="Elipse_5994" data-name="Elipse 5994" cx="2.023" cy="2.023" r="2.023" transform="translate(12.142)" fill="#263238" stroke="#263238" stroke-linecap="round" stroke-linejoin="round" stroke-width="1"/>
          </g>
        </g>
        <g id="Grupo_1012715" data-name="Grupo 1012715" transform="translate(9.724 17.885)">
          <g id="Grupo_1012697" data-name="Grupo 1012697" transform="translate(6.621 1.953)">
            <line id="Línea_403" data-name="Línea 403" x2="9.585" fill="none" stroke="#263238" stroke-linecap="round" stroke-linejoin="round" stroke-width="3"/>
            <line id="Línea_404" data-name="Línea 404" x2="36.009" transform="translate(0 5.632)" fill="none" stroke="#c4c4c4" stroke-linecap="round" stroke-linejoin="round" stroke-width="3"/>
            <line id="Línea_405" data-name="Línea 405" x2="36.009" transform="translate(55.696 5.632)" fill="none" stroke="#c4c4c4" stroke-linecap="round" stroke-linejoin="round" stroke-width="3"/>
            <line id="Línea_406" data-name="Línea 406" x2="14.247" transform="translate(38.34 5.632)" fill="none" stroke="#263238" stroke-linecap="round" stroke-linejoin="round" stroke-width="3"/>
            <line id="Línea_407" data-name="Línea 407" x2="20.722" transform="translate(0 11.259)" fill="none" stroke="#263238" stroke-linecap="round" stroke-linejoin="round" stroke-width="3"/>
            <line id="Línea_408" data-name="Línea 408" x2="20.722" transform="translate(23.314 11.259)" fill="none" stroke="#263238" stroke-linecap="round" stroke-linejoin="round" stroke-width="3"/>
            <line id="Línea_409" data-name="Línea 409" x2="20.722" transform="translate(46.628 11.259)" fill="none" stroke="#263238" stroke-linecap="round" stroke-linejoin="round" stroke-width="3"/>
            <line id="Línea_410" data-name="Línea 410" x2="8.806" transform="translate(69.943 11.259)" fill="none" stroke="#263238" stroke-linecap="round" stroke-linejoin="round" stroke-width="3"/>
            <line id="Línea_411" data-name="Línea 411" x2="9.585" transform="translate(12.172)" fill="none" stroke="#263238" stroke-linecap="round" stroke-linejoin="round" stroke-width="3"/>
            <g id="Grupo_1012696" data-name="Grupo 1012696" transform="translate(24.349)">
              <line id="Línea_412" data-name="Línea 412" x2="9.585" transform="translate(44.815)" fill="none" stroke="#263238" stroke-linecap="round" stroke-linejoin="round" stroke-width="3"/>
              <line id="Línea_413" data-name="Línea 413" x2="9.585" transform="translate(32.12)" fill="none" stroke="#c4c4c4" stroke-linecap="round" stroke-linejoin="round" stroke-width="3"/>
              <line id="Línea_414" data-name="Línea 414" x2="27.976" fill="none" stroke="#263238" stroke-linecap="round" stroke-linejoin="round" stroke-width="3"/>
            </g>
          </g>
          <g id="Grupo_1012699" data-name="Grupo 1012699" transform="translate(6.621 36.329)">
            <line id="Línea_415" data-name="Línea 415" x2="9.585" fill="none" stroke="#263238" stroke-linecap="round" stroke-linejoin="round" stroke-width="3"/>
            <line id="Línea_416" data-name="Línea 416" x2="36.009" transform="translate(0 5.632)" fill="none" stroke="#c4c4c4" stroke-linecap="round" stroke-linejoin="round" stroke-width="3"/>
            <line id="Línea_417" data-name="Línea 417" x2="36.009" transform="translate(55.696 5.632)" fill="none" stroke="#263238" stroke-linecap="round" stroke-linejoin="round" stroke-width="3"/>
            <line id="Línea_418" data-name="Línea 418" x2="14.247" transform="translate(38.34 5.632)" fill="none" stroke="#263238" stroke-linecap="round" stroke-linejoin="round" stroke-width="3"/>
            <line id="Línea_419" data-name="Línea 419" x2="20.722" transform="translate(0 11.259)" fill="none" stroke="#263238" stroke-linecap="round" stroke-linejoin="round" stroke-width="3"/>
            <line id="Línea_420" data-name="Línea 420" x2="20.722" transform="translate(23.314 11.259)" fill="none" stroke="#263238" stroke-linecap="round" stroke-linejoin="round" stroke-width="3"/>
            <line id="Línea_421" data-name="Línea 421" x2="20.722" transform="translate(46.628 11.259)" fill="none" stroke="#c4c4c4" stroke-linecap="round" stroke-linejoin="round" stroke-width="3"/>
            <line id="Línea_422" data-name="Línea 422" x2="8.806" transform="translate(69.943 11.259)" fill="none" stroke="#263238" stroke-linecap="round" stroke-linejoin="round" stroke-width="3"/>
            <line id="Línea_423" data-name="Línea 423" x2="9.585" transform="translate(12.172)" fill="none" stroke="#263238" stroke-linecap="round" stroke-linejoin="round" stroke-width="3"/>
            <g id="Grupo_1012698" data-name="Grupo 1012698" transform="translate(24.349)">
              <line id="Línea_424" data-name="Línea 424" x2="9.585" transform="translate(44.815)" fill="none" stroke="#263238" stroke-linecap="round" stroke-linejoin="round" stroke-width="3"/>
              <line id="Línea_425" data-name="Línea 425" x2="9.585" transform="translate(32.12)" fill="none" stroke="#c4c4c4" stroke-linecap="round" stroke-linejoin="round" stroke-width="3"/>
              <line id="Línea_426" data-name="Línea 426" x2="27.976" fill="none" stroke="#263238" stroke-linecap="round" stroke-linejoin="round" stroke-width="3"/>
            </g>
          </g>
          <g id="Grupo_1012701" data-name="Grupo 1012701" transform="translate(6.621 87.003)">
            <line id="Línea_427" data-name="Línea 427" x2="9.585" fill="none" stroke="#263238" stroke-linecap="round" stroke-linejoin="round" stroke-width="3"/>
            <line id="Línea_428" data-name="Línea 428" x2="36.009" transform="translate(0 5.632)" fill="none" stroke="#c4c4c4" stroke-linecap="round" stroke-linejoin="round" stroke-width="3"/>
            <line id="Línea_429" data-name="Línea 429" x2="36.009" transform="translate(55.696 5.632)" fill="none" stroke="#263238" stroke-linecap="round" stroke-linejoin="round" stroke-width="3"/>
            <line id="Línea_430" data-name="Línea 430" x2="14.247" transform="translate(38.34 5.632)" fill="none" stroke="#263238" stroke-linecap="round" stroke-linejoin="round" stroke-width="3"/>
            <line id="Línea_431" data-name="Línea 431" x2="20.722" transform="translate(0 11.259)" fill="none" stroke="#263238" stroke-linecap="round" stroke-linejoin="round" stroke-width="3"/>
            <line id="Línea_432" data-name="Línea 432" x2="20.722" transform="translate(23.314 11.259)" fill="none" stroke="#263238" stroke-linecap="round" stroke-linejoin="round" stroke-width="3"/>
            <line id="Línea_433" data-name="Línea 433" x2="20.722" transform="translate(46.628 11.259)" fill="none" stroke="#c4c4c4" stroke-linecap="round" stroke-linejoin="round" stroke-width="3"/>
            <line id="Línea_434" data-name="Línea 434" x2="8.806" transform="translate(69.943 11.259)" fill="none" stroke="#263238" stroke-linecap="round" stroke-linejoin="round" stroke-width="3"/>
            <line id="Línea_435" data-name="Línea 435" x2="9.585" transform="translate(12.172)" fill="none" stroke="#263238" stroke-linecap="round" stroke-linejoin="round" stroke-width="3"/>
            <g id="Grupo_1012700" data-name="Grupo 1012700" transform="translate(24.349)">
              <line id="Línea_436" data-name="Línea 436" x2="9.585" transform="translate(44.815)" fill="none" stroke="#263238" stroke-linecap="round" stroke-linejoin="round" stroke-width="3"/>
              <line id="Línea_437" data-name="Línea 437" x2="9.585" transform="translate(32.12)" fill="none" stroke="#c4c4c4" stroke-linecap="round" stroke-linejoin="round" stroke-width="3"/>
              <line id="Línea_438" data-name="Línea 438" x2="27.976" fill="none" stroke="#263238" stroke-linecap="round" stroke-linejoin="round" stroke-width="3"/>
            </g>
          </g>
          <g id="Grupo_1012705" data-name="Grupo 1012705" transform="translate(15.682 19.141)">
            <g id="Grupo_1012702" data-name="Grupo 1012702">
              <line id="Línea_439" data-name="Línea 439" x2="9.585" transform="translate(44.821)" fill="none" stroke="#263238" stroke-linecap="round" stroke-linejoin="round" stroke-width="3"/>
              <line id="Línea_440" data-name="Línea 440" x2="9.585" transform="translate(32.126)" fill="none" stroke="#263238" stroke-linecap="round" stroke-linejoin="round" stroke-width="3"/>
              <line id="Línea_441" data-name="Línea 441" x2="27.982" fill="none" stroke="#263238" stroke-linecap="round" stroke-linejoin="round" stroke-width="3"/>
            </g>
            <g id="Grupo_1012703" data-name="Grupo 1012703" transform="translate(0 10.073)">
              <line id="Línea_442" data-name="Línea 442" x2="9.585" transform="translate(44.821)" fill="none" stroke="#263238" stroke-linecap="round" stroke-linejoin="round" stroke-width="3"/>
              <line id="Línea_443" data-name="Línea 443" x2="9.585" transform="translate(32.126)" fill="none" stroke="#263238" stroke-linecap="round" stroke-linejoin="round" stroke-width="3"/>
              <line id="Línea_444" data-name="Línea 444" x2="27.982" fill="none" stroke="#c4c4c4" stroke-linecap="round" stroke-linejoin="round" stroke-width="3"/>
            </g>
            <g id="Grupo_1012704" data-name="Grupo 1012704" transform="translate(0 5.039)">
              <line id="Línea_445" data-name="Línea 445" x1="9.585" fill="none" stroke="#263238" stroke-linecap="round" stroke-linejoin="round" stroke-width="3"/>
              <line id="Línea_446" data-name="Línea 446" x1="9.585" transform="translate(12.695)" fill="none" stroke="#263238" stroke-linecap="round" stroke-linejoin="round" stroke-width="3"/>
              <line id="Línea_447" data-name="Línea 447" x1="27.982" transform="translate(26.424)" fill="none" stroke="#c4c4c4" stroke-linecap="round" stroke-linejoin="round" stroke-width="3"/>
            </g>
          </g>
          <g id="Grupo_1012709" data-name="Grupo 1012709" transform="translate(15.682 54.406)">
            <g id="Grupo_1012706" data-name="Grupo 1012706">
              <line id="Línea_448" data-name="Línea 448" x2="9.585" transform="translate(44.821)" fill="none" stroke="#263238" stroke-linecap="round" stroke-linejoin="round" stroke-width="3"/>
              <line id="Línea_449" data-name="Línea 449" x2="9.585" transform="translate(32.126)" fill="none" stroke="#263238" stroke-linecap="round" stroke-linejoin="round" stroke-width="3"/>
              <line id="Línea_450" data-name="Línea 450" x2="27.982" fill="none" stroke="#263238" stroke-linecap="round" stroke-linejoin="round" stroke-width="3"/>
            </g>
            <g id="Grupo_1012707" data-name="Grupo 1012707" transform="translate(0 10.073)">
              <line id="Línea_451" data-name="Línea 451" x2="9.585" transform="translate(44.821)" fill="none" stroke="#263238" stroke-linecap="round" stroke-linejoin="round" stroke-width="3"/>
              <line id="Línea_452" data-name="Línea 452" x2="9.585" transform="translate(32.126)" fill="none" stroke="#263238" stroke-linecap="round" stroke-linejoin="round" stroke-width="3"/>
              <line id="Línea_453" data-name="Línea 453" x2="27.982" fill="none" stroke="#c4c4c4" stroke-linecap="round" stroke-linejoin="round" stroke-width="3"/>
            </g>
            <g id="Grupo_1012708" data-name="Grupo 1012708" transform="translate(0 5.039)">
              <line id="Línea_454" data-name="Línea 454" x1="9.585" fill="none" stroke="#263238" stroke-linecap="round" stroke-linejoin="round" stroke-width="3"/>
              <line id="Línea_455" data-name="Línea 455" x1="9.585" transform="translate(12.695)" fill="none" stroke="#263238" stroke-linecap="round" stroke-linejoin="round" stroke-width="3"/>
              <line id="Línea_456" data-name="Línea 456" x1="27.982" transform="translate(26.424)" fill="none" stroke="#c4c4c4" stroke-linecap="round" stroke-linejoin="round" stroke-width="3"/>
            </g>
          </g>
          <g id="Grupo_1012713" data-name="Grupo 1012713" transform="translate(15.682 70.408)">
            <g id="Grupo_1012710" data-name="Grupo 1012710">
              <line id="Línea_457" data-name="Línea 457" x1="9.585" fill="none" stroke="#263238" stroke-linecap="round" stroke-linejoin="round" stroke-width="3"/>
              <line id="Línea_458" data-name="Línea 458" x1="9.585" transform="translate(12.695)" fill="none" stroke="#263238" stroke-linecap="round" stroke-linejoin="round" stroke-width="3"/>
              <line id="Línea_459" data-name="Línea 459" x1="27.982" transform="translate(26.424)" fill="none" stroke="#c4c4c4" stroke-linecap="round" stroke-linejoin="round" stroke-width="3"/>
            </g>
            <g id="Grupo_1012711" data-name="Grupo 1012711" transform="translate(0 10.073)">
              <line id="Línea_460" data-name="Línea 460" x1="9.585" fill="none" stroke="#263238" stroke-linecap="round" stroke-linejoin="round" stroke-width="3"/>
              <line id="Línea_461" data-name="Línea 461" x1="9.585" transform="translate(12.695)" fill="none" stroke="#263238" stroke-linecap="round" stroke-linejoin="round" stroke-width="3"/>
              <line id="Línea_462" data-name="Línea 462" x1="27.982" transform="translate(26.424)" fill="none" stroke="#c4c4c4" stroke-linecap="round" stroke-linejoin="round" stroke-width="3"/>
            </g>
            <g id="Grupo_1012712" data-name="Grupo 1012712" transform="translate(0 5.039)">
              <line id="Línea_463" data-name="Línea 463" x2="9.585" transform="translate(44.821)" fill="none" stroke="#263238" stroke-linecap="round" stroke-linejoin="round" stroke-width="3"/>
              <line id="Línea_464" data-name="Línea 464" x2="9.585" transform="translate(32.126)" fill="none" stroke="#263238" stroke-linecap="round" stroke-linejoin="round" stroke-width="3"/>
              <line id="Línea_465" data-name="Línea 465" x2="27.982" fill="none" stroke="#c4c4c4" stroke-linecap="round" stroke-linejoin="round" stroke-width="3"/>
            </g>
          </g>
          <g id="Grupo_1012714" data-name="Grupo 1012714">
            <rect id="Rectángulo_347205" data-name="Rectángulo 347205" width="3.063" height="3.458" fill="#263238"/>
            <rect id="Rectángulo_347206" data-name="Rectángulo 347206" width="3.063" height="3.458" transform="translate(0 5.679)" fill="#263238"/>
            <rect id="Rectángulo_347207" data-name="Rectángulo 347207" width="3.063" height="3.458" transform="translate(0 11.358)" fill="#263238"/>
            <rect id="Rectángulo_347208" data-name="Rectángulo 347208" width="3.063" height="3.458" transform="translate(0 17.042)" fill="#263238"/>
            <rect id="Rectángulo_347209" data-name="Rectángulo 347209" width="3.063" height="3.458" transform="translate(0 22.721)" fill="#263238"/>
            <rect id="Rectángulo_347210" data-name="Rectángulo 347210" width="3.063" height="3.458" transform="translate(0 28.4)" fill="#263238"/>
            <rect id="Rectángulo_347211" data-name="Rectángulo 347211" width="3.063" height="3.458" transform="translate(0 34.079)" fill="#263238"/>
            <rect id="Rectángulo_347212" data-name="Rectángulo 347212" width="3.063" height="3.458" transform="translate(0 39.764)" fill="#263238"/>
            <rect id="Rectángulo_347213" data-name="Rectángulo 347213" width="3.063" height="3.458" transform="translate(0 45.443)" fill="#263238"/>
            <rect id="Rectángulo_347214" data-name="Rectángulo 347214" width="3.063" height="3.458" transform="translate(0 51.122)" fill="#263238"/>
            <rect id="Rectángulo_347215" data-name="Rectángulo 347215" width="3.063" height="3.458" transform="translate(0 56.8)" fill="#263238"/>
            <rect id="Rectángulo_347216" data-name="Rectángulo 347216" width="3.063" height="3.458" transform="translate(0 62.485)" fill="#263238"/>
            <rect id="Rectángulo_347217" data-name="Rectángulo 347217" width="3.063" height="3.458" transform="translate(0 68.164)" fill="#263238"/>
            <rect id="Rectángulo_347218" data-name="Rectángulo 347218" width="3.063" height="3.458" transform="translate(0 73.843)" fill="#263238"/>
            <rect id="Rectángulo_347219" data-name="Rectángulo 347219" width="3.063" height="3.458" transform="translate(0 79.522)" fill="#263238"/>
            <rect id="Rectángulo_347220" data-name="Rectángulo 347220" width="3.063" height="3.458" transform="translate(0 85.206)" fill="#263238"/>
            <rect id="Rectángulo_347221" data-name="Rectángulo 347221" width="3.063" height="3.458" transform="translate(0 90.885)" fill="#263238"/>
            <rect id="Rectángulo_347222" data-name="Rectángulo 347222" width="3.063" height="3.458" transform="translate(0 96.564)" fill="#263238"/>
          </g>
        </g>
      </g>
      <g id="Character_2" data-name="Character 2" transform="translate(112.531 39.392)">
        <g id="Grupo_1012723" data-name="Grupo 1012723">
          <g id="Grupo_1012716" data-name="Grupo 1012716" transform="translate(23.078 82.614)">
            <path id="Trazado_724571" data-name="Trazado 724571" d="M260.973,381.055s-2.472,1.2-5.973,3.2-5.621,2.624-5.248,3.625,3,1.25,7.5,1.374a31.792,31.792,0,0,0,8.121-1c.5,0,4.123.124,5.5-.373s.373-4.247.373-4.247-8.176-3.4-10.276-2.576Z" transform="translate(-249.709 -283.581)" fill="#fff" stroke="#263238" stroke-linecap="round" stroke-linejoin="round" stroke-width="1"/>
            <path id="Trazado_724572" data-name="Trazado 724572" d="M304.054,388.35s-2.555,5.338-3.46,6.547.3,1.8,2.4,2.555,5.414-1.05,7.969-2.258,3.011-6.768,3.011-6.768l-9.923-.076Z" transform="translate(-265.36 -285.876)" fill="#fff" stroke="#263238" stroke-linecap="round" stroke-linejoin="round" stroke-width="1"/>
            <path id="Trazado_724573" data-name="Trazado 724573" d="M307.023,243.592s3.156,6.892,2.983,13.791-7.071,34.853-6.726,38.3,3.453,6.208,3.108,14.488-2.59,27.084-2.59,27.084a15.213,15.213,0,0,1,.173,4.316,9.531,9.531,0,0,1-.863,2.072h-3.625c-2.072,0-6.036-.691-6.036-1.208a42.525,42.525,0,0,1,1.208-4.143l.173-3.971s-3.28-33.983-3.971-39.673-3.28-32.781-3.28-32.781-5.863,34.162-6.036,35.371.863,8.28-1.036,13.452-3.108,17.768-3.108,20.531-.691,10.006-.691,10.006a16.5,16.5,0,0,1-5.345-.863,39.763,39.763,0,0,1-3.8-2.417l-1.554-.518a20.019,20.019,0,0,1,.518-2.59,24.525,24.525,0,0,1,1.726-3.626l.518-23.113s-.345-12.769,0-14.833a25.139,25.139,0,0,0,.173-4.827c0-.684,0-26.4.863-31.918a126.344,126.344,0,0,0,1.1-12.658l33.741-3.9Z" transform="translate(-254.753 -239.96)" fill="#263238" stroke="#263238" stroke-linecap="round" stroke-linejoin="round" stroke-width="1"/>
          </g>
          <path id="Trazado_724574" data-name="Trazado 724574" d="M307.318,237.56l1.63,5.3s-11.035,7.348-21.622,7.886-13.984-2.016-14.8-2.693.311-4.924.311-4.924,11.809,1.222,17.92-.269,16.56-5.3,16.56-5.3Z" transform="translate(-233.6 -156.603)" fill="#0e7dd8" stroke="#263238" stroke-linecap="round" stroke-linejoin="round" stroke-width="1"/>
          <path id="Trazado_724575" data-name="Trazado 724575" d="M269.639,222.54l-5.366,5.78-1.443,1.547,7.016,1.961.725-9.081Z" transform="translate(-230.691 -151.955)" fill="#0e7dd8" stroke="#263238" stroke-linecap="round" stroke-linejoin="round" stroke-width="1"/>
          <g id="Grupo_1012717" data-name="Grupo 1012717" transform="translate(34.235 30.382)">
            <path id="Trazado_724576" data-name="Trazado 724576" d="M291.413,164.894s11.5,3.094,12.244,4.33-2.88,28.4-3.4,30.489,1.043,8.591,2.086,10.02,4.033,3,4.033,5.469-16.795,8.591-22.782,8.591-12.658-1-13.307-1.65-.1-2.9-.1-3.425.131-15.227.131-15.227a20.969,20.969,0,0,1-4.164-8.853,39.572,39.572,0,0,1,.283-10.939s-.987-8.777-.124-12.119,7.417-5.69,7.417-5.69,6.429-2.721,17.685-.988Z" transform="translate(-265.866 -164.324)" fill="#0e7dd8" stroke="#263238" stroke-linecap="round" stroke-linejoin="round" stroke-width="1"/>
            <path id="Trazado_724577" data-name="Trazado 724577" d="M287.2,217.19a19.435,19.435,0,0,1-4.164-2.9" transform="translate(-271.18 -179.785)" fill="none" stroke="#263238" stroke-linecap="round" stroke-linejoin="round" stroke-width="1"/>
            <path id="Trazado_724578" data-name="Trazado 724578" d="M292.785,219.768a5.941,5.941,0,0,1-1.485-.338" transform="translate(-273.736 -181.375)" fill="none" stroke="#263238" stroke-linecap="round" stroke-linejoin="round" stroke-width="1"/>
          </g>
          <g id="Grupo_1012718" data-name="Grupo 1012718" transform="translate(26.525)">
            <path id="Trazado_724579" data-name="Trazado 724579" d="M273.768,164.991s-1.257,3.6-.338,5.283,4.447,1.927,4.447,1.927a4.441,4.441,0,0,1,.421-2.852c.753-1.844,2.01-4.779,2.01-4.779Z" transform="translate(-260.391 -134.018)" fill="#263238" stroke="#263238" stroke-linecap="round" stroke-linejoin="round" stroke-width="1"/>
            <path id="Trazado_724580" data-name="Trazado 724580" d="M261.966,144.838s.166,2.852.67,3.522,1.927,0,2.182,1.844.338,4.944,1.008,5.2a7.545,7.545,0,0,0,2.514-.083,34.274,34.274,0,0,0,4.026,3.273c.925.421,1.174.5,1.844,0s2.431-1.844,2.431-1.844-1.34,3.86-.836,5.034,2.348,3.1,4.447,1.174,3.356-6.291,3.356-6.291l-5.531-15.683-15.179-3.6s-1.678,6.291-.925,7.465Z" transform="translate(-256.89 -125.604)" fill="#fff" stroke="#263238" stroke-linecap="round" stroke-linejoin="round" stroke-width="1"/>
            <path id="Trazado_724581" data-name="Trazado 724581" d="M275.12,138.3s2.686,11.823,3.356,16.27-.5,6.208-.5,6.208,6.705-.421,9.053-4.53,4.358-6.374,3.018-10.317-5.034-16.436-8.556-20.71-11.318-5.283-14.253-4.779-6.291,4.357-7.8,7.21-2.514,8.556-3.522,9.143-1.927,2.01-.421,2.431a18.974,18.974,0,0,0,4.275.338,21.542,21.542,0,0,1,.587-3.943c.421-1.257.753-2.01.753-2.01s.5,1.423,6.118,3.1,7.714.836,7.714.836l.166.753Z" transform="translate(-254.7 -120.328)" fill="#263238" stroke="#263238" stroke-linecap="round" stroke-linejoin="round" stroke-width="1"/>
            <path id="Trazado_724582" data-name="Trazado 724582" d="M263.99,139.56s5.283,7.21,14.426,5.621" transform="translate(-257.574 -126.279)" fill="none" stroke="#263238" stroke-linecap="round" stroke-linejoin="round" stroke-width="1"/>
            <path id="Trazado_724583" data-name="Trazado 724583" d="M267.27,151.083a2.827,2.827,0,0,1,3.356-1.174" transform="translate(-258.589 -129.418)" fill="none" stroke="#263238" stroke-linecap="round" stroke-linejoin="round" stroke-width="1"/>
            <path id="Trazado_724584" data-name="Trazado 724584" d="M276.366,159.11a2.3,2.3,0,0,1-.836,2.01" transform="translate(-261.145 -132.328)" fill="none" stroke="#263238" stroke-linecap="round" stroke-linejoin="round" stroke-width="1"/>
            <path id="Trazado_724585" data-name="Trazado 724585" d="M270.192,154.235c.207.566.635.932.96.808s.428-.67.221-1.236-.635-.932-.96-.808S269.985,153.669,270.192,154.235Z" transform="translate(-259.46 -130.43)" fill="#263238"/>
            <path id="Trazado_724586" data-name="Trazado 724586" d="M283.3,164.442l2.092-2.182-1.423,6.125Z" transform="translate(-263.549 -133.303)" fill="#263238" stroke="#263238" stroke-linecap="round" stroke-linejoin="round" stroke-width="1"/>
          </g>
          <path id="Trazado_724587" data-name="Trazado 724587" d="M258.315,242.882l20.192-9.392-30.489-4.04-15.648,6.567Z" transform="translate(-221.266 -154.094)" fill="#d1d1d1" stroke="#263238" stroke-linecap="round" stroke-linejoin="round" stroke-width="1"/>
          <path id="Trazado_724588" data-name="Trazado 724588" d="M260.293,241.9l14.84-6.9-22.409-2.969-11.5,4.82Z" transform="translate(-224.004 -154.892)" fill="#828282" stroke="#263238" stroke-linecap="round" stroke-linejoin="round" stroke-width="1"/>
          <path id="Trazado_724589" data-name="Trazado 724589" d="M253.339,237.049l-9.488-22.112L216.29,210.6l11.1,19.585Z" transform="translate(-216.29 -148.261)" fill="#b2b2b2" stroke="#263238" stroke-linecap="round" stroke-linejoin="round" stroke-width="1"/>
          <g id="Grupo_1012719" data-name="Grupo 1012719" transform="translate(18.73 81.063)">
            <path id="Trazado_724590" data-name="Trazado 724590" d="M252.869,240.972l2.32,3.128s-.808.912-1.512.608-2.224-4.344-.808-3.736Z" transform="translate(-246.158 -238.703)" fill="#fff" stroke="#263238" stroke-linecap="round" stroke-linejoin="round" stroke-width="1"/>
            <path id="Trazado_724591" data-name="Trazado 724591" d="M251.656,243.138a2.254,2.254,0,0,1-1.616-.1c-.608-.407-1.72-3.833-1.208-3.936s1.92,2.224,1.92,2.224l.912,1.816Z" transform="translate(-245.049 -238.141)" fill="#fff" stroke="#263238" stroke-linecap="round" stroke-linejoin="round" stroke-width="1"/>
            <path id="Trazado_724592" data-name="Trazado 724592" d="M249,242.607a13.666,13.666,0,0,1-2.928-1.112c-.4-.4-1.208-4.24-.4-3.736s1.92,3.329,1.92,3.329l1.416,1.512Z" transform="translate(-244.006 -237.714)" fill="#fff" stroke="#263238" stroke-linecap="round" stroke-linejoin="round" stroke-width="1"/>
            <path id="Trazado_724593" data-name="Trazado 724593" d="M245.483,241.7s-1.312.2-1.713-.5a3.022,3.022,0,0,1-.1-2.624c.4-.7,1.008.808,1.008.808Z" transform="translate(-243.413 -237.923)" fill="#fff" stroke="#263238" stroke-linecap="round" stroke-linejoin="round" stroke-width="1"/>
          </g>
          <g id="Grupo_1012722" data-name="Grupo 1012722" transform="translate(39.786 33.549)">
            <g id="Grupo_1012720" data-name="Grupo 1012720" transform="translate(19.825)">
              <path id="Trazado_724594" data-name="Trazado 724594" d="M308.1,168.91s7.051.5,8.411,1.485,10.476,28.134,11,31.642-.649,3.9-1.3,3.9-15.883,4.944-17.706,5.338-2.21.131-2.866-.394-3.777-4.3-2.866-6.505a4.155,4.155,0,0,1,2.472-2.6l9.9-3.646-7.783-13.887" transform="translate(-302.611 -168.91)" fill="#0e7dd8" stroke="#263238" stroke-linecap="round" stroke-linejoin="round" stroke-width="1"/>
              <path id="Trazado_724595" data-name="Trazado 724595" d="M325.418,212.763a9.082,9.082,0,0,0-4.668-1.533" transform="translate(-308.224 -182.005)" fill="none" stroke="#263238" stroke-linecap="round" stroke-linejoin="round" stroke-width="1"/>
              <path id="Trazado_724596" data-name="Trazado 724596" d="M325.46,210.37a11.218,11.218,0,0,1,4.254,2.555" transform="translate(-309.681 -181.739)" fill="none" stroke="#263238" stroke-linecap="round" stroke-linejoin="round" stroke-width="1"/>
            </g>
            <path id="Trazado_724597" data-name="Trazado 724597" d="M295.069,222.13a38.026,38.026,0,0,0,5.076-1.954c.649-.518,2.086-.131,2.866,1.692s0,4.813,0,4.813l-5.207,1.3s-1.3.262-2.6-1.954-1.561-3.777-.131-3.9Z" transform="translate(-280.154 -184.708)" fill="#0e7dd8" stroke="#263238" stroke-linecap="round" stroke-linejoin="round" stroke-width="1"/>
            <g id="Grupo_1012721" data-name="Grupo 1012721" transform="translate(0 38.098)">
              <path id="Trazado_724598" data-name="Trazado 724598" d="M277.547,228.1s-2.576,1.063-2.728,1.74a29.575,29.575,0,0,0-.912,4.164c.076.608,0,.912.684.76s1.512-1.74,2.12-3.26,1.36-3.487,1.36-3.487l-.532.076Z" transform="translate(-273.903 -225.299)" fill="#fff" stroke="#263238" stroke-linecap="round" stroke-linejoin="round" stroke-width="1"/>
              <path id="Trazado_724599" data-name="Trazado 724599" d="M288.985,224.232s2.5,1.74,2.576,2.8-2.652,2.8-4.392,3.411a15.634,15.634,0,0,1-4.468.608c-.3,0-4.62,2.88-5.683,3.335s-1.36-.228-1.36-.228-.836-.152-.76-.608a5.411,5.411,0,0,1,.684-1.36s.38-1.512.836-3.259,2.8-2.956,3.639-3.108,6.816-2.348,8.943-1.588Z" transform="translate(-274.209 -224.079)" fill="#fff" stroke="#263238" stroke-linecap="round" stroke-linejoin="round" stroke-width="1"/>
              <path id="Trazado_724600" data-name="Trazado 724600" d="M281.977,231.76a16.226,16.226,0,0,0-2.424,1.139c-.3.3-3.563,3.639-3.563,3.639" transform="translate(-274.549 -226.456)" fill="none" stroke="#263238" stroke-linecap="round" stroke-linejoin="round" stroke-width="1"/>
              <line id="Línea_466" data-name="Línea 466" x1="4.24" y2="4.544" transform="translate(1.372 3.564)" fill="none" stroke="#263238" stroke-linecap="round" stroke-linejoin="round" stroke-width="1"/>
            </g>
          </g>
        </g>
      </g>
    </g>
  </g>
</svg>
