<svg xmlns="http://www.w3.org/2000/svg" width="309" height="82.913" viewBox="0 0 309 82.913">
  <g id="Grupo_1013579" data-name="Grupo 1013579" transform="translate(-997.137 -736.479)">
    <g id="Flat" transform="translate(997.137 736.479)">
      <g id="Color">
        <path id="Trazado_726355" data-name="Trazado 726355" d="M38.92,74.621c-.167,2.523-.9,5.317-4.2,6.415C22.512,85.108,12.379,92.388,10.843,104.72a2.849,2.849,0,0,0,2.812,3.23h64.8a2.849,2.849,0,0,0,2.811-3.232C79.733,92.386,69.6,85.105,57.389,81.035c-3.294-1.1-4.029-3.892-4.2-6.415V73.509a1.988,1.988,0,0,0-2-1.988l-10.3.073a1.988,1.988,0,0,0-1.974,1.993Z" transform="translate(-4.557 -25.124)" fill="#221b6b"/>
        <path id="Trazado_726356" data-name="Trazado 726356" d="M42.488,26.75A1.988,1.988,0,0,0,40.5,28.738v15.82a15.571,15.571,0,0,0,31.143,0V28.738a1.988,1.988,0,0,0-1.988-1.988Z" transform="translate(-14.571 -10.019)" fill="#ffccbc"/>
        <path id="Trazado_726357" data-name="Trazado 726357" d="M87.392,40.525v8.68a15.7,15.7,0,0,1-.213,2.561,5.626,5.626,0,0,0,.213-11.241Z" transform="translate(-30.32 -14.667)" fill="#ffab91"/>
        <path id="Trazado_726358" data-name="Trazado 726358" d="M37.805,40.525v8.68a15.7,15.7,0,0,0,.213,2.561,5.626,5.626,0,0,1-.213-11.241Z" transform="translate(-11.877 -14.667)" fill="#ffab91"/>
        <path id="Trazado_726359" data-name="Trazado 726359" d="M53.372,1.5A20.872,20.872,0,0,0,32.5,22.372v10.6a5.67,5.67,0,0,1,5.3-5.632c6.251,0,11.486-2.4,13.989-5.891a1.961,1.961,0,0,1,3.165,0c2.5,3.493,7.738,5.891,13.989,5.891a5.67,5.67,0,0,1,5.3,5.632v-10.6A20.872,20.872,0,0,0,53.372,1.5Z" transform="translate(-11.872 -1.5)" fill="#37474f"/>
        <path id="Trazado_726360" data-name="Trazado 726360" d="M10.78,73.827l7.83,27.291h54.7l7.83-27.291A6.018,6.018,0,0,0,75.628,66H16.29A6.02,6.02,0,0,0,10.78,73.827Z" transform="translate(-4.459 -23.262)" fill="#455a64"/>
        <rect id="Rect치ngulo_348561" data-name="Rect치ngulo 348561" width="83" height="6" rx="3" transform="translate(0 76.913)" fill="#231989"/>
        <g id="Grupo_1013563" data-name="Grupo 1013563" transform="translate(25.227 53.999)">
          <path id="Trazado_726361" data-name="Trazado 726361" d="M44.141,90.951l3.673-4.6a2.061,2.061,0,1,0-3.223-2.571l-4.7,5.891a2.054,2.054,0,0,0,0,2.57l4.7,5.891a2.062,2.062,0,0,0,3.223-2.572Z" transform="translate(-39.44 -82.997)" fill="#fff"/>
          <path id="Trazado_726362" data-name="Trazado 726362" d="M83.6,89.659l-4.712-5.89a2.062,2.062,0,1,0-3.222,2.575l3.684,4.605-3.684,4.6a2.061,2.061,0,1,0,3.219,2.576L83.6,92.234A2.05,2.05,0,0,0,83.6,89.659Z" transform="translate(-51.511 -82.995)" fill="#fff"/>
          <path id="Trazado_726363" data-name="Trazado 726363" d="M61.615,84.6l-2.7,11.779a2.076,2.076,0,0,0,2.01,2.525,2.05,2.05,0,0,0,2.008-1.6l2.7-11.783a2.061,2.061,0,1,0-4.019-.919Z" transform="translate(-45.995 -82.995)" fill="#fff"/>
        </g>
        <path id="Trazado_726364" data-name="Trazado 726364" d="M65.744,43.5a3.3,3.3,0,0,0-2.618,1.3,16.366,16.366,0,0,0-8.676,0,3.3,3.3,0,1,0,.692,2.009c0-.046-.012-.089-.014-.133a14.172,14.172,0,0,1,7.317,0c0,.047-.014.091-.014.139A3.313,3.313,0,1,0,65.744,43.5Z" transform="translate(-17.286 -15.67)" fill="#64b2ff"/>
      </g>
    </g>
    <g id="Flat-2" data-name="Flat" transform="translate(1158.137 736.479)">
      <g id="Color-2" data-name="Color">
        <path id="Trazado_726355-2" data-name="Trazado 726355" d="M38.92,74.621c-.167,2.523-.9,5.317-4.2,6.415C22.512,85.108,12.379,92.388,10.843,104.72a2.849,2.849,0,0,0,2.812,3.23h64.8a2.849,2.849,0,0,0,2.811-3.232C79.733,92.386,69.6,85.105,57.389,81.035c-3.294-1.1-4.029-3.892-4.2-6.415V73.509a1.988,1.988,0,0,0-2-1.988l-10.3.073a1.988,1.988,0,0,0-1.974,1.993Z" transform="translate(-4.557 -25.124)" fill="#0174d2"/>
        <path id="Trazado_726356-2" data-name="Trazado 726356" d="M42.488,26.75A1.988,1.988,0,0,0,40.5,28.738v15.82a15.571,15.571,0,0,0,31.143,0V28.738a1.988,1.988,0,0,0-1.988-1.988Z" transform="translate(-14.571 -10.019)" fill="#ffccbc"/>
        <path id="Trazado_726357-2" data-name="Trazado 726357" d="M87.392,40.525v8.68a15.7,15.7,0,0,1-.213,2.561,5.626,5.626,0,0,0,.213-11.241Z" transform="translate(-30.32 -14.667)" fill="#ffab91"/>
        <path id="Trazado_726358-2" data-name="Trazado 726358" d="M37.805,40.525v8.68a15.7,15.7,0,0,0,.213,2.561,5.626,5.626,0,0,1-.213-11.241Z" transform="translate(-11.877 -14.667)" fill="#ffab91"/>
        <path id="Trazado_726359-2" data-name="Trazado 726359" d="M53.372,1.5A20.872,20.872,0,0,0,32.5,22.372v10.6a5.67,5.67,0,0,1,5.3-5.632c6.251,0,11.486-2.4,13.989-5.891a1.961,1.961,0,0,1,3.165,0c2.5,3.493,7.738,5.891,13.989,5.891a5.67,5.67,0,0,1,5.3,5.632v-10.6A20.872,20.872,0,0,0,53.372,1.5Z" transform="translate(-11.872 -1.5)" fill="#37474f"/>
        <path id="Trazado_726360-2" data-name="Trazado 726360" d="M10.78,73.827l7.83,27.291h54.7l7.83-27.291A6.018,6.018,0,0,0,75.628,66H16.29A6.02,6.02,0,0,0,10.78,73.827Z" transform="translate(-4.459 -23.262)" fill="#1f6e93"/>
        <rect id="Rect치ngulo_348561-2" data-name="Rect치ngulo 348561" width="83" height="6" rx="3" transform="translate(0 76.913)" fill="#64b2ff"/>
        <g id="Grupo_1013563-2" data-name="Grupo 1013563" transform="translate(25.227 53.999)">
          <path id="Trazado_726361-2" data-name="Trazado 726361" d="M44.141,90.951l3.673-4.6a2.061,2.061,0,1,0-3.223-2.571l-4.7,5.891a2.054,2.054,0,0,0,0,2.57l4.7,5.891a2.062,2.062,0,0,0,3.223-2.572Z" transform="translate(-39.44 -82.997)" fill="#fff"/>
          <path id="Trazado_726362-2" data-name="Trazado 726362" d="M83.6,89.659l-4.712-5.89a2.062,2.062,0,1,0-3.222,2.575l3.684,4.605-3.684,4.6a2.061,2.061,0,1,0,3.219,2.576L83.6,92.234A2.05,2.05,0,0,0,83.6,89.659Z" transform="translate(-51.511 -82.995)" fill="#fff"/>
          <path id="Trazado_726363-2" data-name="Trazado 726363" d="M61.615,84.6l-2.7,11.779a2.076,2.076,0,0,0,2.01,2.525,2.05,2.05,0,0,0,2.008-1.6l2.7-11.783a2.061,2.061,0,1,0-4.019-.919Z" transform="translate(-45.995 -82.995)" fill="#fff"/>
        </g>
        <path id="Trazado_726364-2" data-name="Trazado 726364" d="M65.744,43.5a3.3,3.3,0,0,0-2.618,1.3,16.366,16.366,0,0,0-8.676,0,3.3,3.3,0,1,0,.692,2.009c0-.046-.012-.089-.014-.133a14.172,14.172,0,0,1,7.317,0c0,.047-.014.091-.014.139A3.313,3.313,0,1,0,65.744,43.5Z" transform="translate(-17.286 -15.67)" fill="#474094"/>
      </g>
    </g>
    <text id="App_2" data-name="App 2" transform="translate(1248.137 767.479)" fill="#112e4c" font-size="16" font-family="Roboto-Bold, Roboto" font-weight="700"><tspan x="0" y="17">App 2</tspan></text>
    <text id="App_1_" data-name="App 1        " transform="translate(1085.137 767.479)" fill="#112e4c" font-size="16" font-family="Roboto-Bold, Roboto" font-weight="700"><tspan x="0" y="17" xml:space="preserve">App 1        </tspan></text>
  </g>
</svg>
