<svg xmlns="http://www.w3.org/2000/svg" width="319.5" height="93.168" viewBox="0 0 319.5 93.168">
  <g id="Grupo_1021307" data-name="Grupo 1021307" transform="translate(-1852.5 10824.012)">
    <g id="Color" transform="translate(1852.5 -10820.637)">
      <path id="Trazado_726355" data-name="Trazado 726355" d="M38.92,74.621c-.167,2.523-.9,5.317-4.2,6.415C22.512,85.108,12.379,92.388,10.843,104.72a2.849,2.849,0,0,0,2.812,3.23h64.8a2.849,2.849,0,0,0,2.811-3.232C79.733,92.386,69.6,85.105,57.389,81.035c-3.294-1.1-4.029-3.892-4.2-6.415V73.509a1.988,1.988,0,0,0-2-1.988l-10.3.073a1.988,1.988,0,0,0-1.974,1.993Z" transform="translate(-4.557 -25.124)" fill="#221b6b"/>
      <path id="Trazado_726356" data-name="Trazado 726356" d="M42.488,26.75A1.988,1.988,0,0,0,40.5,28.738v15.82a15.571,15.571,0,0,0,31.143,0V28.738a1.988,1.988,0,0,0-1.988-1.988Z" transform="translate(-14.571 -10.019)" fill="#ffccbc"/>
      <path id="Trazado_726357" data-name="Trazado 726357" d="M87.392,40.525v8.68a15.7,15.7,0,0,1-.213,2.561,5.626,5.626,0,0,0,.213-11.241Z" transform="translate(-30.32 -14.667)" fill="#ffab91"/>
      <path id="Trazado_726358" data-name="Trazado 726358" d="M37.805,40.525v8.68a15.7,15.7,0,0,0,.213,2.561,5.626,5.626,0,0,1-.213-11.241Z" transform="translate(-11.877 -14.667)" fill="#ffab91"/>
      <path id="Trazado_726359" data-name="Trazado 726359" d="M53.372,1.5A20.872,20.872,0,0,0,32.5,22.372v10.6a5.67,5.67,0,0,1,5.3-5.632c6.251,0,11.486-2.4,13.989-5.891a1.961,1.961,0,0,1,3.165,0c2.5,3.493,7.738,5.891,13.989,5.891a5.67,5.67,0,0,1,5.3,5.632v-10.6A20.872,20.872,0,0,0,53.372,1.5Z" transform="translate(-11.872 -1.5)" fill="#37474f"/>
      <path id="Trazado_726360" data-name="Trazado 726360" d="M10.78,73.827l7.83,27.291h54.7l7.83-27.291A6.018,6.018,0,0,0,75.628,66H16.29A6.02,6.02,0,0,0,10.78,73.827Z" transform="translate(-4.459 -23.262)" fill="#455a64"/>
      <rect id="Rect치ngulo_348561" data-name="Rect치ngulo 348561" width="83" height="6" rx="3" transform="translate(0 76.913)" fill="#231989"/>
      <g id="Grupo_1013563" data-name="Grupo 1013563" transform="translate(25.227 53.999)">
        <path id="Trazado_726361" data-name="Trazado 726361" d="M44.141,90.951l3.673-4.6a2.061,2.061,0,1,0-3.223-2.571l-4.7,5.891a2.054,2.054,0,0,0,0,2.57l4.7,5.891a2.062,2.062,0,0,0,3.223-2.572Z" transform="translate(-39.44 -82.997)" fill="#fff"/>
        <path id="Trazado_726362" data-name="Trazado 726362" d="M83.6,89.659l-4.712-5.89a2.062,2.062,0,1,0-3.222,2.575l3.684,4.605-3.684,4.6a2.061,2.061,0,1,0,3.219,2.576L83.6,92.234A2.05,2.05,0,0,0,83.6,89.659Z" transform="translate(-51.511 -82.995)" fill="#fff"/>
        <path id="Trazado_726363" data-name="Trazado 726363" d="M61.615,84.6l-2.7,11.779a2.076,2.076,0,0,0,2.01,2.525,2.05,2.05,0,0,0,2.008-1.6l2.7-11.783a2.061,2.061,0,1,0-4.019-.919Z" transform="translate(-45.995 -82.995)" fill="#fff"/>
      </g>
      <path id="Trazado_726364" data-name="Trazado 726364" d="M65.744,43.5a3.3,3.3,0,0,0-2.618,1.3,16.366,16.366,0,0,0-8.676,0,3.3,3.3,0,1,0,.692,2.009c0-.046-.012-.089-.014-.133a14.172,14.172,0,0,1,7.317,0c0,.047-.014.091-.014.139A3.313,3.313,0,1,0,65.744,43.5Z" transform="translate(-17.286 -15.67)" fill="#64b2ff"/>
    </g>
    <g id="Color-2" data-name="Color" transform="translate(2016.137 -10820.619)">
      <path id="Trazado_726355-2" data-name="Trazado 726355" d="M38.92,74.621c-.167,2.523-.9,5.317-4.2,6.415C22.512,85.108,12.379,92.388,10.843,104.72a2.849,2.849,0,0,0,2.812,3.23h64.8a2.849,2.849,0,0,0,2.811-3.232C79.733,92.386,69.6,85.105,57.389,81.035c-3.294-1.1-4.029-3.892-4.2-6.415V73.509a1.988,1.988,0,0,0-2-1.988l-10.3.073a1.988,1.988,0,0,0-1.974,1.993Z" transform="translate(-4.557 -25.124)" fill="#0174d2"/>
      <path id="Trazado_726356-2" data-name="Trazado 726356" d="M42.488,26.75A1.988,1.988,0,0,0,40.5,28.738v15.82a15.571,15.571,0,0,0,31.143,0V28.738a1.988,1.988,0,0,0-1.988-1.988Z" transform="translate(-14.571 -10.019)" fill="#ffccbc"/>
      <path id="Trazado_726357-2" data-name="Trazado 726357" d="M87.392,40.525v8.68a15.7,15.7,0,0,1-.213,2.561,5.626,5.626,0,0,0,.213-11.241Z" transform="translate(-30.32 -14.667)" fill="#ffab91"/>
      <path id="Trazado_726358-2" data-name="Trazado 726358" d="M37.805,40.525v8.68a15.7,15.7,0,0,0,.213,2.561,5.626,5.626,0,0,1-.213-11.241Z" transform="translate(-11.877 -14.667)" fill="#ffab91"/>
      <path id="Trazado_726359-2" data-name="Trazado 726359" d="M53.372,1.5A20.872,20.872,0,0,0,32.5,22.372v10.6a5.67,5.67,0,0,1,5.3-5.632c6.251,0,11.486-2.4,13.989-5.891a1.961,1.961,0,0,1,3.165,0c2.5,3.493,7.738,5.891,13.989,5.891a5.67,5.67,0,0,1,5.3,5.632v-10.6A20.872,20.872,0,0,0,53.372,1.5Z" transform="translate(-11.872 -1.5)" fill="#37474f"/>
      <path id="Trazado_726360-2" data-name="Trazado 726360" d="M10.78,73.827l7.83,27.291h54.7l7.83-27.291A6.018,6.018,0,0,0,75.628,66H16.29A6.02,6.02,0,0,0,10.78,73.827Z" transform="translate(-4.459 -23.262)" fill="#1f6e93"/>
      <rect id="Rect치ngulo_348561-2" data-name="Rect치ngulo 348561" width="83" height="6" rx="3" transform="translate(0 76.913)" fill="#64b2ff"/>
      <g id="Grupo_1013563-2" data-name="Grupo 1013563" transform="translate(25.227 53.999)">
        <path id="Trazado_726361-2" data-name="Trazado 726361" d="M44.141,90.951l3.673-4.6a2.061,2.061,0,1,0-3.223-2.571l-4.7,5.891a2.054,2.054,0,0,0,0,2.57l4.7,5.891a2.062,2.062,0,0,0,3.223-2.572Z" transform="translate(-39.44 -82.997)" fill="#fff"/>
        <path id="Trazado_726362-2" data-name="Trazado 726362" d="M83.6,89.659l-4.712-5.89a2.062,2.062,0,1,0-3.222,2.575l3.684,4.605-3.684,4.6a2.061,2.061,0,1,0,3.219,2.576L83.6,92.234A2.05,2.05,0,0,0,83.6,89.659Z" transform="translate(-51.511 -82.995)" fill="#fff"/>
        <path id="Trazado_726363-2" data-name="Trazado 726363" d="M61.615,84.6l-2.7,11.779a2.076,2.076,0,0,0,2.01,2.525,2.05,2.05,0,0,0,2.008-1.6l2.7-11.783a2.061,2.061,0,1,0-4.019-.919Z" transform="translate(-45.995 -82.995)" fill="#fff"/>
      </g>
      <path id="Trazado_726364-2" data-name="Trazado 726364" d="M65.744,43.5a3.3,3.3,0,0,0-2.618,1.3,16.366,16.366,0,0,0-8.676,0,3.3,3.3,0,1,0,.692,2.009c0-.046-.012-.089-.014-.133a14.172,14.172,0,0,1,7.317,0c0,.047-.014.091-.014.139A3.313,3.313,0,1,0,65.744,43.5Z" transform="translate(-17.286 -15.67)" fill="#474094"/>
    </g>
    <path id="Trazado_736691" data-name="Trazado 736691" d="M2.828,13.773H8.219V15H1.32V3.625H2.828ZM11.273,15H9.828V6.547h1.445ZM9.711,4.3a.863.863,0,0,1,.215-.594.807.807,0,0,1,.637-.242.819.819,0,0,1,.641.242.854.854,0,0,1,.219.594.826.826,0,0,1-.219.586.834.834,0,0,1-.641.234.821.821,0,0,1-.637-.234A.834.834,0,0,1,9.711,4.3Zm11.031,6.563a5.026,5.026,0,0,1-.891,3.113,2.846,2.846,0,0,1-2.391,1.176,2.947,2.947,0,0,1-2.477-1.133l-.07.977H13.586V3h1.445V7.477a2.93,2.93,0,0,1,2.414-1.086,2.863,2.863,0,0,1,2.418,1.164,5.177,5.177,0,0,1,.879,3.188ZM19.3,10.7a3.906,3.906,0,0,0-.57-2.281,1.888,1.888,0,0,0-1.641-.8,2.122,2.122,0,0,0-2.055,1.328V12.6A2.181,2.181,0,0,0,17.1,13.93a1.878,1.878,0,0,0,1.617-.8A4.153,4.153,0,0,0,19.3,10.7Zm7.352-2.859a4.331,4.331,0,0,0-.711-.055A1.9,1.9,0,0,0,24.008,9v6H22.563V6.547h1.406l.023.977a2.251,2.251,0,0,1,2.016-1.133,1.477,1.477,0,0,1,.641.109Zm4.688,7.313a3.693,3.693,0,0,1-2.8-1.129,4.19,4.19,0,0,1-1.078-3.02v-.266a5.073,5.073,0,0,1,.48-2.246,3.748,3.748,0,0,1,1.344-1.547,3.378,3.378,0,0,1,1.871-.559,3.166,3.166,0,0,1,2.563,1.086,4.7,4.7,0,0,1,.914,3.109v.6H28.906a3,3,0,0,0,.73,2.02,2.3,2.3,0,0,0,1.777.77,2.517,2.517,0,0,0,1.3-.312,3.259,3.259,0,0,0,.93-.828l.883.688A3.55,3.55,0,0,1,31.336,15.156Zm-.18-7.578a1.928,1.928,0,0,0-1.469.637A3.1,3.1,0,0,0,28.953,10h4.234V9.891a2.753,2.753,0,0,0-.594-1.707A1.815,1.815,0,0,0,31.156,7.578Zm9.234.266a4.331,4.331,0,0,0-.711-.055A1.9,1.9,0,0,0,37.75,9v6H36.3V6.547h1.406l.023.977A2.251,2.251,0,0,1,39.75,6.391a1.477,1.477,0,0,1,.641.109ZM43.289,15H41.836V6.547h1.453ZM43.3,3.023h1.75l-2.094,2.3-1.164,0ZM50.891,15a3.036,3.036,0,0,1-.2-.891,3.225,3.225,0,0,1-2.406,1.047,2.984,2.984,0,0,1-2.051-.707,2.287,2.287,0,0,1-.8-1.793,2.39,2.39,0,0,1,1-2.051,4.733,4.733,0,0,1,2.824-.73h1.406V9.211A1.623,1.623,0,0,0,50.211,8a1.821,1.821,0,0,0-1.336-.449,2.107,2.107,0,0,0-1.3.391,1.151,1.151,0,0,0-.523.945H45.6a2,2,0,0,1,.449-1.223,3.066,3.066,0,0,1,1.219-.934,4.1,4.1,0,0,1,1.691-.344,3.342,3.342,0,0,1,2.289.73,2.635,2.635,0,0,1,.859,2.012v3.891a4.757,4.757,0,0,0,.3,1.852V15Zm-2.4-1.1a2.54,2.54,0,0,0,1.289-.352,2.127,2.127,0,0,0,.883-.914V10.9H49.531q-2.656,0-2.656,1.555a1.316,1.316,0,0,0,.453,1.063A1.742,1.742,0,0,0,48.492,13.9Zm10.8-1.141a1.064,1.064,0,0,0-.441-.91,4.249,4.249,0,0,0-1.539-.559,7.277,7.277,0,0,1-1.742-.562,2.479,2.479,0,0,1-.953-.781,1.869,1.869,0,0,1-.309-1.078,2.193,2.193,0,0,1,.879-1.758,3.432,3.432,0,0,1,2.246-.719,3.532,3.532,0,0,1,2.332.742,2.357,2.357,0,0,1,.895,1.9H59.211a1.3,1.3,0,0,0-.5-1.023,1.888,1.888,0,0,0-1.27-.43,1.976,1.976,0,0,0-1.234.344,1.082,1.082,0,0,0-.445.9.877.877,0,0,0,.414.789,5.1,5.1,0,0,0,1.5.508,7.8,7.8,0,0,1,1.754.578,2.558,2.558,0,0,1,1,.809,1.988,1.988,0,0,1,.324,1.152,2.163,2.163,0,0,1-.906,1.816,3.8,3.8,0,0,1-2.352.684,4.257,4.257,0,0,1-1.8-.359,2.922,2.922,0,0,1-1.223-1,2.42,2.42,0,0,1-.441-1.395h1.445a1.5,1.5,0,0,0,.582,1.152,2.258,2.258,0,0,0,1.434.426,2.331,2.331,0,0,0,1.316-.332A1.02,1.02,0,0,0,59.3,12.758Zm3.281,1.484a.905.905,0,0,1,.223-.625.848.848,0,0,1,.668-.25.874.874,0,0,1,.676.25.887.887,0,0,1,.23.625.839.839,0,0,1-.23.6.89.89,0,0,1-.676.242.8.8,0,0,1-.891-.844Zm.008-6.9a.905.905,0,0,1,.223-.625.848.848,0,0,1,.668-.25.874.874,0,0,1,.676.25.887.887,0,0,1,.23.625.839.839,0,0,1-.23.6.89.89,0,0,1-.676.242.8.8,0,0,1-.891-.844Z" transform="translate(1938.5 -10805.844)" fill="#112e4c"/>
    <path id="Trazado_736693" data-name="Trazado 736693" d="M8.152,12.656H4.043L3.262,15H.77L5,3.625H7.176L11.434,15H8.941Zm-3.477-1.9H7.52L6.09,6.5Zm14.906.094A5.07,5.07,0,0,1,18.7,13.98,2.843,2.843,0,0,1,16.3,15.156a2.633,2.633,0,0,1-2.07-.891V18.25H11.973V6.547h2.094l.078.828a2.654,2.654,0,0,1,2.141-.984,2.862,2.862,0,0,1,2.43,1.156,5.207,5.207,0,0,1,.867,3.188Zm-2.258-.172a3.345,3.345,0,0,0-.418-1.826,1.36,1.36,0,0,0-1.215-.643,1.478,1.478,0,0,0-1.461.815V12.5a1.5,1.5,0,0,0,1.477.839Q17.324,13.336,17.324,10.679Zm11.266.172A5.07,5.07,0,0,1,27.7,13.98a2.843,2.843,0,0,1-2.395,1.176,2.633,2.633,0,0,1-2.07-.891V18.25H20.98V6.547h2.094l.078.828a2.654,2.654,0,0,1,2.141-.984,2.862,2.862,0,0,1,2.43,1.156,5.207,5.207,0,0,1,.867,3.188Zm-2.258-.172a3.345,3.345,0,0,0-.418-1.826A1.36,1.36,0,0,0,24.7,8.211a1.478,1.478,0,0,0-1.461.815V12.5a1.5,1.5,0,0,0,1.477.839Q26.332,13.336,26.332,10.679ZM39.363,15H37.105V6.285l-2.7.832V5.3l4.711-1.687h.242Z" transform="translate(1938.5 -10827.48)" fill="#112e4c"/>
    <path id="Trazado_736692" data-name="Trazado 736692" d="M2.828,13.773H8.219V15H1.32V3.625H2.828ZM11.273,15H9.828V6.547h1.445ZM9.711,4.3a.863.863,0,0,1,.215-.594.807.807,0,0,1,.637-.242.819.819,0,0,1,.641.242.854.854,0,0,1,.219.594.826.826,0,0,1-.219.586.834.834,0,0,1-.641.234.821.821,0,0,1-.637-.234A.834.834,0,0,1,9.711,4.3Zm11.031,6.563a5.026,5.026,0,0,1-.891,3.113,2.846,2.846,0,0,1-2.391,1.176,2.947,2.947,0,0,1-2.477-1.133l-.07.977H13.586V3h1.445V7.477a2.93,2.93,0,0,1,2.414-1.086,2.863,2.863,0,0,1,2.418,1.164,5.177,5.177,0,0,1,.879,3.188ZM19.3,10.7a3.906,3.906,0,0,0-.57-2.281,1.888,1.888,0,0,0-1.641-.8,2.122,2.122,0,0,0-2.055,1.328V12.6A2.181,2.181,0,0,0,17.1,13.93a1.878,1.878,0,0,0,1.617-.8A4.153,4.153,0,0,0,19.3,10.7Zm7.352-2.859a4.331,4.331,0,0,0-.711-.055A1.9,1.9,0,0,0,24.008,9v6H22.563V6.547h1.406l.023.977a2.251,2.251,0,0,1,2.016-1.133,1.477,1.477,0,0,1,.641.109Zm4.688,7.313a3.693,3.693,0,0,1-2.8-1.129,4.19,4.19,0,0,1-1.078-3.02v-.266a5.073,5.073,0,0,1,.48-2.246,3.748,3.748,0,0,1,1.344-1.547,3.378,3.378,0,0,1,1.871-.559,3.166,3.166,0,0,1,2.563,1.086,4.7,4.7,0,0,1,.914,3.109v.6H28.906a3,3,0,0,0,.73,2.02,2.3,2.3,0,0,0,1.777.77,2.517,2.517,0,0,0,1.3-.312,3.259,3.259,0,0,0,.93-.828l.883.688A3.55,3.55,0,0,1,31.336,15.156Zm-.18-7.578a1.928,1.928,0,0,0-1.469.637A3.1,3.1,0,0,0,28.953,10h4.234V9.891a2.753,2.753,0,0,0-.594-1.707A1.815,1.815,0,0,0,31.156,7.578Zm9.234.266a4.331,4.331,0,0,0-.711-.055A1.9,1.9,0,0,0,37.75,9v6H36.3V6.547h1.406l.023.977A2.251,2.251,0,0,1,39.75,6.391a1.477,1.477,0,0,1,.641.109ZM43.289,15H41.836V6.547h1.453ZM43.3,3.023h1.75l-2.094,2.3-1.164,0ZM50.891,15a3.036,3.036,0,0,1-.2-.891,3.225,3.225,0,0,1-2.406,1.047,2.984,2.984,0,0,1-2.051-.707,2.287,2.287,0,0,1-.8-1.793,2.39,2.39,0,0,1,1-2.051,4.733,4.733,0,0,1,2.824-.73h1.406V9.211A1.623,1.623,0,0,0,50.211,8a1.821,1.821,0,0,0-1.336-.449,2.107,2.107,0,0,0-1.3.391,1.151,1.151,0,0,0-.523.945H45.6a2,2,0,0,1,.449-1.223,3.066,3.066,0,0,1,1.219-.934,4.1,4.1,0,0,1,1.691-.344,3.342,3.342,0,0,1,2.289.73,2.635,2.635,0,0,1,.859,2.012v3.891a4.757,4.757,0,0,0,.3,1.852V15Zm-2.4-1.1a2.54,2.54,0,0,0,1.289-.352,2.127,2.127,0,0,0,.883-.914V10.9H49.531q-2.656,0-2.656,1.555a1.316,1.316,0,0,0,.453,1.063A1.742,1.742,0,0,0,48.492,13.9Zm5.836.344a.905.905,0,0,1,.223-.625.848.848,0,0,1,.668-.25.874.874,0,0,1,.676.25.887.887,0,0,1,.23.625.839.839,0,0,1-.23.6.89.89,0,0,1-.676.242.8.8,0,0,1-.891-.844Zm.008-6.9a.905.905,0,0,1,.223-.625.848.848,0,0,1,.668-.25.874.874,0,0,1,.676.25.887.887,0,0,1,.23.625.839.839,0,0,1-.23.6.89.89,0,0,1-.676.242.8.8,0,0,1-.891-.844Z" transform="translate(2102.137 -10805.844)" fill="#112e4c"/>
    <path id="Trazado_736694" data-name="Trazado 736694" d="M7.438,12.656H3.328L2.547,15H.055L4.289,3.625H6.461L10.719,15H8.227Zm-3.477-1.9H6.8L5.375,6.5Zm14.906.094a5.07,5.07,0,0,1-.887,3.129,2.843,2.843,0,0,1-2.395,1.176,2.633,2.633,0,0,1-2.07-.891V18.25H11.258V6.547h2.094l.078.828a2.654,2.654,0,0,1,2.141-.984A2.862,2.862,0,0,1,18,7.547a5.207,5.207,0,0,1,.867,3.188Zm-2.258-.172a3.345,3.345,0,0,0-.418-1.826,1.36,1.36,0,0,0-1.215-.643,1.478,1.478,0,0,0-1.461.815V12.5a1.5,1.5,0,0,0,1.477.839Q16.609,13.336,16.609,10.679Zm11.266.172a5.07,5.07,0,0,1-.887,3.129,2.843,2.843,0,0,1-2.395,1.176,2.633,2.633,0,0,1-2.07-.891V18.25H20.266V6.547h2.094l.078.828a2.654,2.654,0,0,1,2.141-.984,2.862,2.862,0,0,1,2.43,1.156,5.207,5.207,0,0,1,.867,3.188Zm-2.258-.172A3.345,3.345,0,0,0,25.2,8.854a1.36,1.36,0,0,0-1.215-.643,1.478,1.478,0,0,0-1.461.815V12.5A1.5,1.5,0,0,0,24,13.336Q25.617,13.336,25.617,10.679ZM40.961,15h-7.8V13.453l3.68-3.922a9.078,9.078,0,0,0,1.121-1.445,2.322,2.322,0,0,0,.363-1.172,1.738,1.738,0,0,0-.383-1.191,1.382,1.382,0,0,0-1.094-.434,1.49,1.49,0,0,0-1.207.527A2.089,2.089,0,0,0,35.2,7.2H32.938a3.729,3.729,0,0,1,.5-1.9,3.5,3.5,0,0,1,1.4-1.348,4.262,4.262,0,0,1,2.055-.488,4.036,4.036,0,0,1,2.73.844A2.985,2.985,0,0,1,40.594,6.7a3.825,3.825,0,0,1-.437,1.719,9.551,9.551,0,0,1-1.5,2.039L36.07,13.18h4.891Z" transform="translate(2102.137 -10827.48)" fill="#112e4c"/>
    <path id="Trazado_736687" data-name="Trazado 736687" d="M8,0H61a8,8,0,0,1,8,8v9a8,8,0,0,1-8,8H8a8,8,0,0,1-8-8V8A8,8,0,0,1,8,0Z" transform="translate(1939 -10783.844)" fill="#455a64"/>
    <path id="Trazado_736685" data-name="Trazado 736685" d="M8,0H61a8,8,0,0,1,8,8v9a8,8,0,0,1-8,8H8a8,8,0,0,1-8-8V8A8,8,0,0,1,8,0Z" transform="translate(1939 -10755.844)" fill="#455a64"/>
    <path id="Trazado_736688" data-name="Trazado 736688" d="M8,0H61a8,8,0,0,1,8,8v9a8,8,0,0,1-8,8H8a8,8,0,0,1-8-8V8A8,8,0,0,1,8,0Z" transform="translate(2103 -10783.844)" fill="#455a64"/>
    <path id="Trazado_736689" data-name="Trazado 736689" d="M2.828,13.773H8.219V15H1.32V3.625H2.828ZM14.3,15H12.852V5.367L9.938,6.438V5.125L14.078,3.57H14.3Z" transform="translate(1947 -10780.844)" fill="#fff"/>
    <path id="Trazado_736686" data-name="Trazado 736686" d="M2.828,13.773H8.219V15H1.32V3.625H2.828ZM17.008,15H9.555V13.961l3.938-4.375A9.355,9.355,0,0,0,14.7,7.973a2.693,2.693,0,0,0,.332-1.285,2.041,2.041,0,0,0-.539-1.461,1.885,1.885,0,0,0-1.437-.57,2.232,2.232,0,0,0-1.676.613,2.343,2.343,0,0,0-.6,1.707H9.336a3.355,3.355,0,0,1,1.012-2.539,3.751,3.751,0,0,1,2.707-.969,3.6,3.6,0,0,1,2.508.832,2.838,2.838,0,0,1,.922,2.215q0,1.68-2.141,4L11.3,13.82h5.711Z" transform="translate(1947 -10752.844)" fill="#fff"/>
    <path id="Trazado_736690" data-name="Trazado 736690" d="M2.828,13.773H8.219V15H1.32V3.625H2.828ZM17.008,15H9.555V13.961l3.938-4.375A9.355,9.355,0,0,0,14.7,7.973a2.693,2.693,0,0,0,.332-1.285,2.041,2.041,0,0,0-.539-1.461,1.885,1.885,0,0,0-1.437-.57,2.232,2.232,0,0,0-1.676.613,2.343,2.343,0,0,0-.6,1.707H9.336a3.355,3.355,0,0,1,1.012-2.539,3.751,3.751,0,0,1,2.707-.969,3.6,3.6,0,0,1,2.508.832,2.838,2.838,0,0,1,.922,2.215q0,1.68-2.141,4L11.3,13.82h5.711Z" transform="translate(2111 -10780.844)" fill="#fff"/>
    <g id="flecha-hacia-abajo" transform="translate(1985.432 -10778.844)">
      <g id="Grupo_1013571" data-name="Grupo 1013571" transform="translate(0 8.803)">
        <g id="Grupo_1013570" data-name="Grupo 1013570">
          <path id="Trazado_726368" data-name="Trazado 726368" d="M13.275,313v3.909a.563.563,0,0,1-.563.563H1.688a.563.563,0,0,1-.563-.562V313H0v3.909A1.689,1.689,0,0,0,1.688,318.6H12.713a1.689,1.689,0,0,0,1.688-1.688V313Z" transform="translate(0 -313)" fill="#fff"/>
        </g>
      </g>
      <g id="Grupo_1013573" data-name="Grupo 1013573" transform="translate(3.705)">
        <g id="Grupo_1013572" data-name="Grupo 1013572">
          <path id="Trazado_726369" data-name="Trazado 726369" d="M137.912,6.63l-2.138,2.138V0h-1.125V8.767L132.512,6.63l-.8.8,3.5,3.5,3.5-3.5Z" transform="translate(-131.716)" fill="#fff"/>
        </g>
      </g>
    </g>
    <g id="flecha-hacia-abajo-2" data-name="flecha-hacia-abajo" transform="translate(1985.432 -10750.844)">
      <g id="Grupo_1013571-2" data-name="Grupo 1013571" transform="translate(0 8.803)">
        <g id="Grupo_1013570-2" data-name="Grupo 1013570">
          <path id="Trazado_726368-2" data-name="Trazado 726368" d="M13.275,313v3.909a.563.563,0,0,1-.563.563H1.688a.563.563,0,0,1-.563-.562V313H0v3.909A1.689,1.689,0,0,0,1.688,318.6H12.713a1.689,1.689,0,0,0,1.688-1.688V313Z" transform="translate(0 -313)" fill="#fff"/>
        </g>
      </g>
      <g id="Grupo_1013573-2" data-name="Grupo 1013573" transform="translate(3.705)">
        <g id="Grupo_1013572-2" data-name="Grupo 1013572">
          <path id="Trazado_726369-2" data-name="Trazado 726369" d="M137.912,6.63l-2.138,2.138V0h-1.125V8.767L132.512,6.63l-.8.8,3.5,3.5,3.5-3.5Z" transform="translate(-131.716)" fill="#fff"/>
        </g>
      </g>
    </g>
    <g id="flecha-hacia-abajo-3" data-name="flecha-hacia-abajo" transform="translate(2149.432 -10778.844)">
      <g id="Grupo_1013571-3" data-name="Grupo 1013571" transform="translate(0 8.803)">
        <g id="Grupo_1013570-3" data-name="Grupo 1013570">
          <path id="Trazado_726368-3" data-name="Trazado 726368" d="M13.275,313v3.909a.563.563,0,0,1-.563.563H1.688a.563.563,0,0,1-.563-.562V313H0v3.909A1.689,1.689,0,0,0,1.688,318.6H12.713a1.689,1.689,0,0,0,1.688-1.688V313Z" transform="translate(0 -313)" fill="#fff"/>
        </g>
      </g>
      <g id="Grupo_1013573-3" data-name="Grupo 1013573" transform="translate(3.705)">
        <g id="Grupo_1013572-3" data-name="Grupo 1013572">
          <path id="Trazado_726369-3" data-name="Trazado 726369" d="M137.912,6.63l-2.138,2.138V0h-1.125V8.767L132.512,6.63l-.8.8,3.5,3.5,3.5-3.5Z" transform="translate(-131.716)" fill="#fff"/>
        </g>
      </g>
    </g>
  </g>
</svg>
